<svg width="24" height="24" viewBox="0 0 24 24" fill="none" xmlns="http://www.w3.org/2000/svg">
<path d="M24 12.6649C24 11.6835 23.6907 10.7806 23.1655 10.0348C23.1753 9.97587 23.1802 9.91699 23.1802 9.8532C23.1802 4.44081 18.173 0 12.0466 0C5.92023 0 0.917979 4.44572 0.86398 9.85811C0.86398 9.89736 0.868889 9.94152 0.873798 9.98078C0.323993 10.7365 0 11.659 0 12.6649C0 12.7925 0.0834527 13.1605 0.103089 13.2243L2.60667 23.2296C2.70485 23.6909 3.11229 24 3.57374 24H20.5294C20.9908 24 21.3982 23.6958 21.5013 23.2345C21.4964 23.2345 24 12.6796 24 12.6649ZM12.0515 1.99714C16.5187 1.99714 20.2299 4.74504 21.0301 8.38111C20.5097 8.17992 19.9452 8.07197 19.3512 8.07197C17.8392 8.07197 16.5089 8.78839 15.6596 9.88755C14.8055 8.80801 13.4801 8.12104 11.9975 8.12104C10.5199 8.12104 9.19452 8.80801 8.34036 9.87773C7.4911 8.77367 6.14604 8.06706 4.64389 8.06706C4.09409 8.06706 3.56883 8.16029 3.07793 8.33694C3.90264 4.72541 7.5991 1.99714 12.0515 1.99714ZM9.98486 22.0078C9.98486 22.0078 9.30252 12.7287 9.2927 12.6649C9.2927 11.286 10.4659 10.1133 11.9485 10.1133C13.431 10.1133 14.6042 11.286 14.6042 12.7189C14.6042 12.8366 13.8237 22.0078 13.8237 22.0078H9.98486ZM2.04214 12.6649C2.04214 11.237 3.21538 10.0593 4.69789 10.0593C6.18041 10.0593 7.35365 11.2321 7.35365 12.6649C7.35365 12.6698 8.04091 22.0078 8.04091 22.0078H4.33954C4.33954 22.0078 2.04214 12.6796 2.04214 12.6649ZM19.7636 22.0078H15.7775C15.7775 22.0078 16.6463 12.7189 16.6463 12.6649C16.6463 11.237 17.8196 10.0593 19.3021 10.0593C20.7846 10.0593 21.9579 11.2321 21.9579 12.6649C21.9579 12.7679 19.7636 22.0078 19.7636 22.0078Z" fill="#1D1F20"/>
</svg>
