<svg width="24" height="24" viewBox="0 0 24 24" fill="none" xmlns="http://www.w3.org/2000/svg">
<path fill-rule="evenodd" clip-rule="evenodd" d="M0 3C0 2.44772 0.447715 2 1 2H3.47702C4.82662 2 6.0101 2.9012 6.369 4.20221L6.86494 6H20.8271C22.8299 6 24.2703 7.92506 23.7052 9.8465L22.313 14.5798C21.9886 15.6828 21.0623 16.5034 19.9281 16.6924L10.942 18.1901C9.4266 18.4427 7.96532 17.5097 7.55678 16.0287L4.44101 4.73407C4.32138 4.3004 3.92689 4 3.47702 4H1C0.447715 4 0 3.55228 0 3ZM7.41666 8L9.48477 15.4969C9.62095 15.9905 10.108 16.3015 10.6132 16.2173L19.5993 14.7197C19.9774 14.6566 20.2861 14.3831 20.3943 14.0154L21.7864 9.28217C21.9748 8.64169 21.4947 8 20.8271 8H7.41666ZM9 21C9 20.4477 9.44771 20 10 20H11C11.5523 20 12 20.4477 12 21C12 21.5523 11.5523 22 11 22H10C9.44771 22 9 21.5523 9 21ZM17 21C17 20.4477 17.4477 20 18 20H19C19.5523 20 20 20.4477 20 21C20 21.5523 19.5523 22 19 22H18C17.4477 22 17 21.5523 17 21Z" fill="#1D1F20"/>
</svg>
