<svg width="24" height="24" viewBox="0 0 24 24" fill="none" xmlns="http://www.w3.org/2000/svg">
<path fill-rule="evenodd" clip-rule="evenodd" d="M12 2C9.79086 2 8 3.79086 8 6V10H16V6C16 3.79086 14.2091 2 12 2ZM18 10V6C18 2.68629 15.3137 0 12 0C8.68629 0 6 2.68629 6 6V10C4.34315 10 3 11.3431 3 13V21C3 22.6569 4.34315 24 6 24H18C19.6569 24 21 22.6569 21 21V13C21 11.3431 19.6569 10 18 10ZM6 12C5.44772 12 5 12.4477 5 13V21C5 21.5523 5.44772 22 6 22H18C18.5523 22 19 21.5523 19 21V13C19 12.4477 18.5523 12 18 12H6ZM12 15C12.5523 15 13 15.4477 13 16V18C13 18.5523 12.5523 19 12 19C11.4477 19 11 18.5523 11 18V16C11 15.4477 11.4477 15 12 15Z" fill="#1D1F20"/>
</svg>
