<svg width="24" height="24" viewBox="0 0 24 24" fill="none" xmlns="http://www.w3.org/2000/svg">
<path fill-rule="evenodd" clip-rule="evenodd" d="M7.6832 3C7.31851 3 6.98274 3.19853 6.80699 3.51808L2.40698 11.5181C2.24194 11.8182 2.24194 12.1818 2.40698 12.4819L6.80698 20.4819C6.98274 20.8015 7.31851 21 7.6832 21H16.3181C16.6828 21 17.0185 20.8015 17.1943 20.4819L21.5943 12.4819C21.7593 12.1818 21.7593 11.8182 21.5943 11.5181L17.1943 3.51808C17.0185 3.19853 16.6828 3 16.3181 3H7.6832ZM5.05455 2.55424C5.58181 1.5956 6.58913 1 7.6832 1H16.3181C17.4122 1 18.4195 1.5956 18.9467 2.55424L23.3467 10.5542C23.8419 11.4545 23.8419 12.5455 23.3467 13.4458L18.9467 21.4458C18.4195 22.4044 17.4122 23 16.3181 23H7.6832C6.58913 23 5.58181 22.4044 5.05455 21.4458L0.654555 13.4458C0.159418 12.5455 0.15942 11.4545 0.654555 10.5542L5.05455 2.55424ZM12.0006 9C10.3438 9 9.00066 10.3431 9.00066 12C9.00066 13.6569 10.3438 15 12.0006 15C13.6575 15 15.0006 13.6569 15.0006 12C15.0006 10.3431 13.6575 9 12.0006 9ZM7.00066 12C7.00066 9.23858 9.23923 7 12.0006 7C14.7621 7 17.0006 9.23858 17.0006 12C17.0006 14.7614 14.7621 17 12.0006 17C9.23923 17 7.00066 14.7614 7.00066 12Z" fill="#1D1F20"/>
</svg>
