<svg width="16" height="16" viewBox="0 0 16 16" fill="none" xmlns="http://www.w3.org/2000/svg">
<path d="M12.9884 8.23213C11.9415 5.51213 8.21396 5.36546 9.11417 1.41212C9.18085 1.11879 8.86745 0.892125 8.61405 1.04546C6.1935 2.47212 4.45309 5.33212 5.91343 9.07879C6.03346 9.38546 5.67338 9.67212 5.41332 9.47213C4.20637 8.55879 4.07968 7.24546 4.18637 6.30546C4.22638 5.95879 3.77294 5.79212 3.57956 6.07879C3.12612 6.77212 2.66602 7.89212 2.66602 9.57879C2.91941 13.3121 6.07347 14.4588 7.20706 14.6055C8.82744 14.8121 10.5812 14.5121 11.8415 13.3588C13.2285 12.0721 13.7352 10.0188 12.9884 8.23213ZM6.8003 11.5855C7.76052 11.3521 8.25397 10.6588 8.38734 10.0455C8.60739 9.09212 7.74719 8.15879 8.32732 6.65212C8.54737 7.89879 10.5078 8.67879 10.5078 10.0388C10.5612 11.7255 8.73408 13.1721 6.8003 11.5855Z" fill="#D33836"/>
</svg>
