<svg width="16" height="16" viewBox="0 0 16 16" fill="none" xmlns="http://www.w3.org/2000/svg">
<path d="M14.4441 2.83496C12.701 1.09188 9.92604 0.938182 8.00111 2.47812L7.99951 2.47941L7.99791 2.47812C6.07296 0.938182 3.29798 1.09188 1.5549 2.83496C-0.209925 4.59978 -0.356207 7.4447 1.35658 9.31044C2.41599 10.4645 3.67385 11.7692 4.82469 12.7897C5.3989 13.2989 5.96148 13.7509 6.46978 14.0795C6.94418 14.3862 7.49024 14.6665 7.99951 14.6665C8.50878 14.6665 9.05484 14.3862 9.52924 14.0795C10.0375 13.7509 10.6001 13.2989 11.1743 12.7897C12.3252 11.7692 13.583 10.4645 14.6424 9.31044C16.3552 7.4447 16.2089 4.59978 14.4441 2.83496Z" fill="#1D1F20"/>
</svg>
