<svg width="24" height="24" viewBox="0 0 24 24" fill="none" xmlns="http://www.w3.org/2000/svg">
<path fill-rule="evenodd" clip-rule="evenodd" d="M20.252 5.6647C18.358 3.77068 15.3427 3.60368 13.2511 5.27695L11.9993 6.27841L10.7475 5.27695C8.65585 3.60368 5.64058 3.77068 3.74656 5.6647C1.81743 7.59383 1.70067 10.6422 3.5082 12.6112C5.08137 14.3249 6.91413 16.2231 8.56402 17.6863C9.39077 18.4194 10.1491 19.0231 10.7905 19.4377C11.4827 19.8851 11.8689 19.9978 11.9993 19.9978C12.1297 19.9978 12.5159 19.8851 13.2081 19.4377C13.8494 19.0231 14.6078 18.4194 15.4345 17.6863C17.0844 16.2231 18.9172 14.3249 20.4904 12.6112C22.2979 10.6422 22.1811 7.59383 20.252 5.6647ZM12.0017 3.71522C14.8891 1.40532 19.0516 1.63586 21.6662 4.25048C24.3134 6.89772 24.5329 11.1651 21.9637 13.9637C20.3746 15.6948 18.4878 17.6518 16.7615 19.1826C15.9002 19.9464 15.0563 20.6244 14.2939 21.1173C13.5823 21.5773 12.7632 21.9978 11.9993 21.9978C11.2354 21.9978 10.4163 21.5773 9.70468 21.1173C8.94223 20.6244 8.09835 19.9464 7.23704 19.1826C5.51078 17.6518 3.62399 15.6948 2.03487 13.9637C-0.53431 11.1651 -0.314887 6.89772 2.33235 4.25048C4.94698 1.63586 9.10945 1.40532 11.9969 3.71522L11.9993 3.71716L12.0017 3.71522Z" fill="#1D1F20"/>
</svg>
