<svg width="24" height="24" viewBox="0 0 24 24" fill="none" xmlns="http://www.w3.org/2000/svg">
<path d="M12.0004 2.39844C6.69879 2.39844 2.40039 6.69684 2.40039 11.9984C2.40039 13.7994 2.90626 15.4785 3.76914 16.9187L2.48633 21.5984L7.26602 20.3437C8.66387 21.1385 10.2776 21.5984 12.0004 21.5984C17.302 21.5984 21.6004 17.3 21.6004 11.9984C21.6004 6.69684 17.302 2.39844 12.0004 2.39844ZM8.71445 7.52031C8.87045 7.52031 9.03074 7.51936 9.16914 7.52656C9.34034 7.53056 9.52668 7.5431 9.70508 7.9375C9.91708 8.4063 10.3787 9.58236 10.4379 9.70156C10.4971 9.82076 10.539 9.96119 10.4566 10.1172C10.3782 10.2772 10.3375 10.374 10.2223 10.5156C10.1031 10.6532 9.97245 10.8241 9.86445 10.9281C9.74525 11.0473 9.62216 11.178 9.75976 11.4156C9.89736 11.6532 10.3752 12.4321 11.0816 13.0609C11.9896 13.8721 12.7557 14.1214 12.9941 14.2406C13.2325 14.3598 13.3706 14.3412 13.5082 14.1812C13.6498 14.0252 14.1029 13.49 14.2629 13.2516C14.4189 13.0132 14.5781 13.0544 14.7941 13.1328C15.0133 13.2112 16.1823 13.787 16.4207 13.9062C16.6591 14.0254 16.8154 14.0844 16.8754 14.1812C16.937 14.2812 16.9371 14.7573 16.7395 15.3125C16.5419 15.8669 15.5715 16.403 15.1363 16.4406C14.6971 16.4814 14.2872 16.638 12.2816 15.8484C9.86244 14.8956 8.33678 12.4178 8.21758 12.2578C8.09838 12.1018 7.24883 10.9696 7.24883 9.80156C7.24883 8.62956 7.86332 8.05559 8.07852 7.81719C8.29771 7.57879 8.55445 7.52031 8.71445 7.52031Z" fill="#1D1F20"/>
</svg>
