<svg width="24" height="24" viewBox="0 0 24 24" fill="none" xmlns="http://www.w3.org/2000/svg">
<path fill-rule="evenodd" clip-rule="evenodd" d="M12 1C12.5523 1 13 1.44772 13 2V4H16C17.1046 4 18 4.89543 18 6V7H20C21.6569 7 23 8.34315 23 10V12.7352C23 14.4916 22.0785 16.1191 20.5725 17.0227L18 18.5662V19C18 21.2091 16.2091 23 14 23H5C2.79086 23 1 21.2091 1 19V6C1 4.89543 1.89543 4 3 4H6V3C6 2.44772 6.44772 2 7 2C7.55228 2 8 2.44772 8 3V4H11V2C11 1.44772 11.4477 1 12 1ZM16 17.9836C15.9998 17.9951 15.9998 18.0067 16 18.0183V19C16 20.1046 15.1046 21 14 21H5C3.89543 21 3 20.1046 3 19V6H16V17.9836ZM18 16.2338L19.5435 15.3077C20.4471 14.7655 21 13.789 21 12.7352V10C21 9.44772 20.5523 9 20 9H18V16.2338Z" fill="#1D1F20"/>
</svg>
