<svg width="24" height="24" viewBox="0 0 24 24" fill="none" xmlns="http://www.w3.org/2000/svg">
<path fill-rule="evenodd" clip-rule="evenodd" d="M4.07235 3.5C4.1136 3.53636 4.17262 3.58236 4.25621 3.63725C4.58918 3.85593 5.13708 4.0913 5.90368 4.30425C7.42283 4.72623 9.57856 5 12 5C14.4214 5 16.5772 4.72623 18.0963 4.30425C18.8629 4.0913 19.4108 3.85593 19.7438 3.63725C19.8274 3.58236 19.8864 3.53636 19.9276 3.5C19.8864 3.46364 19.8274 3.41764 19.7438 3.36275C19.4108 3.14407 18.8629 2.9087 18.0963 2.69575C16.5772 2.27377 14.4214 2 12 2C9.57856 2 7.42283 2.27377 5.90368 2.69575C5.13708 2.9087 4.58918 3.14407 4.25621 3.36275C4.17262 3.41764 4.1136 3.46364 4.07235 3.5ZM20 5.7562C19.5863 5.93692 19.124 6.09452 18.6316 6.23129C16.8934 6.71412 14.5491 7 12 7C9.45088 7 7.10661 6.71412 5.3684 6.23129C4.87604 6.09452 4.41368 5.93692 4 5.7562V6.75736C4 7.28779 4.21071 7.7965 4.58579 8.17157L10.7071 14.2929C10.8946 14.4804 11 14.7348 11 15V21C11 21.5523 11.4477 22 12 22C12.5523 22 13 21.5523 13 21V15C13 14.7348 13.1054 14.4804 13.2929 14.2929L19.4142 8.17157C19.7893 7.7965 20 7.28779 20 6.75736V5.7562ZM22 3.5V6.75736C22 7.81822 21.5786 8.83564 20.8284 9.58579L15 15.4142V21C15 22.6569 13.6569 24 12 24C10.3431 24 9 22.6569 9 21V15.4142L3.17157 9.58579C2.42143 8.83564 2 7.81823 2 6.75736V3.5C2 2.634 2.62116 2.0438 3.15832 1.69103C3.7362 1.31151 4.50632 1.00818 5.3684 0.768715C7.10661 0.285878 9.45088 0 12 0C14.5491 0 16.8934 0.285878 18.6316 0.768715C19.4937 1.00818 20.2638 1.31151 20.8417 1.69103C21.3788 2.0438 22 2.634 22 3.5Z" fill="#D33836"/>
</svg>
