<svg width="16" height="16" viewBox="0 0 16 16" fill="none" xmlns="http://www.w3.org/2000/svg">
<path fill-rule="evenodd" clip-rule="evenodd" d="M13.5013 3.77777C12.2386 2.51509 10.2284 2.40376 8.83404 3.51927L7.99951 4.18691L7.16498 3.51927C5.77056 2.40376 3.76038 2.51509 2.4977 3.77777C1.21162 5.06386 1.13378 7.0961 2.3388 8.40877C3.38758 9.55124 4.60942 10.8167 5.70934 11.7922C6.26051 12.2809 6.76604 12.6834 7.19364 12.9598C7.65511 13.258 7.91258 13.3332 7.99951 13.3332C8.08644 13.3332 8.34391 13.258 8.80538 12.9598C9.23291 12.6834 9.73851 12.2809 10.2896 11.7922C11.3896 10.8167 12.6114 9.55124 13.6602 8.40877C14.8652 7.0961 14.7874 5.06386 13.5013 3.77777ZM8.00111 2.47812C9.92604 0.938182 12.701 1.09188 14.4441 2.83496C16.2089 4.59978 16.3552 7.4447 14.6424 9.31044C13.583 10.4645 12.3252 11.7692 11.1743 12.7897C10.6001 13.2989 10.0375 13.7509 9.52924 14.0795C9.05484 14.3862 8.50878 14.6665 7.99951 14.6665C7.49024 14.6665 6.94418 14.3862 6.46978 14.0795C5.96148 13.7509 5.3989 13.2989 4.82469 12.7897C3.67385 11.7692 2.41599 10.4645 1.35658 9.31044C-0.356207 7.4447 -0.209925 4.59978 1.5549 2.83496C3.29798 1.09188 6.07296 0.938182 7.99791 2.47812L7.99951 2.47941L8.00111 2.47812Z" fill="#293644"/>
</svg>
