<svg width="24" height="24" viewBox="0 0 24 24" fill="none" xmlns="http://www.w3.org/2000/svg">
<path d="M7.88068 2C4.6527 2 2 4.64915 2 7.88068V16.1193C2 19.3473 4.64915 22 7.88068 22H16.1193C19.3473 22 22 19.3509 22 16.1193V7.88068C22 4.6527 19.3509 2 16.1193 2H7.88068ZM7.88068 3.81818H16.1193C18.3672 3.81818 20.1818 5.63281 20.1818 7.88068V16.1193C20.1818 18.3672 18.3672 20.1818 16.1193 20.1818H7.88068C5.63281 20.1818 3.81818 18.3672 3.81818 16.1193V7.88068C3.81818 5.63281 5.63281 3.81818 7.88068 3.81818ZM17.3693 5.80682C16.9112 5.80682 16.5455 6.17259 16.5455 6.63068C16.5455 7.08878 16.9112 7.45455 17.3693 7.45455C17.8274 7.45455 18.1932 7.08878 18.1932 6.63068C18.1932 6.17259 17.8274 5.80682 17.3693 5.80682ZM12 6.54545C8.99929 6.54545 6.54546 8.99929 6.54546 12C6.54546 15.0007 8.99929 17.4545 12 17.4545C15.0007 17.4545 17.4545 15.0007 17.4545 12C17.4545 8.99929 15.0007 6.54545 12 6.54545ZM12 8.36364C14.0206 8.36364 15.6364 9.9794 15.6364 12C15.6364 14.0206 14.0206 15.6364 12 15.6364C9.9794 15.6364 8.36364 14.0206 8.36364 12C8.36364 9.9794 9.9794 8.36364 12 8.36364Z" fill="#1D1F20"/>
</svg>
