<svg width="24" height="24" viewBox="0 0 24 24" fill="none" xmlns="http://www.w3.org/2000/svg">
<path fill-rule="evenodd" clip-rule="evenodd" d="M22.8031 3.16821C22.7914 2.76077 22.5337 2.40118 22.1516 2.25931L22.1467 2.25758C22.1172 2.247 22.0436 2.22068 22 2.2057C21.9076 2.17392 21.7744 2.12949 21.6045 2.07626C21.2649 1.96985 20.7775 1.82796 20.1746 1.6817C18.9715 1.38981 17.2946 1.0771 15.4053 0.998896C11.6472 0.843341 6.88071 1.61488 3.44468 5.53791C0.602338 8.78311 0.174233 13.5517 2.93696 16.9023C2.0921 18.5105 1.42053 20.1958 1.03009 21.7575C0.896145 22.2933 1.2219 22.8363 1.7577 22.9702C2.29349 23.1042 2.83643 22.7784 2.97037 22.2426C3.28095 21.0003 3.80197 19.6391 4.46699 18.3027C6.22649 19.4621 8.6584 19.8825 10.8883 19.4164C13.6466 18.84 16.2039 16.8865 16.9787 13.2061C17.7888 9.35809 19.1697 7.06283 20.2935 5.74826C20.8576 5.08846 21.3639 4.66749 21.7141 4.41782C21.8894 4.29283 22.0261 4.21042 22.1119 4.16234C22.1548 4.1383 22.1851 4.12283 22.201 4.11492L22.2135 4.10888C22.5817 3.94339 22.8146 3.57238 22.8031 3.16821ZM15.3226 2.99718C11.8532 2.85358 7.81642 3.58203 4.94919 6.85565C2.83928 9.26461 2.47639 12.551 4.03405 15.0114C5.298 13.0327 6.83679 11.2405 8.44553 10.168C8.90506 9.86168 9.52593 9.98585 9.83228 10.4454C10.1386 10.9049 10.0144 11.5258 9.55493 11.8321C8.22003 12.722 6.81019 14.3409 5.59823 16.2801C5.54383 16.3671 5.48994 16.4546 5.43659 16.5425C6.68987 17.4292 8.62132 17.847 10.4791 17.4587C12.5481 17.0263 14.428 15.6137 15.0216 12.7941C15.8957 8.64218 17.4165 6.03576 18.7733 4.44865C19.0531 4.12137 19.3248 3.83879 19.5807 3.59598C18.4781 3.33479 16.9847 3.06598 15.3226 2.99718Z" fill="#1D1F20"/>
</svg>
