<svg width="16" height="16" viewBox="0 0 16 16" fill="none" xmlns="http://www.w3.org/2000/svg">
<path d="M14.333 10.0013H13.9997V7.74922C13.9997 7.48463 13.8934 7.23047 13.7059 7.04297L11.6247 4.96172C11.4372 4.77422 11.183 4.66797 10.9184 4.66797H9.99967V3.66797C9.99967 3.11589 9.55176 2.66797 8.99968 2.66797H2.33301C1.78092 2.66797 1.33301 3.11589 1.33301 3.66797V10.3346C1.33301 10.8867 1.78092 11.3346 2.33301 11.3346H2.66634C2.66634 12.4388 3.56217 13.3346 4.66634 13.3346C5.77051 13.3346 6.66634 12.4388 6.66634 11.3346H9.33301C9.33301 12.4388 10.2288 13.3346 11.333 13.3346C12.4372 13.3346 13.333 12.4388 13.333 11.3346H14.333C14.5163 11.3346 14.6663 11.1846 14.6663 11.0013V10.3346C14.6663 10.1513 14.5163 10.0013 14.333 10.0013ZM4.66634 12.3346C4.11426 12.3346 3.66634 11.8867 3.66634 11.3346C3.66634 10.7826 4.11426 10.3346 4.66634 10.3346C5.21842 10.3346 5.66634 10.7826 5.66634 11.3346C5.66634 11.8867 5.21842 12.3346 4.66634 12.3346ZM11.333 12.3346C10.7809 12.3346 10.333 11.8867 10.333 11.3346C10.333 10.7826 10.7809 10.3346 11.333 10.3346C11.8851 10.3346 12.333 10.7826 12.333 11.3346C12.333 11.8867 11.8851 12.3346 11.333 12.3346ZM12.9997 8.0013H9.99967V5.66797H10.9184L12.9997 7.74922V8.0013Z" fill="#979797"/>
</svg>
