<svg width="24" height="24" viewBox="0 0 24 24" fill="none" xmlns="http://www.w3.org/2000/svg">
<path fill-rule="evenodd" clip-rule="evenodd" d="M10.5544 0.652595C11.4546 0.157468 12.5456 0.157468 13.4458 0.652596L21.4459 5.05261C21.7303 5.20902 21.9831 5.40794 22.1978 5.63896C22.7056 6.18546 23.0002 6.91182 23.0002 7.68126V16.3162C23.0002 17.4103 22.4046 18.4176 21.4459 18.9449L13.4458 23.3449C12.5456 23.84 11.4546 23.84 10.5544 23.3449L2.55426 18.9449C1.5956 18.4176 1 17.4103 1 16.3162V7.68127C1 6.91175 1.29468 6.18534 1.80257 5.63883C2.01721 5.40786 2.26993 5.20899 2.55426 5.05261L10.5544 0.652595ZM12.482 2.40503C12.1819 2.23999 11.8183 2.23999 11.5182 2.40503L4.44144 6.29721L12.0001 10.8326L19.5589 6.29727L12.482 2.40503ZM21.0002 7.76485L13.0001 12.5649V21.3075L20.4821 17.1924C20.8017 17.0167 21.0002 16.6809 21.0002 16.3162V7.76485ZM11.0001 21.3075V12.5649L3 7.76472V16.3162C3 16.6809 3.19853 17.0167 3.51808 17.1924L11.0001 21.3075Z" fill="#1D1F20"/>
</svg>
