<svg width="24" height="24" viewBox="0 0 24 24" fill="none" xmlns="http://www.w3.org/2000/svg">
<path d="M19.6799 1.92188H4.31992C2.99512 1.92188 1.91992 2.99707 1.91992 4.32187V19.6819C1.91992 21.0067 2.99512 22.0819 4.31992 22.0819H19.6799C21.0047 22.0819 22.0799 21.0067 22.0799 19.6819V4.32187C22.0799 2.99707 21.0047 1.92188 19.6799 1.92188ZM17.7599 9.12187H16.7999C15.7727 9.12187 15.3599 9.36187 15.3599 10.0819V11.5219H17.7599L17.2799 13.9219H15.3599V21.1219H12.9599V13.9219H11.0399V11.5219H12.9599V10.0819C12.9599 8.16187 13.9199 6.72187 15.8399 6.72187C17.2319 6.72187 17.7599 7.20187 17.7599 7.20187V9.12187Z" fill="#1D1F20"/>
</svg>
