<svg width="24" height="24" viewBox="0 0 24 24" fill="none" xmlns="http://www.w3.org/2000/svg">
<path d="M10.8 17.4H13V10.8H10.8V17.4ZM11.9 6.39999C11.35 6.39999 10.8 6.94999 10.8 7.49999C10.8 8.04998 11.35 8.59998 11.9 8.59998C12.45 8.59998 13 8.04998 13 7.49999C13 6.94999 12.45 6.39999 11.9 6.39999ZM11.9 2C6.39999 2 2 6.39999 2 11.9C2 17.4 6.39999 21.7999 11.9 21.7999C17.4 21.7999 21.7999 17.4 21.7999 11.9C21.7999 6.39999 17.4 2 11.9 2ZM11.9 19.6C7.60999 19.6 4.19999 16.19 4.19999 11.9C4.19999 7.60999 7.60999 4.19999 11.9 4.19999C16.19 4.19999 19.6 7.60999 19.6 11.9C19.6 16.19 16.19 19.6 11.9 19.6Z" fill="#1D1F20"/>
</svg>
