<svg width="24" height="24" viewBox="0 0 24 24" fill="none" xmlns="http://www.w3.org/2000/svg">
<path fill-rule="evenodd" clip-rule="evenodd" d="M3.83839 2.72839C3.97886 1.18316 5.27446 0 6.82607 0H17.1732C18.7248 0 20.0204 1.18316 20.1608 2.72839L21.7972 20.7284C21.9569 22.4852 20.5736 24 18.8095 24H5.1897C3.42561 24 2.04231 22.4852 2.20202 20.7284L3.83839 2.72839ZM6.82607 2C6.30886 2 5.877 2.39439 5.83017 2.90946L4.45831 18H19.5409L18.1691 2.90947C18.1222 2.39439 17.6904 2 17.1732 2H6.82607ZM19.7227 20H4.27649L4.19381 20.9095C4.14057 21.4951 4.60167 22 5.1897 22H18.8095C19.3976 22 19.8587 21.4951 19.8054 20.9095L19.7227 20ZM8.99964 4C9.55192 4 9.99964 4.44772 9.99964 5V6C9.99964 7.10457 10.895 8 11.9996 8C13.1042 8 13.9996 7.10457 13.9996 6V5C13.9996 4.44772 14.4473 4 14.9996 4C15.5519 4 15.9996 4.44772 15.9996 5V6C15.9996 8.20914 14.2087 10 11.9996 10C9.7905 10 7.99964 8.20914 7.99964 6V5C7.99964 4.44772 8.44735 4 8.99964 4Z" fill="#1D1F20"/>
</svg>
