<svg width="24" height="24" viewBox="0 0 24 24" fill="none" xmlns="http://www.w3.org/2000/svg">
<path d="M22.8817 17.6016C21.9832 15.9846 19.6687 14.0416 18.7132 13.1961C18.4517 12.9646 18.4237 12.5641 18.6617 12.3081C20.4852 10.3486 21.9437 8.09709 22.4457 6.73659C22.6672 6.13559 22.2087 5.50059 21.5627 5.50059H19.6862C19.0677 5.50059 18.7057 5.72259 18.5332 6.07609C17.0177 9.18159 15.7177 10.5256 14.8077 11.3111C14.2982 11.7511 13.5037 11.3866 13.5037 10.7171C13.5037 9.42709 13.5037 7.75959 13.5037 6.57709C13.5037 6.00359 13.0347 5.53959 12.4562 5.53959L9.02819 5.50059C8.59669 5.50059 8.35019 5.98909 8.60919 6.33159L9.17519 7.14409C9.38819 7.42559 9.50319 7.76809 9.50319 8.11959L9.50019 11.7786C9.50019 12.4151 8.72869 12.7261 8.27069 12.2801C6.72119 10.7711 5.37669 7.68959 4.89269 6.21609C4.75269 5.78959 4.35319 5.50159 3.90019 5.50059L2.05169 5.49609C1.35819 5.49609 0.851188 6.15359 1.03969 6.81559C2.72869 12.7441 6.19419 18.3841 12.3702 18.9956C12.9787 19.0556 13.5037 18.5656 13.5037 17.9591V16.0361C13.5037 15.4846 13.9362 15.0106 14.4922 14.9966C14.5117 14.9961 14.5312 14.9961 14.5507 14.9961C16.1842 14.9961 18.0137 17.3736 18.6537 18.4856C18.8377 18.8056 19.1817 19.0006 19.5537 19.0006H22.0402C22.7657 19.0006 23.2312 18.2311 22.8817 17.6016Z" fill="#1D1F20"/>
</svg>
