<svg width="223" height="74" viewBox="0 0 223 74" fill="none" xmlns="http://www.w3.org/2000/svg">
<g clip-path="url(#clip0_3437_18030)">
<path fill-rule="evenodd" clip-rule="evenodd" d="M177.877 21.9062C177.877 21.9062 175.401 21.6074 172.477 21.6074C169.627 21.6074 167.227 21.9062 167.227 21.9062V31.2449H177.877V21.9062Z" fill="#E4003E"/>
<path fill-rule="evenodd" clip-rule="evenodd" d="M177.877 43.9456H167.227V53.4337C167.227 53.4337 170.227 53.7324 172.626 53.7324C175.027 53.7324 177.877 53.3589 177.877 53.3589V43.9456Z" fill="#E4003E"/>
<path fill-rule="evenodd" clip-rule="evenodd" d="M160.849 21.9067H147.724L138.575 33.3372H134.3V21.9067H122.975V53.5087H134.3V41.6299H138.424L147.65 53.5087H161.675L147.95 36.6991L160.849 21.9067Z" fill="#242265"/>
<path fill-rule="evenodd" clip-rule="evenodd" d="M80.5248 21.9067H44.75V53.5087H56.225V30.8718H69.0498V53.5087H80.5248V21.9067Z" fill="#242265"/>
<path fill-rule="evenodd" clip-rule="evenodd" d="M86.0738 30.2741L84.4238 21.9067C84.4238 21.9067 95.1487 21.0849 101.824 21.0849C108.499 21.0849 116.524 21.9067 116.524 21.9067C116.524 21.9067 118.999 28.3317 118.999 37.3716C118.999 46.4113 116.449 53.5088 116.449 53.5088C116.449 53.5088 108.799 54.3305 101.749 54.3305C94.6987 54.3305 84.4238 53.5088 84.4238 53.5088L86.0738 45.1413C86.0738 45.1413 93.2738 45.6643 99.4237 45.6643C105.574 45.6643 107.974 45.1413 107.974 45.1413C107.974 45.1413 108.274 43.5724 108.424 41.7793H93.7237V33.7108H108.499C108.349 31.619 108.049 30.3489 108.049 30.3489C108.049 30.3489 103.024 29.8259 98.7487 29.8259C94.3988 29.7512 86.0738 30.2741 86.0738 30.2741Z" fill="#242265"/>
</g>
<defs>
<clipPath id="clip0_3437_18030">
<rect width="133.125" height="34.0208" fill="white" transform="translate(44.75 20.7084)"/>
</clipPath>
</defs>
</svg>
