<svg width="223" height="74" viewBox="0 0 223 74" fill="none" xmlns="http://www.w3.org/2000/svg">
<g clip-path="url(#clip0_3437_17921)">
<path fill-rule="evenodd" clip-rule="evenodd" d="M72.0962 45.2324H66.6746C58.2171 45.2324 64.3615 26.5474 71.4817 26.5474H80.0478C81.4212 26.5474 83.8428 26.8106 85.0356 23.2766L86.8789 17.7877H75.1322C68.771 17.7877 63.8193 20.1186 60.2411 24.0285C54.0606 30.7205 51.9642 41.1721 53.4461 46.1723C54.8557 50.7965 58.6869 53.8418 64.6867 53.917L69.3493 53.9545H75.0961L76.5057 49.5559C77.5539 46.4355 75.2045 45.2324 72.0962 45.2324ZM138.094 37.4877L139.865 31.51H120.962C117.818 31.51 116.408 32.4123 115.866 34.292L114.095 40.2698H132.998C136.143 40.2698 137.552 39.3675 138.094 37.4877ZM111.276 48.0145L109.505 53.9921H128.408C131.516 53.9921 132.962 53.0898 133.504 51.2101L135.275 45.2324H116.372C113.264 45.2324 111.854 46.1347 111.276 48.0145ZM142.504 23.8029L144.275 17.8253H125.372C122.227 17.8253 120.818 18.7275 120.276 20.6073L118.505 26.585H137.408C140.516 26.585 141.925 25.6827 142.504 23.8029ZM113.95 25.006C113.155 19.4419 110.3 17.8253 103.36 17.8253H90.7102L83.3369 40.2698H87.9993C90.7824 40.2698 92.192 40.3074 93.6739 36.1719L96.7461 26.5474H101.445C105.457 26.5474 104.553 31.7732 102.529 36.8486C100.722 41.3224 97.5774 45.27 93.7823 45.27H85.9392C82.7947 45.27 81.349 46.1723 80.7706 48.0521L78.8189 54.0297H84.5657L90.2041 53.9921C95.1919 53.9545 99.2761 53.5786 104.047 49.1047C109.107 44.3301 114.962 32.0739 113.95 25.006ZM177.491 17.7877H166.54L156.239 29.1791C155.045 30.4949 153.817 31.8107 152.624 33.3522H152.515L157.648 17.7877H148.721L136.685 53.9921H145.612L149.443 42.6007L153.419 39.1043L156.564 49.4055C157.539 52.6011 158.552 53.9921 160.721 53.9921H167.552L160.539 33.7658L177.491 17.7877Z" fill="#00B33C"/>
</g>
<defs>
<clipPath id="clip0_3437_17921">
<rect width="125.729" height="36.9792" fill="white" transform="translate(52.3965 17.75)"/>
</clipPath>
</defs>
</svg>
