<svg width="48" height="48" viewBox="0 0 48 48" fill="none" xmlns="http://www.w3.org/2000/svg">
<path d="M24 4C18.6957 4 13.6086 6.10714 9.85786 9.85786C6.10714 13.6086 4 18.6957 4 24C4 29.3043 6.10714 34.3914 9.85786 38.1421C13.6086 41.8929 18.6957 44 24 44C29.3043 44 34.3914 41.8929 38.1421 38.1421C41.8929 34.3914 44 29.3043 44 24C44 18.6957 41.8929 13.6086 38.1421 9.85786C34.3914 6.10714 29.3043 4 24 4ZM6.46667 25.5111H12.0444C12.1333 27.5333 12.4156 29.5422 12.8889 31.5111H8.08889C7.19379 29.6242 6.64435 27.592 6.46667 25.5111ZM25.5111 13.5111V6.64444C27.6526 7.45828 29.4123 9.04361 30.4444 11.0889C30.9 11.86 31.3022 12.6622 31.6444 13.4889L25.5111 13.5111ZM32.6667 16.5111C33.1822 18.4733 33.4889 20.4844 33.5778 22.5111H25.5111V16.5111H32.6667ZM22.4889 6.64444V13.5111H16.3556C16.6984 12.6838 17.0994 11.8818 17.5556 11.1111C18.5833 9.05745 20.3435 7.46369 22.4889 6.64444ZM22.4889 16.5111V22.5111H14.4444C14.5333 20.4844 14.84 18.4733 15.3556 16.5111H22.4889ZM12.0444 22.4889H6.46667C6.64435 20.408 7.19379 18.3758 8.08889 16.4889H12.8889C12.4146 18.457 12.1319 20.4663 12.0444 22.4889ZM14.4444 25.5111H22.4889V31.5111H15.3556C14.8401 29.5491 14.5347 27.5378 14.4444 25.5111ZM22.5111 34.4V41.2667C20.3696 40.4528 18.6099 38.8675 17.5778 36.8222C17.1216 36.0516 16.7206 35.2496 16.3778 34.4222L22.5111 34.4ZM25.5111 41.2667V34.5111H31.6444C31.3016 35.3385 30.9006 36.1405 30.4444 36.9111C29.4123 38.9564 27.6526 40.5417 25.5111 41.3556V41.2667ZM25.5111 31.4V25.4H33.5556C33.4653 27.4266 33.1599 29.4379 32.6444 31.4H25.5111ZM35.9778 25.4H41.5556C41.3779 27.4809 40.8284 29.5131 39.9333 31.4H35.1111C35.5778 29.4667 35.86 27.4956 35.9556 25.5111L35.9778 25.4ZM35.9778 22.4C35.876 20.414 35.5858 18.4422 35.1111 16.5111H39.9111C40.8067 18.4 41.3556 20.4311 41.5333 22.5111L35.9778 22.4ZM38.2 13.5111H34.2222C33.5025 11.4896 32.4593 9.59828 31.1333 7.91111C33.8986 9.1524 36.3006 11.0801 38.1111 13.5111H38.2ZM16.8667 7.91111C15.5407 9.59828 14.4975 11.4896 13.7778 13.5111H9.88889C11.6994 11.0801 14.1014 9.1524 16.8667 7.91111ZM9.86667 34.5778H13.7778C14.4975 36.5993 15.5407 38.4906 16.8667 40.1778C14.0937 38.9178 11.691 36.9665 9.88889 34.5111L9.86667 34.5778ZM31.1111 40.1778C32.4371 38.4906 33.4803 36.5993 34.2 34.5778H38.1111C36.2896 36.9762 33.8885 38.8726 31.1333 40.0889L31.1111 40.1778Z" fill="white"/>
</svg>
