<svg width="32" height="33" viewBox="0 0 32 33" fill="none" xmlns="http://www.w3.org/2000/svg">
<path d="M28.1098 12.2608C22.4885 6.19777 11.1623 1.30445 2.83768 3.05894C2.28868 3.16636 2.06788 3.60795 2.10966 4.04357C-3.07605 6.89005 2.65866 16.7543 4.84871 19.6365C9.15721 25.3713 16.8254 31.7624 24.5354 30.008C28.1158 29.2024 30.7056 25.8427 31.6963 22.483C32.8241 18.6877 30.6281 14.964 28.1098 12.2608ZM23.4731 28.2595C17.3744 29.6499 10.9116 23.7302 7.25956 19.6067C3.60748 15.4056 0.796819 10.3333 3.02267 5.10578C8.02339 14.1644 18.1442 21.1761 27.7816 24.315C28.9513 24.679 29.4644 22.8529 28.2949 22.4532C19.0214 19.3143 9.92701 13.0306 4.41309 4.81337C11.0608 4.00777 18.6574 7.55244 23.8789 11.2046C26.8745 13.323 29.7569 16.4261 30.0135 20.2632C30.1925 24.0226 26.9402 27.4539 23.4731 28.2595Z" fill="#D33836"/>
</svg>
