<svg width="16" height="16" viewBox="0 0 16 16" fill="none" xmlns="http://www.w3.org/2000/svg">
<path d="M10.0463 7.4987L9.44634 8.11203C8.96634 8.59203 8.66634 8.9987 8.66634 9.9987H7.33301V9.66536C7.33301 8.92536 7.63301 8.2587 8.11301 7.7787L8.93967 6.9387C9.18634 6.6987 9.33301 6.36536 9.33301 5.9987C9.33301 5.64508 9.19253 5.30594 8.94248 5.05589C8.69243 4.80584 8.3533 4.66536 7.99967 4.66536C7.64605 4.66536 7.30691 4.80584 7.05687 5.05589C6.80682 5.30594 6.66634 5.64508 6.66634 5.9987H5.33301C5.33301 5.29145 5.61396 4.61318 6.11406 4.11308C6.61415 3.61298 7.29243 3.33203 7.99967 3.33203C8.70692 3.33203 9.38519 3.61298 9.88529 4.11308C10.3854 4.61318 10.6663 5.29145 10.6663 5.9987C10.6654 6.56086 10.4426 7.09992 10.0463 7.4987ZM8.66634 12.6654H7.33301V11.332H8.66634M7.99967 1.33203C7.1242 1.33203 6.25729 1.50447 5.44845 1.8395C4.63961 2.17453 3.90469 2.6656 3.28563 3.28465C2.03539 4.5349 1.33301 6.23059 1.33301 7.9987C1.33301 9.76681 2.03539 11.4625 3.28563 12.7127C3.90469 13.3318 4.63961 13.8229 5.44845 14.1579C6.25729 14.4929 7.1242 14.6654 7.99967 14.6654C9.76778 14.6654 11.4635 13.963 12.7137 12.7127C13.964 11.4625 14.6663 9.76681 14.6663 7.9987C14.6663 4.31203 11.6663 1.33203 7.99967 1.33203Z" fill="#4F4F4F"/>
</svg>
