<svg width="16" height="16" viewBox="0 0 16 16" fill="none" xmlns="http://www.w3.org/2000/svg">
<g clip-path="url(#clip0_698_31443)">
<path d="M13.25 3.33203H3.25C2.55625 3.33203 2.00625 3.88828 2.00625 4.58204L2 12.0821C2 12.7758 2.55625 13.3321 3.25 13.3321H13.25C13.9438 13.3321 14.5 12.7758 14.5 12.0821V4.58204C14.5 3.88828 13.9438 3.33203 13.25 3.33203ZM6.06251 10.2071H5.31251L3.71876 8.01955V10.2071H2.9375V6.45704H3.71876L5.28126 8.64455V6.45704H6.06251V10.2071ZM9.18752 7.24454H7.62502V7.94455H9.18752V8.73205H7.62502V9.4258H9.18752V10.2071H6.68752V6.45704H9.18752V7.24454ZM13.5625 9.58205C13.5625 9.9258 13.2813 10.2071 12.9375 10.2071H10.4375C10.0938 10.2071 9.81253 9.9258 9.81253 9.58205V6.45704H10.5938V9.2758H11.3V7.07579H12.0813V9.26955H12.7813V6.45704H13.5625V9.58205Z" fill="#0AA250"/>
</g>
<defs>
<clipPath id="clip0_698_31443">
<rect width="16" height="16" fill="white"/>
</clipPath>
</defs>
</svg>
