<svg width="223" height="74" viewBox="0 0 223 74" fill="none" xmlns="http://www.w3.org/2000/svg">
<g clip-path="url(#clip0_3437_17924)">
<path d="M23.1372 43.3829L35.599 45.8006L36.5672 44.1121L25.49 39.2759L23.1372 43.3829ZM28.9103 33.3057L38.6036 40.5626L39.5718 38.8733L31.2639 29.1979L28.9111 33.3057H28.9103ZM26.0147 38.3629L37.0919 43.2006L38.0789 41.4749L28.3856 34.2187L26.0147 38.3629ZM34.4316 23.6667L31.8157 28.2393L40.1243 37.9163L41.3556 35.7712L34.4316 23.6667ZM19.9785 48.905H33.825L35.0555 46.76L22.5945 44.3422L19.9785 48.905ZM41.9517 43.2553L45.1915 48.905H48.8749L41.9517 36.8111L35.0285 48.905H38.7118L41.9517 43.2553Z" fill="#FCAF17"/>
<path d="M71.4172 48.8868H76.6942L77.9067 46.7235H71.4179L71.4172 48.8868ZM71.4172 42.8801V45.0433H78.8666L80.1062 42.8801H71.4172ZM183.259 45.4451V39.0556H180.924V48.8868H182.879L188.499 42.4517V48.8868H190.833V39.0556H188.771L183.259 45.4451ZM85.1471 39.0556L79.5544 48.8868H82.3057L85.989 42.3962L89.6995 48.8868H92.5958L87.0031 39.0556H85.1471ZM68.3419 46.7227L62.7492 36.8832H60.8399L55.2464 46.7227H53.8438V51.7709H56.0696V48.886H67.5181V51.7709H69.7446V46.7227H68.3419ZM58.0338 46.7227L61.7171 40.2238L65.4276 46.7227H58.0338ZM144.669 39.0556H133.8V41.2189H143.419L144.669 39.0556ZM82.2778 39.0556H71.4179V41.2189H81.0383L82.2778 39.0556ZM201.331 39.0556L195.82 45.4451V39.0556H193.485V48.8868H195.448L201.06 42.4517V48.8868H203.394V39.0556H201.331ZM175.937 42.8801H170.824V39.0556H168.488V48.8868H170.824V45.0433H175.937V48.8868H178.272V39.0556H175.937V42.8801ZM147.529 39.0556L141.936 48.8868H144.697L148.38 42.3962L152.09 48.8868H154.978L149.384 39.0556H147.529ZM124.451 42.58H120.904V39.0473H118.569V48.8868H124.433C126.017 48.8868 127.664 48.0019 127.664 45.6829C127.655 42.6347 125.537 42.58 124.451 42.58ZM124.316 46.8063H120.895V44.6157H124.316C124.713 44.6157 125.32 44.7251 125.32 45.711C125.32 46.6232 124.822 46.8063 124.316 46.8063ZM131.158 39.0556H128.85V48.8959H131.158V39.0556ZM98.4786 38.8179C94.5773 38.8179 92.7318 41.228 92.7318 43.9207C92.7318 46.7319 94.5322 49.0227 98.4786 49.0227C100.198 49.0227 104.18 48.2199 104.18 43.9207C104.18 41.1095 102.397 38.8179 98.4786 38.8179ZM98.4516 46.8595C96.198 46.8595 95.2478 45.5545 95.2478 43.948C95.2478 42.1858 96.3333 41.0085 98.4516 41.0085C100.841 41.0085 101.655 42.1858 101.655 43.948C101.655 46.0566 100.09 46.8595 98.4516 46.8595ZM133.8 48.8868H139.076L140.298 46.7235H133.8V48.8868ZM133.8 42.8801V45.0433H141.248L142.496 42.8801H133.8ZM158.263 45.3904V39.0556H155.928V48.8868H157.892L163.512 42.5064V48.8868H165.847V39.0556H163.883L158.263 45.3904ZM114.37 43.0905C114.985 42.8254 115.51 42.397 115.51 41.3283C115.51 39.2926 113.817 39.0556 112.623 39.0556H106.315V48.8959H112.732C115.672 48.8959 116.279 47.262 116.279 45.7649C116.288 44.0764 115.338 43.3821 114.37 43.0905ZM108.623 41.1368H112.36C112.921 41.1368 113.156 41.4293 113.156 41.9952C113.156 42.5793 112.786 42.8801 112.36 42.8801H108.623V41.1368ZM112.732 46.8055H108.623V44.697H112.732C113.392 44.697 113.872 44.861 113.872 45.7376C113.872 46.4311 113.582 46.8055 112.732 46.8055Z" fill="black"/>
</g>
<defs>
<clipPath id="clip0_3437_17924">
<rect width="183.417" height="28.1042" fill="white" transform="translate(19.9785 23.6667)"/>
</clipPath>
</defs>
</svg>
