<svg width="223" height="74" viewBox="0 0 223 74" fill="none" xmlns="http://www.w3.org/2000/svg">
<g clip-path="url(#clip0_3437_17928)">
<path fill-rule="evenodd" clip-rule="evenodd" d="M127.886 50.3566C125.705 50.947 122.865 51.193 120.431 51.193C114.091 51.193 109.932 47.995 109.932 42.1402C109.932 36.5807 113.837 32.9891 119.518 32.9891C120.786 32.9891 122.155 33.1367 122.967 33.5303V25.4615H127.886V50.3566ZM122.967 37.6631C122.206 37.3187 121.141 37.1219 119.923 37.1219C116.931 37.1219 114.953 38.8931 114.953 41.9926C114.953 45.289 117.083 47.1586 120.583 47.1586C121.191 47.1586 122.155 47.1586 122.967 46.9618V37.6631ZM168.311 50.3566C166.13 50.947 163.289 51.193 160.804 51.193C154.515 51.193 150.305 47.995 150.305 42.1402C150.305 36.5807 154.21 32.9891 159.891 32.9891C161.21 32.9891 162.529 33.1367 163.34 33.5303V25.4615H168.311V50.3566ZM163.34 37.6631C162.579 37.3187 161.565 37.1219 160.348 37.1219C157.304 37.1219 155.326 38.8931 155.326 41.9926C155.326 45.289 157.507 47.1586 161.007 47.1586C161.616 47.1586 162.529 47.1586 163.34 46.9618V37.6631ZM135.647 37.6631C136.458 37.3187 137.625 37.2203 138.589 37.2203C141.632 37.2203 143.711 38.8931 143.711 41.8942C143.711 45.4366 141.378 47.0602 138.284 47.1094V51.193H138.538C144.929 51.193 148.733 47.7982 148.733 41.7467C148.733 36.2363 144.675 32.9891 138.69 32.9891C135.647 32.9891 132.654 33.6779 130.676 34.4651V57.8349H135.647V37.6631Z" fill="#3F3F42"/>
<path fill-rule="evenodd" clip-rule="evenodd" d="M91.7754 21.6241L92.5869 22.5097L93.0433 22.2637L91.7754 21.6241Z" fill="#DC0032"/>
<path fill-rule="evenodd" clip-rule="evenodd" d="M90.5566 20.9844L92.1289 22.7556L92.6868 22.4604L92.0782 21.7716L90.5566 20.9844Z" fill="#DC0032"/>
<path fill-rule="evenodd" clip-rule="evenodd" d="M89.2871 20.3449L91.671 23.0017L92.2288 22.7065L90.8594 21.1321L89.2871 20.3449Z" fill="#DC0032"/>
<path fill-rule="evenodd" clip-rule="evenodd" d="M88.0703 19.7053L91.215 23.2477L91.7729 22.9525L89.5919 20.4925L88.0703 19.7053ZM94.106 25.9536L93.751 26.1504L94.106 26.544V25.9536Z" fill="#DC0032"/>
<path fill-rule="evenodd" clip-rule="evenodd" d="M86.8555 19.0657L90.761 23.4937L91.3189 23.1985L88.3771 19.8529L86.8555 19.0657ZM93.9056 26.052L93.3476 26.3964L94.1084 27.282V26.3472L93.9056 26.052Z" fill="#DC0032"/>
<path fill-rule="evenodd" clip-rule="evenodd" d="M85.5859 18.426L90.303 23.7396L90.9116 23.4444L87.1583 19.2132L85.5859 18.426ZM93.4476 26.2979L92.8896 26.6423L94.1069 28.0199V27.0851L93.4476 26.2979Z" fill="#DC0032"/>
<path fill-rule="evenodd" clip-rule="evenodd" d="M84.3672 17.7865L89.8957 23.9857L90.4537 23.6905L85.8888 18.5737L84.3672 17.7865ZM92.9896 26.5932L92.4317 26.8884L94.1055 28.8072V27.8724L92.9896 26.5932Z" fill="#DC0032"/>
<path fill-rule="evenodd" clip-rule="evenodd" d="M83.1504 17.147L89.4397 24.2317L89.9977 23.9365L84.672 17.9342L83.1504 17.147ZM92.5336 26.8393L91.9757 27.1345L94.106 29.5453V28.6105L92.5336 26.8393Z" fill="#DC0032"/>
<path fill-rule="evenodd" clip-rule="evenodd" d="M81.8828 16.5073L88.9836 24.4777L89.5416 24.1825L83.4551 17.2945L81.8828 16.5073ZM92.0775 27.0852L91.5197 27.3804L94.1064 30.2832V29.3484L92.0775 27.0852Z" fill="#DC0032"/>
<path fill-rule="evenodd" clip-rule="evenodd" d="M80.666 15.8677L88.5276 24.7729L89.0856 24.4285L82.1876 16.6549L80.666 15.8677ZM91.6216 27.3312L91.0637 27.6264L94.1068 31.0704V30.1356L91.6216 27.3312Z" fill="#DC0032"/>
<path fill-rule="evenodd" clip-rule="evenodd" d="M79.3984 15.2281L88.0716 25.0188L88.6295 24.6744L80.9708 16.0153L79.3984 15.2281ZM91.2163 27.5772L90.6076 27.8724L94.1073 31.8083V30.8736L91.2163 27.5772Z" fill="#DC0032"/>
<path fill-rule="evenodd" clip-rule="evenodd" d="M78.1797 14.5886L87.6137 25.2648L88.2223 24.9205L79.752 15.3758L78.1797 14.5886ZM90.7583 27.8232L90.2004 28.1184L94.1058 32.5956V31.6116L90.7583 27.8232Z" fill="#DC0032"/>
<path fill-rule="evenodd" clip-rule="evenodd" d="M76.9629 13.9489L87.2084 25.5108L87.7663 25.1664L78.4845 14.7361L76.9629 13.9489ZM90.3023 28.0692L89.7444 28.3644L94.1063 33.3336V32.3988L90.3023 28.0692Z" fill="#DC0032"/>
<path fill-rule="evenodd" clip-rule="evenodd" d="M75.6953 13.2601L86.7523 25.7568L87.3103 25.4124L77.2677 14.0965L75.6953 13.2601ZM89.8463 28.3152L89.2884 28.6104L94.1068 34.0715V33.1368L89.8463 28.3152Z" fill="#DC0032"/>
<path fill-rule="evenodd" clip-rule="evenodd" d="M74.4785 12.6205L86.2964 26.0028L86.8543 25.7076L76.0509 13.4569L74.4785 12.6205ZM89.3903 28.5612L88.8324 28.8564L94.1073 34.8587V33.8748L89.3903 28.5612Z" fill="#DC0032"/>
<path fill-rule="evenodd" clip-rule="evenodd" d="M73.2598 12.0302L85.8383 26.2488L86.3963 25.9536L74.7813 12.8173L73.2598 12.0302ZM88.9323 28.8072L88.3744 29.1024L94.1057 35.5967V34.6619L88.9323 28.8072Z" fill="#DC0032"/>
<path fill-rule="evenodd" clip-rule="evenodd" d="M72.4512 11.8334L85.3848 26.4948L85.9427 26.1996L73.567 12.1778L73.2627 12.0302C73.0091 11.8826 72.7555 11.8334 72.4512 11.8334ZM88.4788 29.0532L87.9208 29.3484L94.1087 36.3347V35.3999L88.4788 29.0532Z" fill="#DC0032"/>
<path fill-rule="evenodd" clip-rule="evenodd" d="M72.4504 11.8334C72.2476 11.8334 72.0447 11.8826 71.8418 11.9318L84.9276 26.7408L85.5362 26.4456L72.6026 11.8334C72.5519 11.8334 72.5012 11.8334 72.4504 11.8334ZM88.0723 29.2992L87.5143 29.5944L94.1079 37.1219V36.1379L88.0723 29.2992Z" fill="#DC0032"/>
<path fill-rule="evenodd" clip-rule="evenodd" d="M71.9934 11.8826C71.892 11.9318 71.7398 11.981 71.6891 12.0302L71.3848 12.1778L84.5213 26.9868L85.0792 26.6916L71.9934 11.8826ZM87.6152 29.5452L87.0573 29.8896L94.1074 37.8599V36.9251L87.6152 29.5452Z" fill="#DC0032"/>
<path fill-rule="evenodd" clip-rule="evenodd" d="M71.4857 12.0793L70.9277 12.3745L84.0642 27.2328L84.6222 26.9376L71.4857 12.0793ZM87.1582 29.7912L86.6003 30.1356L94.1069 38.5979V37.6631L87.1582 29.7912Z" fill="#DC0032"/>
<path fill-rule="evenodd" clip-rule="evenodd" d="M71.0286 12.3254L70.4707 12.6206L83.6072 27.4788L84.1651 27.1836L71.0286 12.3254ZM86.7012 30.0372L86.1432 30.3816L94.1063 39.3851V38.4503L86.7012 30.0372Z" fill="#DC0032"/>
<path fill-rule="evenodd" clip-rule="evenodd" d="M70.5736 12.5713L70.0156 12.8665L83.1521 27.7247L83.7101 27.4295L70.5736 12.5713ZM86.2461 30.2831L85.6882 30.6275L94.1077 40.123V39.1882L86.2461 30.2831Z" fill="#DC0032"/>
<path fill-rule="evenodd" clip-rule="evenodd" d="M70.1165 12.8173L69.5586 13.1125L82.6952 27.9708L83.253 27.6756L70.1165 12.8173ZM85.7891 30.5292L85.2311 30.8736L94.1072 40.8611V39.9263L85.7891 30.5292Z" fill="#DC0032"/>
<path fill-rule="evenodd" clip-rule="evenodd" d="M69.6595 13.0634L69.1016 13.3585L82.2381 28.2168L82.796 27.9216L69.6595 13.0634ZM85.3827 30.7752L84.8248 31.1196L94.1066 41.6483V40.7135L85.3827 30.7752Z" fill="#DC0032"/>
<path fill-rule="evenodd" clip-rule="evenodd" d="M69.2044 13.2601L68.6465 13.6045L81.8338 28.4628L82.3917 28.1676L69.2044 13.2601ZM84.9277 31.0704L84.3697 31.3656L94.108 42.3863V41.4515L84.9277 31.0704Z" fill="#DC0032"/>
<path fill-rule="evenodd" clip-rule="evenodd" d="M68.7474 13.5062L68.1895 13.8014L81.3767 28.7088L81.9347 28.4136L68.7474 13.5062ZM84.4706 31.3164L83.9127 31.6116L94.1075 43.1735V42.1895L84.4706 31.3164Z" fill="#DC0032"/>
<path fill-rule="evenodd" clip-rule="evenodd" d="M68.2903 13.7521L67.7324 14.0473L80.9197 29.0039L81.4776 28.6595L68.2903 13.7521ZM84.0136 31.5623L83.4557 31.8575L94.1069 43.9114V42.9766L84.0136 31.5623Z" fill="#DC0032"/>
<path fill-rule="evenodd" clip-rule="evenodd" d="M67.8333 13.9981L67.2754 14.2933L80.4627 29.25L81.0206 28.9056L67.8333 13.9981ZM83.5566 31.8084L82.9986 32.1036L94.1064 44.6494V43.7146L83.5566 31.8084Z" fill="#DC0032"/>
<path fill-rule="evenodd" clip-rule="evenodd" d="M67.3782 14.2441L66.8203 14.5393L80.0076 29.496L80.5655 29.1516L67.3782 14.2441ZM83.1015 32.0544L82.5436 32.3496L94.1078 45.4366V44.4526L83.1015 32.0544Z" fill="#DC0032"/>
<path fill-rule="evenodd" clip-rule="evenodd" d="M66.9212 14.4902L66.3633 14.7854L79.5506 29.742L80.1085 29.3976L66.9212 14.4902ZM82.6953 32.3004L82.1373 32.5956L94.1073 46.1747V45.2399L82.6953 32.3004Z" fill="#DC0032"/>
<path fill-rule="evenodd" clip-rule="evenodd" d="M66.4641 14.687L65.8555 14.9821L79.1442 29.988L79.7021 29.6436L66.4641 14.687ZM82.2382 32.5464L81.6802 32.8416L94.1067 46.9126V45.9778L82.2382 32.5464Z" fill="#DC0032"/>
<path fill-rule="evenodd" clip-rule="evenodd" d="M66.0071 14.9329L65.3984 15.2281L78.7379 30.2831C78.7886 30.1847 78.8393 30.1355 78.9408 30.0863L79.2451 29.8895L66.0071 14.9329ZM81.7811 32.7923L81.2232 33.0875L94.0047 47.5522C94.0554 47.4046 94.1061 47.257 94.1061 47.1094V46.7158L81.7811 32.7923Z" fill="#DC0032"/>
<path fill-rule="evenodd" clip-rule="evenodd" d="M65.5501 15.1789L64.9414 15.4741L78.5852 30.8736V30.6768C78.5852 30.5292 78.6866 30.3324 78.7881 30.1848L65.5501 15.1789ZM81.3241 33.0384L80.9183 33.2844C80.8676 33.2844 80.8169 33.3336 80.7662 33.3336L93.7505 48.0442C93.9027 47.8474 94.0041 47.6506 94.0548 47.4538L81.3241 33.0384Z" fill="#DC0032"/>
<path fill-rule="evenodd" clip-rule="evenodd" d="M65.0949 15.4249L64.4863 15.7201L78.5865 31.6608V30.6768L65.0949 15.4249ZM79.9053 33.0876L93.3968 48.3886C93.549 48.2902 93.7011 48.0934 93.8533 47.9458L80.869 33.2844C80.6661 33.3828 80.3617 33.3828 80.1589 33.2844L79.9053 33.0876Z" fill="#DC0032"/>
<path fill-rule="evenodd" clip-rule="evenodd" d="M64.6379 15.671L64.0293 15.9662L92.9398 48.6347L93.3456 48.4378C93.3963 48.3886 93.447 48.3395 93.4977 48.2902L80.209 33.2844H80.1583L78.9917 32.5956C78.8903 32.5464 78.8396 32.448 78.7381 32.3496C78.6367 32.202 78.6367 32.1036 78.586 32.0052V31.464L64.6379 15.671Z" fill="#DC0032"/>
<path fill-rule="evenodd" clip-rule="evenodd" d="M64.1809 15.9169L63.5723 16.2121L92.4828 48.8806L93.0407 48.5854L64.1809 15.9169Z" fill="#DC0032"/>
<path fill-rule="evenodd" clip-rule="evenodd" d="M63.7239 16.1136L63.1152 16.4088L92.0764 49.1266L92.6344 48.8314L63.7239 16.1136Z" fill="#DC0032"/>
<path fill-rule="evenodd" clip-rule="evenodd" d="M63.2688 16.3597L62.6602 16.6549L91.6214 49.3726L92.1793 49.0774L63.2688 16.3597Z" fill="#DC0032"/>
<path fill-rule="evenodd" clip-rule="evenodd" d="M62.8118 16.6057L62.2031 16.9009L91.1644 49.6186L91.7223 49.3234L62.8118 16.6057Z" fill="#DC0032"/>
<path fill-rule="evenodd" clip-rule="evenodd" d="M62.304 16.8517L61.7461 17.1469L90.7074 49.9139L91.2653 49.5695L62.304 16.8517Z" fill="#DC0032"/>
<path fill-rule="evenodd" clip-rule="evenodd" d="M61.8489 17.0977L61.291 17.3929L90.2523 50.1598L90.8102 49.8154L61.8489 17.0977Z" fill="#DC0032"/>
<path fill-rule="evenodd" clip-rule="evenodd" d="M61.3919 17.3437L60.834 17.6389L89.846 50.4058L90.4039 50.0614L61.3919 17.3437Z" fill="#DC0032"/>
<path fill-rule="evenodd" clip-rule="evenodd" d="M60.9349 17.5405L60.377 17.8357L89.389 50.6518L89.9469 50.3074L60.9349 17.5405Z" fill="#DC0032"/>
<path fill-rule="evenodd" clip-rule="evenodd" d="M60.4798 17.7865L59.9219 18.0817L88.9339 50.8978L89.4918 50.6026L60.4798 17.7865Z" fill="#DC0032"/>
<path fill-rule="evenodd" clip-rule="evenodd" d="M60.0228 18.0325L59.4648 18.3277L73.5651 34.2684L74.0215 34.5635C74.2244 34.6619 74.4273 34.9079 74.4273 35.1539V35.2032L88.4768 51.1439L89.0348 50.8487L60.0228 18.0325Z" fill="#DC0032"/>
<path fill-rule="evenodd" clip-rule="evenodd" d="M59.5657 18.2785L59.0078 18.5737L72.2458 33.5796L73.9195 34.4651L59.5657 18.2785ZM74.376 35.0063C74.376 35.0555 74.4267 35.1047 74.4267 35.1539V35.9903L88.0198 51.3898L88.5777 51.0946L74.376 35.0063Z" fill="#DC0032"/>
<path fill-rule="evenodd" clip-rule="evenodd" d="M59.1087 18.5245L58.5508 18.8197L70.9265 32.8416L72.6003 33.7272L59.1087 18.5245ZM74.4262 35.7935V36.7283L87.6135 51.6358L88.1714 51.3406L74.4262 35.7935Z" fill="#DC0032"/>
<path fill-rule="evenodd" clip-rule="evenodd" d="M58.6536 18.7704L58.0957 19.0656L69.6599 32.1036L71.283 32.9892L58.6536 18.7704ZM74.4276 36.5315V37.5155L87.1584 51.8817L87.7163 51.5866L74.4276 36.5315Z" fill="#DC0032"/>
<path fill-rule="evenodd" clip-rule="evenodd" d="M58.1966 18.9673L57.6387 19.2625L68.3407 31.3656L69.9637 32.3004L58.1966 18.9673ZM74.4271 37.3187V38.2535L86.7014 52.1278L87.2593 51.8326L74.4271 37.3187Z" fill="#DC0032"/>
<path fill-rule="evenodd" clip-rule="evenodd" d="M57.7395 19.2133L57.1816 19.5085L67.0214 30.6276L68.6444 31.5624L57.7395 19.2133ZM74.4265 38.0567V38.9915L86.2443 52.3738L86.8023 52.0786L74.4265 38.0567Z" fill="#DC0032"/>
<path fill-rule="evenodd" clip-rule="evenodd" d="M57.2845 19.4593L56.7266 19.7545L65.704 29.9388L67.3271 30.8244L57.2845 19.4593ZM74.4279 38.7947V39.7787L85.7893 52.669L86.3472 52.3246L74.4279 38.7947Z" fill="#DC0032"/>
<path fill-rule="evenodd" clip-rule="evenodd" d="M56.8275 19.7053L56.2695 20.0005L64.3848 29.2008L66.0078 30.0864L56.8275 19.7053ZM74.4274 39.5819V40.5167L85.3829 52.9149L85.9409 52.5705L74.4274 39.5819Z" fill="#DC0032"/>
<path fill-rule="evenodd" clip-rule="evenodd" d="M56.3704 19.9512L55.8125 20.2464L63.0655 28.4628L64.7392 29.3483L56.3704 19.9512ZM74.4268 40.3199V41.2547L84.9259 53.1609L85.4838 52.8165L74.4268 40.3199Z" fill="#DC0032"/>
<path fill-rule="evenodd" clip-rule="evenodd" d="M55.9134 20.1973L55.3555 20.4925L61.7462 27.7248L63.42 28.6596L55.9134 20.1973ZM69.2021 36.1379L70.5208 37.6139V37.0727C70.5208 36.9743 70.4194 36.8267 70.3179 36.7775L69.2021 36.1379ZM74.4263 41.0579V42.0419L84.4689 53.4069L85.0268 53.0625L74.4263 41.0579Z" fill="#DB0032"/>
<path fill-rule="evenodd" clip-rule="evenodd" d="M55.4583 20.3941L54.9004 20.6893L60.4289 26.9868L62.1027 27.9216L55.4583 20.3941ZM67.8848 35.3999L70.5222 38.3519V37.4171L69.5585 36.3347L67.8848 35.3999ZM74.4277 41.8451V42.7799L84.0138 53.653L84.5717 53.3578L74.4277 41.8451Z" fill="#DC0032"/>
<path fill-rule="evenodd" clip-rule="evenodd" d="M55.0013 20.6401L54.4434 20.9353L59.1603 26.298L60.7834 27.1836L55.0013 20.6401ZM66.5655 34.7111L70.5217 39.1391V38.2043L68.2393 35.5967L66.5655 34.7111ZM74.4271 42.5831V43.5178L83.5568 53.8989L84.1147 53.6038L74.4271 42.5831Z" fill="#DC0032"/>
<path fill-rule="evenodd" clip-rule="evenodd" d="M54.5442 20.886L53.9863 21.1812L57.841 25.56L59.4641 26.4456L54.5442 20.886ZM65.2969 33.9732L70.5211 39.8771V38.9423L66.92 34.8587L65.2969 33.9732ZM74.4266 43.3702V44.305L83.1504 54.1449L83.7084 53.8497L74.4266 43.3702Z" fill="#DC0032"/>
<path fill-rule="evenodd" clip-rule="evenodd" d="M54.0892 21.132L53.5312 21.4272L56.5237 24.822L58.1468 25.7075L54.0892 21.132ZM63.9797 33.2351L70.5225 40.615V39.6803L65.6026 34.1699L63.9797 33.2351ZM74.428 44.1082V45.043L82.6954 54.3909L83.2533 54.0957L74.428 44.1082Z" fill="#DC0032"/>
<path fill-rule="evenodd" clip-rule="evenodd" d="M53.6321 21.3781L53.0742 21.6733L55.2045 24.084L56.8275 25.0188L53.6321 21.3781ZM62.6604 32.4972L70.522 41.4023V40.4675L64.2834 33.432L62.6604 32.4972ZM74.4274 44.8462V45.781L82.2384 54.6369L82.7962 54.3417L74.4274 44.8462Z" fill="#DC0032"/>
<path fill-rule="evenodd" clip-rule="evenodd" d="M53.1751 21.6241L52.6172 21.9193L53.8852 23.3461L55.559 24.2809L53.1751 21.6241ZM61.3411 31.8084L70.5214 42.1403V41.2055L62.9641 32.694L61.3411 31.8084ZM74.4269 45.6334V46.5682L81.7814 54.883L82.3393 54.5878L74.4269 45.6334Z" fill="#DC0032"/>
<path fill-rule="evenodd" clip-rule="evenodd" d="M52.718 21.8209L52.1094 22.1161L52.5659 22.6573L54.2396 23.5429L52.718 21.8209ZM60.0217 31.0704L70.5208 42.9274V41.9435L61.6955 31.956L60.0217 31.0704ZM74.4263 46.3714V47.3062L81.3243 55.1781L81.8822 54.8337L74.4263 46.3714Z" fill="#DC0032"/>
<path fill-rule="evenodd" clip-rule="evenodd" d="M52.2613 22.0669L51.9062 22.2637L52.9207 22.8049L52.2613 22.0669ZM58.7028 30.3324L70.5206 43.6655V42.7307L60.3765 31.2672L58.7028 30.3324ZM74.426 47.1094V48.0934L80.9183 55.4242L81.4762 55.0798L74.426 47.1094Z" fill="#DC0032"/>
<path fill-rule="evenodd" clip-rule="evenodd" d="M57.4355 29.5944L70.5214 44.4034V43.4686L59.0586 30.5292L57.4355 29.5944ZM74.4268 47.8966V48.8314L80.4626 55.6701L81.0205 55.3257L74.4268 47.8966Z" fill="#DC0032"/>
<path fill-rule="evenodd" clip-rule="evenodd" d="M56.1152 28.9056L70.5198 45.1907V44.2067L57.7383 29.7912L56.1152 28.9056ZM74.4252 48.6347V49.5695L80.0045 55.9162L80.5624 55.5718L74.4252 48.6347Z" fill="#DC0032"/>
<path fill-rule="evenodd" clip-rule="evenodd" d="M54.7988 28.1675L70.5221 45.9286V44.9938L56.4219 29.0531L54.7988 28.1675ZM74.4275 49.3726V50.3566L79.5503 56.1621L80.1082 55.8669L74.4275 49.3726Z" fill="#DC0032"/>
<path fill-rule="evenodd" clip-rule="evenodd" d="M53.4785 27.4296L70.5205 46.6667V45.7319L55.1016 28.3644L53.4785 27.4296ZM74.426 50.1599V51.0946L79.0923 56.4082L79.6502 56.113L74.426 50.1599Z" fill="#DB0032"/>
<path fill-rule="evenodd" clip-rule="evenodd" d="M52.1602 26.6915L70.5209 47.4538V46.519L53.7832 27.6263L52.1602 26.6915ZM74.4263 50.8977V51.8325L78.6868 56.6541L79.2448 56.3589L74.4263 50.8977Z" fill="#DA0032"/>
<path fill-rule="evenodd" clip-rule="evenodd" d="M50.8438 26.0028L70.5232 48.1918V47.257L52.5175 26.8884L50.8438 26.0028ZM74.4286 51.6358V52.6198L78.2327 56.9002L78.7906 56.6049L74.4286 51.6358Z" fill="#D90032"/>
<path fill-rule="evenodd" clip-rule="evenodd" d="M50.791 25.9536V26.6424L70.5212 48.9298V47.995L51.1968 26.1504L50.791 25.9536ZM74.4266 52.423V53.0134C74.4266 53.1118 74.3759 53.2102 74.3252 53.2594L77.7742 57.1462L78.3321 56.851L74.4266 52.423Z" fill="#D80032"/>
<path fill-rule="evenodd" clip-rule="evenodd" d="M50.791 26.4456V27.4296L70.5212 49.717V48.7822L50.791 26.4456ZM74.3759 53.161C74.3252 53.3578 74.173 53.5546 74.0209 53.6038L73.9701 53.653L77.3177 57.3922L77.8756 57.097L74.3759 53.161Z" fill="#D70032"/>
<path fill-rule="evenodd" clip-rule="evenodd" d="M50.791 27.2328V28.1676L70.5212 50.455V49.5202L50.791 27.2328ZM74.0716 53.5545C74.0716 53.6037 74.0716 53.6037 74.0209 53.6037L73.5137 53.8989L76.8612 57.6381L77.4191 57.3429L74.0716 53.5545Z" fill="#D60032"/>
<path fill-rule="evenodd" clip-rule="evenodd" d="M50.791 27.9708V28.9056L70.5212 51.193V50.2582L50.791 27.9708ZM73.6658 53.8005L73.0572 54.1449L76.4555 57.9333L77.0134 57.5889L73.6658 53.8005Z" fill="#D50032"/>
<path fill-rule="evenodd" clip-rule="evenodd" d="M50.791 28.758V29.6928L70.5212 51.9802V51.0454L50.791 28.758ZM73.2094 54.0465L72.8544 54.2433C72.7529 54.2926 72.6515 54.2926 72.55 54.2926L75.999 58.1793L76.5569 57.8349L73.2094 54.0465Z" fill="#D40032"/>
<path fill-rule="evenodd" clip-rule="evenodd" d="M50.791 29.496V30.4308L70.5212 52.7181V51.7833L50.791 29.496ZM71.6371 54.0465L75.5425 58.4253L76.1004 58.0809L72.7022 54.2925C72.6515 54.2925 72.55 54.3417 72.4993 54.3417H72.4486C72.2964 54.3417 72.195 54.2925 72.0935 54.2433L71.6371 54.0465Z" fill="#D30032"/>
<path fill-rule="evenodd" clip-rule="evenodd" d="M50.791 30.234V31.218L75.086 58.6714L75.6439 58.327L71.9921 54.1942L70.8762 53.6038C70.6734 53.5054 70.5212 53.2594 70.5212 53.0134V52.5214L50.791 30.234Z" fill="#D20032"/>
<path fill-rule="evenodd" clip-rule="evenodd" d="M50.791 31.0212V31.956L74.6295 58.9173L75.1874 58.6221L50.791 31.0212Z" fill="#D10032"/>
<path fill-rule="evenodd" clip-rule="evenodd" d="M50.791 31.7592V32.694L74.173 59.1634L74.7309 58.8682L50.791 31.7592Z" fill="#D00032"/>
<path fill-rule="evenodd" clip-rule="evenodd" d="M50.791 32.4972V33.4812L73.7673 59.4093L74.3252 59.1141L50.791 32.4972Z" fill="#CF0032"/>
<path fill-rule="evenodd" clip-rule="evenodd" d="M50.791 33.2844V34.2191L73.3108 59.6553L73.8687 59.3601L50.791 33.2844Z" fill="#CE0032"/>
<path fill-rule="evenodd" clip-rule="evenodd" d="M50.791 34.0223V34.9571L72.8036 59.8521C72.9558 59.8029 73.108 59.7537 73.2601 59.7045L73.4123 59.6061L50.791 34.0223Z" fill="#CD0032"/>
<path fill-rule="evenodd" clip-rule="evenodd" d="M50.791 34.7604V35.7444L72.1443 59.8522C72.2457 59.8522 72.3471 59.8522 72.4486 59.8522C72.6007 59.8522 72.7529 59.8522 72.9051 59.803L50.791 34.7604Z" fill="#CC0032"/>
<path fill-rule="evenodd" clip-rule="evenodd" d="M50.791 35.5475V36.4823L70.9777 59.3109L71.6878 59.7045C71.8399 59.8029 72.0935 59.8521 72.2964 59.8521L50.791 35.5475Z" fill="#CB0032"/>
<path fill-rule="evenodd" clip-rule="evenodd" d="M50.791 36.2855V37.2203L69.659 58.5729L71.3327 59.5077L50.791 36.2855Z" fill="#CA0032"/>
<path fill-rule="evenodd" clip-rule="evenodd" d="M50.791 37.0727V38.0075L68.3402 57.8349L70.014 58.7697L50.791 37.0727Z" fill="#C90032"/>
<path fill-rule="evenodd" clip-rule="evenodd" d="M50.791 37.8107V38.7455L67.0215 57.0969L68.6445 58.0317L50.791 37.8107Z" fill="#C80033"/>
<path fill-rule="evenodd" clip-rule="evenodd" d="M50.791 38.5487V39.4835L65.7027 56.3589L67.3258 57.2937L50.791 38.5487Z" fill="#C70033"/>
<path fill-rule="evenodd" clip-rule="evenodd" d="M50.791 39.3359V40.2707L64.3334 55.5717L66.0071 56.5065L50.791 39.3359Z" fill="#C60033"/>
<path fill-rule="evenodd" clip-rule="evenodd" d="M50.791 40.0739V41.0087L63.0146 54.8338L64.6883 55.7686L50.791 40.0739Z" fill="#C50033"/>
<path fill-rule="evenodd" clip-rule="evenodd" d="M50.791 40.8119V41.7467L61.6959 54.0957L63.3697 55.0305L50.791 40.8119Z" fill="#C40033"/>
<path fill-rule="evenodd" clip-rule="evenodd" d="M50.791 41.5991V42.5339L60.3771 53.3577L62.0509 54.2925L50.791 41.5991Z" fill="#C30033"/>
<path fill-rule="evenodd" clip-rule="evenodd" d="M50.791 42.3371V43.2718L59.0584 52.6197L60.7322 53.5545L50.791 42.3371Z" fill="#C20033"/>
<path fill-rule="evenodd" clip-rule="evenodd" d="M50.791 43.0751V44.0591L57.7397 51.8818L59.3627 52.8166L50.791 43.0751Z" fill="#C10033"/>
<path fill-rule="evenodd" clip-rule="evenodd" d="M50.791 43.8622V44.797L56.3702 51.1438L58.044 52.0786L50.791 43.8622Z" fill="#C00033"/>
<path fill-rule="evenodd" clip-rule="evenodd" d="M50.791 44.6002V45.535L55.0515 50.4058L56.7253 51.2913L50.791 44.6002Z" fill="#BF0033"/>
<path fill-rule="evenodd" clip-rule="evenodd" d="M50.791 45.3383V46.3223L53.7328 49.6186L55.4066 50.5534L50.791 45.3383Z" fill="#BE0033"/>
<path fill-rule="evenodd" clip-rule="evenodd" d="M50.791 46.1254V47.0602L52.4141 48.8806L54.0878 49.8154L50.791 46.1254Z" fill="#BD0033"/>
<path fill-rule="evenodd" clip-rule="evenodd" d="M50.791 46.8635V47.1095C50.791 47.6015 51.1461 48.1919 51.5518 48.4379L52.7691 49.0775L50.791 46.8635Z" fill="#BC0033"/>
<path fill-rule="evenodd" clip-rule="evenodd" d="M51.0957 47.995C51.1971 48.0934 51.2479 48.1918 51.3493 48.241L51.0957 47.995Z" fill="#BB0033"/>
</g>
<defs>
<clipPath id="clip0_3437_17928">
<rect width="119.812" height="48.8125" fill="white" transform="translate(50.791 11.8334)"/>
</clipPath>
</defs>
</svg>
