<svg width="180" height="180" viewBox="0 0 180 180" fill="none" xmlns="http://www.w3.org/2000/svg">
<g clip-path="url(#clip0_3640_18557)">
<path d="M180 0H0V180H180V0Z" fill="white"/>
<path d="M68.2759 12.4138H62.069V18.6207H68.2759V12.4138Z" fill="black"/>
<path d="M74.4828 12.4138H68.2759V18.6207H74.4828V12.4138Z" fill="black"/>
<path d="M86.8966 12.4138H80.6897V18.6207H86.8966V12.4138Z" fill="black"/>
<path d="M93.1035 12.4138H86.8966V18.6207H93.1035V12.4138Z" fill="black"/>
<path d="M99.3104 12.4138H93.1035V18.6207H99.3104V12.4138Z" fill="black"/>
<path d="M105.517 12.4138H99.3104V18.6207H105.517V12.4138Z" fill="black"/>
<path d="M68.2759 18.6207H62.069V24.8276H68.2759V18.6207Z" fill="black"/>
<path d="M86.8966 18.6207H80.6897V24.8276H86.8966V18.6207Z" fill="black"/>
<path d="M93.1035 18.6207H86.8966V24.8276H93.1035V18.6207Z" fill="black"/>
<path d="M99.3104 18.6207H93.1035V24.8276H99.3104V18.6207Z" fill="black"/>
<path d="M105.517 18.6207H99.3104V24.8276H105.517V18.6207Z" fill="black"/>
<path d="M117.931 18.6207H111.724V24.8276H117.931V18.6207Z" fill="black"/>
<path d="M68.2759 24.8276H62.069V31.0345H68.2759V24.8276Z" fill="black"/>
<path d="M74.4828 24.8276H68.2759V31.0345H74.4828V24.8276Z" fill="black"/>
<path d="M99.3104 24.8276H93.1035V31.0345H99.3104V24.8276Z" fill="black"/>
<path d="M105.517 24.8276H99.3104V31.0345H105.517V24.8276Z" fill="black"/>
<path d="M111.724 24.8276H105.517V31.0345H111.724V24.8276Z" fill="black"/>
<path d="M74.4828 31.0345H68.2759V37.2414H74.4828V31.0345Z" fill="black"/>
<path d="M93.1035 31.0345H86.8966V37.2414H93.1035V31.0345Z" fill="black"/>
<path d="M99.3104 31.0345H93.1035V37.2414H99.3104V31.0345Z" fill="black"/>
<path d="M105.517 31.0345H99.3104V37.2414H105.517V31.0345Z" fill="black"/>
<path d="M117.931 31.0345H111.724V37.2414H117.931V31.0345Z" fill="black"/>
<path d="M68.2759 37.2415H62.069V43.4484H68.2759V37.2415Z" fill="black"/>
<path d="M80.6897 37.2415H74.4828V43.4484H80.6897V37.2415Z" fill="black"/>
<path d="M86.8966 37.2415H80.6897V43.4484H86.8966V37.2415Z" fill="black"/>
<path d="M93.1035 37.2415H86.8966V43.4484H93.1035V37.2415Z" fill="black"/>
<path d="M99.3104 37.2415H93.1035V43.4484H99.3104V37.2415Z" fill="black"/>
<path d="M105.517 37.2415H99.3104V43.4484H105.517V37.2415Z" fill="black"/>
<path d="M117.931 37.2415H111.724V43.4484H117.931V37.2415Z" fill="black"/>
<path d="M74.4828 43.4482H68.2759V49.6551H74.4828V43.4482Z" fill="black"/>
<path d="M80.6897 43.4482H74.4828V49.6551H80.6897V43.4482Z" fill="black"/>
<path d="M86.8966 43.4482H80.6897V49.6551H86.8966V43.4482Z" fill="black"/>
<path d="M99.3104 43.4482H93.1035V49.6551H99.3104V43.4482Z" fill="black"/>
<path d="M105.517 43.4482H99.3104V49.6551H105.517V43.4482Z" fill="black"/>
<path d="M117.931 43.4482H111.724V49.6551H117.931V43.4482Z" fill="black"/>
<path d="M68.2759 49.6552H62.069V55.862H68.2759V49.6552Z" fill="black"/>
<path d="M80.6897 49.6552H74.4828V55.862H80.6897V49.6552Z" fill="black"/>
<path d="M93.1035 49.6552H86.8966V55.862H93.1035V49.6552Z" fill="black"/>
<path d="M105.517 49.6552H99.3104V55.862H105.517V49.6552Z" fill="black"/>
<path d="M117.931 49.6552H111.724V55.862H117.931V49.6552Z" fill="black"/>
<path d="M74.4828 55.8621H68.2759V62.069H74.4828V55.8621Z" fill="black"/>
<path d="M86.8966 55.8621H80.6897V62.069H86.8966V55.8621Z" fill="black"/>
<path d="M93.1035 55.8621H86.8966V62.069H93.1035V55.8621Z" fill="black"/>
<path d="M99.3104 55.8621H93.1035V62.069H99.3104V55.8621Z" fill="black"/>
<path d="M105.517 55.8621H99.3104V62.069H105.517V55.8621Z" fill="black"/>
<path d="M117.931 55.8621H111.724V62.069H117.931V55.8621Z" fill="black"/>
<path d="M18.6207 62.069H12.4138V68.2759H18.6207V62.069Z" fill="black"/>
<path d="M37.2414 62.069H31.0345V68.2759H37.2414V62.069Z" fill="black"/>
<path d="M43.4483 62.069H37.2414V68.2759H43.4483V62.069Z" fill="black"/>
<path d="M49.6552 62.069H43.4483V68.2759H49.6552V62.069Z" fill="black"/>
<path d="M55.8621 62.069H49.6552V68.2759H55.8621V62.069Z" fill="black"/>
<path d="M62.069 62.069H55.8621V68.2759H62.069V62.069Z" fill="black"/>
<path d="M68.2759 62.069H62.069V68.2759H68.2759V62.069Z" fill="black"/>
<path d="M93.1035 62.069H86.8966V68.2759H93.1035V62.069Z" fill="black"/>
<path d="M105.517 62.069H99.3104V68.2759H105.517V62.069Z" fill="black"/>
<path d="M111.724 62.069H105.517V68.2759H111.724V62.069Z" fill="black"/>
<path d="M124.138 62.069H117.931V68.2759H124.138V62.069Z" fill="black"/>
<path d="M142.759 62.069H136.552V68.2759H142.759V62.069Z" fill="black"/>
<path d="M155.172 62.069H148.966V68.2759H155.172V62.069Z" fill="black"/>
<path d="M161.379 62.069H155.172V68.2759H161.379V62.069Z" fill="black"/>
<path d="M167.586 62.069H161.379V68.2759H167.586V62.069Z" fill="black"/>
<path d="M18.6207 68.2759H12.4138V74.4828H18.6207V68.2759Z" fill="black"/>
<path d="M31.0345 68.2759H24.8276V74.4828H31.0345V68.2759Z" fill="black"/>
<path d="M43.4483 68.2759H37.2414V74.4828H43.4483V68.2759Z" fill="black"/>
<path d="M68.2759 68.2759H62.069V74.4828H68.2759V68.2759Z" fill="black"/>
<path d="M74.4828 68.2759H68.2759V74.4828H74.4828V68.2759Z" fill="black"/>
<path d="M86.8966 68.2759H80.6897V74.4828H86.8966V68.2759Z" fill="black"/>
<path d="M111.724 68.2759H105.517V74.4828H111.724V68.2759Z" fill="black"/>
<path d="M136.552 68.2759H130.345V74.4828H136.552V68.2759Z" fill="black"/>
<path d="M142.759 68.2759H136.552V74.4828H142.759V68.2759Z" fill="black"/>
<path d="M148.966 68.2759H142.759V74.4828H148.966V68.2759Z" fill="black"/>
<path d="M155.172 68.2759H148.966V74.4828H155.172V68.2759Z" fill="black"/>
<path d="M161.379 68.2759H155.172V74.4828H161.379V68.2759Z" fill="black"/>
<path d="M31.0345 74.4828H24.8276V80.6897H31.0345V74.4828Z" fill="black"/>
<path d="M37.2414 74.4828H31.0345V80.6897H37.2414V74.4828Z" fill="black"/>
<path d="M43.4483 74.4828H37.2414V80.6897H43.4483V74.4828Z" fill="black"/>
<path d="M49.6552 74.4828H43.4483V80.6897H49.6552V74.4828Z" fill="black"/>
<path d="M55.8621 74.4828H49.6552V80.6897H55.8621V74.4828Z" fill="black"/>
<path d="M68.2759 74.4828H62.069V80.6897H68.2759V74.4828Z" fill="black"/>
<path d="M74.4828 74.4828H68.2759V80.6897H74.4828V74.4828Z" fill="black"/>
<path d="M80.6897 74.4828H74.4828V80.6897H80.6897V74.4828Z" fill="black"/>
<path d="M86.8966 74.4828H80.6897V80.6897H86.8966V74.4828Z" fill="black"/>
<path d="M99.3104 74.4828H93.1035V80.6897H99.3104V74.4828Z" fill="black"/>
<path d="M105.517 74.4828H99.3104V80.6897H105.517V74.4828Z" fill="black"/>
<path d="M111.724 74.4828H105.517V80.6897H111.724V74.4828Z" fill="black"/>
<path d="M117.931 74.4828H111.724V80.6897H117.931V74.4828Z" fill="black"/>
<path d="M130.345 74.4828H124.138V80.6897H130.345V74.4828Z" fill="black"/>
<path d="M142.759 74.4828H136.552V80.6897H142.759V74.4828Z" fill="black"/>
<path d="M148.966 74.4828H142.759V80.6897H148.966V74.4828Z" fill="black"/>
<path d="M167.586 74.4828H161.379V80.6897H167.586V74.4828Z" fill="black"/>
<path d="M18.6207 80.6897H12.4138V86.8966H18.6207V80.6897Z" fill="black"/>
<path d="M31.0345 80.6897H24.8276V86.8966H31.0345V80.6897Z" fill="black"/>
<path d="M43.4483 80.6897H37.2414V86.8966H43.4483V80.6897Z" fill="black"/>
<path d="M62.069 80.6897H55.8621V86.8966H62.069V80.6897Z" fill="black"/>
<path d="M68.2759 80.6897H62.069V86.8966H68.2759V80.6897Z" fill="black"/>
<path d="M74.4828 80.6897H68.2759V86.8966H74.4828V80.6897Z" fill="black"/>
<path d="M86.8966 80.6897H80.6897V86.8966H86.8966V80.6897Z" fill="black"/>
<path d="M130.345 80.6897H124.138V86.8966H130.345V80.6897Z" fill="black"/>
<path d="M136.552 80.6897H130.345V86.8966H136.552V80.6897Z" fill="black"/>
<path d="M142.759 80.6897H136.552V86.8966H142.759V80.6897Z" fill="black"/>
<path d="M148.966 80.6897H142.759V86.8966H148.966V80.6897Z" fill="black"/>
<path d="M155.172 80.6897H148.966V86.8966H155.172V80.6897Z" fill="black"/>
<path d="M161.379 80.6897H155.172V86.8966H161.379V80.6897Z" fill="black"/>
<path d="M167.586 80.6897H161.379V86.8966H167.586V80.6897Z" fill="black"/>
<path d="M24.8276 86.8966H18.6207V93.1035H24.8276V86.8966Z" fill="black"/>
<path d="M31.0345 86.8966H24.8276V93.1035H31.0345V86.8966Z" fill="black"/>
<path d="M37.2414 86.8966H31.0345V93.1035H37.2414V86.8966Z" fill="black"/>
<path d="M55.8621 86.8966H49.6552V93.1035H55.8621V86.8966Z" fill="black"/>
<path d="M80.6897 86.8966H74.4828V93.1035H80.6897V86.8966Z" fill="black"/>
<path d="M117.931 86.8966H111.724V93.1035H117.931V86.8966Z" fill="black"/>
<path d="M130.345 86.8966H124.138V93.1035H130.345V86.8966Z" fill="black"/>
<path d="M136.552 86.8966H130.345V93.1035H136.552V86.8966Z" fill="black"/>
<path d="M167.586 86.8966H161.379V93.1035H167.586V86.8966Z" fill="black"/>
<path d="M18.6207 93.1035H12.4138V99.3104H18.6207V93.1035Z" fill="black"/>
<path d="M37.2414 93.1035H31.0345V99.3104H37.2414V93.1035Z" fill="black"/>
<path d="M49.6552 93.1035H43.4483V99.3104H49.6552V93.1035Z" fill="black"/>
<path d="M68.2759 93.1035H62.069V99.3104H68.2759V93.1035Z" fill="black"/>
<path d="M74.4828 93.1035H68.2759V99.3104H74.4828V93.1035Z" fill="black"/>
<path d="M80.6897 93.1035H74.4828V99.3104H80.6897V93.1035Z" fill="black"/>
<path d="M93.1035 93.1035H86.8966V99.3104H93.1035V93.1035Z" fill="black"/>
<path d="M99.3104 93.1035H93.1035V99.3104H99.3104V93.1035Z" fill="black"/>
<path d="M111.724 93.1035H105.517V99.3104H111.724V93.1035Z" fill="black"/>
<path d="M142.759 93.1035H136.552V99.3104H142.759V93.1035Z" fill="black"/>
<path d="M161.379 93.1035H155.172V99.3104H161.379V93.1035Z" fill="black"/>
<path d="M18.6207 99.3104H12.4138V105.517H18.6207V99.3104Z" fill="black"/>
<path d="M24.8276 99.3104H18.6207V105.517H24.8276V99.3104Z" fill="black"/>
<path d="M31.0345 99.3104H24.8276V105.517H31.0345V99.3104Z" fill="black"/>
<path d="M37.2414 99.3104H31.0345V105.517H37.2414V99.3104Z" fill="black"/>
<path d="M43.4483 99.3104H37.2414V105.517H43.4483V99.3104Z" fill="black"/>
<path d="M49.6552 99.3104H43.4483V105.517H49.6552V99.3104Z" fill="black"/>
<path d="M55.8621 99.3104H49.6552V105.517H55.8621V99.3104Z" fill="black"/>
<path d="M62.069 99.3104H55.8621V105.517H62.069V99.3104Z" fill="black"/>
<path d="M74.4828 99.3104H68.2759V105.517H74.4828V99.3104Z" fill="black"/>
<path d="M99.3104 99.3104H93.1035V105.517H99.3104V99.3104Z" fill="black"/>
<path d="M105.517 99.3104H99.3104V105.517H105.517V99.3104Z" fill="black"/>
<path d="M111.724 99.3104H105.517V105.517H111.724V99.3104Z" fill="black"/>
<path d="M117.931 99.3104H111.724V105.517H117.931V99.3104Z" fill="black"/>
<path d="M124.138 99.3104H117.931V105.517H124.138V99.3104Z" fill="black"/>
<path d="M130.345 99.3104H124.138V105.517H130.345V99.3104Z" fill="black"/>
<path d="M142.759 99.3104H136.552V105.517H142.759V99.3104Z" fill="black"/>
<path d="M148.966 99.3104H142.759V105.517H148.966V99.3104Z" fill="black"/>
<path d="M155.172 99.3104H148.966V105.517H155.172V99.3104Z" fill="black"/>
<path d="M161.379 99.3104H155.172V105.517H161.379V99.3104Z" fill="black"/>
<path d="M167.586 99.3104H161.379V105.517H167.586V99.3104Z" fill="black"/>
<path d="M18.6207 105.517H12.4138V111.724H18.6207V105.517Z" fill="black"/>
<path d="M74.4828 105.517H68.2759V111.724H74.4828V105.517Z" fill="black"/>
<path d="M80.6897 105.517H74.4828V111.724H80.6897V105.517Z" fill="black"/>
<path d="M93.1035 105.517H86.8966V111.724H93.1035V105.517Z" fill="black"/>
<path d="M124.138 105.517H117.931V111.724H124.138V105.517Z" fill="black"/>
<path d="M136.552 105.517H130.345V111.724H136.552V105.517Z" fill="black"/>
<path d="M148.966 105.517H142.759V111.724H148.966V105.517Z" fill="black"/>
<path d="M155.172 105.517H148.966V111.724H155.172V105.517Z" fill="black"/>
<path d="M167.586 105.517H161.379V111.724H167.586V105.517Z" fill="black"/>
<path d="M18.6207 111.724H12.4138V117.931H18.6207V111.724Z" fill="black"/>
<path d="M31.0345 111.724H24.8276V117.931H31.0345V111.724Z" fill="black"/>
<path d="M37.2414 111.724H31.0345V117.931H37.2414V111.724Z" fill="black"/>
<path d="M43.4483 111.724H37.2414V117.931H43.4483V111.724Z" fill="black"/>
<path d="M55.8621 111.724H49.6552V117.931H55.8621V111.724Z" fill="black"/>
<path d="M68.2759 111.724H62.069V117.931H68.2759V111.724Z" fill="black"/>
<path d="M86.8966 111.724H80.6897V117.931H86.8966V111.724Z" fill="black"/>
<path d="M93.1035 111.724H86.8966V117.931H93.1035V111.724Z" fill="black"/>
<path d="M99.3104 111.724H93.1035V117.931H99.3104V111.724Z" fill="black"/>
<path d="M105.517 111.724H99.3104V117.931H105.517V111.724Z" fill="black"/>
<path d="M111.724 111.724H105.517V117.931H111.724V111.724Z" fill="black"/>
<path d="M117.931 111.724H111.724V117.931H117.931V111.724Z" fill="black"/>
<path d="M124.138 111.724H117.931V117.931H124.138V111.724Z" fill="black"/>
<path d="M130.345 111.724H124.138V117.931H130.345V111.724Z" fill="black"/>
<path d="M136.552 111.724H130.345V117.931H136.552V111.724Z" fill="black"/>
<path d="M142.759 111.724H136.552V117.931H142.759V111.724Z" fill="black"/>
<path d="M155.172 111.724H148.966V117.931H155.172V111.724Z" fill="black"/>
<path d="M161.379 111.724H155.172V117.931H161.379V111.724Z" fill="black"/>
<path d="M68.2759 117.931H62.069V124.138H68.2759V117.931Z" fill="black"/>
<path d="M80.6897 117.931H74.4828V124.138H80.6897V117.931Z" fill="black"/>
<path d="M86.8966 117.931H80.6897V124.138H86.8966V117.931Z" fill="black"/>
<path d="M99.3104 117.931H93.1035V124.138H99.3104V117.931Z" fill="black"/>
<path d="M117.931 117.931H111.724V124.138H117.931V117.931Z" fill="black"/>
<path d="M142.759 117.931H136.552V124.138H142.759V117.931Z" fill="black"/>
<path d="M155.172 117.931H148.966V124.138H155.172V117.931Z" fill="black"/>
<path d="M161.379 117.931H155.172V124.138H161.379V117.931Z" fill="black"/>
<path d="M68.2759 124.138H62.069V130.345H68.2759V124.138Z" fill="black"/>
<path d="M80.6897 124.138H74.4828V130.345H80.6897V124.138Z" fill="black"/>
<path d="M93.1035 124.138H86.8966V130.345H93.1035V124.138Z" fill="black"/>
<path d="M117.931 124.138H111.724V130.345H117.931V124.138Z" fill="black"/>
<path d="M130.345 124.138H124.138V130.345H130.345V124.138Z" fill="black"/>
<path d="M142.759 124.138H136.552V130.345H142.759V124.138Z" fill="black"/>
<path d="M167.586 124.138H161.379V130.345H167.586V124.138Z" fill="black"/>
<path d="M68.2759 130.345H62.069V136.552H68.2759V130.345Z" fill="black"/>
<path d="M86.8966 130.345H80.6897V136.552H86.8966V130.345Z" fill="black"/>
<path d="M99.3104 130.345H93.1035V136.552H99.3104V130.345Z" fill="black"/>
<path d="M111.724 130.345H105.517V136.552H111.724V130.345Z" fill="black"/>
<path d="M117.931 130.345H111.724V136.552H117.931V130.345Z" fill="black"/>
<path d="M142.759 130.345H136.552V136.552H142.759V130.345Z" fill="black"/>
<path d="M68.2759 136.552H62.069V142.759H68.2759V136.552Z" fill="black"/>
<path d="M74.4828 136.552H68.2759V142.759H74.4828V136.552Z" fill="black"/>
<path d="M86.8966 136.552H80.6897V142.759H86.8966V136.552Z" fill="black"/>
<path d="M99.3104 136.552H93.1035V142.759H99.3104V136.552Z" fill="black"/>
<path d="M111.724 136.552H105.517V142.759H111.724V136.552Z" fill="black"/>
<path d="M117.931 136.552H111.724V142.759H117.931V136.552Z" fill="black"/>
<path d="M124.138 136.552H117.931V142.759H124.138V136.552Z" fill="black"/>
<path d="M130.345 136.552H124.138V142.759H130.345V136.552Z" fill="black"/>
<path d="M136.552 136.552H130.345V142.759H136.552V136.552Z" fill="black"/>
<path d="M142.759 136.552H136.552V142.759H142.759V136.552Z" fill="black"/>
<path d="M161.379 136.552H155.172V142.759H161.379V136.552Z" fill="black"/>
<path d="M167.586 136.552H161.379V142.759H167.586V136.552Z" fill="black"/>
<path d="M68.2759 142.759H62.069V148.966H68.2759V142.759Z" fill="black"/>
<path d="M80.6897 142.759H74.4828V148.966H80.6897V142.759Z" fill="black"/>
<path d="M93.1035 142.759H86.8966V148.966H93.1035V142.759Z" fill="black"/>
<path d="M99.3104 142.759H93.1035V148.966H99.3104V142.759Z" fill="black"/>
<path d="M105.517 142.759H99.3104V148.966H105.517V142.759Z" fill="black"/>
<path d="M124.138 142.759H117.931V148.966H124.138V142.759Z" fill="black"/>
<path d="M130.345 142.759H124.138V148.966H130.345V142.759Z" fill="black"/>
<path d="M161.379 142.759H155.172V148.966H161.379V142.759Z" fill="black"/>
<path d="M167.586 142.759H161.379V148.966H167.586V142.759Z" fill="black"/>
<path d="M74.4828 148.966H68.2759V155.172H74.4828V148.966Z" fill="black"/>
<path d="M80.6897 148.966H74.4828V155.172H80.6897V148.966Z" fill="black"/>
<path d="M86.8966 148.966H80.6897V155.172H86.8966V148.966Z" fill="black"/>
<path d="M99.3104 148.966H93.1035V155.172H99.3104V148.966Z" fill="black"/>
<path d="M117.931 148.966H111.724V155.172H117.931V148.966Z" fill="black"/>
<path d="M124.138 148.966H117.931V155.172H124.138V148.966Z" fill="black"/>
<path d="M142.759 148.966H136.552V155.172H142.759V148.966Z" fill="black"/>
<path d="M148.966 148.966H142.759V155.172H148.966V148.966Z" fill="black"/>
<path d="M155.172 148.966H148.966V155.172H155.172V148.966Z" fill="black"/>
<path d="M161.379 148.966H155.172V155.172H161.379V148.966Z" fill="black"/>
<path d="M167.586 148.966H161.379V155.172H167.586V148.966Z" fill="black"/>
<path d="M80.6897 155.172H74.4828V161.379H80.6897V155.172Z" fill="black"/>
<path d="M86.8966 155.172H80.6897V161.379H86.8966V155.172Z" fill="black"/>
<path d="M93.1035 155.172H86.8966V161.379H93.1035V155.172Z" fill="black"/>
<path d="M99.3104 155.172H93.1035V161.379H99.3104V155.172Z" fill="black"/>
<path d="M130.345 155.172H124.138V161.379H130.345V155.172Z" fill="black"/>
<path d="M136.552 155.172H130.345V161.379H136.552V155.172Z" fill="black"/>
<path d="M142.759 155.172H136.552V161.379H142.759V155.172Z" fill="black"/>
<path d="M155.172 155.172H148.966V161.379H155.172V155.172Z" fill="black"/>
<path d="M161.379 155.172H155.172V161.379H161.379V155.172Z" fill="black"/>
<path d="M167.586 155.172H161.379V161.379H167.586V155.172Z" fill="black"/>
<path d="M68.2759 161.379H62.069V167.586H68.2759V161.379Z" fill="black"/>
<path d="M74.4828 161.379H68.2759V167.586H74.4828V161.379Z" fill="black"/>
<path d="M86.8966 161.379H80.6897V167.586H86.8966V161.379Z" fill="black"/>
<path d="M93.1035 161.379H86.8966V167.586H93.1035V161.379Z" fill="black"/>
<path d="M99.3104 161.379H93.1035V167.586H99.3104V161.379Z" fill="black"/>
<path d="M117.931 161.379H111.724V167.586H117.931V161.379Z" fill="black"/>
<path d="M130.345 161.379H124.138V167.586H130.345V161.379Z" fill="black"/>
<path d="M148.966 161.379H142.759V167.586H148.966V161.379Z" fill="black"/>
<path d="M167.586 161.379H161.379V167.586H167.586V161.379Z" fill="black"/>
<path d="M41.1983 55.8621H27.0906C19.0006 55.8621 12.4225 49.2058 12.4225 41.0288L12.4138 12.4138H41.1983C49.284 12.4138 55.8621 19.0701 55.8621 27.247V41.0288V55.8621H41.1983ZM49.3449 27.247C49.3449 22.6615 45.6904 18.931 41.1983 18.931H18.9328L18.9397 41.0266C18.9397 45.6144 22.5964 49.3448 27.0906 49.3448H49.3449V27.247Z" fill="black"/>
<path d="M152.922 12.4138H138.815C130.725 12.4138 124.147 19.0701 124.147 27.2471L124.138 55.8621H152.922C161.008 55.8621 167.586 49.2058 167.586 41.0289V27.2471V12.4138H152.922ZM161.069 41.0289C161.069 45.6144 157.415 49.3449 152.922 49.3449H130.657L130.664 27.2492C130.664 22.6615 134.32 18.9311 138.815 18.9311H161.069V41.0289Z" fill="black"/>
<path d="M41.1983 124.138H27.0906C19.0006 124.138 12.4225 130.794 12.4225 138.971L12.4138 167.586H41.1983C49.284 167.586 55.8621 160.93 55.8621 152.753V138.971V124.138H41.1983ZM49.3449 152.753C49.3449 157.339 45.6904 161.069 41.1983 161.069H18.9328L18.9397 138.973C18.9397 134.386 22.5964 130.655 27.0906 130.655H49.3449V152.753Z" fill="black"/>
<path d="M38.373 43.4523H29.898C29.4621 43.4523 29.0392 43.397 28.6372 43.2893C27.7471 43.0555 26.9537 42.5829 26.3247 41.9419C26.2098 41.8263 26.1001 41.7029 25.9985 41.577C25.2754 40.6893 24.8421 39.5468 24.8421 38.307L24.8369 24.8316H38.373C41.1607 24.8316 43.4263 27.14 43.4263 29.9765V38.3044V38.307L43.4576 43.4495C43.4576 43.4495 40.1165 43.4523 38.373 43.4523Z" fill="black"/>
<path d="M150.097 24.8237H141.622C141.186 24.8237 140.763 24.879 140.361 24.9867C139.471 25.2205 138.678 25.6931 138.049 26.3341C137.934 26.4497 137.824 26.5731 137.723 26.699C137 27.5867 136.566 28.7292 136.566 29.969L136.561 43.4444H150.097C152.885 43.4444 155.15 41.136 155.15 38.2995V29.9716V29.969L155.182 24.8265C155.182 24.8265 151.841 24.8237 150.097 24.8237Z" fill="black"/>
<path d="M38.373 136.548H29.898C29.4621 136.548 29.0392 136.603 28.6372 136.711C27.7471 136.945 26.9537 137.417 26.3247 138.058C26.2098 138.174 26.1001 138.297 25.9985 138.423C25.2754 139.311 24.8421 140.453 24.8421 141.693L24.8369 155.169H38.373C41.1607 155.169 43.4263 152.86 43.4263 150.024V141.696V141.693L43.4576 136.551C43.4576 136.551 40.1165 136.548 38.373 136.548Z" fill="black"/>
</g>
<defs>
<clipPath id="clip0_3640_18557">
<rect width="180" height="180" fill="white"/>
</clipPath>
</defs>
</svg>
