<svg width="32" height="33" viewBox="0 0 32 33" fill="none" xmlns="http://www.w3.org/2000/svg">
<path fill-rule="evenodd" clip-rule="evenodd" d="M30.4044 4.72427C30.3888 4.18102 30.0452 3.70157 29.5357 3.51241L29.5292 3.5101C29.4898 3.49599 29.3917 3.4609 29.3336 3.44093C29.2104 3.39855 29.0328 3.33931 28.8062 3.26834C28.3534 3.12646 27.7036 2.93727 26.8997 2.74226C25.2956 2.35307 23.0597 1.93613 20.5406 1.83185C15.5298 1.62444 9.17445 2.65317 4.59307 7.88387C0.80328 12.2108 0.232473 18.569 3.91612 23.0364C2.78963 25.1807 1.89421 27.4278 1.37362 29.51C1.19502 30.2244 1.62937 30.9484 2.34377 31.127C3.05816 31.3056 3.78208 30.8712 3.96066 30.1568C4.37477 28.5004 5.06946 26.6855 5.95616 24.9036C8.30216 26.4495 11.5447 27.01 14.518 26.3886C18.1957 25.62 21.6054 23.0154 22.6385 18.1082C23.7186 12.9774 25.5598 9.9171 27.0582 8.16434C27.8104 7.28461 28.4854 6.72331 28.9524 6.39042C29.1861 6.22377 29.3684 6.11389 29.4828 6.04978C29.54 6.01773 29.5804 5.9971 29.6016 5.98655L29.6182 5.9785C30.1092 5.75785 30.4197 5.26317 30.4044 4.72427ZM20.4304 4.49623C15.8045 4.30477 10.4221 5.27603 6.59909 9.64086C3.78587 12.8528 3.30202 17.2347 5.3789 20.5152C7.06417 17.877 9.11589 15.4874 11.2609 14.0574C11.8736 13.6489 12.7014 13.8145 13.1099 14.4272C13.5184 15.0399 13.3528 15.8678 12.7401 16.2762C10.9602 17.4627 9.08042 19.6212 7.46448 22.2068C7.39194 22.3228 7.32009 22.4395 7.24895 22.5567C8.92 23.739 11.4953 24.296 13.9724 23.7783C16.731 23.2018 19.2376 21.3183 20.029 17.5588C21.1945 12.0229 23.2222 8.54767 25.0313 6.43153C25.4044 5.99515 25.7666 5.61838 26.1078 5.29463C24.6377 4.94638 22.6465 4.58797 20.4304 4.49623Z" fill="#D33836"/>
</svg>
