<svg width="16" height="16" viewBox="0 0 16 16" fill="none" xmlns="http://www.w3.org/2000/svg">
<g clip-path="url(#clip0_698_31442)">
<path d="M2 12.3346C2 12.8869 2.44772 13.3346 3 13.3346H3.18182C3.7341 13.3346 4.18182 12.8869 4.18182 12.3346V7.93464C4.18182 7.38235 3.7341 6.93464 3.18182 6.93464H3C2.44771 6.93464 2 7.38235 2 7.93464V12.3346ZM14 7.46797C14 6.8813 13.5091 6.4013 12.9091 6.4013H9.46727L9.98545 3.96397L10.0018 3.7933C10.0018 3.57464 9.90909 3.37197 9.76182 3.22797C9.44005 2.91632 8.92859 2.91773 8.60854 3.23114L5.59455 6.18264C5.39273 6.37464 5.27273 6.6413 5.27273 6.93464V12.268C5.27273 12.8546 5.76364 13.3346 6.36364 13.3346H11.2727C11.7255 13.3346 12.1127 13.068 12.2764 12.684L13.9236 8.92397C13.9727 8.8013 14 8.6733 14 8.53464V7.46797Z" fill="#C68811"/>
</g>
<defs>
<clipPath id="clip0_698_31442">
<rect width="16" height="16" fill="white"/>
</clipPath>
</defs>
</svg>
