<svg width="20" height="20" viewBox="0 0 20 20" fill="none" xmlns="http://www.w3.org/2000/svg">
<path d="M10 2C12.1217 2 14.1566 2.84285 15.6569 4.34315C17.1571 5.84344 18 7.87827 18 10C18 12.1217 17.1571 14.1566 15.6569 15.6569C14.1566 17.1571 12.1217 18 10 18C7.87827 18 5.84344 17.1571 4.34315 15.6569C2.84285 14.1566 2 12.1217 2 10C2 7.87827 2.84285 5.84344 4.34315 4.34315C5.84344 2.84285 7.87827 2 10 2ZM13.358 7.646C13.2752 7.56358 13.1662 7.51275 13.0498 7.50234C12.9334 7.49192 12.8171 7.52259 12.721 7.589L12.651 7.646L9 11.298L7.354 9.651L7.284 9.593C7.18769 9.52665 7.07116 9.49616 6.95469 9.50684C6.83822 9.51752 6.72918 9.56869 6.64653 9.65145C6.56389 9.73421 6.51288 9.84333 6.50237 9.95981C6.49185 10.0763 6.52251 10.1928 6.589 10.289L6.646 10.359L8.646 12.359L8.716 12.416C8.7995 12.4736 8.89855 12.5045 9 12.5045C9.10145 12.5045 9.2005 12.4736 9.284 12.416L9.354 12.358L13.358 8.354L13.416 8.284C13.4826 8.18769 13.5132 8.07108 13.5026 7.95449C13.492 7.8379 13.4408 7.72873 13.358 7.646Z" fill="#D33836"/>
</svg>
