<svg width="24" height="24" viewBox="0 0 24 24" fill="none" xmlns="http://www.w3.org/2000/svg">
<g clip-path="url(#clip0_3001_16349)">
<path fill-rule="evenodd" clip-rule="evenodd" d="M19.1139 20.4503C21.9052 17.4378 22.1839 13.1572 19.7363 10.8892C17.2887 8.62118 13.0416 9.22469 10.2502 12.2372C7.45888 15.2496 7.18022 19.5303 9.62784 21.7982C12.0755 24.0662 16.3225 23.4627 19.1139 20.4503ZM18.0135 19.4382C20.2452 17.0354 20.564 13.7033 18.7256 11.9959C16.8872 10.2884 13.5877 10.8521 11.356 13.255C9.12432 15.6579 8.80549 18.9899 10.6439 20.6974C12.4823 22.4048 15.7818 21.8411 18.0135 19.4382Z" fill="black"/>
<path fill-rule="evenodd" clip-rule="evenodd" d="M17.8144 9.78162C19.3739 7.83948 19.4557 5.25808 17.9414 3.85496C16.3412 2.37218 13.5645 2.76675 11.7396 4.73625C10.5468 6.02347 10.0558 7.66485 10.3055 9.06156C10.9104 9.53867 11.4654 10.1263 11.9374 10.814C12.2633 10.6013 12.598 10.4142 12.9379 10.2531C12.7209 10.1688 12.5219 10.047 12.3484 9.88623C11.3545 8.96531 11.5725 7.11399 12.8353 5.75119C14.0981 4.3884 15.9274 4.03019 16.9213 4.95112C17.9152 5.87204 17.6972 7.72336 16.4344 9.08615C16.2877 9.24445 16.1334 9.38919 15.9736 9.51995C16.6101 9.51129 17.2309 9.59749 17.8144 9.78162Z" fill="black"/>
<path fill-rule="evenodd" clip-rule="evenodd" d="M3.84229 8.35748C6.30483 6.74214 9.89404 7.84432 11.9345 10.8132C11.5582 11.0589 11.1936 11.3388 10.8458 11.6519C10.8453 11.6512 10.8449 11.6505 10.8444 11.6498C9.34464 9.26917 6.63099 8.36251 4.78334 9.62473C2.9357 10.887 2.65371 13.8401 4.15351 16.2207C5.12921 17.7695 6.61863 18.6944 8.04914 18.8041C8.13587 19.3141 8.28678 19.8032 8.50267 20.2592C6.48632 20.2195 4.34564 19.0091 2.96895 16.9103C0.947692 13.829 1.3387 9.99975 3.84229 8.35748Z" fill="black"/>
<path d="M17.5998 4.99953C17.5998 4.99953 14.8638 5.08722 14.3945 7.53435C13.9251 9.98148 10.9155 10.0779 10.9155 10.0779" stroke="#1D1F20" stroke-width="1.5"/>
<path d="M17.5998 4.99953C17.5998 4.99953 14.8638 5.08722 14.3945 7.53435C13.9251 9.98148 10.9155 10.0779 10.9155 10.0779" stroke="#1D1F20" stroke-width="1.5"/>
<path fill-rule="evenodd" clip-rule="evenodd" d="M4.96586 8.53525C4.23247 8.37826 4.2324 8.37859 4.23232 8.37894L4.23216 8.3797L4.23178 8.38149L4.23083 8.38609L4.22814 8.39933C4.22603 8.40992 4.2233 8.42404 4.2201 8.44149C4.2137 8.47638 4.20539 8.52471 4.19638 8.585C4.17837 8.70539 4.1574 8.87448 4.14326 9.08025C4.11514 9.48937 4.1131 10.0564 4.22195 10.6802C4.44156 11.9387 5.12821 13.4729 6.97022 14.3231C7.59741 14.6126 8.02712 15.0337 8.31806 15.5154C8.48671 14.9859 8.71475 14.4607 9.00143 13.9513C8.63466 13.5678 8.17452 13.2269 7.5988 12.9612C6.33575 12.3782 5.86307 11.359 5.69962 10.4224C5.61694 9.94853 5.61743 9.50759 5.63973 9.18309C5.6508 9.02205 5.66701 8.89293 5.67988 8.80681C5.68631 8.76384 5.69186 8.73184 5.69547 8.71222L5.69925 8.69233L5.69937 8.69164C5.69931 8.69193 5.69924 8.69224 4.96586 8.53525Z" fill="#1D1F20"/>
<path d="M20 12.0024C20 12.0024 15.282 12.7887 14.5642 16.5317C13.8463 20.2747 9.24292 20.4223 9.24292 20.4223" stroke="#1D1F20" stroke-width="1.5"/>
<path fill-rule="evenodd" clip-rule="evenodd" d="M3.50477 6.45678L2.68051 5.30908C2.00233 4.35963 2.00233 3.08672 2.68051 2.1477L3.50477 1L4.32902 2.1477C5.00721 3.09716 5.00721 4.37006 4.32902 5.30908L3.50477 6.45678ZM3.50685 4.74901L3.71277 4.32282C3.8822 3.97024 3.8822 3.49755 3.71277 3.14885L3.50685 2.72266L3.30094 3.14885C3.13151 3.50143 3.13151 3.97411 3.30094 4.32282L3.50685 4.74901Z" fill="black"/>
<path d="M0.874625 5.58294L0.788621 5.44094L0.953591 5.40428L0.953592 5.40428L0.955257 5.4039C1.38929 5.3059 1.85128 5.50254 2.08576 5.89335L2.08576 5.89335L2.08683 5.89512L2.17453 6.03994L2.01959 6.07437C1.93486 6.08936 1.86288 6.096 1.78415 6.096C1.42783 6.096 1.07689 5.90624 0.874625 5.58294Z" fill="white" stroke="#1D1F20"/>
<path d="M5.01184 6.06694L5.00036 6.06381L4.98875 6.06123L4.82377 6.02457L4.91148 5.87974L4.91148 5.87975L4.91255 5.87797C5.14342 5.49319 5.59374 5.29733 6.04875 5.3898L6.20969 5.42556L6.12198 5.57038L6.12194 5.57036L6.11845 5.5763C5.92875 5.89951 5.58379 6.09105 5.21415 6.09105C5.13344 6.09105 5.07476 6.0841 5.01184 6.06694Z" fill="white" stroke="#1D1F20"/>
</g>
<defs>
<clipPath id="clip0_3001_16349">
<rect width="24" height="24" fill="white"/>
</clipPath>
</defs>
</svg>
