<svg width="24" height="24" fill="none" xmlns="http://www.w3.org/2000/svg"><path fill-rule="evenodd" clip-rule="evenodd" d="M10.554.653a3 3 0 0 1 2.892 0l8 4.4A2.999 2.999 0 0 1 23 7.68v8.635a3 3 0 0 1-1.554 2.629l-8 4.4a3 3 0 0 1-2.892 0l-8-4.4A3 3 0 0 1 1 16.316V7.681a3 3 0 0 1 1.554-2.628l8-4.4Zm1.928 1.752a1 1 0 0 0-.964 0L4.441 6.297l7.56 4.536 7.558-4.536-7.077-3.892ZM21 7.765l-8 4.8v8.743l7.482-4.116a1 1 0 0 0 .518-.876V7.765ZM11 21.308v-8.743l-8-4.8v8.551a1 1 0 0 0 .518.876L11 21.308Z" fill="#1D1F20"/></svg>