<svg width="24" height="24" fill="none" xmlns="http://www.w3.org/2000/svg"><path d="M24 12.665c0-.981-.31-1.884-.834-2.63a1.09 1.09 0 0 0 .014-.182C23.18 4.441 18.173 0 12.047 0 5.92 0 .918 4.446.864 9.858c0 .04.005.084.01.123A4.536 4.536 0 0 0 0 12.665c0 .128.083.496.103.56L2.607 23.23c.098.46.505.77.967.77h16.955a.983.983 0 0 0 .972-.765c-.005 0 2.499-10.555 2.499-10.57ZM12.052 1.997c4.467 0 8.178 2.748 8.978 6.384a4.638 4.638 0 0 0-1.679-.309 4.65 4.65 0 0 0-3.691 1.816 4.657 4.657 0 0 0-3.662-1.767A4.676 4.676 0 0 0 8.34 9.878a4.655 4.655 0 0 0-3.696-1.81c-.55 0-1.075.092-1.566.269.825-3.612 4.521-6.34 8.974-6.34Zm-2.067 20.01s-.682-9.278-.692-9.342c0-1.379 1.173-2.552 2.655-2.552 1.483 0 2.656 1.173 2.656 2.606 0 .118-.78 9.289-.78 9.289h-3.84Zm-7.943-9.342c0-1.428 1.173-2.606 2.656-2.606 1.482 0 2.656 1.173 2.656 2.606l.687 9.343H4.34s-2.298-9.328-2.298-9.343Zm17.722 9.343h-3.986s.868-9.29.868-9.343c0-1.428 1.174-2.606 2.656-2.606 1.483 0 2.656 1.173 2.656 2.606 0 .103-2.194 9.343-2.194 9.343Z" fill="#1D1F20"/></svg>