<svg width="72" height="73" viewBox="0 0 72 73" fill="none" xmlns="http://www.w3.org/2000/svg">
<path d="M43.0164 42.8852C42.8566 42.7937 42.7251 42.6599 42.6364 42.4985C42.5448 42.3419 42.4976 42.1633 42.4998 41.9819V13.1153C42.4998 11.4086 41.7998 9.77531 40.5464 8.56865C39.2773 7.35607 37.5884 6.68124 35.8331 6.68532C34.0665 6.68532 32.3665 7.36199 31.1198 8.56865C30.5057 9.1566 30.0163 9.86217 29.6807 10.6433C29.3451 11.4244 29.1702 12.2651 29.1665 13.1153V41.9819C29.1686 42.1633 29.1214 42.3419 29.0298 42.4985C28.9412 42.6599 28.8097 42.7937 28.6498 42.8852C26.6909 44.1095 25.0867 45.8252 23.9965 47.8618C22.9217 49.8719 22.4093 52.1348 22.5132 54.4118C22.598 56.0871 23.0147 57.7288 23.7391 59.2418C24.4635 60.7547 25.4812 62.1087 26.7332 63.2251C29.3162 65.5253 32.6753 66.7605 36.1331 66.6818C39.5912 66.617 42.8941 65.2339 45.3664 62.8151C46.5617 61.6436 47.5129 60.2468 48.1651 58.7054C48.8174 57.1641 49.1577 55.5088 49.1664 53.8351C49.1664 51.6618 48.6064 49.5218 47.5331 47.6118C46.4427 45.6871 44.8905 44.0639 43.0164 42.8885" stroke="#4F4F4F" stroke-width="3.5" stroke-linecap="round" stroke-linejoin="round"/>
</svg>
