<svg width="24" height="24" viewBox="0 0 24 24" fill="none" xmlns="http://www.w3.org/2000/svg">
<path d="M21.0824 8.82057C16.8664 4.27333 8.3717 0.603339 2.12826 1.91921C1.71651 1.99977 1.55091 2.33096 1.58224 2.65768C-2.30704 4.79254 1.994 12.1907 3.63653 14.3524C6.8679 18.6535 12.6191 23.4468 18.4015 22.131C21.0869 21.5268 23.0292 19.007 23.7722 16.4873C24.6181 13.6408 22.9711 10.848 21.0824 8.82057ZM17.6048 20.8196C13.0308 21.8624 8.18373 17.4227 5.44467 14.33C2.70561 11.1792 0.597614 7.37496 2.26701 3.45434C6.01754 10.2483 13.6081 15.5071 20.8362 17.8612C21.7135 18.1343 22.0983 16.7647 21.2211 16.4649C14.266 14.1107 7.44526 9.39792 3.30982 3.23503C8.29562 2.63083 13.9931 5.28933 17.9092 8.02844C20.1559 9.61727 22.3177 11.9446 22.5101 14.8224C22.6444 17.642 20.2052 20.2154 17.6048 20.8196Z" fill="#1D1F20"/>
</svg>
