<svg width="32" height="32" viewBox="0 0 32 32" fill="none" xmlns="http://www.w3.org/2000/svg">
<path d="M6.79922 3.19922C5.84444 3.19922 4.92877 3.5785 4.25363 4.25363C3.5785 4.92877 3.19922 5.84444 3.19922 6.79922V9.99922C3.19922 10.3175 3.32565 10.6227 3.55069 10.8477C3.77573 11.0728 4.08096 11.1992 4.39922 11.1992C4.71748 11.1992 5.0227 11.0728 5.24775 10.8477C5.47279 10.6227 5.59922 10.3175 5.59922 9.99922V6.79922C5.59922 6.48096 5.72565 6.17573 5.95069 5.95069C6.17573 5.72565 6.48096 5.59922 6.79922 5.59922H9.99922C10.3175 5.59922 10.6227 5.47279 10.8477 5.24775C11.0728 5.0227 11.1992 4.71748 11.1992 4.39922C11.1992 4.08096 11.0728 3.77573 10.8477 3.55069C10.6227 3.32565 10.3175 3.19922 9.99922 3.19922H6.79922ZM21.9992 3.19922C21.681 3.19922 21.3757 3.32565 21.1507 3.55069C20.9256 3.77573 20.7992 4.08096 20.7992 4.39922C20.7992 4.71748 20.9256 5.0227 21.1507 5.24775C21.3757 5.47279 21.681 5.59922 21.9992 5.59922H25.1992C25.5175 5.59922 25.8227 5.72565 26.0477 5.95069C26.2728 6.17573 26.3992 6.48096 26.3992 6.79922V9.99922C26.3992 10.3175 26.5256 10.6227 26.7507 10.8477C26.9757 11.0728 27.281 11.1992 27.5992 11.1992C27.9175 11.1992 28.2227 11.0728 28.4477 10.8477C28.6728 10.6227 28.7992 10.3175 28.7992 9.99922V6.79922C28.7992 5.84444 28.4199 4.92877 27.7448 4.25363C27.0697 3.5785 26.154 3.19922 25.1992 3.19922H21.9992ZM5.59922 21.9992C5.59922 21.681 5.47279 21.3757 5.24775 21.1507C5.0227 20.9256 4.71748 20.7992 4.39922 20.7992C4.08096 20.7992 3.77573 20.9256 3.55069 21.1507C3.32565 21.3757 3.19922 21.681 3.19922 21.9992V25.1992C3.19922 26.154 3.5785 27.0697 4.25363 27.7448C4.92877 28.4199 5.84444 28.7992 6.79922 28.7992H9.99922C10.3175 28.7992 10.6227 28.6728 10.8477 28.4477C11.0728 28.2227 11.1992 27.9175 11.1992 27.5992C11.1992 27.281 11.0728 26.9757 10.8477 26.7507C10.6227 26.5256 10.3175 26.3992 9.99922 26.3992H6.79922C6.48096 26.3992 6.17573 26.2728 5.95069 26.0477C5.72565 25.8227 5.59922 25.5175 5.59922 25.1992V21.9992ZM28.7992 21.9992C28.7992 21.681 28.6728 21.3757 28.4477 21.1507C28.2227 20.9256 27.9175 20.7992 27.5992 20.7992C27.281 20.7992 26.9757 20.9256 26.7507 21.1507C26.5256 21.3757 26.3992 21.681 26.3992 21.9992V25.1992C26.3992 25.5175 26.2728 25.8227 26.0477 26.0477C25.8227 26.2728 25.5175 26.3992 25.1992 26.3992H21.9992C21.681 26.3992 21.3757 26.5256 21.1507 26.7507C20.9256 26.9757 20.7992 27.281 20.7992 27.5992C20.7992 27.9175 20.9256 28.2227 21.1507 28.4477C21.3757 28.6728 21.681 28.7992 21.9992 28.7992H25.1992C26.154 28.7992 27.0697 28.4199 27.7448 27.7448C28.4199 27.0697 28.7992 26.154 28.7992 25.1992V21.9992ZM11.1992 15.9992C11.1992 14.7262 11.7049 13.5053 12.6051 12.6051C13.5053 11.7049 14.7262 11.1992 15.9992 11.1992C17.2723 11.1992 18.4932 11.7049 19.3933 12.6051C20.2935 13.5053 20.7992 14.7262 20.7992 15.9992C20.7992 17.2723 20.2935 18.4932 19.3933 19.3933C18.4932 20.2935 17.2723 20.7992 15.9992 20.7992C14.7262 20.7992 13.5053 20.2935 12.6051 19.3933C11.7049 18.4932 11.1992 17.2723 11.1992 15.9992Z" fill="#979797"/>
</svg>
