<svg width="24" height="24" fill="none" xmlns="http://www.w3.org/2000/svg"><path fill-rule="evenodd" clip-rule="evenodd" d="M7.683 3a1 1 0 0 0-.876.518l-4.4 8a1 1 0 0 0 0 .964l4.4 8a1 1 0 0 0 .876.518h8.635a1 1 0 0 0 .876-.518l4.4-8a1 1 0 0 0 0-.964l-4.4-8A1 1 0 0 0 16.318 3H7.683Zm-2.628-.446A3 3 0 0 1 7.683 1h8.635a3 3 0 0 1 2.629 1.554l4.4 8a3 3 0 0 1 0 2.892l-4.4 8A3 3 0 0 1 16.318 23H7.683a3 3 0 0 1-2.628-1.554l-4.4-8a3 3 0 0 1 0-2.892l4.4-8ZM12 9a3 3 0 1 0 0 6 3 3 0 0 0 0-6Zm-5 3a5 5 0 1 1 10 0 5 5 0 0 1-10 0Z" fill="#1D1F20"/></svg>