<svg width="24" height="24" viewBox="0 0 24 24" fill="none" xmlns="http://www.w3.org/2000/svg">
<path fill-rule="evenodd" clip-rule="evenodd" d="M7.68125 3C7.31656 3 6.98079 3.19853 6.80504 3.51808L2.40503 11.5181C2.23999 11.8182 2.23999 12.1818 2.40503 12.4819L6.80503 20.4819C6.98079 20.8015 7.31656 21 7.68125 21H16.3162C16.6809 21 17.0166 20.8015 17.1924 20.4819L21.5924 12.4819C21.7574 12.1818 21.7574 11.8182 21.5924 11.5181L17.1924 3.51808C17.0166 3.19853 16.6809 3 16.3162 3H7.68125ZM5.0526 2.55424C5.57986 1.5956 6.58718 1 7.68125 1H16.3162C17.4103 1 18.4176 1.5956 18.9448 2.55424L23.3448 10.5542C23.84 11.4545 23.84 12.5455 23.3448 13.4458L18.9448 21.4458C18.4176 22.4044 17.4103 23 16.3162 23H7.68125C6.58718 23 5.57986 22.4044 5.0526 21.4458L0.652602 13.4458C0.157465 12.5455 0.157466 11.4545 0.652602 10.5542L5.0526 2.55424ZM11.9987 9C10.3419 9 8.99871 10.3431 8.99871 12C8.99871 13.6569 10.3419 15 11.9987 15C13.6556 15 14.9987 13.6569 14.9987 12C14.9987 10.3431 13.6556 9 11.9987 9ZM6.99871 12C6.99871 9.23858 9.23728 7 11.9987 7C14.7602 7 16.9987 9.23858 16.9987 12C16.9987 14.7614 14.7602 17 11.9987 17C9.23728 17 6.99871 14.7614 6.99871 12Z" fill="#1D1F20"/>
</svg>
