<svg width="24" height="24" viewBox="0 0 24 24" fill="none" xmlns="http://www.w3.org/2000/svg">
<path fill-rule="evenodd" clip-rule="evenodd" d="M10.5544 0.654548C11.4546 0.159421 12.5456 0.159421 13.4458 0.654549L21.4459 5.05456C21.7303 5.21097 21.9831 5.40989 22.1978 5.64091C22.7056 6.18741 23.0002 6.91377 23.0002 7.68321V16.3181C23.0002 17.4122 22.4046 18.4195 21.4459 18.9468L13.4458 23.3468C12.5456 23.8419 11.4546 23.8419 10.5544 23.3468L2.55426 18.9468C1.5956 18.4195 1 17.4122 1 16.3181V7.68322C1 6.9137 1.29468 6.18729 1.80257 5.64078C2.01721 5.40981 2.26993 5.21094 2.55426 5.05456L10.5544 0.654548ZM12.482 2.40698C12.1819 2.24194 11.8183 2.24194 11.5182 2.40698L4.44144 6.29916L12.0001 10.8345L19.5589 6.29922L12.482 2.40698ZM21.0002 7.7668L13.0001 12.5668V21.3094L20.4821 17.1943C20.8017 17.0186 21.0002 16.6828 21.0002 16.3181V7.7668ZM11.0001 21.3094V12.5668L3 7.76667V16.3181C3 16.6828 3.19853 17.0186 3.51808 17.1943L11.0001 21.3094Z" fill="#1D1F20"/>
</svg>
