<svg width="24" height="24" viewBox="0 0 24 24" fill="none" xmlns="http://www.w3.org/2000/svg">
<path fill-rule="evenodd" clip-rule="evenodd" d="M4.37469 3.66995C4.77584 1.26303 7.72977 0.316406 9.45519 2.04183L12 4.58663L14.5448 2.04183C16.2702 0.316406 19.2242 1.26303 19.6253 3.66995L19.8471 5.00085H20C21.6569 5.00085 23 6.34399 23 8.00085V11.0009C23 11.7412 22.5978 12.3875 22 12.7333V20.0009C22 21.6578 20.6569 23.0009 19 23.0009H5C3.34315 23.0009 2 21.6578 2 20.0009V12.7333C1.4022 12.3875 1 11.7412 1 11.0009V8.00085C1 6.34399 2.34315 5.00085 4 5.00085H4.15287L4.37469 3.66995ZM6.18046 5.00085H9.58579L8.04098 3.45604C7.46584 2.8809 6.48119 3.19644 6.34748 3.99875L6.18046 5.00085ZM11 7.00085V11.0009H3V8.00085C3 7.44856 3.44772 7.00085 4 7.00085H11ZM13 11.0009V7.00085H20C20.5523 7.00085 21 7.44856 21 8.00085V11.0009H13ZM11 13.0009H4V20.0009C4 20.5532 4.44772 21.0009 5 21.0009H11V13.0009ZM13 21.0009V13.0009H20V20.0009C20 20.5532 19.5523 21.0009 19 21.0009H13ZM14.4142 5.00085H17.8195L17.6525 3.99875C17.5188 3.19644 16.5342 2.8809 15.959 3.45604L14.4142 5.00085Z" fill="#1D1F20"/>
</svg>
