<svg width="24" height="24" fill="none" xmlns="http://www.w3.org/2000/svg"><path fill-rule="evenodd" clip-rule="evenodd" d="M20.252 5.665a5.257 5.257 0 0 0-7-.388l-1.253 1.001-1.252-1.001a5.257 5.257 0 0 0-7 .388c-1.93 1.929-2.046 4.977-.239 6.946 1.573 1.714 3.406 3.612 5.056 5.075.827.733 1.585 1.337 2.226 1.752.693.447 1.079.56 1.21.56.13 0 .516-.113 1.208-.56.641-.415 1.4-1.019 2.226-1.752 1.65-1.463 3.483-3.361 5.056-5.075 1.808-1.969 1.691-5.017-.238-6.946Zm-8.25-1.95a7.257 7.257 0 0 1 9.664.535c2.647 2.648 2.867 6.915.298 9.714-1.59 1.73-3.476 3.688-5.202 5.219-.862.763-1.706 1.441-2.468 1.934-.712.46-1.53.88-2.295.88-.764 0-1.583-.42-2.294-.88-.763-.493-1.607-1.17-2.468-1.934-1.726-1.531-3.613-3.488-5.202-5.22-2.57-2.798-2.35-7.065.297-9.713a7.257 7.257 0 0 1 9.665-.535l.002.002.003-.002Z" fill="#1D1F20"/></svg>