<svg width="62" height="63" viewBox="0 0 62 63" fill="none" xmlns="http://www.w3.org/2000/svg">
<g clip-path="url(#clip0_4201_18210)">
<path d="M7.7832 48.2909C7.7832 50.4181 9.50763 52.1425 11.6348 52.1425H12.3351C14.4623 52.1425 16.1867 50.4181 16.1867 48.2909V31.3438C16.1867 29.2166 14.4623 27.4922 12.3351 27.4922H11.6348C9.50763 27.4922 7.7832 29.2166 7.7832 31.3438V48.2909ZM54.0026 29.5463C54.0026 27.2867 52.1118 25.438 49.8008 25.438H36.5443L38.5401 16.0503L38.6031 15.3929C38.6031 14.5507 38.246 13.7701 37.6787 13.2155V13.2155C36.4394 12.0152 34.4695 12.0206 33.2368 13.2277L21.628 24.5957C20.8507 25.3352 20.3885 26.3623 20.3885 27.4922V48.0341C20.3885 50.2937 22.2793 52.1425 24.5903 52.1425H43.4982C45.2419 52.1425 46.7335 51.1154 47.3638 49.6364L53.7085 35.1543C53.8975 34.6818 54.0026 34.1888 54.0026 33.6547V29.5463Z" fill="#C68811"/>
</g>
<defs>
<clipPath id="clip0_4201_18210">
<rect width="61.6258" height="61.6258" fill="white" transform="translate(0.0799561 0.787354)"/>
</clipPath>
</defs>
</svg>
