<svg width="24" height="24" viewBox="0 0 24 24" fill="none" xmlns="http://www.w3.org/2000/svg">
<g clip-path="url(#clip0_2541_52080)">
<path d="M23.9998 9.33434C23.9794 9.37519 23.9385 9.43647 23.9181 9.47732C23.7751 9.72242 23.5709 9.8654 23.3054 9.8654C19.7105 9.8654 16.1361 9.8654 12.5412 9.8654C12.3166 9.8654 12.1327 9.76327 11.9898 9.6203C11.4383 9.06882 10.9072 8.53776 10.3557 7.98628C10.1515 7.78202 9.92681 7.57777 9.72256 7.35309C9.55916 7.18969 9.45703 6.98544 9.45703 6.76076C9.45703 4.75909 9.45703 2.75741 9.45703 0.755734C9.45703 0.449355 9.66128 0.102126 9.96766 0.0408499C9.98809 0.0408499 9.98809 0.0204253 10.0085 0C14.5021 0 18.9956 0 23.4892 0C23.5096 0.0204253 23.5096 0.0408499 23.53 0.0408499C23.7751 0.102126 23.9181 0.265529 23.9998 0.490207C23.9998 0.490207 24.0202 0.510632 24.0407 0.510632C23.9998 3.47229 23.9998 6.41353 23.9998 9.33434ZM10.8664 1.42977C10.8664 1.49104 10.8664 1.53189 10.8664 1.57274C10.8664 3.12506 10.8664 4.67738 10.8664 6.2297C10.8664 6.43396 10.8868 6.59736 11.0502 6.71991C11.0706 6.74034 11.0706 6.74034 11.0911 6.76076C11.6425 7.31224 12.194 7.86373 12.7455 8.41521C12.7863 8.45606 12.8476 8.47648 12.8885 8.47648C14.8289 8.47648 16.7897 8.47648 18.7301 8.47648C18.7709 8.47648 18.7914 8.47648 18.8322 8.47648C18.8322 6.12758 18.8322 3.7991 18.8322 1.45019C16.1769 1.42977 13.5421 1.42977 10.8664 1.42977ZM20.262 8.45606C21.0381 8.45606 21.8143 8.45606 22.5905 8.45606C22.5905 6.10715 22.5905 3.77867 22.5905 1.42977C21.8143 1.42977 21.0381 1.42977 20.262 1.42977C20.262 3.77867 20.262 6.10715 20.262 8.45606Z" fill="#1D1F20"/>
<path d="M0 17.5253C0.0204253 17.4845 0.0612683 17.4232 0.0816936 17.3823C0.22467 17.1372 0.428923 16.9943 0.694451 16.9943C2.12422 16.9943 3.57442 16.9943 5.00419 16.9943C5.04504 16.9943 5.08589 16.9943 5.12674 16.9943C5.14716 16.8513 5.16758 16.7287 5.18801 16.6062C5.22886 16.3611 5.39226 16.2181 5.59651 16.116C5.98459 15.9526 6.41353 16.1977 6.53608 16.5857C6.55651 16.6674 6.5565 16.7696 6.5565 16.8513C6.5565 16.9534 6.57693 16.9943 6.69948 16.9943C7.08756 16.9943 7.47565 16.9943 7.86373 16.9943C7.90458 16.9943 7.925 16.9943 7.96585 16.9943C7.94543 16.7083 7.96585 16.4632 8.19052 16.2589C8.3335 16.1364 8.49691 16.0547 8.68074 16.0547C8.90541 16.0751 9.08923 16.1568 9.23221 16.3406C9.37519 16.5245 9.37519 16.7491 9.37519 16.9738C9.43646 16.9738 9.47731 16.9738 9.53859 16.9738C12.1939 16.9738 14.8696 16.9738 17.5249 16.9738C17.913 16.9738 18.1989 17.1985 18.2806 17.5457C18.3419 17.8113 18.1989 18.1585 17.9129 18.281C17.8108 18.3423 17.6678 18.3627 17.5453 18.3627C17.3206 18.3832 17.0959 18.3627 16.8713 18.3627H16.8508C16.8304 18.4649 16.81 18.567 16.7896 18.6691C16.7079 19.0164 16.6466 19.3636 16.5445 19.6904C16.3606 20.2623 16.0747 20.7933 15.7479 21.2836C15.3189 21.8963 14.8083 22.4069 14.1956 22.8359C13.8075 23.1014 13.4194 23.3261 12.9905 23.5099C12.7454 23.612 12.4798 23.6733 12.2347 23.755C11.8875 23.8571 11.5198 23.9388 11.1726 23.9593C11.1522 23.9593 11.1113 23.9797 11.0909 24.0001C9.80412 24.0001 8.51733 24.0001 7.23054 24.0001C7.18968 23.9797 7.16926 23.9593 7.12841 23.9593C7.04671 23.9593 6.965 23.9593 6.8833 23.9388C6.5565 23.8776 6.2297 23.7959 5.92333 23.7142C5.67822 23.6529 5.45354 23.5712 5.22886 23.4691C4.71823 23.2444 4.22802 22.9584 3.79909 22.5908C3.18634 22.0801 2.65528 21.4878 2.2672 20.7933C2.12422 20.5482 2.00167 20.2623 1.89955 19.9968C1.79742 19.7517 1.6953 19.4861 1.63402 19.2206C1.55232 18.9346 1.51146 18.6487 1.45019 18.3627C1.42976 18.3627 1.38891 18.3627 1.34806 18.3627C1.12338 18.3627 0.919129 18.3627 0.694451 18.3627C0.408498 18.3627 0.142974 18.1585 0.0612733 17.893C0.0612733 17.8725 0.0408455 17.8725 0.0204203 17.8521C-4.98694e-06 17.7704 0 17.6479 0 17.5253ZM2.8391 18.424C2.90038 18.6283 2.92081 18.8325 2.98208 19.0164C3.06378 19.3023 3.16591 19.5678 3.28846 19.8334C3.49271 20.2827 3.77867 20.6708 4.10547 21.0384C4.41185 21.3857 4.77951 21.6716 5.16759 21.8963C5.55567 22.1414 5.9846 22.3252 6.43396 22.4274C6.82204 22.5295 7.18968 22.5908 7.59819 22.6112C8.59903 22.6112 9.57945 22.6112 10.5803 22.6112C10.8662 22.6112 11.1522 22.5703 11.4381 22.5295C11.7854 22.4886 12.1122 22.3661 12.439 22.2435C12.97 22.0393 13.4194 21.7329 13.8483 21.3653C14.1547 21.0997 14.4202 20.7933 14.6449 20.4461C14.8492 20.1397 15.033 19.7925 15.1555 19.4453C15.2372 19.2206 15.2985 18.9755 15.3802 18.7304C15.4006 18.6283 15.4211 18.5261 15.4415 18.4036C11.2339 18.424 7.04671 18.424 2.8391 18.424Z" fill="#1D1F20"/>
<path d="M6.47439 11.2747C6.92375 11.2543 7.23013 11.6832 7.16885 12.0713C7.14843 12.1939 7.10758 12.3164 7.06673 12.439C7.02588 12.582 6.98503 12.7249 6.94418 12.8679C6.88291 13.1334 6.82163 13.399 6.76035 13.6645C6.73992 13.787 6.7195 13.93 6.69908 14.0526C6.65823 14.5428 6.29057 14.8287 5.82079 14.7266C5.57569 14.6858 5.43271 14.5223 5.33058 14.2977C5.24888 14.1138 5.26931 13.9504 5.31016 13.7666C5.33059 13.6645 5.35101 13.5624 5.37143 13.4602C5.45314 13.0926 5.51441 12.7454 5.61654 12.3777C5.67782 12.1326 5.73909 11.9079 5.82079 11.6628C5.88207 11.479 6.12716 11.2543 6.47439 11.2747Z" fill="#1D1F20"/>
<path d="M8.1084 14.4026C8.12882 14.3004 8.16968 14.1166 8.1901 13.9328C8.23095 13.7694 8.25138 13.606 8.29223 13.4426C8.33308 13.2792 8.37393 13.1158 8.43521 12.9524C8.47606 12.8298 8.49649 12.7073 8.57819 12.6051C8.88457 12.1762 9.51775 12.2375 9.76285 12.7073C9.86498 12.9115 9.86497 13.0953 9.78327 13.2996C9.74242 13.463 9.70158 13.6468 9.66073 13.8102C9.59945 14.1166 9.55859 14.423 9.47689 14.7294C9.39519 15.0357 9.10925 15.2196 8.78244 15.1991C8.37394 15.1787 8.1084 14.8723 8.1084 14.4026Z" fill="#1D1F20"/>
<path d="M6.92449 9.49677C6.90407 9.31295 7.00619 9.16997 7.12874 9.00657C7.29215 8.78189 7.47598 8.55721 7.65981 8.33253C7.94576 8.02615 8.33383 7.9853 8.66064 8.27126C8.92617 8.51636 9.00786 8.90444 8.72191 9.25167C8.53808 9.47635 8.37469 9.72145 8.17044 9.94613C7.96619 10.1912 7.68023 10.2934 7.37385 10.1912C7.10832 10.0891 6.92449 9.844 6.92449 9.49677Z" fill="#1D1F20"/>
<path d="M11.3154 10.1906C11.3154 10.3744 11.2337 10.5378 11.1112 10.6604C10.9273 10.8851 10.7639 11.1097 10.6005 11.3548C10.4371 11.5795 10.2124 11.6612 9.94692 11.6204C9.68139 11.5795 9.47715 11.4161 9.39544 11.171C9.31374 10.9463 9.33416 10.7217 9.47714 10.5378C9.68139 10.2723 9.88564 9.98635 10.0899 9.72082C10.2329 9.537 10.4371 9.45529 10.6618 9.47572C10.9273 9.49615 11.1316 9.63912 11.2541 9.90465C11.295 10.0068 11.295 10.1089 11.3154 10.1906Z" fill="#1D1F20"/>
</g>
<defs>
<clipPath id="clip0_2541_52080">
<rect width="24" height="24" fill="white"/>
</clipPath>
</defs>
</svg>
