<svg width="24" height="24" viewBox="0 0 24 24" fill="none" xmlns="http://www.w3.org/2000/svg">
<g clip-path="url(#clip0_2541_52095)">
<path d="M0.0814251 16.4285C0.101782 16.3471 0.142494 16.2453 0.16285 16.1639C0.244276 15.8178 0.40713 15.5125 0.59034 15.2275C0.773549 14.9425 1.01783 14.6982 1.28246 14.4947C1.50638 14.3318 1.73031 14.1893 1.99494 14.0672C2.0153 14.0468 2.05602 14.0264 2.05602 14.0264C1.93388 13.7618 1.81173 13.4972 1.68959 13.2529C1.5471 12.8865 1.48603 12.4997 1.50639 12.1129C1.50639 11.9094 1.52675 11.6854 1.56746 11.4819C1.6896 10.8712 1.99494 10.403 2.52421 10.0569C2.78885 9.89406 3.0942 9.79228 3.4199 9.75157C3.70489 9.71085 3.96954 9.75157 4.21381 9.81264C4.39702 9.85335 4.58023 9.97549 4.74308 10.0569C4.82451 10.0976 4.84487 10.0976 4.88558 9.99585C4.94665 9.81264 5.00772 9.60907 5.06879 9.42586C5.12986 9.20194 5.21128 8.95766 5.27235 8.71338C5.33342 8.48946 5.41485 8.26554 5.49628 8.04162C5.55735 7.87876 5.59806 7.69555 5.63877 7.5327C5.7202 7.26807 5.78127 7.00343 5.88305 6.75915C6.0459 6.39274 6.37161 6.29095 6.75839 6.39273C7.06373 6.47416 7.34872 6.57595 7.63372 6.65737C7.85764 6.7388 8.10192 6.79986 8.32584 6.88129C8.54976 6.94236 8.77369 7.00343 8.97725 7.08485C9.26224 7.16628 9.54723 7.26807 9.85258 7.34949C10.0358 7.41056 10.219 7.45127 10.3819 7.51234C10.5854 7.57341 10.8093 7.65484 10.9926 7.75663C11.1758 7.85841 11.2572 8.02126 11.2979 8.22482C11.3183 8.44875 11.2368 8.65231 11.1758 8.85588C11.1147 9.03909 11.074 9.2223 11.0129 9.40551C10.9315 9.6905 10.8297 9.97549 10.7483 10.2808C10.7076 10.4233 10.6668 10.5862 10.6058 10.749C10.6872 10.749 10.7279 10.749 10.789 10.749C14.9214 10.749 19.0741 10.749 23.2065 10.749C23.4915 10.749 23.7358 10.8305 23.8986 11.0747C23.9393 11.1358 23.98 11.2172 24.0004 11.2987C24.0004 15.3496 24.0004 19.4006 24.0004 23.4515C23.98 23.4719 23.9801 23.4719 23.9597 23.4923C23.8783 23.7162 23.7358 23.8587 23.5118 23.9401C23.4915 23.9401 23.4711 23.9605 23.4508 23.9808C18.5245 23.9808 13.6186 23.9808 8.69226 23.9808C8.6719 23.9605 8.6719 23.9401 8.65155 23.9401C8.50905 23.9197 8.40726 23.818 8.30548 23.7162C8.16299 23.5533 8.14263 23.3701 8.14263 23.1666C8.14263 21.7823 8.14263 20.4184 8.14263 19.0342C8.14263 18.9731 8.12227 18.9324 8.12227 18.8713C8.10192 18.8713 8.10192 18.8713 8.08156 18.8713C8.08156 18.912 8.06121 18.9527 8.06121 18.9935C8.00014 19.1767 7.93907 19.3802 7.878 19.5634C7.81693 19.7263 7.77621 19.8891 7.7355 20.0724C7.65407 20.3166 7.593 20.5406 7.51158 20.7848C7.45051 21.0088 7.38944 21.2327 7.30801 21.4566C7.22658 21.7416 7.1248 22.0266 7.04338 22.3116C6.98231 22.4948 6.94159 22.6576 6.88052 22.8409C6.81945 23.0241 6.75838 23.2276 6.69731 23.4108C6.61589 23.6755 6.47339 23.8587 6.20876 23.9401C6.1884 23.9401 6.1884 23.9605 6.16804 23.9808C6.0459 23.9808 5.94412 23.9808 5.82198 23.9808C5.74056 23.9605 5.65913 23.9198 5.5777 23.8994C5.39449 23.8383 5.23164 23.7976 5.04843 23.7365C4.86522 23.6755 4.68202 23.6144 4.51916 23.5533C4.33595 23.4923 4.1731 23.4516 3.98989 23.3905C3.76597 23.3294 3.54205 23.248 3.29777 23.1666C3.07385 23.0851 2.82956 23.0241 2.60564 22.963C2.36136 22.8816 2.13744 22.8205 1.89316 22.7391C1.77102 22.6984 1.64888 22.6576 1.52674 22.5966C1.30282 22.4948 1.09925 22.108 1.20104 21.8434C1.26211 21.6805 1.30282 21.4973 1.34354 21.3141C1.40461 21.0902 1.46567 20.8663 1.5471 20.6423C1.62853 20.3573 1.73031 20.052 1.81173 19.767C1.8728 19.5838 1.93388 19.4006 1.97459 19.2377C2.0153 19.0749 2.05601 18.9324 2.11708 18.7695C2.07637 18.7695 2.03566 18.7695 1.99494 18.7492C1.85245 18.7288 1.73031 18.7288 1.58781 18.6881C1.32318 18.627 1.05854 18.5049 0.834621 18.342C0.468203 18.0571 0.203565 17.711 0.0814251 17.2631C0.0610685 17.1614 0.0203566 17.0799 0 16.9782C0.0814263 16.8153 0.0814251 16.6321 0.0814251 16.4285ZM22.6365 22.5762C22.6365 22.4134 22.6365 22.2709 22.6365 22.108C22.6365 18.851 22.6365 15.5736 22.6365 12.3165C22.6365 12.1536 22.6365 12.1536 22.494 12.1536C21.2319 12.1536 19.9698 12.1536 18.7281 12.1536C18.5856 12.1536 18.5652 12.1536 18.5652 12.2961C18.5652 15.6753 18.5652 19.0545 18.5652 22.4337C18.5652 22.4744 18.5652 22.5151 18.5652 22.5559C19.9291 22.5762 21.2726 22.5762 22.6365 22.5762ZM13.6593 22.5966C13.6593 22.5559 13.6593 22.5151 13.6593 22.4744C13.6593 19.0952 13.6593 15.6957 13.6593 12.3165C13.6593 12.174 13.6593 12.174 13.5168 12.174C12.4989 12.174 11.4811 12.174 10.4836 12.174C10.219 12.174 10.219 12.174 10.1376 12.4183C10.0358 12.7033 9.95437 13.0086 9.87294 13.2936C9.81187 13.4768 9.7508 13.66 9.71009 13.8229C9.66938 13.9654 9.62866 14.0875 9.62866 14.23C9.62866 16.9782 9.62866 19.7263 9.62866 22.4744C9.62866 22.5762 9.66937 22.5966 9.77116 22.5966C11.0333 22.5966 12.3157 22.5966 13.5778 22.5966C13.5575 22.5966 13.5982 22.5966 13.6593 22.5966ZM9.7508 8.79481C9.56759 8.73374 9.38438 8.69303 9.20118 8.63196C8.91618 8.55053 8.63119 8.44875 8.3462 8.36732C8.12227 8.30625 7.89835 8.24518 7.67443 8.16376C7.47087 8.10269 7.2673 8.04162 7.04338 7.98055C7.02302 7.98055 6.96195 8.0009 6.96195 8.02126C6.92124 8.12304 6.90088 8.24518 6.86017 8.36732C6.7991 8.59125 6.73803 8.81517 6.6566 9.03909C6.57518 9.32408 6.47339 9.62943 6.39196 9.91442C6.33089 10.1383 6.26982 10.3419 6.1884 10.5658C6.10697 10.8508 6.00519 11.1562 5.92377 11.4412C5.84234 11.7058 5.76091 11.9908 5.67948 12.2554C5.59806 12.5404 5.49628 12.8254 5.41485 13.1308C5.37414 13.2936 5.31307 13.4565 5.27235 13.6397C5.19093 13.9247 5.08915 14.23 5.00772 14.515C4.94665 14.7389 4.88558 14.9629 4.80415 15.1868C4.72273 15.4718 4.62094 15.7568 4.53951 16.0417C4.45809 16.2657 4.39702 16.51 4.3156 16.7339C4.25453 16.9578 4.1731 17.1817 4.11203 17.4056C4.0306 17.6906 3.92882 17.9756 3.84739 18.2606C3.78632 18.4845 3.7049 18.7085 3.64383 18.9324C3.58276 19.1563 3.52169 19.3802 3.44026 19.6245C3.35883 19.9095 3.25705 20.1741 3.17563 20.4591C3.07384 20.8052 2.97206 21.1309 2.87028 21.477C2.84992 21.5584 2.87028 21.5787 2.93135 21.5991C3.0942 21.6602 3.27741 21.7009 3.44026 21.7416C3.66418 21.8027 3.86775 21.8637 4.09167 21.9452C4.3156 22.0062 4.55987 22.0877 4.7838 22.1691C5.02807 22.2301 5.252 22.3116 5.49628 22.3726C5.61842 22.4134 5.61841 22.4134 5.65913 22.2912C5.7202 22.0673 5.80162 21.8434 5.86269 21.6195C5.94412 21.3345 6.0459 21.0495 6.12733 20.7441C6.1884 20.5202 6.24947 20.2963 6.3309 20.0724C6.41232 19.767 6.5141 19.482 6.61589 19.1767C6.67696 18.9527 6.73803 18.7492 6.81945 18.5253C6.90088 18.2403 7.00266 17.9349 7.08409 17.6499C7.14516 17.426 7.20623 17.2224 7.28765 16.9985C7.36908 16.7135 7.47087 16.4082 7.55229 16.1232C7.63372 15.8993 7.69479 15.655 7.77622 15.4311C7.83728 15.2071 7.91871 14.9832 7.97978 14.7389C8.04085 14.5557 8.08156 14.3929 8.14263 14.2097C8.2037 14.0264 8.26477 13.8432 8.30548 13.66C8.36655 13.4768 8.40727 13.314 8.46834 13.1308C8.52941 12.9068 8.61083 12.6829 8.6719 12.459C8.73297 12.2351 8.8144 11.9908 8.87547 11.7669C8.9569 11.4819 9.05868 11.1765 9.1401 10.8915C9.20117 10.6676 9.26224 10.464 9.34367 10.2401C9.42509 9.95513 9.52688 9.64979 9.60831 9.36479C9.62866 9.18158 9.68973 8.99838 9.7508 8.79481ZM17.1606 22.5762C17.1606 22.5151 17.1606 22.4744 17.1606 22.4134C17.1606 19.0545 17.1606 15.6753 17.1606 12.3165C17.1606 12.2961 17.1606 12.2758 17.1606 12.2554C17.1606 12.174 17.1402 12.1536 17.0588 12.1536C16.4481 12.1536 15.8171 12.1536 15.2064 12.1536C15.1046 12.1536 15.0639 12.1944 15.0639 12.2961C15.0639 15.6753 15.0639 19.0749 15.0639 22.4541C15.0639 22.4948 15.0639 22.5355 15.0639 22.5762C15.756 22.5762 16.4481 22.5762 17.1606 22.5762ZM3.76597 13.7211C3.84739 13.4361 3.92882 13.1918 4.01025 12.9272C4.07132 12.744 4.13239 12.5608 4.19346 12.3776C4.23417 12.2147 4.29524 12.0519 4.3156 11.889C4.35631 11.6244 4.25452 11.4208 4.0306 11.2783C3.80668 11.1155 3.54205 11.1155 3.29777 11.258C3.05349 11.3801 2.97206 11.6244 2.9517 11.8483C2.91099 12.1536 2.91099 12.459 3.01277 12.7643C3.15527 13.1511 3.39955 13.4565 3.76597 13.7211ZM3.29777 15.1868C2.97206 15.1868 2.68707 15.2682 2.42243 15.4107C2.03566 15.6143 1.75066 15.9196 1.58781 16.3064C1.50638 16.4896 1.44532 16.6932 1.50639 16.9171C1.60817 17.2631 2.07637 17.4871 2.42243 17.3039C2.66671 17.1817 2.74814 16.9985 2.82956 16.7542C2.89063 16.5303 2.9517 16.3064 3.03313 16.0825C3.0942 15.8585 3.17563 15.6346 3.25705 15.3903C3.27741 15.3496 3.27741 15.2682 3.29777 15.1868Z" fill="#1D1F20"/>
<path d="M18.5656 0.0407156C18.5859 0.0610722 18.6063 0.0814251 18.6267 0.0814251C19.502 0.203565 20.1534 0.651413 20.642 1.36389C20.8252 1.62853 20.9677 1.95423 21.0491 2.27994C21.1509 2.66671 21.1509 3.07384 21.1102 3.46062C21.0898 3.78632 21.0084 4.09167 20.927 4.39702C20.7641 4.94665 20.5198 5.43521 20.2145 5.90341C19.7463 6.61589 19.1559 7.22659 18.5045 7.75586C18.016 8.16299 17.4867 8.50905 16.9574 8.85511C16.7946 8.95689 16.6317 9.05868 16.4689 9.1401C16.2042 9.2826 15.9192 9.24189 15.675 9.07903C15.2271 8.77369 14.7793 8.48869 14.3314 8.18335C13.6597 7.71514 13.049 7.16552 12.4993 6.55482C12.1329 6.14769 11.8479 5.69984 11.6036 5.21128C11.4204 4.86522 11.2779 4.4988 11.2169 4.09167C11.1762 3.90846 11.1558 3.7049 11.1354 3.50133C11.1151 3.33848 11.0947 3.17562 11.0947 3.01277C11.1151 2.60564 11.1965 2.21887 11.3594 1.83209C11.5629 1.32318 11.8886 0.916045 12.3161 0.590339C12.5808 0.386774 12.8658 0.223925 13.1711 0.142499C13.334 0.101785 13.4764 0.0814288 13.6393 0.0407156C13.6597 0.0407156 13.68 0.0203566 13.7004 0C13.9243 0 14.1482 0 14.3518 0C14.3925 0.0203566 14.4332 0.0407156 14.4739 0.0407156C14.7182 0.101785 14.9828 0.16285 15.2068 0.264633C15.5121 0.386772 15.7971 0.590342 16.0414 0.834621C16.0821 0.875334 16.1228 0.875334 16.1635 0.834621C16.2449 0.753195 16.3264 0.692125 16.4282 0.631055C16.8353 0.325706 17.2831 0.122137 17.7717 0.0610672C17.792 0.0610672 17.8328 0.0407144 17.8531 0.0203578C18.0974 0.0407144 18.3213 0.0407156 18.5656 0.0407156ZM19.7259 3.03313C19.7463 2.76849 19.6852 2.50386 19.5427 2.23922C19.2781 1.77102 18.8913 1.52674 18.362 1.44532C18.1788 1.42496 17.9752 1.44531 17.792 1.48603C17.3238 1.62852 16.9574 1.91352 16.7742 2.38172C16.6724 2.626 16.5096 2.78885 16.2246 2.84992C15.8989 2.91099 15.5732 2.70742 15.4714 2.44279C15.4103 2.30029 15.3289 2.1578 15.2475 2.03566C14.9421 1.64888 14.5553 1.44532 14.0668 1.42496C13.9446 1.42496 13.8429 1.44532 13.7207 1.46568C13.5172 1.48603 13.3339 1.58781 13.1915 1.70995C12.7436 2.03566 12.54 2.50386 12.5197 3.03313C12.4993 3.29776 12.54 3.58276 12.6011 3.86775C12.6825 4.25452 12.8657 4.62094 13.0897 4.967C13.5375 5.69984 14.1482 6.26982 14.82 6.77874C15.2271 7.08409 15.6546 7.36908 16.0821 7.67443C16.1024 7.69479 16.1635 7.69478 16.1839 7.69478C16.306 7.61336 16.4281 7.53193 16.5503 7.45051C16.9574 7.16552 17.3646 6.86017 17.7513 6.55482C18.0974 6.26983 18.4231 5.96448 18.7081 5.61842C19.0745 5.15022 19.3799 4.66166 19.5631 4.07132C19.6648 3.74561 19.7259 3.4199 19.7259 3.03313Z" fill="#1D1F20"/>
</g>
<defs>
<clipPath id="clip0_2541_52095">
<rect width="24" height="24" fill="white"/>
</clipPath>
</defs>
</svg>
