<svg width="24" height="24" viewBox="0 0 24 24" fill="none" xmlns="http://www.w3.org/2000/svg">
<g clip-path="url(#clip0_2541_52065)">
<path d="M20.6705 24C14.931 24 9.17095 24 3.43137 24C3.41095 23.9796 3.41095 23.9591 3.39052 23.9591C3.04329 23.8366 2.87988 23.6119 2.87988 23.2443C2.87988 19.4451 2.87988 15.6664 2.87988 11.8672C2.87988 11.4587 2.90031 11.0502 2.94116 10.6417C2.94116 10.4783 2.96158 10.2945 3.00243 10.1311C3.06371 9.80426 3.10456 9.47745 3.16583 9.17106C3.22711 8.8851 3.28839 8.57872 3.37009 8.29277C3.47222 7.92511 3.59478 7.57787 3.73776 7.21021C3.90116 6.78127 4.06456 6.37276 4.26882 5.96425C4.51392 5.45361 4.79988 4.94298 5.14711 4.47319C5.20839 4.37106 5.24924 4.26893 5.24924 4.14638C5.24924 3.32936 5.24924 2.53276 5.24924 1.71574C5.24924 1.45021 5.29009 1.2051 5.39222 0.959996C5.59648 0.53106 5.92328 0.22468 6.37264 0.0817009C6.45435 0.0612753 6.53605 0.0204255 6.61775 0C10.2535 0 13.8688 0 17.5046 0C17.525 0.0204255 17.5454 0.0408473 17.5658 0.0408473C17.7905 0.0816984 17.9948 0.18383 18.199 0.306383C18.6484 0.633191 18.8731 1.08255 18.8731 1.61362C18.8935 2.47149 18.8731 3.34979 18.8731 4.20766C18.8731 4.24851 18.8731 4.30978 18.8935 4.33021C19.0569 4.57532 19.2203 4.82042 19.3633 5.08596C19.5675 5.45362 19.7718 5.80085 19.9352 6.18893C20.0782 6.49532 20.2007 6.8017 20.3233 7.10808C20.4254 7.37361 20.5071 7.61872 20.5888 7.88426C20.6705 8.10894 20.7114 8.35404 20.7727 8.57872C20.8339 8.82383 20.8952 9.04851 20.9565 9.29362C21.0177 9.57957 21.0586 9.88595 21.0995 10.1719C21.1403 10.6826 21.1812 11.2136 21.2016 11.7243C21.222 12.1736 21.2016 12.623 21.2016 13.0723C21.2016 16.463 21.2016 19.8536 21.2016 23.2647C21.2016 23.5711 21.0586 23.8162 20.7727 23.9591C20.7318 23.9591 20.691 23.9796 20.6705 24ZM19.7922 19.3021C19.7922 19.2409 19.7922 19.2 19.7922 19.1591C19.7922 16.9736 19.7922 14.7881 19.7922 12.5821C19.7922 12.0306 19.7922 11.4791 19.7514 10.9277C19.7105 10.4783 19.6492 10.0289 19.5675 9.57957C19.5267 9.29362 19.445 9.02808 19.3837 8.76255C19.302 8.45617 19.2203 8.17021 19.0977 7.86383C18.9343 7.43489 18.7709 7.00596 18.5667 6.61787C18.342 6.16851 18.0765 5.76 17.8314 5.33106C17.7905 5.26979 17.7497 5.24936 17.668 5.24936C16.6875 5.24936 15.7071 5.24936 14.7267 5.24936C14.6858 5.24936 14.6654 5.24936 14.6246 5.24936C14.6246 5.31063 14.6246 5.35149 14.6246 5.39234C14.6246 5.90298 14.6246 6.41362 14.6246 6.92425C14.6246 7.02638 14.5837 7.12851 14.5429 7.21021C14.359 7.57787 13.9301 7.72085 13.5216 7.49617C13.1131 7.27149 12.6841 7.06723 12.2552 6.84255C12.1122 6.76085 11.9897 6.76085 11.8263 6.84255C11.4178 7.06723 10.9684 7.27149 10.5599 7.47575C10.3352 7.5983 10.1105 7.63915 9.86542 7.51659C9.59989 7.37361 9.45691 7.14894 9.45691 6.84255C9.45691 6.35234 9.45691 5.8417 9.45691 5.35149C9.45691 5.31063 9.45691 5.26979 9.45691 5.22894C9.19137 5.22894 8.92584 5.22894 8.66031 5.22894C7.90456 5.22894 7.16924 5.22894 6.4135 5.22894C6.37265 5.22894 6.29094 5.24936 6.27052 5.29021C6.06626 5.63745 5.84158 5.96426 5.65775 6.33191C5.47392 6.67915 5.31052 7.0468 5.16754 7.39404C5.06542 7.61872 4.98371 7.8434 4.92244 8.06808C4.84073 8.29277 4.77946 8.53787 4.71818 8.78298C4.6569 9.00766 4.59563 9.23234 4.55478 9.47745C4.51393 9.70213 4.47308 9.90638 4.45265 10.1311C4.4118 10.6009 4.33009 11.0911 4.33009 11.5609C4.30967 14.114 4.33009 16.6672 4.33009 19.2204C4.33009 19.2409 4.33009 19.2817 4.33009 19.3226V20.7523C4.33009 21.3651 4.33009 21.9983 4.33009 22.6111C9.49775 22.6111 14.645 22.6111 19.8126 22.6111C19.8126 21.9779 19.8126 21.3651 19.8126 20.7523L19.7922 19.3021ZM10.8663 5.71915C10.9071 5.69872 10.948 5.69872 10.9684 5.69872C11.1931 5.59659 11.4177 5.47404 11.6424 5.35149C11.8671 5.22893 12.0918 5.18808 12.3165 5.29021C12.5207 5.39234 12.7046 5.49447 12.9088 5.57617C13.0109 5.61702 13.0926 5.65787 13.1948 5.71915C13.1948 4.26894 13.1948 2.81872 13.1948 1.38893C12.4186 1.38893 11.6424 1.38893 10.8663 1.38893C10.8663 2.83915 10.8663 4.26894 10.8663 5.71915ZM6.65861 3.81957C7.59818 3.81957 8.53776 3.81957 9.45691 3.81957C9.45691 3.00255 9.45691 2.20595 9.45691 1.38893C9.41606 1.38893 9.39563 1.38893 9.35478 1.38893C8.53776 1.38893 7.74116 1.38893 6.92414 1.38893C6.74031 1.38893 6.63817 1.47063 6.63817 1.67489C6.63817 2.36936 6.63817 3.0434 6.63817 3.73787C6.6586 3.7583 6.65861 3.77872 6.65861 3.81957ZM17.4433 3.81957C17.4433 3.77872 17.4433 3.75829 17.4433 3.71744C17.4433 3.02297 17.4433 2.34894 17.4433 1.65447C17.4433 1.51149 17.3207 1.36851 17.1573 1.36851C16.3403 1.36851 15.5233 1.36851 14.7063 1.36851C14.6858 1.36851 14.645 1.36851 14.6246 1.36851C14.6246 2.18553 14.6246 2.98213 14.6246 3.79915C15.5641 3.81958 16.5037 3.81957 17.4433 3.81957Z" fill="#1D1F20"/>
<path d="M12.0713 20.0576L10.4577 17.8107C9.13 15.952 9.13 13.4601 10.4577 11.6218L12.0713 9.375L13.6849 11.6218C15.0125 13.4805 15.0125 15.9724 13.6849 17.8107L12.0713 20.0576ZM12.0713 11.7648L11.6015 12.4184C10.6211 13.7869 10.6211 15.6048 11.6015 16.9733L12.0713 17.6269L12.5411 16.9733C13.5215 15.6048 13.5215 13.7869 12.5411 12.4184L12.0713 11.7648Z" fill="#1D1F20"/>
<path d="M8.70078 20.3224C7.65908 20.3224 6.65823 19.7709 6.08632 18.8518L5.20801 17.4016L6.86248 17.0339C8.12887 16.748 9.45653 17.3199 10.1306 18.4433L11.0089 19.8935L9.3544 20.2611C9.12972 20.302 8.92546 20.3224 8.70078 20.3224ZM6.84205 18.096L6.98503 18.3207C7.43439 19.056 8.3127 19.4441 9.15015 19.2603L9.41567 19.199L9.27269 18.9743C8.82333 18.239 7.94504 17.8509 7.10759 18.0348L6.84205 18.096Z" fill="#1D1F20"/>
<path d="M15.4204 20.324C15.1957 20.324 14.9915 20.3035 14.7668 20.2423L13.1123 19.8746L13.9906 18.4244C14.6646 17.301 15.9719 16.7495 17.2587 17.015L18.9131 17.3827L18.0349 18.8329C17.4834 19.7725 16.4825 20.324 15.4204 20.324ZM14.7259 19.2006L14.9915 19.2618C15.8289 19.4457 16.7072 19.078 17.1566 18.3223L17.2996 18.0976L17.034 18.0363C16.1966 17.8525 15.3183 18.2201 14.8689 18.9759L14.7259 19.2006Z" fill="#1D1F20"/>
</g>
<defs>
<clipPath id="clip0_2541_52065">
<rect width="24" height="24" fill="white"/>
</clipPath>
</defs>
</svg>
