<svg width="24" height="24" viewBox="0 0 24 24" fill="none" xmlns="http://www.w3.org/2000/svg">
<path d="M7.68088 23.8715C7.5997 23.8309 7.51852 23.7903 7.43733 23.7294C7.27497 23.6077 7.19379 23.4453 7.1532 23.2626C7.1126 23.0597 7.07201 22.8567 7.03142 22.6538C6.99083 22.4305 6.95024 22.2073 6.90965 21.984C6.84876 21.6999 6.78788 21.4157 6.74728 21.1316C6.72699 21.0301 6.70669 20.949 6.6864 20.8475C6.62551 20.5227 6.56462 20.198 6.50374 19.8733C6.44285 19.5891 6.40226 19.305 6.36167 19.0209C6.32108 18.8179 6.28049 18.615 6.23989 18.4323C6.1993 18.2293 6.17901 18.0467 6.13842 17.8437C6.09783 17.6408 6.05723 17.4378 6.01664 17.2349C5.99635 17.1334 5.97605 17.0522 5.95576 16.9507C5.89487 16.5854 5.83398 16.2201 5.79339 15.8548C5.7528 15.3068 5.7528 14.7588 5.7731 14.2108C5.79339 13.8455 5.87457 13.4802 5.93546 13.1149C5.97605 12.9119 6.01664 12.6886 6.07753 12.4857C6.15871 12.1813 6.26019 11.8971 6.38196 11.5927C6.48344 11.3491 6.58492 11.0853 6.72699 10.8417C6.92994 10.4561 7.1532 10.0908 7.37645 9.72549C7.70118 9.15722 8.0462 8.60923 8.37093 8.04095C8.65507 7.57416 8.93921 7.08706 9.22335 6.62026C9.28423 6.49849 9.36542 6.39702 9.4263 6.27524C9.4466 6.21436 9.46689 6.15347 9.46689 6.09258C9.46689 4.30657 9.46689 2.54085 9.46689 0.754839C9.46689 0.389519 9.62926 0.166267 9.95399 0.0444937C9.97428 0.0444937 9.97428 0.0242018 9.99458 0.00390625C11.3544 0.00390625 12.7142 0.00390625 14.074 0.00390625C14.1552 0.0444974 14.2364 0.0850849 14.2972 0.145972C14.5002 0.288041 14.6017 0.470705 14.6017 0.714252C14.6017 2.50026 14.6017 4.26598 14.6017 6.05199C14.6017 6.21435 14.6829 6.31583 14.7437 6.4376C15.0482 6.94499 15.3526 7.45238 15.657 7.93948C16.1036 8.67012 16.5501 9.38047 16.9763 10.1314C17.2198 10.5373 17.4228 10.9635 17.6257 11.3897C17.7678 11.6942 17.8693 12.0392 17.9707 12.3639C18.0316 12.5669 18.0925 12.7698 18.1534 12.9728C18.194 13.1554 18.2143 13.3178 18.2549 13.5005C18.3767 14.1702 18.3767 14.84 18.3564 15.53C18.3361 15.8751 18.2752 16.1998 18.2346 16.5245C18.2143 16.7275 18.1737 16.9304 18.1331 17.1537C18.0925 17.3566 18.0519 17.5596 18.0113 17.7625C17.991 17.864 17.9707 17.9452 17.9505 18.0467C17.8896 18.3714 17.8287 18.6961 17.7678 19.0209C17.7272 19.2238 17.7069 19.4268 17.6663 19.6297C17.6257 19.8327 17.5851 20.0356 17.5445 20.2183C17.5242 20.3198 17.5039 20.4213 17.4837 20.5227C17.4228 20.8272 17.3619 21.1519 17.301 21.4563C17.2604 21.6593 17.2401 21.8623 17.1995 22.0652C17.1589 22.2682 17.1183 22.4711 17.0777 22.6741C17.0574 22.7756 17.0371 22.8973 17.0169 22.9988C16.9763 23.1612 16.956 23.3438 16.8951 23.5062C16.8342 23.6889 16.6718 23.8106 16.4892 23.8512C16.4689 23.8512 16.4689 23.8715 16.4486 23.8918C13.5057 23.8715 10.5832 23.8715 7.68088 23.8715ZM12.0444 22.4711C13.2013 22.4711 14.3581 22.4711 15.515 22.4711C15.5353 22.4711 15.5759 22.4711 15.5962 22.4711C15.6165 22.4508 15.657 22.4305 15.6773 22.4102C15.7179 22.2276 15.7382 22.0246 15.7788 21.8217C15.7991 21.7202 15.8194 21.639 15.8397 21.5375C15.8803 21.3346 15.9209 21.1316 15.9615 20.9287C16.0021 20.7257 16.0224 20.543 16.063 20.3401C16.1238 20.0154 16.1847 19.7109 16.2456 19.3862C16.2659 19.2847 16.2862 19.2035 16.3065 19.1021C16.3471 18.8788 16.3877 18.6555 16.4486 18.4323C16.4892 18.2496 16.5095 18.067 16.5501 17.8843C16.6109 17.6002 16.6718 17.316 16.7327 17.0319C16.7733 16.8289 16.8139 16.626 16.8342 16.4027C16.8748 16.078 16.956 15.733 16.956 15.4083C16.9763 14.982 16.9357 14.5355 16.9154 14.089C16.9154 13.9064 16.8748 13.7237 16.8545 13.5411C16.7936 13.2569 16.7327 12.9728 16.6312 12.6886C16.5095 12.3436 16.408 11.9783 16.2253 11.6536C15.9412 11.1056 15.6165 10.5576 15.2917 10.0299C15.0076 9.54283 14.7032 9.07603 14.419 8.58894C14.1349 8.10184 13.8304 7.63504 13.5463 7.14795C13.526 7.10736 13.4854 7.08707 13.4245 7.08707C12.4909 7.08707 11.5776 7.08707 10.644 7.08707C10.5832 7.08707 10.5426 7.10736 10.5223 7.16825C10.1569 7.77711 9.79162 8.38598 9.4263 8.99485C9.14216 9.46165 8.85803 9.92845 8.59418 10.3952C8.31004 10.8823 7.98531 11.3694 7.78236 11.8971C7.66059 12.2016 7.53881 12.5263 7.43733 12.8307C7.37645 13.054 7.31556 13.2772 7.27497 13.5005C7.21408 13.8252 7.17349 14.1296 7.1532 14.4544C7.1329 15.0429 7.11261 15.6112 7.23438 16.1998C7.27497 16.423 7.29527 16.626 7.33586 16.8492C7.37645 17.0725 7.41704 17.2957 7.47793 17.519C7.51852 17.7017 7.53881 17.8843 7.5794 18.067C7.61999 18.2902 7.66059 18.5338 7.72147 18.757C7.76206 18.9397 7.78236 19.1223 7.82295 19.305C7.86354 19.5283 7.92443 19.7718 7.96502 19.9951C8.00561 20.1777 8.02591 20.3604 8.0665 20.543C8.10709 20.7663 8.14768 20.9692 8.18827 21.1925C8.22886 21.3955 8.24916 21.5781 8.28975 21.7811C8.33034 21.984 8.39123 22.187 8.41152 22.3899C8.43182 22.4914 8.45211 22.5117 8.55359 22.5117C9.71044 22.4711 10.8876 22.4711 12.0444 22.4711ZM10.8876 2.82499C11.6588 2.82499 12.43 2.82499 13.2013 2.82499C13.2013 2.3379 13.2013 1.8711 13.2013 1.4043C12.43 1.4043 11.6588 1.4043 10.8876 1.4043C10.8876 1.89139 10.8876 2.35819 10.8876 2.82499ZM10.8876 5.66637C11.6588 5.66637 12.43 5.66637 13.2013 5.66637C13.2013 5.17928 13.2013 4.71248 13.2013 4.24568C12.43 4.24568 11.6588 4.24568 10.8876 4.24568C10.8876 4.73278 10.8876 5.19958 10.8876 5.66637Z" fill="#1D1F20"/>
<path d="M12.0442 21.0717C11.4353 21.0717 10.8265 21.0717 10.2176 21.0717C9.83199 21.0717 9.52756 20.7875 9.48697 20.4222C9.44638 20.2193 9.38549 19.996 9.3246 19.7931C9.28401 19.651 9.24342 19.4886 9.22312 19.3466C9.18253 19.1842 9.14194 19.0218 9.10135 18.8595C9.06076 18.7174 9.02017 18.555 8.99987 18.413C8.95928 18.2506 8.91869 18.0882 8.8781 17.9259C8.83751 17.7635 8.79692 17.6011 8.75633 17.4591C8.71573 17.317 8.67514 17.1749 8.65485 17.0126C8.61426 16.8299 8.57367 16.6269 8.53307 16.4443C8.45189 16.1196 8.45189 15.7745 8.49248 15.4295C8.53307 15.0642 8.61426 14.7192 8.75633 14.3944C8.93899 13.9682 9.18253 13.6029 9.50726 13.2579C9.8117 12.9331 10.177 12.6896 10.5829 12.5069C11.1309 12.2634 11.6789 12.1619 12.2675 12.1822C12.5719 12.2025 12.8763 12.2634 13.1808 12.3649C13.6273 12.5069 14.0129 12.7302 14.3782 13.0143C14.8044 13.3594 15.1291 13.8059 15.3727 14.293C15.4742 14.4959 15.5148 14.7192 15.5756 14.9221C15.7177 15.3483 15.6974 15.8151 15.6568 16.2413C15.6365 16.4849 15.5553 16.7284 15.4945 16.972C15.4539 17.1343 15.4133 17.2967 15.3727 17.4591C15.3321 17.662 15.2712 17.865 15.2103 18.0679C15.1697 18.2303 15.1291 18.413 15.0885 18.5956C15.0277 18.7986 14.9668 19.0218 14.9059 19.2248C14.845 19.4277 14.8044 19.651 14.7638 19.8539C14.7029 20.0975 14.642 20.341 14.5812 20.5846C14.5203 20.8281 14.2158 21.0311 13.9723 21.0311C13.3228 21.0717 12.6734 21.0717 12.0442 21.0717ZM12.0442 19.6713C12.4501 19.6713 12.856 19.6713 13.2619 19.6713C13.3228 19.6713 13.3634 19.651 13.3837 19.5901C13.4243 19.3871 13.4852 19.1842 13.5258 18.9812C13.5664 18.7783 13.6273 18.555 13.6679 18.3521C13.7084 18.1897 13.749 18.0273 13.7896 17.8853C13.8505 17.6823 13.8911 17.4591 13.9317 17.2561C14.0129 16.9111 14.1144 16.5864 14.1955 16.2413C14.2767 15.8557 14.2361 15.4701 14.1144 15.1048C13.952 14.6583 13.6679 14.2929 13.2619 14.0291C12.8966 13.7856 12.511 13.6638 12.0848 13.6435C11.8616 13.6435 11.6383 13.6841 11.415 13.745C11.1309 13.8262 10.8671 13.9479 10.6438 14.1509C10.1567 14.5568 9.85229 15.1048 9.83199 15.7542C9.83199 15.9369 9.83199 16.1196 9.87258 16.3022C9.91317 16.5255 9.97406 16.7487 10.0349 16.972C10.0958 17.1952 10.1364 17.3982 10.1973 17.6214C10.2379 17.7838 10.2785 17.9462 10.3191 18.1085C10.38 18.3115 10.4206 18.5347 10.4612 18.7377C10.5423 19.0421 10.6032 19.3263 10.6844 19.6307C10.7047 19.7119 10.725 19.7525 10.8265 19.7322C11.2324 19.6713 11.6383 19.6713 12.0442 19.6713Z" fill="#1D1F20"/>
</svg>
