<svg width="24" height="24" viewBox="0 0 24 24" fill="none" xmlns="http://www.w3.org/2000/svg">
<g clip-path="url(#clip0_2541_52061)">
<path d="M17.4638 0C17.6885 0 17.9132 0 18.1174 0C18.1379 0.0204604 18.1787 0.0409201 18.1991 0.0409201C18.4238 0.102301 18.6894 0.143222 18.8936 0.245524C19.3226 0.450127 19.6698 0.736573 19.9557 1.12532C19.9762 1.14578 20.017 1.16624 20.0374 1.16624C20.2009 1.1867 20.3847 1.1867 20.5481 1.20716C20.8136 1.22762 21.0383 1.30946 21.263 1.41176C21.5898 1.55499 21.8757 1.78005 22.1209 2.04604C22.4068 2.35294 22.6315 2.72123 22.7336 3.13044C22.7949 3.39642 22.7949 3.66241 22.8357 3.92839C22.8357 3.96931 22.8562 4.03069 22.897 4.07161C23.0809 4.25575 23.2647 4.39898 23.4281 4.58312C23.6732 4.86956 23.8366 5.21739 23.9183 5.58568C23.9387 5.68798 23.9796 5.79028 24 5.89258C24 6.09718 24 6.32225 24 6.52685C23.9796 6.56777 23.9796 6.58823 23.9592 6.62916C23.9183 6.95652 23.7957 7.26343 23.6323 7.52941C23.5098 7.75447 23.326 7.91816 23.0809 7.97954C22.7949 8.04092 22.5294 8.1023 22.2434 8.18414C21.9574 8.26599 21.6715 8.32737 21.3855 8.40921C21.0996 8.47059 20.7932 8.53197 20.5072 8.61381C20.2621 8.67519 19.9966 8.73657 19.7515 8.79795C19.7311 8.79795 19.6902 8.85933 19.6902 8.87979C19.7311 9.0844 19.7923 9.289 19.8332 9.49361C19.8945 9.84143 19.9353 10.1893 19.9557 10.5371C19.9762 10.8235 19.9353 11.0895 19.9149 11.376C19.8945 11.6215 19.874 11.8875 19.8128 12.133C19.7311 12.4808 19.6289 12.8286 19.5064 13.1765C19.3634 13.5652 19.1796 13.9335 18.9549 14.2813C18.6281 14.8338 18.1992 15.3044 17.7294 15.7749C17.137 16.3683 16.5447 16.9616 15.9728 17.5345C15.4826 18.0256 15.0128 18.4962 14.4409 18.8849C14.0732 19.11 13.7055 19.3146 13.3174 19.4783C13.1336 19.5396 12.9702 19.6215 12.766 19.6624C12.4596 19.7442 12.1328 19.8261 11.806 19.8875C11.6017 19.9284 11.3974 19.9489 11.2136 19.9489C10.9072 19.9693 10.6213 19.9693 10.3149 19.9489C10.0289 19.9284 9.74298 19.8875 9.45702 19.8261C9.29362 19.8056 9.10979 19.7647 8.94639 19.7033C8.84426 19.6829 8.82383 19.6829 8.80341 19.7852C8.76255 19.9489 8.7217 20.1125 8.68085 20.2762C8.64 20.4399 8.59915 20.6036 8.5583 20.7673C8.51745 20.9105 8.49702 21.0537 8.45617 21.1969C8.41532 21.3606 8.37447 21.5448 8.33362 21.7084C8.29277 21.8517 8.27234 22.0153 8.23149 22.1586C8.19064 22.3427 8.14979 22.5064 8.10894 22.6905C8.06809 22.8338 8.04766 22.977 8.00681 23.1202C7.94553 23.3248 7.80256 23.468 7.61873 23.5908C7.33277 23.7749 7.02639 23.8977 6.67915 23.9591C6.6383 23.9591 6.61787 23.9795 6.57702 24C6.35234 24 6.12766 24 5.9234 24C5.90298 23.9795 5.86213 23.9591 5.8417 23.9591C5.55575 23.9182 5.29022 23.8363 5.04511 23.6931C4.65702 23.4885 4.33021 23.2225 4.08511 22.8542C4.06468 22.8338 4.02383 22.8133 4.00341 22.8133C3.84 22.7928 3.6766 22.7928 3.49277 22.7724C3.22724 22.7519 2.98213 22.6701 2.75745 22.5678C2.45106 22.4246 2.18553 22.2404 1.96085 21.9949C1.63404 21.6675 1.40936 21.2788 1.28681 20.8491C1.22553 20.5831 1.22553 20.3171 1.18468 20.0512C1.18468 19.9898 1.14383 19.9488 1.10298 19.9079C0.939576 19.7238 0.73532 19.5806 0.571915 19.3964C0.326809 19.11 0.163406 18.7826 0.081704 18.3939C0.0612785 18.2916 0.0204255 18.1893 0 18.087C0 17.8619 0 17.6164 0 17.3913C0.0204255 17.3708 0.020428 17.3504 0.0408536 17.3299C0.0612791 17.0639 0.163406 16.8184 0.285959 16.5729C0.469789 16.2046 0.755747 15.9795 1.16426 15.9182C1.38894 15.8772 1.59319 15.8159 1.79745 15.7545C1.94043 15.7136 2.10383 15.6726 2.24681 15.6317C2.47149 15.5703 2.69617 15.5294 2.92085 15.4885C3.14553 15.4271 3.37021 15.3657 3.59489 15.3248C3.81958 15.2634 4.04426 15.2225 4.24851 15.1611C4.26894 15.1611 4.30979 15.0997 4.28936 15.0793C4.24851 14.8747 4.18723 14.6701 4.14638 14.4655C4.08511 14.0972 4.04426 13.7494 4.02383 13.3811C4.00341 12.9923 4.04426 12.6036 4.10553 12.2353C4.14638 11.8875 4.24851 11.5396 4.35064 11.1918C4.47319 10.8235 4.61617 10.4552 4.8 10.1074C5.12681 9.49361 5.53532 8.94118 6.02553 8.42967C6.39319 8.06138 6.76085 7.71355 7.10809 7.34527C7.47575 6.97698 7.86383 6.60869 8.23149 6.21995C8.64 5.79028 9.06894 5.40153 9.55915 5.09463C10.0902 4.7468 10.6826 4.46036 11.2953 4.29668C11.6426 4.19437 12.0102 4.13299 12.3779 4.07161C12.9498 3.98977 13.5217 3.98977 14.0936 4.07161C14.2162 4.09207 14.3183 4.09207 14.4204 4.133C14.6451 4.17392 14.8698 4.23529 15.0945 4.29668C15.1149 4.29668 15.1762 4.27622 15.1762 4.2353C15.1966 4.15346 15.217 4.07161 15.2374 3.96931C15.2783 3.82609 15.2987 3.6624 15.3396 3.51918C15.3804 3.3555 15.4213 3.17136 15.4621 3.00767C15.503 2.84399 15.5438 2.70077 15.5847 2.53708C15.6255 2.3734 15.6664 2.23018 15.7072 2.0665C15.7481 1.90281 15.7685 1.75959 15.8094 1.59591C15.8502 1.41177 15.8911 1.24808 15.9319 1.06394C15.9932 0.859334 16.034 0.654732 16.1975 0.511509C16.5038 0.245524 16.8715 0.0818414 17.28 0C17.3617 0.0204604 17.4026 0 17.4638 0ZM9.47745 7.05882C9.47745 7.05882 9.45702 7.05882 9.45702 7.03836C9.23234 7.26343 9.00766 7.48849 8.78298 7.71356C8.25191 8.24553 7.70043 8.79796 7.16936 9.32993C6.86298 9.63683 6.5566 9.9642 6.33191 10.3325C6.04596 10.7621 5.8417 11.2327 5.6783 11.7442C5.53532 12.1944 5.47404 12.665 5.47404 13.1356C5.47404 13.4629 5.49447 13.8107 5.55575 14.1381C5.5966 14.445 5.69872 14.7519 5.78043 15.0384C5.9234 15.509 6.16851 15.9591 6.4749 16.3683C6.90383 16.9821 7.45532 17.4731 8.10894 17.8414C8.41532 18.0256 8.76255 18.1483 9.10979 18.312C9.23234 18.3734 9.37532 18.3939 9.5183 18.4348C9.47745 14.6292 9.47745 10.844 9.47745 7.05882ZM14.5634 17.023C14.8085 16.7775 15.0332 16.5524 15.2579 16.3274C15.7889 15.7954 16.32 15.2634 16.8511 14.7315C17.1574 14.4246 17.4638 14.0972 17.7089 13.7289C17.9949 13.2788 18.2196 12.8082 18.383 12.2762C18.5055 11.8875 18.5668 11.4783 18.5872 11.0895C18.6077 10.7417 18.5668 10.3734 18.5464 10.0256V10.0051C18.4851 9.75959 18.4443 9.51406 18.3626 9.26854C18.2808 9.00256 18.1991 8.71611 18.0766 8.47059C17.8315 7.93862 17.4843 7.46803 17.0757 7.05882C16.6672 6.64962 16.2179 6.28133 15.6868 6.05627C15.4009 5.93351 15.1149 5.81074 14.8494 5.68798C14.7677 5.64706 14.6655 5.64706 14.5838 5.6266C14.5634 9.43223 14.5634 13.2174 14.5634 17.023ZM13.1336 5.46292C13.1132 5.46292 13.0928 5.44246 13.0723 5.46292C12.6843 5.48338 12.2962 5.5243 11.9285 5.6266C11.6017 5.70844 11.2953 5.8312 10.9889 5.95397C10.9072 5.99489 10.8868 6.03581 10.8868 6.13811C10.8868 10.2506 10.8868 14.3632 10.8868 18.4552C10.8868 18.4757 10.8868 18.4962 10.8868 18.5166C10.8664 18.5985 10.9072 18.6189 10.9889 18.6189C11.3566 18.5985 11.7447 18.5575 12.1123 18.4348C12.4187 18.3325 12.7251 18.2097 13.0315 18.1074C13.1132 18.087 13.154 18.0256 13.154 17.9437C13.154 13.8312 13.154 9.71867 13.154 5.60614C13.154 5.56522 13.1336 5.50384 13.1336 5.46292ZM17.7702 1.39131C17.6477 1.41177 17.5251 1.43223 17.423 1.45269C17.3617 1.47315 17.3004 1.53453 17.28 1.57545C17.2391 1.73913 17.1983 1.88235 17.1574 2.04604C17.1166 2.20972 17.0757 2.35294 17.0349 2.51662C16.994 2.68031 16.9532 2.84399 16.9123 3.00767C16.8715 3.15089 16.8511 3.31458 16.8102 3.4578C16.7489 3.68286 16.6877 3.90793 16.6468 4.133C16.606 4.31714 16.5651 4.50128 16.5038 4.68542C16.463 4.82864 16.4834 4.86957 16.606 4.95141C16.8919 5.13555 17.1779 5.34016 17.4434 5.54476C17.8315 5.8312 18.1787 6.17903 18.4851 6.58824C18.6894 6.87468 18.8936 7.18159 19.0979 7.46803C19.1387 7.52941 19.1592 7.54987 19.2409 7.52941C19.3634 7.48849 19.5064 7.46803 19.6289 7.44757C19.9762 7.36573 20.3438 7.28389 20.6911 7.20205C20.977 7.14067 21.263 7.05883 21.5489 6.97698C21.8349 6.9156 22.1209 6.83376 22.4068 6.77238C22.4885 6.75192 22.5294 6.711 22.5498 6.62916C22.6111 6.42455 22.6315 6.19949 22.5702 5.97443C22.4885 5.64706 22.3251 5.38107 22.0391 5.21739C21.8145 5.07417 21.5489 4.99233 21.3038 4.89002C21.2017 4.8491 21.1813 4.82865 21.2017 4.72634C21.263 4.52174 21.3243 4.29668 21.3855 4.09207C21.4672 3.84655 21.406 3.60102 21.3038 3.37596C21.12 2.96675 20.8136 2.72123 20.3643 2.61893C20.1396 2.57801 19.9557 2.59847 19.7515 2.65985C19.5881 2.70077 19.4451 2.76215 19.2817 2.80307C19.2204 2.82353 19.1592 2.80307 19.1387 2.74169C19.0774 2.578 18.9957 2.41432 18.9345 2.25064C18.7915 1.78005 18.3013 1.39131 17.7702 1.39131ZM6.25021 22.6701C6.37277 22.6496 6.49532 22.6292 6.61787 22.6087C6.67915 22.5882 6.74043 22.5269 6.74043 22.4655C6.8017 22.2609 6.84256 22.0563 6.90383 21.8517C6.94468 21.688 6.98553 21.5038 7.02638 21.3402C7.08766 21.0537 7.16936 20.7468 7.23064 20.4604C7.29191 20.2353 7.35319 20.0102 7.39404 19.7852C7.4349 19.6215 7.47575 19.4578 7.49617 19.2737C7.49617 19.2327 7.47574 19.1714 7.43489 19.1509C7.23064 19.0077 7.02638 18.8849 6.82213 18.7622C6.39319 18.4757 6.00511 18.1074 5.6783 17.7187C5.39234 17.3913 5.12681 17.023 4.90213 16.6138C4.8817 16.5524 4.84085 16.532 4.75915 16.5524C4.69787 16.5729 4.6366 16.5934 4.57532 16.5934C4.39149 16.6343 4.22809 16.6752 4.04426 16.7161C3.90128 16.757 3.7583 16.798 3.61532 16.8184C3.45192 16.8593 3.28851 16.9003 3.10468 16.9207C2.7983 16.9821 2.51234 17.0639 2.22638 17.1458C2.0017 17.2072 1.79745 17.2481 1.57277 17.3095C1.53192 17.3299 1.47064 17.3708 1.45021 17.4118C1.40936 17.4936 1.38894 17.5959 1.38894 17.6982C1.36851 17.8824 1.40936 18.087 1.47064 18.2506C1.59319 18.5575 1.81787 18.8031 2.12426 18.9463C2.30809 19.0281 2.51234 19.11 2.7166 19.1918C2.77787 19.2123 2.81873 19.2532 2.7983 19.335C2.73702 19.4987 2.7166 19.6624 2.65532 19.8056C2.51234 20.1535 2.57362 20.4808 2.73702 20.7877C2.92085 21.1356 3.22723 21.3606 3.63575 21.4425C3.86043 21.4834 4.04426 21.4629 4.24851 21.4015C4.41192 21.3606 4.55489 21.2992 4.7183 21.2583C4.77958 21.2379 4.84085 21.2583 4.86128 21.3197C4.92255 21.4834 5.00426 21.6471 5.06553 21.8312C5.22894 22.3018 5.71915 22.6701 6.25021 22.6701Z" fill="#1D1F20"/>
</g>
<defs>
<clipPath id="clip0_2541_52061">
<rect width="24" height="24" fill="white"/>
</clipPath>
</defs>
</svg>
