<svg width="16" height="16" viewBox="0 0 16 16" fill="none" xmlns="http://www.w3.org/2000/svg">
<g clip-path="url(#clip0_3177_17233)">
<path fill-rule="evenodd" clip-rule="evenodd" d="M7.9987 6.9974C6.52594 6.9974 5.33203 5.80349 5.33203 4.33073C5.33203 2.85797 6.52594 1.66406 7.9987 1.66406C9.47146 1.66406 10.6654 2.85797 10.6654 4.33073C10.6654 5.80349 9.47146 6.9974 7.9987 6.9974ZM4.33203 4.33073C4.33203 2.30569 5.97365 0.664062 7.9987 0.664062C10.0237 0.664062 11.6654 2.30569 11.6654 4.33073C11.6654 6.35577 10.0237 7.9974 7.9987 7.9974C5.97365 7.9974 4.33203 6.35577 4.33203 4.33073ZM7.9987 5.66406C7.26232 5.66406 6.66536 5.06711 6.66536 4.33073C6.66536 3.59435 7.26232 2.9974 7.9987 2.9974C8.73508 2.9974 9.33203 3.59435 9.33203 4.33073C9.33203 5.06711 8.73508 5.66406 7.9987 5.66406ZM5.66536 4.33073C5.66536 3.04206 6.71003 1.9974 7.9987 1.9974C9.28736 1.9974 10.332 3.04206 10.332 4.33073C10.332 5.61939 9.28736 6.66406 7.9987 6.66406C6.71003 6.66406 5.66536 5.61939 5.66536 4.33073ZM3.9987 14.332C2.52594 14.332 1.33203 13.1381 1.33203 11.6654C1.33203 10.1926 2.52594 8.9987 3.9987 8.9987C5.47146 8.9987 6.66537 10.1926 6.66537 11.6654C6.66537 13.1381 5.47146 14.332 3.9987 14.332ZM0.332031 11.6654C0.332031 9.64032 1.97365 7.9987 3.9987 7.9987C6.02374 7.9987 7.66537 9.64032 7.66537 11.6654C7.66537 13.6904 6.02374 15.332 3.9987 15.332C1.97365 15.332 0.332031 13.6904 0.332031 11.6654ZM3.9987 12.9987C3.26232 12.9987 2.66536 12.4017 2.66536 11.6654C2.66536 10.929 3.26232 10.332 3.9987 10.332C4.73508 10.332 5.33203 10.929 5.33203 11.6654C5.33203 12.4017 4.73508 12.9987 3.9987 12.9987ZM1.66536 11.6654C1.66536 10.3767 2.71003 9.33203 3.9987 9.33203C5.28736 9.33203 6.33203 10.3767 6.33203 11.6654C6.33203 12.954 5.28736 13.9987 3.9987 13.9987C2.71003 13.9987 1.66536 12.954 1.66536 11.6654ZM9.33203 11.6654C9.33203 13.1381 10.5259 14.332 11.9987 14.332C13.4715 14.332 14.6654 13.1381 14.6654 11.6654C14.6654 10.1926 13.4715 8.9987 11.9987 8.9987C10.5259 8.9987 9.33203 10.1926 9.33203 11.6654ZM11.9987 7.9987C9.97365 7.9987 8.33203 9.64032 8.33203 11.6654C8.33203 13.6904 9.97365 15.332 11.9987 15.332C14.0237 15.332 15.6654 13.6904 15.6654 11.6654C15.6654 9.64032 14.0237 7.9987 11.9987 7.9987ZM10.6654 11.6654C10.6654 12.4017 11.2623 12.9987 11.9987 12.9987C12.7351 12.9987 13.332 12.4017 13.332 11.6654C13.332 10.929 12.7351 10.332 11.9987 10.332C11.2623 10.332 10.6654 10.929 10.6654 11.6654ZM11.9987 9.33203C10.71 9.33203 9.66536 10.3767 9.66536 11.6654C9.66536 12.954 10.71 13.9987 11.9987 13.9987C13.2874 13.9987 14.332 12.954 14.332 11.6654C14.332 10.3767 13.2874 9.33203 11.9987 9.33203Z" fill="#1D1F20"/>
</g>
<defs>
<clipPath id="clip0_3177_17233">
<rect width="16" height="16" fill="white"/>
</clipPath>
</defs>
</svg>
