<svg width="24" height="24" viewBox="0 0 24 24" fill="none" xmlns="http://www.w3.org/2000/svg">
<path fill-rule="evenodd" clip-rule="evenodd" d="M17.569 7.5H6.5V17.7241C6.5 18.1907 6.87824 18.569 7.34483 18.569H16.7241C17.1907 18.569 17.569 18.1907 17.569 17.7241V7.5ZM6.5 6H5V7.5V17.7241C5 18.902 5.86847 19.877 7 20.0438V20.5V21.5V23H8.5H15.5H17V21.5V20.5V20.0529C18.165 19.9164 19.069 18.9258 19.069 17.7241V17.7071C19.5542 17.6676 20.0311 17.5526 20.4824 17.3657C21.0513 17.13 21.5683 16.7846 22.0038 16.3491C22.4393 15.9136 22.7847 15.3966 23.0204 14.8277C23.2561 14.2587 23.3774 13.6489 23.3774 13.033C23.3774 12.4171 23.2561 11.8073 23.0204 11.2383C22.7847 10.6694 22.4393 10.1524 22.0038 9.71691C21.5683 9.28144 21.0513 8.936 20.4824 8.70032C20.0311 8.51342 19.5542 8.39845 19.069 8.35887V7.5V6H17.569H6.5ZM19.069 10.0087V16.0573C19.3383 16.0234 19.6024 15.9536 19.8542 15.8492C20.2241 15.6961 20.5601 15.4715 20.8432 15.1885C21.1262 14.9054 21.3508 14.5694 21.5039 14.1995C21.6571 13.8297 21.736 13.4333 21.736 13.033C21.736 12.6327 21.6571 12.2363 21.5039 11.8665C21.3508 11.4966 21.1262 11.1606 20.8432 10.8775C20.5601 10.5945 20.2241 10.37 19.8542 10.2168C19.6024 10.1125 19.3383 10.0426 19.069 10.0087ZM15.5 20.5H8.5V21.5H15.5V20.5Z" fill="#1D1F20"/>
<path d="M9.73451 1C9.73451 1 10.5345 1.44444 10.5345 2.11111C10.5345 2.77778 9.20117 3.22222 9.20117 3.88889C9.20117 4.55556 9.73451 5 9.73451 5" stroke="black"/>
<path d="M11.8673 1C11.8673 1 12.6673 1.44444 12.6673 2.11111C12.6673 2.77778 11.334 3.22222 11.334 3.88889C11.334 4.55556 11.8673 5 11.8673 5" stroke="black"/>
<path d="M14.0001 1C14.0001 1 14.8001 1.44444 14.8001 2.11111C14.8001 2.77778 13.4668 3.22222 13.4668 3.88889C13.4668 4.55556 14.0001 5 14.0001 5" stroke="black"/>
</svg>
