<svg width="16" height="16" fill="none" xmlns="http://www.w3.org/2000/svg"><path d="M13.25 3.332h-10a1.24 1.24 0 0 0-1.244 1.25L2 12.082c0 .694.556 1.25 1.25 1.25h10c.694 0 1.25-.556 1.25-1.25v-7.5c0-.694-.556-1.25-1.25-1.25Zm-7.187 6.875h-.75L3.719 8.02v2.187h-.781v-3.75h.78l1.563 2.188V6.457h.782v3.75Zm3.125-2.962H7.625v.7h1.563v.787H7.625v.694h1.563v.781h-2.5v-3.75h2.5v.788Zm4.374 2.337a.627.627 0 0 1-.624.625h-2.5a.627.627 0 0 1-.625-.625V6.457h.78v2.819h.707v-2.2h.781V9.27h.7V6.457h.781v3.125Z" fill="#0AA250"/></svg>