<svg width="16" height="16" viewBox="0 0 16 16" fill="none" xmlns="http://www.w3.org/2000/svg">
<g clip-path="url(#clip0_698_31444)">
<path d="M12.9894 8.23213C11.9425 5.51213 8.21494 5.36546 9.11515 1.41212C9.18183 1.11879 8.86842 0.892125 8.61503 1.04546C6.19447 2.47212 4.45407 5.33212 5.91441 9.07879C6.03444 9.38546 5.67435 9.67212 5.41429 9.47213C4.20735 8.55879 4.08065 7.24546 4.18734 6.30546C4.22735 5.95879 3.77391 5.79212 3.58054 6.07879C3.1271 6.77212 2.66699 7.89212 2.66699 9.57879C2.92038 13.3121 6.07445 14.4588 7.20804 14.6055C8.82841 14.8121 10.5822 14.5121 11.8424 13.3588C13.2294 12.0721 13.7362 10.0188 12.9894 8.23213ZM6.80128 11.5855C7.7615 11.3521 8.25495 10.6588 8.38831 10.0455C8.60836 9.09212 7.74816 8.15879 8.3283 6.65212C8.54835 7.89879 10.5088 8.67879 10.5088 10.0388C10.5621 11.7255 8.73506 13.1721 6.80128 11.5855Z" fill="#D33836"/>
</g>
<defs>
<clipPath id="clip0_698_31444">
<rect width="16" height="16" fill="white"/>
</clipPath>
</defs>
</svg>
