<svg width="24" height="24" viewBox="0 0 24 24" fill="none" xmlns="http://www.w3.org/2000/svg">
<path fill-rule="evenodd" clip-rule="evenodd" d="M12 1C12.3513 1 12.6768 1.1843 12.8575 1.4855C13.8743 3.18018 15.0926 4.4656 16.3323 5.77345C16.848 6.3176 17.3674 6.86563 17.8776 7.44864C19.5761 9.38978 21 11.5817 21 14.8571C21 19.8898 16.9872 24 12 24C7.01283 24 3 19.8898 3 14.8571C3 11.5817 4.42392 9.38978 6.12242 7.44864C6.63255 6.86563 7.15199 6.3176 7.66775 5.77345C8.90735 4.4656 10.1257 3.18018 11.1425 1.4855C11.3232 1.1843 11.6487 1 12 1ZM7.62758 8.76565C6.07608 10.5388 5 12.2755 5 14.8571C5 18.8188 8.15062 22 12 22C15.8494 22 19 18.8188 19 14.8571C19 12.2755 17.9239 10.5388 16.3724 8.76565C15.9618 8.29631 15.5038 7.81293 15.0233 7.30576C14.0394 6.26708 12.9608 5.12858 12 3.8065C11.0392 5.12858 9.96065 6.26708 8.97665 7.30576C8.49617 7.81294 8.03824 8.29631 7.62758 8.76565Z" fill="#1D1F20"/>
</svg>
