<svg width="24" height="24" fill="none" xmlns="http://www.w3.org/2000/svg"><path d="M22.882 17.602c-.899-1.617-3.213-3.56-4.169-4.406a.621.621 0 0 1-.051-.888c1.823-1.96 3.282-4.21 3.784-5.571.221-.601-.237-1.236-.883-1.236h-1.877c-.618 0-.98.222-1.153.575-1.515 3.106-2.815 4.45-3.725 5.235-.51.44-1.304.076-1.304-.594v-4.14c0-.573-.47-1.037-1.048-1.037L9.028 5.5a.52.52 0 0 0-.419.832l.566.812c.213.282.328.624.328.976L9.5 11.779c0 .636-.771.947-1.23.501-1.549-1.509-2.893-4.59-3.377-6.064a1.044 1.044 0 0 0-.993-.715l-1.848-.005c-.694 0-1.2.658-1.012 1.32 1.689 5.928 5.154 11.568 11.33 12.18a1.04 1.04 0 0 0 1.134-1.037v-1.923c0-.551.432-1.025.988-1.04h.059c1.633 0 3.463 2.378 4.103 3.49.184.32.528.515.9.515h2.486c.726 0 1.191-.77.842-1.4Z" fill="#1D1F20"/></svg>