<svg width="24" height="24" fill="none" xmlns="http://www.w3.org/2000/svg"><path d="M12 2.398c-5.301 0-9.6 4.299-9.6 9.6a9.54 9.54 0 0 0 1.37 4.92l-1.284 4.68 4.78-1.254A9.548 9.548 0 0 0 12 21.598a9.6 9.6 0 0 0 9.6-9.6c0-5.301-4.298-9.6-9.6-9.6ZM8.714 7.52c.156 0 .317 0 .455.007.171.004.358.016.536.41.212.47.674 1.645.733 1.765.06.119.101.26.019.415-.079.16-.12.257-.235.399-.119.137-.25.308-.358.412-.119.12-.242.25-.104.488.137.237.615 1.016 1.322 1.645.908.811 1.674 1.06 1.912 1.18.239.119.377.1.514-.06.142-.156.595-.691.755-.93.156-.238.315-.197.531-.118.22.078 1.388.654 1.627.773.238.12.394.178.454.275.062.1.062.576-.136 1.132-.197.554-1.168 1.09-1.603 1.128-.439.04-.849.197-2.854-.593-2.42-.952-3.945-3.43-4.064-3.59-.12-.156-.97-1.288-.97-2.456 0-1.172.615-1.746.83-1.985a.874.874 0 0 1 .636-.297Z" fill="#1D1F20"/></svg>