<svg width="24" height="24" viewBox="0 0 24 24" fill="none" xmlns="http://www.w3.org/2000/svg">
<g clip-path="url(#clip0_2852_17687)">
<path d="M23.25 15.1848C23.2484 13.7922 22.6945 12.457 21.7098 11.4723C20.725 10.4875 19.3898 9.93357 17.9972 9.932H17.8859L17.8567 9.58163H17.9714C18.1579 9.58163 18.3368 9.50756 18.4686 9.37569C18.6005 9.24383 18.6746 9.06499 18.6746 8.87851C18.6746 8.69203 18.6005 8.51319 18.4686 8.38133C18.3368 8.24946 18.1579 8.17538 17.9714 8.17538H17.7004C17.217 5.77084 15.2128 3.91257 12.7825 3.60793V2.15625H13.8371C14.0236 2.15625 14.2025 2.08217 14.3343 1.95031C14.4662 1.81845 14.5403 1.63961 14.5403 1.45312C14.5403 1.26664 14.4662 1.0878 14.3343 0.955941C14.2025 0.824079 14.0236 0.75 13.8371 0.75H10.3215C10.135 0.75 9.9562 0.824079 9.82434 0.955941C9.69247 1.0878 9.61839 1.26664 9.61839 1.45312C9.61839 1.63961 9.69247 1.81845 9.82434 1.95031C9.9562 2.08217 10.135 2.15625 10.3215 2.15625H11.3762V3.60793C8.946 3.91258 6.94164 5.77084 6.45811 8.17538H6.18703C6.00055 8.17538 5.82171 8.24946 5.68985 8.38133C5.55799 8.51319 5.48391 8.69203 5.48391 8.87851C5.48391 9.06499 5.55799 9.24383 5.68985 9.37569C5.82171 9.50756 6.00055 9.58163 6.18703 9.58163H6.30179L5.52498 18.9034C5.22467 18.7777 4.96817 18.566 4.78766 18.2951C4.60714 18.0242 4.51064 17.706 4.51027 17.3804V10.317C4.51058 9.87402 4.41447 9.43624 4.22861 9.03411C4.04275 8.63197 3.77158 8.2751 3.43395 7.98828L1.90875 6.69086C1.7667 6.57003 1.58247 6.51057 1.39659 6.52557C1.21071 6.54057 1.0384 6.6288 0.917566 6.77085C0.796734 6.91289 0.737279 7.09712 0.75228 7.28301C0.767281 7.46889 0.85551 7.6412 0.997556 7.76203L2.52277 9.05945C2.7051 9.21434 2.85154 9.40706 2.95191 9.62423C3.05228 9.84139 3.10419 10.0778 3.10402 10.317V17.3804C3.10527 18.0589 3.33203 18.7178 3.74863 19.2534C4.16522 19.789 4.74803 20.1709 5.40539 20.3391L5.22626 22.4885C5.21822 22.5854 5.23036 22.683 5.26192 22.7749C5.29349 22.8669 5.34378 22.9514 5.40963 23.0229C5.47548 23.0945 5.55545 23.1516 5.6445 23.1907C5.73355 23.2298 5.82974 23.25 5.92698 23.25H18.2317C18.3289 23.25 18.4251 23.2298 18.5142 23.1907C18.6032 23.1516 18.6832 23.0945 18.749 23.0229C18.8149 22.9514 18.8652 22.8669 18.8967 22.7749C18.9283 22.683 18.9404 22.5854 18.9324 22.4885L18.7568 20.3819C20.0043 20.198 21.1443 19.5721 21.969 18.6181C22.7937 17.6642 23.2483 16.4458 23.25 15.1848ZM12.0793 4.96875C14.0501 4.96875 15.7562 6.32683 16.2572 8.17538H7.90129C8.40247 6.32683 10.1087 4.96875 12.0793 4.96875ZM6.69122 21.8438L7.71295 9.58163H16.4455L17.4674 21.8438H6.69122ZM18.6397 18.9765L18.0031 11.3384C18.9669 11.3398 19.8951 11.7029 20.6039 12.356C21.3127 13.0091 21.7504 13.9045 21.8305 14.865C21.9105 15.8255 21.627 16.781 21.0361 17.5424C20.4452 18.3038 19.59 18.8156 18.6397 18.9765Z" fill="#1D1F20"/>
</g>
<defs>
<clipPath id="clip0_2852_17687">
<rect width="24" height="24" fill="white"/>
</clipPath>
</defs>
</svg>
