<svg width="24" height="24" fill="none" xmlns="http://www.w3.org/2000/svg"><path fill-rule="evenodd" clip-rule="evenodd" d="M0 3a1 1 0 0 1 1-1h2.477a3 3 0 0 1 2.892 2.202L6.865 6h13.962a3 3 0 0 1 2.878 3.847l-1.392 4.733a3 3 0 0 1-2.385 2.112l-8.986 1.498a3 3 0 0 1-3.385-2.161L4.44 4.734A1 1 0 0 0 3.477 4H1a1 1 0 0 1-1-1Zm7.417 5 2.068 7.497a1 1 0 0 0 1.128.72L19.6 14.72a1 1 0 0 0 .795-.705l1.392-4.733A1 1 0 0 0 20.827 8H7.417ZM9 21a1 1 0 0 1 1-1h1a1 1 0 1 1 0 2h-1a1 1 0 0 1-1-1Zm8 0a1 1 0 0 1 1-1h1a1 1 0 1 1 0 2h-1a1 1 0 0 1-1-1Z" fill="#1D1F20"/></svg>