<svg width="26" height="26" viewBox="0 0 26 26" fill="none" xmlns="http://www.w3.org/2000/svg">
<path d="M0 0V26L26 0H0Z" fill="#F2F2F2"/>
<path d="M5.56502 8.3207L9.79821 4.19242C9.92975 4.06414 10.0972 4 10.3004 4C10.5037 4 10.6712 4.06414 10.8027 4.19242C10.9342 4.3207 11 4.48396 11 4.68222C11 4.88047 10.9342 5.04373 10.8027 5.17201L6.06726 9.79009C5.92377 9.93003 5.75635 10 5.56502 10C5.37369 10 5.20628 9.93003 5.06278 9.79009L3.19731 7.97085C3.06577 7.84257 3 7.6793 3 7.48105C3 7.2828 3.06577 7.11953 3.19731 6.99125C3.32885 6.86297 3.49626 6.79883 3.69955 6.79883C3.90284 6.79883 4.07025 6.86297 4.20179 6.99125L5.56502 8.3207Z" fill="#0AA250"/>
</svg>
