<svg width="24" height="24" viewBox="0 0 24 24" fill="none" xmlns="http://www.w3.org/2000/svg">
<g clip-path="url(#clip0_3101_16390)">
<path d="M9.66667 1C9.66667 1 10.6667 1.55556 10.6667 2.38889C10.6667 3.22222 9 3.77778 9 4.61111C9 5.44444 9.66667 6 9.66667 6" stroke="#1D1F20"/>
<path d="M12.3327 1C12.3327 1 13.3327 1.55556 13.3327 2.38889C13.3327 3.22222 11.666 3.77778 11.666 4.61111C11.666 5.44444 12.3327 6 12.3327 6" stroke="#1D1F20"/>
<path d="M14.9987 1C14.9987 1 15.9987 1.55556 15.9987 2.38889C15.9987 3.22222 14.332 3.77778 14.332 4.61111C14.332 5.44444 14.9987 6 14.9987 6" stroke="#1D1F20"/>
<path fill-rule="evenodd" clip-rule="evenodd" d="M16.5 8.5H7.5V17C7.5 17.2761 7.72386 17.5 8 17.5H13.4123C13.5852 18.0656 13.8913 18.576 14.3336 18.9858L14.349 19H8C6.89543 19 6 18.1046 6 17V8.5V7H7.5H16.5H18V8.5V10.9897C17.4989 11.0525 16.9909 11.2017 16.5 11.4339V8.5Z" fill="#1D1F20"/>
<path d="M3.08663 19.4394L3.50477 18.8571L3.92216 19.4383C3.92227 19.4385 3.92239 19.4386 3.9225 19.4388C4.47686 20.2153 4.47485 21.2532 3.92368 22.0163L3.92291 22.0174L3.50477 22.5996L3.08738 22.0185C3.08725 22.0183 3.08713 22.0181 3.087 22.0179C2.53268 21.2414 2.5347 20.2036 3.08585 19.4404L3.08663 19.4394Z" stroke="#1D1F20"/>
<path d="M0.874625 22.5829L0.788621 22.4409L0.953591 22.4043L0.953592 22.4043L0.955257 22.4039C1.38929 22.3059 1.85128 22.5025 2.08576 22.8934L2.08576 22.8934L2.08683 22.8951L2.17453 23.0399L2.01959 23.0744C1.93486 23.0894 1.86288 23.096 1.78415 23.096C1.42783 23.096 1.07689 22.9062 0.874625 22.5829Z" stroke="#1D1F20"/>
<path d="M5.01184 23.0669L5.00036 23.0638L4.98875 23.0612L4.82377 23.0246L4.91148 22.8797L4.91148 22.8797L4.91255 22.878C5.14342 22.4932 5.59374 22.2973 6.04875 22.3898L6.20969 22.4256L6.12198 22.5704L6.12194 22.5704L6.11845 22.5763C5.92875 22.8995 5.58379 23.0911 5.21415 23.0911C5.13344 23.0911 5.07476 23.0841 5.01184 23.0669Z" stroke="#1D1F20"/>
<path fill-rule="evenodd" clip-rule="evenodd" d="M9.5 17.5H13.4123C13.5852 18.0656 13.8913 18.576 14.3336 18.9858L14.349 19H9.5V20H14.5V19.1299C14.9375 19.4835 15.45 19.7102 16 19.8152V20V21.5H14.5H9.5H8V20V19V17.5H9.5Z" fill="#1D1F20"/>
<path d="M20.432 12.4035C21.6272 13.511 21.6321 15.8166 19.9847 17.5945C18.3373 19.3725 16.0379 19.5429 14.8428 18.4355C13.6476 17.328 13.6426 15.0224 15.2901 13.2444C16.9375 11.4665 19.2368 11.2961 20.432 12.4035Z" stroke="#1D1F20" stroke-width="1.5"/>
<path d="M21.0764 13.023C21.0764 13.023 18.3404 13.1107 17.871 15.5578C17.4017 18.0049 14.3921 18.1014 14.3921 18.1014" stroke="#1D1F20" stroke-width="1.5"/>
</g>
<defs>
<clipPath id="clip0_3101_16390">
<rect width="24" height="24" fill="white"/>
</clipPath>
</defs>
</svg>
