<svg width="24" height="24" viewBox="0 0 24 24" fill="none" xmlns="http://www.w3.org/2000/svg">
<g clip-path="url(#clip0_3101_16459)">
<path fill-rule="evenodd" clip-rule="evenodd" d="M9.42358 1.43636C9.42371 1.43643 9.42385 1.4365 9.66667 0.999423C9.90949 0.562344 9.90963 0.562422 9.90977 0.562502L9.91076 0.563055L9.91241 0.56398L9.91681 0.566466L9.92983 0.573976C9.94033 0.580101 9.95442 0.588475 9.97159 0.599035C10.0059 0.620117 10.0528 0.650127 10.1081 0.688565C10.2179 0.764808 10.3656 0.877441 10.5152 1.02287C10.8002 1.29996 11.1667 1.76961 11.1667 2.38831C11.1667 2.77029 10.9751 3.07455 10.7859 3.29531C10.602 3.50982 10.3663 3.7062 10.1694 3.87019L10.1534 3.88353C9.93672 4.06412 9.76366 4.21011 9.64004 4.35433C9.51677 4.49816 9.5 4.57584 9.5 4.61053C9.5 4.89235 9.61334 5.14169 9.7457 5.33471C9.81059 5.42935 9.87558 5.50374 9.92319 5.55333C9.9468 5.57792 9.96555 5.59581 9.97707 5.60644L9.98843 5.61669L9.98728 5.61575C9.98715 5.61564 9.98676 5.61531 9.66667 5.99942C9.34657 6.38353 9.34643 6.38342 9.34629 6.3833L9.34534 6.3825L9.34386 6.38126L9.34016 6.37812L9.32993 6.36927C9.32189 6.36224 9.31146 6.35293 9.29897 6.34141C9.27403 6.3184 9.2407 6.28638 9.20181 6.24586C9.12442 6.16525 9.02274 6.04866 8.92097 5.90024C8.71999 5.60715 8.5 5.16205 8.5 4.61053C8.5 4.22856 8.69157 3.9243 8.88079 3.70354C9.06465 3.48903 9.30038 3.29265 9.49722 3.12866L9.51324 3.11531C9.72995 2.93472 9.903 2.78873 10.0266 2.64451C10.1499 2.50069 10.1667 2.423 10.1667 2.38831C10.1667 2.17368 10.0331 1.94889 9.81813 1.73987C9.71771 1.64224 9.61543 1.5639 9.53772 1.50993C9.49932 1.48327 9.46809 1.46336 9.44768 1.45081C9.43751 1.44455 9.43011 1.44018 9.42596 1.43776L9.42226 1.43562L9.42358 1.43636ZM12.0896 1.43636C12.0897 1.43643 12.0899 1.4365 12.3327 0.999423C12.5755 0.562344 12.5756 0.562422 12.5758 0.562502L12.5768 0.563055L12.5784 0.56398L12.5828 0.566466L12.5958 0.573976C12.6063 0.580101 12.6204 0.588475 12.6376 0.599035C12.6719 0.620117 12.7188 0.650127 12.7741 0.688565C12.8839 0.764808 13.0316 0.877441 13.1812 1.02287C13.4662 1.29996 13.8327 1.76961 13.8327 2.38831C13.8327 2.77029 13.6411 3.07455 13.4519 3.29531C13.268 3.50982 13.0323 3.7062 12.8355 3.87019L12.8194 3.88353C12.6027 4.06412 12.4297 4.21011 12.3061 4.35433C12.1828 4.49816 12.166 4.57584 12.166 4.61053C12.166 4.89235 12.2794 5.14169 12.4117 5.33471C12.4766 5.42935 12.5416 5.50374 12.5892 5.55333C12.6128 5.57792 12.6316 5.59581 12.6431 5.60644L12.6544 5.61669L12.6533 5.61575C12.6532 5.61564 12.6528 5.61531 12.3327 5.99942C12.0126 6.38353 12.0124 6.38342 12.0123 6.3833L12.0114 6.3825L12.0099 6.38126L12.0062 6.37812L11.9959 6.36927C11.9879 6.36224 11.9775 6.35293 11.965 6.34141C11.9401 6.3184 11.9067 6.28638 11.8678 6.24586C11.7904 6.16525 11.6888 6.04866 11.587 5.90024C11.386 5.60715 11.166 5.16205 11.166 4.61053C11.166 4.22856 11.3576 3.9243 11.5468 3.70354C11.7307 3.48903 11.9664 3.29265 12.1632 3.12866L12.1793 3.11531C12.396 2.93472 12.569 2.78873 12.6926 2.64451C12.8159 2.50069 12.8327 2.423 12.8327 2.38831C12.8327 2.17368 12.6991 1.94889 12.4841 1.73987C12.3837 1.64224 12.2814 1.5639 12.2037 1.50993C12.1653 1.48327 12.1341 1.46336 12.1137 1.45081C12.1035 1.44455 12.0961 1.44018 12.092 1.43776L12.0896 1.43636ZM14.9987 0.999423C14.7559 1.4365 14.7557 1.43643 14.7556 1.43636L14.7543 1.43562L14.758 1.43776C14.7621 1.44018 14.7695 1.44455 14.7797 1.45081C14.8001 1.46336 14.8313 1.48327 14.8698 1.50993C14.9475 1.5639 15.0497 1.64224 15.1502 1.73987C15.3652 1.94889 15.4987 2.17368 15.4987 2.38831C15.4987 2.423 15.4819 2.50069 15.3587 2.64451C15.235 2.78873 15.062 2.93472 14.8453 3.11531L14.8293 3.12866C14.6324 3.29265 14.3967 3.48903 14.2128 3.70354C14.0236 3.9243 13.832 4.22856 13.832 4.61053C13.832 5.16205 14.052 5.60715 14.253 5.90024C14.3548 6.04866 14.4564 6.16525 14.5338 6.24586C14.5727 6.28638 14.6061 6.3184 14.631 6.34141C14.6435 6.35293 14.6539 6.36224 14.662 6.36927L14.6722 6.37812L14.6759 6.38126L14.6774 6.3825L14.6783 6.3833C14.6785 6.38342 14.6786 6.38353 14.9987 5.99942C15.3188 5.61531 15.3192 5.61564 15.3193 5.61575L15.3205 5.61669L15.3091 5.60644C15.2976 5.59581 15.2788 5.57792 15.2552 5.55333C15.2076 5.50374 15.1426 5.42935 15.0777 5.33471C14.9454 5.14169 14.832 4.89235 14.832 4.61053C14.832 4.57584 14.8488 4.49816 14.9721 4.35433C15.0957 4.21011 15.2687 4.06412 15.4855 3.88353L15.5015 3.87019C15.6983 3.7062 15.934 3.50982 16.1179 3.29531C16.3071 3.07455 16.4987 2.77029 16.4987 2.38831C16.4987 1.76961 16.1322 1.29996 15.8472 1.02287C15.6977 0.877441 15.5499 0.764808 15.4401 0.688565C15.3848 0.650127 15.3379 0.620117 15.3036 0.599035C15.2865 0.588475 15.2724 0.580101 15.2619 0.573976L15.2488 0.566466L15.2444 0.56398L15.2428 0.563055L15.2418 0.562502C15.2417 0.562422 15.2415 0.562344 14.9987 0.999423Z" fill="#1D1F20"/>
<path fill-rule="evenodd" clip-rule="evenodd" d="M16.5 8.5H7.5V17C7.5 17.2761 7.72386 17.5 8 17.5H13.4123C13.5852 18.0656 13.8913 18.576 14.3336 18.9858L14.349 19H8C6.89543 19 6 18.1046 6 17V8.5V7H7.5H16.5H18V8.5V10.9897C17.4989 11.0525 16.9909 11.2017 16.5 11.4339V8.5Z" fill="#1D1F20"/>
<path fill-rule="evenodd" clip-rule="evenodd" d="M9.5 17.5H13.4123C13.5852 18.0656 13.8913 18.576 14.3336 18.9858L14.349 19H9.5V20H14.5V19.1299C14.9375 19.4835 15.45 19.7102 16 19.8152V20V21.5H14.5H9.5H8V20V19V17.5H9.5Z" fill="#1D1F20"/>
<path d="M20.432 12.4035C21.6272 13.511 21.6321 15.8166 19.9847 17.5945C18.3373 19.3725 16.0379 19.5429 14.8428 18.4355C13.6476 17.328 13.6426 15.0224 15.2901 13.2444C16.9375 11.4665 19.2368 11.2961 20.432 12.4035Z" stroke="#1D1F20" stroke-width="1.5"/>
<path d="M21.0764 13.023C21.0764 13.023 18.3404 13.1107 17.871 15.5578C17.4017 18.0049 14.3921 18.1014 14.3921 18.1014" stroke="#1D1F20" stroke-width="1.5"/>
</g>
<defs>
<clipPath id="clip0_3101_16459">
<rect width="24" height="24" fill="white"/>
</clipPath>
</defs>
</svg>
