<svg width="25" height="24" viewBox="0 0 25 24" fill="none" xmlns="http://www.w3.org/2000/svg">
<path d="M20 10.3711V19.5C20 20.0967 19.7629 20.669 19.341 21.091C18.919 21.5129 18.3467 21.75 17.75 21.75H7.25C6.65326 21.75 6.08097 21.5129 5.65901 21.091C5.23705 20.669 5 20.0967 5 19.5V4.5C5 3.90326 5.23705 3.33097 5.65901 2.90901C6.08097 2.48705 6.65326 2.25 7.25 2.25H11.8789C12.2766 2.25006 12.658 2.40804 12.9392 2.68922L19.5608 9.31078C19.842 9.59202 19.9999 9.97341 20 10.3711Z" stroke="#1D1F20" stroke-width="1.5" stroke-linejoin="round"/>
<path d="M12.5 2.625V8.25C12.5 8.64782 12.658 9.02936 12.9393 9.31066C13.2206 9.59196 13.6022 9.75 14 9.75H19.625M8.75 13.5H16.25M8.75 17.25H16.25" stroke="#1D1F20" stroke-width="1.5" stroke-linecap="round" stroke-linejoin="round"/>
</svg>
