<svg width="24" height="24" fill="none" xmlns="http://www.w3.org/2000/svg"><path fill-rule="evenodd" clip-rule="evenodd" d="M4.072 3.5c.042.036.1.082.184.137.333.219.881.454 1.648.667C7.423 4.726 9.579 5 12 5c2.421 0 4.577-.274 6.096-.696.767-.213 1.315-.448 1.648-.667.083-.055.142-.1.184-.137a1.633 1.633 0 0 0-.184-.137c-.333-.219-.881-.454-1.648-.667C16.577 2.274 14.421 2 12 2c-2.421 0-4.577.274-6.096.696-.767.213-1.315.448-1.648.667a1.64 1.64 0 0 0-.184.137ZM20 5.756c-.414.18-.876.339-1.368.475C16.893 6.714 14.549 7 12 7c-2.55 0-4.893-.286-6.632-.769A10.391 10.391 0 0 1 4 5.756v1.001a2 2 0 0 0 .586 1.415l6.121 6.12A1 1 0 0 1 11 15v6a1 1 0 1 0 2 0v-6a1 1 0 0 1 .293-.707l6.121-6.121A2 2 0 0 0 20 6.757v-1ZM22 3.5v3.257a4 4 0 0 1-1.172 2.829L15 15.414V21a3 3 0 1 1-6 0v-5.586L3.172 9.586A4 4 0 0 1 2 6.757V3.5c0-.866.621-1.456 1.158-1.809.578-.38 1.348-.683 2.21-.922C7.107.286 9.451 0 12 0c2.55 0 4.893.286 6.632.769.862.24 1.632.543 2.21.922C21.379 2.044 22 2.634 22 3.5Z" fill="#D33836"/></svg>