<svg width="24" height="24" fill="none" xmlns="http://www.w3.org/2000/svg"><path fill-rule="evenodd" clip-rule="evenodd" d="M4.375 3.67c.4-2.407 3.355-3.354 5.08-1.628L12 4.587l2.545-2.545c1.725-1.726 4.68-.779 5.08 1.628L19.847 5H20a3 3 0 0 1 3 3v3a2 2 0 0 1-1 1.733v7.268a3 3 0 0 1-3 3H5a3 3 0 0 1-3-3v-7.268a2 2 0 0 1-1-1.732V8a3 3 0 0 1 3-3h.153l.222-1.331ZM6.18 5h3.406L8.04 3.457A1 1 0 0 0 6.346 4L6.18 5ZM11 7v4H3V8a1 1 0 0 1 1-1h7Zm2 4V7h7a1 1 0 0 1 1 1v3h-8Zm-2 2H4v7a1 1 0 0 0 1 1h6v-8Zm2 8v-8h7v7a1 1 0 0 1-1 1h-6Zm1.414-16h3.406l-.168-1a1 1 0 0 0-1.693-.543l-1.545 1.545Z" fill="#1D1F20"/></svg>