<svg width="32" height="32" viewBox="0 0 32 32" fill="none" xmlns="http://www.w3.org/2000/svg">
<path d="M5.33334 12.0013C4.95556 12.0013 4.63867 11.8733 4.38267 11.6173C4.12667 11.3613 3.99912 11.0449 4 10.668V8.00131C4 7.62353 4.128 7.30664 4.384 7.05064C4.64 6.79464 4.95645 6.66708 5.33334 6.66797H8C8.37778 6.66797 8.69467 6.79597 8.95067 7.05197C9.20667 7.30797 9.33423 7.62442 9.33334 8.00131V10.668C9.33334 11.0458 9.20534 11.3626 8.94934 11.6186C8.69334 11.8746 8.37689 12.0022 8 12.0013H5.33334ZM5.71734 12.0013C5.33956 12.0013 5.02267 11.8733 4.76667 11.6173C4.51067 11.3613 4.38312 11.0449 4.384 10.668V8.00131C4.384 7.62353 4.512 7.30664 4.768 7.05064C5.024 6.79464 5.34045 6.66708 5.71734 6.66797L26.6667 6.66797C27.0444 6.66797 27.3613 6.79597 27.6173 7.05197C27.8733 7.30797 28.0009 7.62442 28 8.00131V10.668C28 11.0458 27.872 11.3626 27.616 11.6186C27.36 11.8746 27.0436 12.0022 26.6667 12.0013H5.71734ZM6.66667 18.668C6.28889 18.668 5.972 18.54 5.716 18.284C5.46 18.028 5.33244 17.7115 5.33333 17.3346V14.668C5.33333 14.2902 5.46133 13.9733 5.71733 13.7173C5.97333 13.4613 6.28978 13.3338 6.66667 13.3346H26.6667C27.0444 13.3346 27.3613 13.4626 27.6173 13.7186C27.8733 13.9746 28.0009 14.2911 28 14.668V17.3346C28 17.7124 27.872 18.0293 27.616 18.2853C27.36 18.5413 27.0436 18.6689 26.6667 18.668H6.66667ZM5.33334 18.668C4.95556 18.668 4.63867 18.54 4.38267 18.284C4.12667 18.028 3.99912 17.7115 4 17.3346V14.668C4 14.2902 4.128 13.9733 4.384 13.7173C4.64 13.4613 4.95645 13.3338 5.33334 13.3346H8C8.37778 13.3346 8.69467 13.4626 8.95067 13.7186C9.20667 13.9746 9.33423 14.2911 9.33334 14.668V17.3346C9.33334 17.7124 9.20534 18.0293 8.94934 18.2853C8.69334 18.5413 8.37689 18.6689 8 18.668H5.33334ZM6.66667 25.3346C6.28889 25.3346 5.972 25.2066 5.716 24.9506C5.46 24.6946 5.33244 24.3782 5.33333 24.0013V21.3346C5.33333 20.9569 5.46133 20.64 5.71733 20.384C5.97333 20.128 6.28978 20.0004 6.66667 20.0013H26.6667C27.0444 20.0013 27.3613 20.1293 27.6173 20.3853C27.8733 20.6413 28.0009 20.9578 28 21.3346V24.0013C28 24.3791 27.872 24.696 27.616 24.952C27.36 25.208 27.0436 25.3355 26.6667 25.3346H6.66667ZM5.33334 25.3346C4.95556 25.3346 4.63867 25.2066 4.38267 24.9506C4.12667 24.6946 3.99912 24.3782 4 24.0013V21.3346C4 20.9569 4.128 20.64 4.384 20.384C4.64 20.128 4.95645 20.0004 5.33334 20.0013H8C8.37778 20.0013 8.69467 20.1293 8.95067 20.3853C9.20667 20.6413 9.33423 20.9578 9.33334 21.3346V24.0013C9.33334 24.3791 9.20534 24.696 8.94934 24.952C8.69334 25.208 8.37689 25.3355 8 25.3346H5.33334Z" fill="#C6C6C6"/>
</svg>
