<svg width="16" height="16" viewBox="0 0 16 16" fill="none" xmlns="http://www.w3.org/2000/svg">
<path d="M8.00065 11.332C8.18954 11.332 8.34798 11.268 8.47598 11.14C8.60354 11.0125 8.66732 10.8543 8.66732 10.6654V7.98203C8.66732 7.79314 8.60354 7.63759 8.47598 7.51536C8.34798 7.39314 8.18954 7.33203 8.00065 7.33203C7.81176 7.33203 7.65354 7.39581 7.52598 7.52336C7.39798 7.65136 7.33398 7.80981 7.33398 7.9987V10.682C7.33398 10.8709 7.39798 11.0265 7.52598 11.1487C7.65354 11.2709 7.81176 11.332 8.00065 11.332ZM8.00065 5.9987C8.18954 5.9987 8.34798 5.9347 8.47598 5.8067C8.60354 5.67914 8.66732 5.52092 8.66732 5.33203C8.66732 5.14314 8.60354 4.9847 8.47598 4.8567C8.34798 4.72914 8.18954 4.66536 8.00065 4.66536C7.81176 4.66536 7.65354 4.72914 7.52598 4.8567C7.39798 4.9847 7.33398 5.14314 7.33398 5.33203C7.33398 5.52092 7.39798 5.67914 7.52598 5.8067C7.65354 5.9347 7.81176 5.9987 8.00065 5.9987ZM8.00065 14.6654C7.07843 14.6654 6.21176 14.4903 5.40065 14.14C4.58954 13.7903 3.88398 13.3154 3.28398 12.7154C2.68398 12.1154 2.2091 11.4098 1.85932 10.5987C1.5091 9.78759 1.33398 8.92092 1.33398 7.9987C1.33398 7.07648 1.5091 6.20981 1.85932 5.3987C2.2091 4.58759 2.68398 3.88203 3.28398 3.28203C3.88398 2.68203 4.58954 2.20692 5.40065 1.8567C6.21176 1.50692 7.07843 1.33203 8.00065 1.33203C8.92287 1.33203 9.78954 1.50692 10.6007 1.8567C11.4118 2.20692 12.1173 2.68203 12.7173 3.28203C13.3173 3.88203 13.7922 4.58759 14.142 5.3987C14.4922 6.20981 14.6673 7.07648 14.6673 7.9987C14.6673 8.92092 14.4922 9.78759 14.142 10.5987C13.7922 11.4098 13.3173 12.1154 12.7173 12.7154C12.1173 13.3154 11.4118 13.7903 10.6007 14.14C9.78954 14.4903 8.92287 14.6654 8.00065 14.6654ZM8.00065 13.332C9.47843 13.332 10.7369 12.8127 11.776 11.774C12.8147 10.7349 13.334 9.47648 13.334 7.9987C13.334 6.52092 12.8147 5.26248 11.776 4.22336C10.7369 3.1847 9.47843 2.66536 8.00065 2.66536C6.52287 2.66536 5.26465 3.1847 4.22598 4.22336C3.18687 5.26248 2.66732 6.52092 2.66732 7.9987C2.66732 9.47648 3.18687 10.7349 4.22598 11.774C5.26465 12.8127 6.52287 13.332 8.00065 13.332Z" fill="#979797"/>
</svg>
