<svg width="24" height="24" fill="none" xmlns="http://www.w3.org/2000/svg"><path d="M7.88 2C4.654 2 2 4.65 2 7.88v8.24C2 19.346 4.65 22 7.88 22h8.24c3.227 0 5.88-2.65 5.88-5.88V7.88C22 4.654 19.35 2 16.12 2H7.88Zm0 1.818h8.24a4.057 4.057 0 0 1 4.062 4.063v8.238a4.057 4.057 0 0 1-4.063 4.063H7.881a4.057 4.057 0 0 1-4.063-4.063V7.881a4.057 4.057 0 0 1 4.063-4.063Zm9.49 1.989a.82.82 0 0 0-.825.824.82.82 0 0 0 .824.824.82.82 0 0 0 .824-.824.82.82 0 0 0-.824-.824ZM12 6.545C9 6.545 6.545 9 6.545 12S8.999 17.454 12 17.454c3 0 5.454-2.453 5.454-5.454 0-3-2.453-5.455-5.454-5.455Zm0 1.819A3.62 3.62 0 0 1 15.636 12 3.62 3.62 0 0 1 12 15.636 3.62 3.62 0 0 1 8.364 12 3.62 3.62 0 0 1 12 8.364Z" fill="#1D1F20"/></svg>