<svg width="24" height="24" fill="none" xmlns="http://www.w3.org/2000/svg"><path d="M23.25 15.185a5.259 5.259 0 0 0-5.253-5.253h-.111l-.03-.35h.115a.703.703 0 1 0 0-1.407h-.27a5.78 5.78 0 0 0-4.918-4.567V2.156h1.054a.703.703 0 1 0 0-1.406h-3.515a.703.703 0 1 0 0 1.406h1.054v1.452a5.781 5.781 0 0 0-4.918 4.567h-.271a.703.703 0 1 0 0 1.407h.115l-.777 9.321A1.653 1.653 0 0 1 4.51 17.38v-7.063a3.053 3.053 0 0 0-1.076-2.329L1.909 6.691a.703.703 0 0 0-.911 1.071l1.525 1.297a1.649 1.649 0 0 1 .581 1.258v7.063a3.06 3.06 0 0 0 2.301 2.96l-.179 2.148a.703.703 0 0 0 .701.762h12.305a.703.703 0 0 0 .7-.762l-.175-2.106a5.26 5.26 0 0 0 4.493-5.197ZM12.08 4.969c1.97 0 3.676 1.358 4.177 3.206H7.901C8.402 6.327 10.11 4.97 12.08 4.97ZM6.69 21.844 7.713 9.582h8.732l1.022 12.262H6.691Zm11.949-2.867-.637-7.639a3.846 3.846 0 0 1 .637 7.639Z" fill="#1D1F20"/></svg>