<svg width="24" height="24" viewBox="0 0 24 24" fill="none" xmlns="http://www.w3.org/2000/svg">
<circle cx="12" cy="12" r="12" fill="#FEBF21"/>
<path d="M12 4.80078C8.13438 4.80078 5 7.93516 5 11.8008C5 15.6664 8.13438 18.8008 12 18.8008C15.8656 18.8008 19 15.6664 19 11.8008C19 7.93516 15.8656 4.80078 12 4.80078ZM12 15.8633C11.6547 15.8633 11.375 15.5836 11.375 15.2383C11.375 14.893 11.6547 14.6133 12 14.6133C12.3453 14.6133 12.625 14.893 12.625 15.2383C12.625 15.5836 12.3453 15.8633 12 15.8633ZM12.9828 12.4336C12.8413 12.4882 12.7196 12.5843 12.6334 12.7091C12.5473 12.834 12.5008 12.9819 12.5 13.1336V13.4883C12.5 13.557 12.4437 13.6133 12.375 13.6133H11.625C11.5563 13.6133 11.5 13.557 11.5 13.4883V13.1523C11.5 12.7914 11.6047 12.4352 11.8109 12.1383C12.0125 11.8477 12.2937 11.6258 12.625 11.4992C13.1562 11.2945 13.5 10.8492 13.5 10.3633C13.5 9.67422 12.8266 9.11328 12 9.11328C11.1734 9.11328 10.5 9.67422 10.5 10.3633V10.482C10.5 10.5508 10.4437 10.607 10.375 10.607H9.625C9.55625 10.607 9.5 10.5508 9.5 10.482V10.3633C9.5 9.74922 9.76875 9.17578 10.2562 8.74922C10.725 8.33828 11.3438 8.11328 12 8.11328C12.6562 8.11328 13.275 8.33984 13.7437 8.74922C14.2312 9.17578 14.5 9.74922 14.5 10.3633C14.5 11.2664 13.9047 12.0789 12.9828 12.4336Z" fill="white"/>
</svg>
