<svg width="24" height="24" viewBox="0 0 24 24" fill="none" xmlns="http://www.w3.org/2000/svg">
<g clip-path="url(#clip0_3002_17417)">
<circle cx="12" cy="12" r="12" fill="#D33836"/>
<path fill-rule="evenodd" clip-rule="evenodd" d="M3 6.2C3 5.8134 3.30062 5.5 3.67145 5.5H5.33465C6.24084 5.5 7.03549 6.13084 7.27647 7.04155L7.60947 8.3H16.9844C18.3292 8.3 19.2963 9.64754 18.9169 10.9926L17.9821 14.3059C17.7643 15.078 17.1423 15.6524 16.3807 15.7847L10.347 16.8331C9.3295 17.0099 8.34832 16.3568 8.07401 15.3201L5.98192 7.41385C5.90159 7.11028 5.63671 6.9 5.33465 6.9H3.67145C3.30062 6.9 3 6.5866 3 6.2ZM7.97992 9.7L9.36856 14.9478C9.45999 15.2933 9.78702 15.5111 10.1262 15.4521L16.16 14.4038C16.4138 14.3596 16.6211 14.1682 16.6938 13.9108L17.6285 10.5975C17.755 10.1492 17.4326 9.7 16.9844 9.7H7.97992ZM9.04306 18.8C9.04306 18.4134 9.34367 18.1 9.71451 18.1H10.386C10.7568 18.1 11.0574 18.4134 11.0574 18.8C11.0574 19.1866 10.7568 19.5 10.386 19.5H9.71451C9.34367 19.5 9.04306 19.1866 9.04306 18.8ZM14.4147 18.8C14.4147 18.4134 14.7153 18.1 15.0861 18.1H15.7576C16.1284 18.1 16.429 18.4134 16.429 18.8C16.429 19.1866 16.1284 19.5 15.7576 19.5H15.0861C14.7153 19.5 14.4147 19.1866 14.4147 18.8Z" fill="white"/>
<path fill-rule="evenodd" clip-rule="evenodd" d="M14.3536 10.9472C14.1583 10.752 13.8417 10.752 13.6464 10.9472C13.4512 11.1425 13.4512 11.4591 13.6464 11.6543L13.7929 11.8008H10.5C10.2239 11.8008 10 12.0246 10 12.3008C10 12.5769 10.2239 12.8008 10.5 12.8008H13.7929L13.6464 12.9472C13.4512 13.1425 13.4512 13.4591 13.6464 13.6543C13.8417 13.8496 14.1583 13.8496 14.3536 13.6543L15.2828 12.725C15.5172 12.4907 15.5172 12.1108 15.2828 11.8765L14.3536 10.9472Z" fill="white"/>
</g>
<defs>
<clipPath id="clip0_3002_17417">
<rect width="24" height="24" fill="white"/>
</clipPath>
</defs>
</svg>
