<svg width="16" height="15" viewBox="0 0 16 15" fill="none" xmlns="http://www.w3.org/2000/svg">
<path fill-rule="evenodd" clip-rule="evenodd" d="M0 1.2C0 0.813404 0.300619 0.5 0.671451 0.5H2.33465C3.24084 0.5 4.03549 1.13084 4.27647 2.04155L4.60947 3.3H13.9844C15.3292 3.3 16.2963 4.64754 15.9169 5.99255L14.9821 9.30586C14.7643 10.078 14.1423 10.6524 13.3807 10.7847L7.34701 11.8331C6.3295 12.0099 5.34832 11.3568 5.07401 10.3201L2.98192 2.41385C2.90159 2.11028 2.63671 1.9 2.33465 1.9H0.671451C0.300619 1.9 0 1.5866 0 1.2ZM4.97992 4.7L6.36856 9.94783C6.45999 10.2933 6.78702 10.5111 7.12624 10.4521L13.16 9.40379C13.4138 9.35962 13.6211 9.16817 13.6938 8.91078L14.6285 5.59752C14.755 5.14918 14.4326 4.7 13.9844 4.7H4.97992ZM6.04306 13.8C6.04306 13.4134 6.34367 13.1 6.71451 13.1H7.38596C7.7568 13.1 8.05741 13.4134 8.05741 13.8C8.05741 14.1866 7.7568 14.5 7.38596 14.5H6.71451C6.34367 14.5 6.04306 14.1866 6.04306 13.8ZM11.4147 13.8C11.4147 13.4134 11.7153 13.1 12.0861 13.1H12.7576C13.1284 13.1 13.429 13.4134 13.429 13.8C13.429 14.1866 13.1284 14.5 12.7576 14.5H12.0861C11.7153 14.5 11.4147 14.1866 11.4147 13.8Z" fill="white"/>
<path fill-rule="evenodd" clip-rule="evenodd" d="M11.3536 5.94723C11.1583 5.75197 10.8417 5.75197 10.6464 5.94723C10.4512 6.14249 10.4512 6.45907 10.6464 6.65433L10.7929 6.80078H7.5C7.22386 6.80078 7 7.02464 7 7.30078C7 7.57692 7.22386 7.80078 7.5 7.80078H10.7929L10.6464 7.94723C10.4512 8.14249 10.4512 8.45907 10.6464 8.65433C10.8417 8.8496 11.1583 8.8496 11.3536 8.65433L12.2828 7.72505C12.5172 7.49073 12.5172 7.11083 12.2828 6.87652L11.3536 5.94723Z" fill="white"/>
</svg>
