<svg width="24" height="24" viewBox="0 0 24 24" fill="none" xmlns="http://www.w3.org/2000/svg">
<g clip-path="url(#clip0_2541_52099)">
<path d="M11.3803 0C11.5024 0 11.6042 0 11.7264 0C11.7468 0.0203735 11.7671 0.040748 11.7875 0.040748C11.93 0.081495 12.0318 0.162989 12.1132 0.264856C12.215 0.407471 12.2761 0.550085 12.2557 0.733446C12.2557 0.957555 12.2557 1.18166 12.2557 1.40577C12.3168 1.40577 12.3372 1.40577 12.3779 1.40577C12.8258 1.40577 13.294 1.40577 13.7419 1.40577C13.7826 1.40577 13.8437 1.40577 13.8844 1.42615C14.0473 1.50764 14.2102 1.58913 14.3527 1.691C14.6988 1.91511 15.0245 2.13922 15.3706 2.34295C16.0017 2.75042 16.6125 3.13752 17.2436 3.54499C17.6304 3.78947 17.9969 4.03396 18.3837 4.27844C18.6687 4.4618 18.8316 4.68591 18.7909 5.03226C18.7909 5.11375 18.7705 5.19525 18.7502 5.27674C18.7298 5.41936 18.6891 5.5416 18.6687 5.68421C18.6484 5.82683 18.628 5.94907 18.6077 6.11205C18.6891 6.11205 18.7502 6.11205 18.8112 6.11205C19.0148 6.13243 19.2184 6.13243 19.422 6.1528C19.6663 6.17318 19.9106 6.25467 20.1142 6.35654C20.725 6.66214 21.1729 7.11036 21.4172 7.76231C21.5393 8.06791 21.6004 8.39389 21.6004 8.71987C21.6004 10.9406 21.6004 13.1817 21.6004 15.4024C21.6004 15.545 21.5597 15.6672 21.4986 15.7895C21.3561 16.0747 21.01 16.1969 20.7657 16.1358C20.4196 16.0543 20.1956 15.7895 20.1956 15.382C20.1956 13.1613 20.1956 10.9406 20.1956 8.74024C20.1956 8.618 20.1753 8.51613 20.1549 8.39389C20.0531 7.88455 19.5645 7.49745 19.0352 7.49745C18.852 7.49745 18.6687 7.49745 18.4855 7.49745C18.3226 7.49745 18.3226 7.49745 18.3023 7.66044C18.3023 7.68082 18.3023 7.72156 18.2819 7.74194C18.2412 7.96604 18.2005 8.16978 18.1598 8.39389C18.119 8.618 18.0987 8.82173 18.058 9.04584C17.9969 9.35144 17.9358 9.63667 17.8747 9.94227C17.834 10.2071 17.7933 10.472 17.7322 10.7368C17.6712 11.0832 17.6101 11.4295 17.549 11.7759C17.4879 12.1019 17.4472 12.4075 17.3861 12.7334C17.3658 12.8353 17.3454 12.9372 17.3251 13.0391C17.2843 13.2632 17.2436 13.4873 17.2029 13.7114C17.1622 13.9151 17.1418 14.1392 17.1011 14.343C17.04 14.6486 16.979 14.9338 16.9179 15.2394C16.8975 15.3209 16.8772 15.4024 16.8772 15.4839C16.8975 15.6265 16.9382 15.7691 16.979 15.9117C17.0197 16.0747 17.0604 16.2377 17.1011 16.4211C17.1418 16.584 17.1825 16.747 17.2233 16.8896C17.264 17.0526 17.3047 17.1952 17.3454 17.3582C17.3861 17.5212 17.4268 17.6842 17.4676 17.8472C17.5083 18.0102 17.549 18.1732 17.5897 18.3362C17.6304 18.4992 17.6712 18.6418 17.6915 18.8048C17.7322 18.9677 17.7729 19.1307 17.8137 19.2937C17.8544 19.4567 17.8951 19.6197 17.9358 19.8031C17.9765 19.966 18.0173 20.129 18.058 20.292C18.0987 20.455 18.1394 20.618 18.1801 20.781C18.2208 20.944 18.2616 21.107 18.3023 21.2903C18.343 21.4329 18.3634 21.5959 18.4041 21.7385C18.4651 21.9627 18.5262 22.1868 18.5669 22.4109C18.628 22.635 18.6484 22.8795 18.7298 23.0832C18.852 23.4295 18.628 23.8574 18.2819 23.9593C18.2616 23.9593 18.2616 23.9796 18.2412 24C13.7623 24 9.26299 24 4.78406 24C4.70263 23.9593 4.60083 23.8981 4.5194 23.8574C4.31581 23.7148 4.19366 23.348 4.25473 23.1443C4.31581 22.9813 4.33617 22.798 4.37689 22.635C4.4176 22.472 4.43796 22.3294 4.47868 22.1664C4.5194 22.0034 4.56011 21.82 4.60083 21.657C4.64155 21.5144 4.66191 21.3514 4.70262 21.2088C4.7637 20.9643 4.82478 20.7402 4.88586 20.4958C4.92657 20.3531 4.94693 20.1902 4.98765 20.0272C5.02837 19.8642 5.06908 19.6808 5.1098 19.5178C5.15052 19.3548 5.19123 19.2122 5.21159 19.0492C5.25231 18.8659 5.29303 18.7029 5.33375 18.5195C5.37446 18.3565 5.41518 18.2139 5.4559 18.0509C5.49662 17.8879 5.53733 17.7453 5.57805 17.5823C5.61877 17.4194 5.63913 17.2767 5.67985 17.1138C5.74092 16.8285 5.82236 16.5433 5.90379 16.2581C5.96487 16.034 6.00559 15.7895 6.06666 15.5654C6.06666 15.545 6.08702 15.5042 6.08702 15.4839C6.06666 15.3616 6.0463 15.2598 6.02594 15.1375C5.96487 14.7912 5.90379 14.4244 5.84272 14.0781C5.802 13.8132 5.74092 13.528 5.70021 13.2632C5.63913 12.9168 5.57805 12.5705 5.51697 12.2241C5.4559 11.8778 5.39482 11.5314 5.33375 11.1851C5.27267 10.8387 5.2116 10.472 5.15052 10.1256C5.08944 9.77929 5.02837 9.41256 4.96729 9.06621C4.90621 8.76061 4.8655 8.45501 4.82478 8.16978C4.82478 8.12903 4.78406 8.06791 4.7637 8.02717C4.56011 7.78268 4.35653 7.5382 4.13258 7.29372C3.62361 6.68251 3.11464 6.09168 2.60568 5.48048C2.38173 5.21562 2.34101 4.93039 2.48352 4.64516C2.60567 4.40068 2.82962 4.27844 3.09428 4.27844C3.62361 4.27844 4.15294 4.27844 4.68227 4.27844C4.74334 4.27844 4.80442 4.25807 4.84514 4.23769C5.2116 4.01358 5.55769 3.78947 5.90379 3.54499C6.31097 3.28014 6.7385 3.01528 7.14568 2.75042C7.69536 2.3837 8.26541 2.03735 8.8151 1.67063C9.01868 1.54839 9.22227 1.46689 9.46658 1.46689C9.87375 1.48727 10.2809 1.46689 10.6881 1.46689C10.7288 1.46689 10.7695 1.46689 10.8103 1.46689C10.8103 1.22241 10.8103 0.97793 10.8103 0.753821C10.8103 0.488965 10.9528 0.28523 11.1767 0.142616C11.2785 0.040748 11.3192 0.0203735 11.3803 0ZM9.26299 14.7708C9.24263 14.6689 9.22227 14.5671 9.22227 14.4856C9.20191 14.2207 9.20191 13.9559 9.18155 13.7114C9.16119 13.4058 9.14083 13.1205 9.14083 12.8149C9.10012 12.0611 9.03904 11.3073 8.99832 10.5535C8.97796 10.2479 8.95761 9.94227 8.95761 9.63667C8.93725 9.41256 8.93725 9.20883 8.91689 8.98472C8.87617 8.39389 8.83545 7.78268 8.8151 7.19185C8.79474 6.78438 8.77438 6.35654 8.75402 5.94907C8.75402 5.8472 8.73366 5.74533 8.7133 5.64346C7.36962 5.64346 6.0463 5.64346 4.68227 5.64346C4.70263 5.66384 4.70263 5.68421 4.72298 5.70458C5.13016 6.17318 5.53733 6.66214 5.92415 7.13073C6.00559 7.2326 6.08702 7.31409 6.12774 7.41596C6.18881 7.59932 6.22953 7.82343 6.27025 8.00679C6.31097 8.21053 6.33133 8.41426 6.37205 8.63837C6.41276 8.88285 6.45348 9.12734 6.51456 9.37182C6.55527 9.57555 6.57563 9.75891 6.61635 9.96265C6.65707 10.2071 6.69778 10.4312 6.7385 10.6757C6.77922 10.8795 6.79958 11.0832 6.84029 11.2869C6.88101 11.5314 6.92173 11.7759 6.98281 12.0204C7.02353 12.2241 7.04388 12.4075 7.0846 12.6112C7.12532 12.8557 7.18639 13.1002 7.22711 13.365C7.26783 13.5688 7.28819 13.7521 7.32891 13.9559C7.36962 14.2003 7.4307 14.4448 7.47142 14.6893C7.49178 14.7912 7.51213 14.8115 7.61393 14.8115C8.1229 14.8115 8.65223 14.8115 9.16119 14.8115C9.16119 14.7708 9.20191 14.7708 9.26299 14.7708ZM10.6474 14.7708C11.2581 14.7708 11.8485 14.7708 12.439 14.7708C12.4593 14.6486 12.4797 14.5467 12.4797 14.4448C12.5 14.18 12.5 13.9151 12.5204 13.6503C12.5407 13.3854 12.5407 13.1205 12.5611 12.8353C12.6018 12.0611 12.6629 11.2666 12.7036 10.4924C12.724 10.2071 12.7443 9.9219 12.7443 9.6163C12.7647 9.37182 12.7647 9.14771 12.7851 8.90323C12.8258 8.33277 12.8665 7.76231 12.8868 7.19185C12.9072 6.76401 12.9276 6.31579 12.9479 5.88795C12.9479 5.8472 12.9683 5.82683 12.9683 5.78608C12.9683 5.72496 12.9886 5.66384 12.9886 5.60272C12.0114 5.60272 11.0546 5.60272 10.0977 5.60272C10.1181 5.72496 10.1384 5.82683 10.1384 5.94907C10.1588 6.37691 10.1791 6.80475 10.1995 7.21222C10.2198 7.51783 10.2402 7.80306 10.2606 8.10866C10.3013 8.74024 10.342 9.39219 10.3827 10.0238C10.4031 10.4109 10.4234 10.798 10.4438 11.1851C10.4642 11.4907 10.4845 11.7759 10.5049 12.0815C10.5456 12.7131 10.5863 13.3447 10.627 13.9762C10.627 14.2615 10.627 14.5059 10.6474 14.7708ZM14.3934 5.60272C14.373 5.7657 14.3527 5.90832 14.3527 6.07131C14.3323 6.47878 14.312 6.88625 14.2916 7.27335C14.2712 7.57895 14.2509 7.88455 14.2305 8.19015C14.1898 8.78099 14.1491 9.39219 14.1084 9.98302C14.088 10.3905 14.0677 10.8183 14.0473 11.2258C14.0473 11.2462 14.0473 11.2462 14.0473 11.2666C14.0066 11.8981 13.9659 12.5093 13.9251 13.1409C13.9048 13.5891 13.8844 14.0374 13.8641 14.4856C13.8641 14.5874 13.8437 14.6689 13.8233 14.7708C13.8641 14.7708 13.8844 14.7912 13.9048 14.7912C14.4545 14.7912 14.9838 14.7912 15.5335 14.7912C15.6149 14.7912 15.6353 14.7504 15.6353 14.6893C15.6964 14.343 15.7574 13.9966 15.8185 13.6706C15.8796 13.365 15.9203 13.0391 15.9814 12.7334C16.0017 12.6316 16.0221 12.5297 16.0425 12.4278C16.1035 12.1222 16.1646 11.8166 16.2257 11.511C16.2664 11.2869 16.2868 11.0628 16.3275 10.8387C16.3886 10.4516 16.47 10.0645 16.5514 9.65705C16.6329 9.2292 16.7143 8.80136 16.7754 8.35314C16.8364 7.98642 16.8975 7.64007 16.9586 7.27335C17.0197 6.96774 17.0604 6.64177 17.1215 6.31579C17.1418 6.19355 17.1825 6.09168 17.2029 5.96944C17.2233 5.8472 17.2436 5.72496 17.264 5.58234C16.2868 5.60272 15.3503 5.60272 14.3934 5.60272ZM12.9683 22.5331C12.9479 22.1664 12.9072 21.82 12.8868 21.4737C12.8665 21.2903 12.8665 21.0866 12.8461 20.9032C12.8054 20.455 12.7647 19.9864 12.724 19.5382C12.7036 19.2326 12.6833 18.927 12.6629 18.6214C12.6629 18.601 12.6629 18.601 12.6629 18.5806C12.6222 18.1121 12.5815 17.6435 12.5407 17.1952C12.5204 16.8896 12.5 16.584 12.4797 16.2784C12.4797 16.1969 12.4593 16.1766 12.3779 16.1766C11.8282 16.1766 11.2785 16.1766 10.7288 16.1766C10.6474 16.1766 10.627 16.1969 10.627 16.2784C10.6067 16.6655 10.5659 17.0323 10.5456 17.4194C10.5049 18.0102 10.4438 18.5806 10.4031 19.1715C10.3624 19.5586 10.342 19.966 10.3216 20.3531C10.2809 20.8829 10.2402 21.4126 10.1995 21.9219C10.1995 21.9423 10.1995 21.9627 10.1995 21.983C10.1791 22.1664 10.1588 22.3294 10.1588 22.5331C11.0749 22.5331 12.0114 22.5331 12.9683 22.5331ZM17.2029 22.5331C17.1622 22.3701 17.1215 22.2275 17.1011 22.0645C17.0604 21.9015 17.0197 21.7182 16.979 21.5552C16.9382 21.3922 16.8975 21.2496 16.8568 21.0866C16.8161 20.9236 16.7754 20.7606 16.7347 20.5976C16.6939 20.4346 16.6532 20.2716 16.6125 20.1087C16.5718 19.9457 16.5311 19.7827 16.4903 19.5993C16.4496 19.4363 16.4089 19.2937 16.3682 19.1307C16.3275 18.9677 16.2868 18.8048 16.246 18.6214C16.2053 18.4584 16.1646 18.3158 16.1239 18.1528C16.0832 17.9898 16.0425 17.8472 16.0017 17.6842C15.961 17.5212 15.9203 17.3379 15.8796 17.1749C15.8389 17.0119 15.7981 16.8693 15.7574 16.7063C15.7167 16.5433 15.6964 16.4007 15.6556 16.2377C15.6353 16.1766 15.6149 16.1358 15.5335 16.1358C15.0042 16.1358 14.4545 16.1358 13.9251 16.1358C13.9048 16.1358 13.8641 16.1358 13.8437 16.1358C13.8437 16.1766 13.8437 16.2173 13.8437 16.2581C13.8641 16.6248 13.9048 17.0119 13.9251 17.3786C13.9659 17.9287 14.0269 18.4992 14.0677 19.0492C14.088 19.2937 14.1084 19.5586 14.1084 19.8031C14.1287 20.0883 14.1491 20.3735 14.1694 20.6587C14.2102 21.2292 14.2712 21.7997 14.2916 22.3701C14.2916 22.472 14.3323 22.5127 14.4341 22.5127C15.2892 22.5127 16.1646 22.5127 17.0197 22.5127C17.1215 22.5331 17.1622 22.5331 17.2029 22.5331ZM9.22227 16.1766C9.16119 16.1766 9.12047 16.1766 9.07976 16.1766C8.57079 16.1766 8.06182 16.1766 7.55285 16.1766C7.41034 16.1766 7.38998 16.1969 7.36962 16.3396C7.34926 16.5025 7.30855 16.6452 7.26783 16.8082C7.22711 16.9915 7.18639 17.1545 7.14568 17.3379C7.10496 17.4805 7.0846 17.6435 7.04388 17.7861C7.00316 17.9491 6.96245 18.1324 6.92173 18.2954C6.88101 18.438 6.86065 18.601 6.81994 18.7436C6.77922 18.9066 6.7385 19.0696 6.69778 19.2326C6.63671 19.4567 6.59599 19.7012 6.53491 19.9457C6.4942 20.1087 6.45348 20.292 6.41276 20.455C6.37204 20.618 6.33133 20.7606 6.29061 20.9236C6.22953 21.1477 6.18881 21.3514 6.12774 21.5756C6.08702 21.7385 6.0463 21.9219 6.00559 22.0849C5.96487 22.2275 5.94451 22.3905 5.90379 22.5331C5.92415 22.5331 5.94451 22.5331 5.94451 22.5331C6.8403 22.5331 7.73608 22.5331 8.65223 22.5331C8.7133 22.5331 8.73366 22.4924 8.75402 22.4312C8.77438 22.0441 8.81509 21.6367 8.83545 21.2496C8.87617 20.6791 8.93725 20.1087 8.97796 19.5382C9.01868 19.1307 9.03904 18.7029 9.07976 18.2954C9.12047 17.7861 9.16119 17.2767 9.18155 16.7674C9.18155 16.747 9.18155 16.7267 9.18155 16.7063C9.20191 16.5433 9.20191 16.3803 9.22227 16.1766ZM15.676 4.19694C15.6556 4.17657 15.6353 4.17657 15.6353 4.1562C15.3503 3.97284 15.0652 3.78947 14.7802 3.60611C14.4545 3.40238 14.1287 3.19864 13.803 2.97453C13.6401 2.85229 13.4569 2.79117 13.2533 2.79117C12.0725 2.79117 10.8713 2.79117 9.69052 2.79117C9.62944 2.79117 9.54801 2.81155 9.48693 2.85229C9.38514 2.91341 9.28335 2.99491 9.16119 3.05603C8.73366 3.32088 8.32649 3.58574 7.89895 3.87097C7.73608 3.97284 7.59357 4.0747 7.4307 4.17657V4.19694C10.1791 4.19694 12.9072 4.19694 15.676 4.19694Z" fill="#1D1F20"/>
</g>
<defs>
<clipPath id="clip0_2541_52099">
<rect width="24" height="24" fill="white"/>
</clipPath>
</defs>
</svg>
