<svg width="24" height="24" viewBox="0 0 24 24" fill="none" xmlns="http://www.w3.org/2000/svg">
<g clip-path="url(#clip0_2541_52101)">
<path d="M0 13.4723C0 13.3504 0 13.2285 0 13.1066C0.0203203 13.1066 0.040643 13.0863 0.040643 13.0863C0.101604 12.9847 0.142249 12.8831 0.22353 12.7815C0.426733 12.5579 0.650251 12.3547 0.853454 12.1312C1.44274 11.5419 2.03203 10.9526 2.62132 10.3633C3.12933 9.85533 3.63733 9.34733 4.14534 8.83932C4.91751 8.06715 5.66936 7.29497 6.44153 6.54312C6.96986 6.0148 7.49818 5.48647 8.02651 4.95815C8.63612 4.36886 9.22541 3.75925 9.83502 3.16996C10.4649 2.54003 11.1152 1.88978 11.7451 1.25986C12.0499 0.955052 12.375 0.629927 12.7002 0.325122C12.8221 0.203201 12.944 0.0812805 13.1066 0.0406399C13.1066 0.0406399 13.1066 0.0203203 13.1269 0C13.2488 0 13.3707 0 13.4927 0C13.4927 0.0203203 13.513 0.0406399 13.513 0.0406399C13.6146 0.101601 13.7568 0.162562 13.8381 0.243843C14.3055 0.690889 14.7525 1.15825 15.2199 1.6053C16.0327 2.41811 16.8455 3.25124 17.6786 4.06405C18.4305 4.8159 19.1823 5.54743 19.9139 6.29928C20.6048 6.99017 21.2956 7.68106 21.9865 8.37195C22.4742 8.85964 22.9416 9.327 23.4293 9.81469C23.5715 9.95693 23.7341 10.0789 23.8357 10.2821C23.856 10.3227 23.8763 10.3633 23.8966 10.4243C23.8966 13.7975 23.8966 17.1909 23.8966 20.5641C23.8763 20.5844 23.856 20.6251 23.856 20.6454C23.8357 20.8892 23.7341 21.1128 23.6122 21.3363C23.2464 21.9459 22.6977 22.2913 22.0069 22.3726C21.4582 22.4336 20.9502 22.271 20.5032 21.9256C19.9952 21.5192 19.731 20.9705 19.6903 20.3203C19.6903 20.2187 19.67 20.0967 19.6294 19.9951C19.4871 19.6903 19.1214 19.5075 18.7759 19.6091C18.5321 19.6903 18.2882 19.9748 18.2882 20.2593C18.2882 20.7673 18.2882 21.2753 18.2882 21.8036C18.2882 21.9256 18.2679 22.0475 18.2476 22.1694C18.1663 22.4336 18.0647 22.6977 17.8818 22.9213C17.4958 23.4293 16.9878 23.7138 16.3781 23.7747C15.8701 23.8357 15.3825 23.6934 14.9557 23.3683C14.3868 22.9416 14.1023 22.3726 14.1023 21.6817C14.1023 21.3972 14.1023 21.0924 14.1023 20.808C14.1023 20.7673 14.1023 20.747 14.1023 20.686C13.6349 21.1534 13.1879 21.6004 12.7408 22.0272C12.2125 22.5555 11.6842 23.0635 11.1761 23.5918C11.0745 23.6934 10.9729 23.795 10.8307 23.8154C10.8104 23.8154 10.8104 23.8357 10.8104 23.856C10.6885 23.856 10.5869 23.856 10.4649 23.856C10.4446 23.8357 10.4446 23.8357 10.4243 23.8154C10.3227 23.7544 10.2008 23.6934 10.0992 23.6122C9.83501 23.3683 9.57085 23.1041 9.32701 22.84C8.79868 22.3117 8.27036 21.7833 7.74203 21.255C6.92922 20.4422 6.13672 19.6497 5.32391 18.8369C4.73463 18.2476 4.12502 17.6583 3.53573 17.069C2.92612 16.4594 2.31652 15.8498 1.70691 15.2402C1.23954 14.7728 0.792498 14.3258 0.325132 13.8584C0.20321 13.7365 0.101599 13.6349 0.0609583 13.452C0.0203178 13.4723 0 13.4723 0 13.4723ZM22.4945 12.2938C22.4539 12.3344 22.4336 12.3547 22.4133 12.375C22.0475 12.7408 21.6817 13.1066 21.2956 13.4927C20.747 14.0413 20.178 14.6103 19.6294 15.1589C18.8166 15.9717 17.9834 16.8049 17.1706 17.6177C16.6423 18.146 16.114 18.6743 15.5653 19.2027C15.5247 19.2433 15.5044 19.3043 15.5044 19.3652C15.5044 20.1171 15.5044 20.8689 15.5044 21.6208C15.5044 21.702 15.5247 21.8036 15.545 21.8849C15.6466 22.271 16.1343 22.4945 16.5204 22.2913C16.7845 22.1491 16.9065 21.9459 16.9065 21.6411C16.9065 21.1534 16.9065 20.6657 16.9065 20.178C16.9065 19.9342 16.9674 19.6903 17.069 19.4668C17.2519 19.0401 17.5364 18.6946 17.9428 18.4711C18.2476 18.2882 18.5727 18.1866 18.9182 18.1866C19.0807 18.1866 19.223 18.207 19.3855 18.2273C19.6903 18.2476 19.9545 18.3898 20.1984 18.5524C20.7876 18.9791 21.0924 19.5684 21.1128 20.3C21.1128 20.3609 21.1331 20.4422 21.1534 20.5032C21.2347 20.7673 21.4785 20.9502 21.7427 20.9705C22.1491 21.0112 22.5149 20.6657 22.5149 20.2593C22.5149 17.638 22.5149 15.0167 22.5149 12.4157C22.4945 12.3954 22.4945 12.3547 22.4945 12.2938ZM9.95693 4.99879C11.2778 6.31961 12.5986 7.64042 13.9194 8.96124C13.96 8.9206 14.0007 8.90028 14.0413 8.85964C14.59 8.31099 15.1589 7.74202 15.7076 7.19338C16.1953 6.70569 16.6829 6.218 17.1706 5.71C17.2316 5.64904 17.2316 5.62871 17.1706 5.56775C16.6829 5.08007 16.1749 4.57206 15.6873 4.08438C14.9151 3.31221 14.1429 2.54003 13.3504 1.74754C13.2895 1.68658 13.2488 1.68658 13.2082 1.74754C13.0253 1.95074 12.8221 2.13363 12.6392 2.31651C11.9483 3.0074 11.2574 3.69829 10.5665 4.38918C10.3633 4.6127 10.1805 4.79559 9.95693 4.99879ZM14.9151 9.93661C16.2562 11.2777 17.5567 12.5782 18.8775 13.8991C18.8979 13.8787 18.9385 13.8584 18.9588 13.8381C19.3246 13.4723 19.6903 13.1066 20.0561 12.7408C20.5032 12.3141 20.9299 11.867 21.3566 11.4403C21.6005 11.1965 21.8646 10.9323 22.1085 10.6885C22.1694 10.6275 22.1694 10.5869 22.1085 10.5259C21.9459 10.3633 21.7833 10.2008 21.6004 10.0382C21.0924 9.53021 20.5844 9.00188 20.0561 8.49387C19.4871 7.9249 18.8979 7.33562 18.3289 6.76665C18.2273 6.66505 18.2273 6.66505 18.1257 6.76665C17.9022 6.99017 17.6583 7.23401 17.4348 7.45754C16.7845 8.10778 16.1343 8.75803 15.4841 9.40828C15.3012 9.57085 15.098 9.75373 14.9151 9.93661ZM8.9206 13.9397C8.90028 13.8991 8.85964 13.8787 8.83932 13.8381C8.47355 13.4723 8.08747 13.0863 7.7217 12.7205C6.84793 11.8467 5.97416 10.9526 5.08007 10.0789C4.99879 9.99758 4.97847 9.99758 4.87687 10.0789C4.53142 10.4243 4.18598 10.7697 3.84054 11.1152C3.39349 11.5622 2.92612 12.0296 2.47908 12.4766C2.23523 12.7205 1.99139 12.9643 1.74755 13.2082C1.68659 13.2691 1.68659 13.2895 1.74755 13.3504C1.88979 13.4723 2.01171 13.6146 2.15396 13.7568C2.58068 14.1835 3.00741 14.6103 3.43413 15.037C4.14534 15.7482 4.85655 16.4594 5.56776 17.1706C5.6084 17.2113 5.64904 17.2113 5.68968 17.1706C5.79128 17.069 5.91321 16.9674 6.01481 16.8658C6.96986 15.9311 7.90459 14.976 8.83932 14.0413C8.87996 14.021 8.90028 13.9803 8.9206 13.9397ZM13.8787 18.8979C13.8381 18.8572 13.8178 18.8166 13.7771 18.7963C13.1879 18.207 12.5986 17.6177 11.989 17.0284C11.3184 16.3578 10.6681 15.7076 10.0179 15.037C9.95693 14.976 9.89598 14.976 9.83502 15.037C9.26605 15.606 8.69708 16.1749 8.12811 16.7439C7.66074 17.2113 7.17306 17.699 6.70569 18.1663C6.64473 18.2273 6.64473 18.2679 6.70569 18.3289C6.88857 18.5118 7.07146 18.6743 7.23402 18.8572C7.78267 19.4059 8.33131 19.9748 8.90028 20.5235C9.44892 21.0721 9.97725 21.6004 10.5259 22.1491C10.5665 22.1897 10.6072 22.1897 10.6478 22.1491C10.7901 22.0069 10.9323 21.8646 11.0745 21.7224C11.6638 21.1331 12.2734 20.5235 12.8627 19.9342C13.1675 19.6294 13.4723 19.3246 13.7771 19.0198C13.8178 18.9791 13.8381 18.9385 13.8787 18.8979ZM9.91629 12.944C9.95693 12.9237 9.99757 12.9034 10.0179 12.8627C10.1805 12.7002 10.343 12.5376 10.4853 12.375C11.2778 11.5826 12.0499 10.8104 12.8424 10.0179C12.9237 9.93661 12.9237 9.91629 12.8424 9.83501C12.3141 9.30668 11.7858 8.77836 11.2371 8.25003C10.7697 7.78267 10.3024 7.31529 9.83502 6.84793C9.57085 6.58376 9.32701 6.3196 9.06285 6.07576C9.02221 6.03512 8.96124 5.97416 8.87996 6.05544C8.67676 6.25864 8.47356 6.46184 8.27035 6.66505C7.84363 7.09177 7.4169 7.5185 6.99018 7.96554C6.66505 8.29067 6.33993 8.6158 6.01481 8.94092C5.95385 9.00188 5.95385 9.04252 6.01481 9.10348C6.11641 9.18476 6.19769 9.28637 6.27897 9.36765C7.03082 10.1195 7.78267 10.851 8.5142 11.6029C8.94092 12.0296 9.36765 12.4563 9.79437 12.8831C9.85533 12.9034 9.89597 12.9237 9.91629 12.944ZM17.8818 14.8948C17.8615 14.8541 17.8209 14.8135 17.8006 14.7932C17.2113 14.2039 16.6017 13.6146 16.0124 13.0253C15.3418 12.3547 14.6916 11.7045 14.021 11.0339C13.96 10.9729 13.8991 10.9729 13.8381 11.0339C13.3504 11.5216 12.8627 12.0093 12.3751 12.5173C11.9077 12.9847 11.4606 13.452 10.9933 13.8991C10.9323 13.96 10.9323 13.9803 10.9933 14.0413C11.2981 14.3461 11.6232 14.6712 11.928 14.976C12.4563 15.5044 12.9847 16.0124 13.4927 16.5407C13.9194 16.9674 14.3461 17.3941 14.7728 17.8209C14.8541 17.9022 14.8744 17.9022 14.976 17.8209C15.098 17.699 15.2199 17.577 15.3215 17.4551C15.8295 16.9471 16.3578 16.4188 16.8658 15.9108C17.191 15.5856 17.4958 15.2808 17.8209 14.9557C17.8412 14.9557 17.8615 14.9151 17.8818 14.8948Z" fill="#1D1F20"/>
<path d="M13.9601 6.68557C13.7162 6.68557 13.5537 6.58397 13.3911 6.42141C13.0863 6.11661 12.8018 5.8118 12.497 5.52731C12.1516 5.20219 12.1922 4.69418 12.497 4.45034C12.7815 4.22682 13.1676 4.22682 13.4318 4.47066C13.7772 4.81611 14.1226 5.14123 14.4478 5.48668C14.7932 5.85244 14.6306 6.44173 14.2039 6.60429C14.1226 6.64493 14.0414 6.66525 13.9601 6.68557Z" fill="#1D1F20"/>
<path d="M18.8773 11.6444C18.6131 11.6444 18.4303 11.4819 18.2677 11.3193C18.0035 11.0551 17.7394 10.7707 17.4549 10.5268C17.272 10.3439 17.1704 10.1204 17.211 9.85624C17.272 9.44984 17.6987 9.22631 18.0239 9.28727C18.2474 9.32791 18.3896 9.47015 18.5319 9.63272C18.8163 9.9172 19.1008 10.2017 19.3853 10.4862C19.7511 10.8519 19.6088 11.4819 19.1008 11.6444C19.0195 11.6241 18.9383 11.6241 18.8773 11.6444Z" fill="#1D1F20"/>
<path d="M6.62474 13.9179C6.62474 14.4056 6.31992 14.6494 5.95416 14.6901C5.75096 14.7104 5.56808 14.6088 5.42584 14.4666C5.12103 14.1618 4.81623 13.857 4.51142 13.5522C4.36918 13.4099 4.26758 13.2473 4.26758 13.0441C4.26758 12.6377 4.55207 12.3126 4.99912 12.3329C5.182 12.3329 5.34455 12.4142 5.48679 12.5361C5.81192 12.8613 6.13705 13.1864 6.44185 13.4912C6.56377 13.6131 6.64506 13.7757 6.62474 13.9179Z" fill="#1D1F20"/>
<path d="M10.912 19.6505C10.6885 19.6302 10.5056 19.5286 10.343 19.3661C10.0382 19.0409 9.71311 18.7361 9.4083 18.4313C9.04254 18.0452 9.2051 17.4356 9.69279 17.2731C9.91631 17.2121 10.1602 17.2324 10.343 17.4153C10.7088 17.7608 11.0746 18.1062 11.3997 18.4923C11.7045 18.8174 11.6029 19.4067 11.1152 19.5896C11.0542 19.6099 10.973 19.6302 10.912 19.6505Z" fill="#1D1F20"/>
<path d="M8.25026 9.00117C8.22994 8.47284 8.83954 8.1274 9.24595 8.39156C9.36787 8.47284 9.48979 8.57444 9.5914 8.67604C9.8962 8.96053 10.1807 9.26534 10.4652 9.57014C10.7903 9.91558 10.6074 10.5049 10.201 10.6471C9.87588 10.769 9.5914 10.6674 9.38819 10.4439C9.10371 10.1594 8.81923 9.85462 8.51442 9.57014C8.35186 9.40758 8.22994 9.24501 8.25026 9.00117Z" fill="#1D1F20"/>
<path d="M14.8749 15.6449C14.6311 15.6449 14.4685 15.523 14.306 15.3605C14.0215 15.076 13.7167 14.7712 13.4322 14.4867C13.0867 14.1616 13.1071 13.6739 13.4322 13.4097C13.6963 13.1862 14.0824 13.1659 14.3466 13.4097C14.7124 13.7552 15.0781 14.1209 15.4236 14.4867C15.7487 14.8321 15.5658 15.4011 15.1594 15.5637C15.0578 15.6043 14.9765 15.6246 14.8749 15.6449Z" fill="#1D1F20"/>
</g>
<defs>
<clipPath id="clip0_2541_52101">
<rect width="24" height="24" fill="white"/>
</clipPath>
</defs>
</svg>
