<svg width="24" height="24" viewBox="0 0 24 24" fill="none" xmlns="http://www.w3.org/2000/svg">
<g clip-path="url(#clip0_2541_52051)">
<path d="M20.6705 23.9961C14.931 23.9961 9.17095 23.9961 3.43137 23.9961C3.41095 23.9757 3.41095 23.9552 3.39052 23.9552C3.04329 23.8327 2.87988 23.608 2.87988 23.2403C2.87988 19.4412 2.87988 15.6625 2.87988 11.8633C2.87988 11.4548 2.90031 11.0463 2.94116 10.6378C2.94116 10.4744 2.96158 10.2906 3.00243 10.1272C3.06371 9.80035 3.10456 9.47354 3.16583 9.16716C3.22711 8.8812 3.28839 8.57482 3.37009 8.28886C3.47222 7.9212 3.59478 7.57397 3.73776 7.20631C3.90116 6.77737 4.06456 6.36886 4.26882 5.96035C4.51392 5.44971 4.79988 4.93907 5.14711 4.46928C5.20839 4.36716 5.24924 4.26503 5.24924 4.14248C5.24924 3.32546 5.24924 2.52886 5.24924 1.71184C5.24924 1.44631 5.29009 1.2012 5.39222 0.956093C5.59648 0.527157 5.92328 0.220775 6.37264 0.0777962C6.45435 0.0573707 6.53605 0.0165193 6.61775 -0.00390625C10.2535 -0.00390625 13.8688 -0.00390625 17.5046 -0.00390625C17.525 0.0165193 17.5454 0.0369442 17.5658 0.0369442C17.7905 0.0777953 17.9948 0.179924 18.199 0.302477C18.6484 0.629285 18.8731 1.07865 18.8731 1.60971C18.8935 2.46758 18.8731 3.34588 18.8731 4.20375C18.8731 4.24461 18.8731 4.30588 18.8935 4.32631C19.0569 4.57141 19.2203 4.81652 19.3633 5.08205C19.5675 5.44971 19.7718 5.79695 19.9352 6.18503C20.0782 6.49141 20.2007 6.7978 20.3233 7.10418C20.4254 7.36971 20.5071 7.61482 20.5888 7.88035C20.6705 8.10503 20.7114 8.35014 20.7727 8.57482C20.8339 8.81992 20.8952 9.0446 20.9565 9.28971C21.0177 9.57567 21.0586 9.88205 21.0995 10.168C21.1403 10.6786 21.1812 11.2097 21.2016 11.7203C21.222 12.1697 21.2016 12.6191 21.2016 13.0684C21.2016 16.4591 21.2016 19.8497 21.2016 23.2608C21.2016 23.5672 21.0586 23.8123 20.7727 23.9552C20.7318 23.9552 20.691 23.9757 20.6705 23.9961ZM19.7922 19.2982C19.7922 19.2369 19.7922 19.1961 19.7922 19.1552C19.7922 16.9697 19.7922 14.7842 19.7922 12.5782C19.7922 12.0267 19.7922 11.4752 19.7514 10.9238C19.7105 10.4744 19.6492 10.025 19.5675 9.57567C19.5267 9.28971 19.445 9.02418 19.3837 8.75865C19.302 8.45226 19.2203 8.16631 19.0977 7.85992C18.9343 7.43099 18.7709 7.00205 18.5667 6.61396C18.342 6.1646 18.0765 5.75609 17.8314 5.32716C17.7905 5.26588 17.7497 5.24545 17.668 5.24545C16.6875 5.24545 15.7071 5.24545 14.7267 5.24545C14.6858 5.24545 14.6654 5.24545 14.6246 5.24545C14.6246 5.30673 14.6246 5.34758 14.6246 5.38843C14.6246 5.89907 14.6246 6.40971 14.6246 6.92035C14.6246 7.02248 14.5837 7.1246 14.5429 7.20631C14.359 7.57397 13.9301 7.71694 13.5216 7.49226C13.1131 7.26758 12.6841 7.06333 12.2552 6.83865C12.1122 6.75694 11.9897 6.75694 11.8263 6.83865C11.4178 7.06333 10.9684 7.26758 10.5599 7.47184C10.3352 7.59439 10.1105 7.63524 9.86542 7.51269C9.59989 7.36971 9.45691 7.14503 9.45691 6.83865C9.45691 6.34843 9.45691 5.8378 9.45691 5.34758C9.45691 5.30673 9.45691 5.26588 9.45691 5.22503C9.19137 5.22503 8.92584 5.22503 8.66031 5.22503C7.90456 5.22503 7.16924 5.22503 6.4135 5.22503C6.37265 5.22503 6.29094 5.24545 6.27052 5.28631C6.06626 5.63354 5.84158 5.96035 5.65775 6.32801C5.47392 6.67524 5.31052 7.0429 5.16754 7.39014C5.06542 7.61482 4.98371 7.8395 4.92244 8.06418C4.84073 8.28886 4.77946 8.53397 4.71818 8.77907C4.6569 9.00375 4.59563 9.22843 4.55478 9.47354C4.51393 9.69822 4.47308 9.90248 4.45265 10.1272C4.4118 10.5969 4.33009 11.0872 4.33009 11.5569C4.30967 14.1101 4.33009 16.6633 4.33009 19.2165C4.33009 19.2369 4.33009 19.2778 4.33009 19.3186V20.7484C4.33009 21.3612 4.33009 21.9944 4.33009 22.6072C9.49775 22.6072 14.645 22.6072 19.8126 22.6072C19.8126 21.974 19.8126 21.3612 19.8126 20.7484L19.7922 19.2982ZM10.8663 5.71524C10.9071 5.69482 10.948 5.69482 10.9684 5.69482C11.1931 5.59269 11.4177 5.47014 11.6424 5.34758C11.8671 5.22503 12.0918 5.18418 12.3165 5.28631C12.5207 5.38843 12.7046 5.49056 12.9088 5.57226C13.0109 5.61312 13.0926 5.65397 13.1948 5.71524C13.1948 4.26503 13.1948 2.81482 13.1948 1.38503C12.4186 1.38503 11.6424 1.38503 10.8663 1.38503C10.8663 2.83524 10.8663 4.26503 10.8663 5.71524ZM6.65861 3.81567C7.59818 3.81567 8.53776 3.81567 9.45691 3.81567C9.45691 2.99865 9.45691 2.20205 9.45691 1.38503C9.41606 1.38503 9.39563 1.38503 9.35478 1.38503C8.53776 1.38503 7.74116 1.38503 6.92414 1.38503C6.74031 1.38503 6.63817 1.46673 6.63817 1.67099C6.63817 2.36545 6.63817 3.0395 6.63817 3.73397C6.6586 3.75439 6.65861 3.79524 6.65861 3.81567ZM17.4433 3.81567C17.4433 3.77482 17.4433 3.75439 17.4433 3.71354C17.4433 3.01907 17.4433 2.34503 17.4433 1.65056C17.4433 1.50758 17.3207 1.3646 17.1573 1.3646C16.3403 1.3646 15.5233 1.3646 14.7063 1.3646C14.6858 1.3646 14.645 1.3646 14.6246 1.3646C14.6246 2.18162 14.6246 2.97822 14.6246 3.79524C15.5641 3.81567 16.5037 3.81567 17.4433 3.81567Z" fill="#1D1F20"/>
<path d="M16.8918 20.0523H7.21014C6.90375 20.0523 6.69949 19.7255 6.84247 19.46L11.7038 10.1051C11.8467 9.81914 12.2757 9.81914 12.4186 10.1051L14.4612 14.0472C14.4816 14.1085 14.4816 14.1698 14.4612 14.2106L13.2152 16.4983C13.1335 16.6413 12.9497 16.6617 12.8476 16.5187L12.2144 15.6608C12.1735 15.5996 12.1531 15.4974 12.194 15.4362L12.8884 14.1493C12.9089 14.1289 12.9089 14.0881 12.8884 14.0676L12.1327 12.6174C12.0918 12.5562 12.0101 12.5562 11.9693 12.6174L8.90545 18.5204C8.88503 18.5817 8.92587 18.643 8.98715 18.643H15.0944C15.1557 18.643 15.1965 18.5817 15.1761 18.5204L14.4408 17.1111C14.4203 17.0498 14.4203 16.9885 14.4408 16.9272L15.074 15.8651C15.1557 15.7425 15.3395 15.7425 15.4008 15.8651L17.2595 19.4396C17.382 19.7255 17.1778 20.0523 16.8918 20.0523Z" fill="#1D1F20"/>
</g>
<defs>
<clipPath id="clip0_2541_52051">
<rect width="24" height="24" fill="white"/>
</clipPath>
</defs>
</svg>
