<svg width="24" height="24" viewBox="0 0 24 24" fill="none" xmlns="http://www.w3.org/2000/svg">
<path d="M24 15.1821C23.9796 15.2022 23.9592 15.2224 23.9592 15.2425C23.9184 15.5847 23.8163 15.8866 23.6939 16.1886C23.449 16.732 23.102 17.1749 22.6326 17.5171C22.2857 17.7787 21.9184 17.9599 21.5102 18.0807C21.2041 18.1612 20.898 18.2216 20.5918 18.2216C20.0816 18.2216 19.5714 18.2417 19.0612 18.2417C13.9388 18.2417 8.83674 18.2417 3.71429 18.2417C3.40817 18.2417 3.08164 18.2216 2.79592 18.1612C2.44898 18.1008 2.12244 17.9599 1.81632 17.7989C1.36734 17.5573 0.999993 17.2353 0.69387 16.8126C0.448972 16.4704 0.2449 16.108 0.14286 15.7055C0.102043 15.5444 0.0816352 15.3834 0.0408188 15.2425C0.0408188 15.2224 0.0204082 15.2022 0 15.1821C0 15.0009 0 14.7997 0 14.6185C0.0204082 14.5782 0.0408138 14.538 0.061222 14.4977C0.204079 14.236 0.428567 14.075 0.734689 14.075C1.38775 14.075 2.0204 14.075 2.67346 14.075C2.71428 14.075 2.7551 14.075 2.81632 14.075C2.81632 14.0146 2.81632 13.9744 2.81632 13.9341C2.81632 11.4582 2.81632 8.96224 2.81632 6.48637C2.81632 6.1643 2.95918 5.90262 3.26531 5.78185C3.30612 5.76172 3.32653 5.76172 3.36735 5.76172C3.42857 5.76172 3.5102 5.76172 3.57143 5.76172C9.18368 5.76172 14.7959 5.76172 20.4082 5.76172C20.6939 5.76172 20.9184 5.86236 21.0612 6.10391C21.1429 6.22468 21.1633 6.36559 21.1633 6.52662C21.1633 9.00249 21.1633 11.4784 21.1633 13.9744C21.1633 14.0146 21.1633 14.0549 21.1633 14.1153C21.2041 14.1153 21.2449 14.1153 21.2857 14.1153C21.9184 14.1153 22.5714 14.1153 23.2041 14.1153C23.4694 14.1153 23.6939 14.2159 23.8367 14.4373C23.8776 14.4977 23.9184 14.5782 23.9592 14.6587C24 14.8198 24 15.0009 24 15.1821ZM19.7755 14.075C19.7755 14.0347 19.7755 13.9945 19.7755 13.9744C19.7755 11.74 19.7755 9.50572 19.7755 7.25127C19.7755 7.13049 19.7347 7.13049 19.6327 7.13049C18.3061 7.13049 16.9796 7.13049 15.6531 7.13049C15.551 7.13049 15.5102 7.15062 15.5102 7.2714C15.5102 8.39862 15.5102 9.52585 15.5102 10.6531C15.5102 10.9953 15.4082 11.2972 15.2653 11.579C15 12.0621 14.5918 12.3842 14.0612 12.5653C13.7347 12.666 13.4082 12.7062 13.0612 12.6257C12.6327 12.5452 12.2653 12.3842 11.9592 12.0822C11.5306 11.6797 11.3061 11.1764 11.3061 10.5726C11.3061 10.3713 11.3061 10.17 11.3061 9.96868C11.3061 9.92843 11.3061 9.9083 11.3061 9.86804C11.1633 9.86804 11.0408 9.86804 10.898 9.86804C10.6735 9.86804 10.449 9.86804 10.2245 9.82778C10.0408 9.78752 9.85714 9.72714 9.67346 9.66675C9.32652 9.50572 9.06122 9.26417 8.83673 8.96223C8.63265 8.64017 8.48979 8.29797 8.48979 7.91552C8.48979 7.6941 8.48979 7.47269 8.48979 7.2714C8.48979 7.17075 8.44898 7.15062 8.36735 7.15062C7.04082 7.15062 5.69387 7.15062 4.36734 7.15062C4.2653 7.15062 4.2449 7.17075 4.2449 7.2714C4.2449 9.50572 4.2449 11.74 4.2449 13.9744C4.2449 14.0146 4.2449 14.0549 4.2449 14.0951C9.40816 14.075 14.5918 14.075 19.7755 14.075ZM22.4694 15.4639C15.4694 15.4639 8.5102 15.4639 1.55102 15.4639C1.57142 15.5042 1.57143 15.5444 1.57143 15.5847C1.63266 15.7256 1.71428 15.8464 1.79592 15.9671C1.95918 16.2087 2.18367 16.41 2.42856 16.5509C2.81632 16.7924 3.24489 16.8528 3.69387 16.8528C8.93877 16.8528 14.1633 16.8528 19.4082 16.8528C19.8367 16.8528 20.2653 16.8327 20.6735 16.8126C20.8163 16.8126 20.9796 16.7723 21.1225 16.732C21.6327 16.571 22.0204 16.2691 22.2857 15.8262C22.3674 15.7457 22.4082 15.6048 22.4694 15.4639ZM9.87755 7.13049C9.87755 7.35191 9.87755 7.57333 9.87755 7.79475C9.85714 8.1772 10.2245 8.49927 10.5918 8.47914C11.0612 8.47914 11.5306 8.47914 12 8.47914C12.102 8.47914 12.2041 8.49927 12.2857 8.55965C12.551 8.70056 12.6939 8.92197 12.6939 9.22391C12.6939 9.64662 12.6939 10.0895 12.6939 10.5122C12.6939 10.7537 12.7755 10.955 12.9796 11.116C13.1429 11.2368 13.3265 11.2972 13.5306 11.2569C13.8571 11.1764 14.102 10.9148 14.102 10.5122C14.0816 9.4252 14.102 8.33823 14.102 7.2714C14.102 7.23114 14.102 7.19088 14.102 7.15062C12.6939 7.13049 11.3061 7.13049 9.87755 7.13049Z" fill="#1D1F20"/>
</svg>
