<svg width="16" height="16" viewBox="0 0 16 16" fill="none" xmlns="http://www.w3.org/2000/svg">
<g clip-path="url(#clip0_3177_17224)">
<path fill-rule="evenodd" clip-rule="evenodd" d="M8 15C11.866 15 15 11.866 15 8C15 4.13401 11.866 1 8 1C4.13401 1 1 4.13401 1 8C1 11.866 4.13401 15 8 15ZM8 16C12.4183 16 16 12.4183 16 8C16 3.58172 12.4183 0 8 0C3.58172 0 0 3.58172 0 8C0 12.4183 3.58172 16 8 16Z" fill="#1D1F20"/>
<path fill-rule="evenodd" clip-rule="evenodd" d="M8 13C10.7614 13 13 10.7614 13 8C13 5.23858 10.7614 3 8 3C5.23858 3 3 5.23858 3 8C3 10.7614 5.23858 13 8 13ZM8 14C11.3137 14 14 11.3137 14 8C14 4.68629 11.3137 2 8 2C4.68629 2 2 4.68629 2 8C2 11.3137 4.68629 14 8 14Z" fill="#1D1F20"/>
<path d="M5.33333 2.66667C5.33333 4.13943 4.13943 5.33333 2.66667 5.33333C1.19391 5.33333 0 4.13943 0 2.66667C0 1.19391 1.19391 0 2.66667 0C4.13943 0 5.33333 1.19391 5.33333 2.66667Z" fill="#CCFF60"/>
<path fill-rule="evenodd" clip-rule="evenodd" d="M2.66667 4.33333C3.58714 4.33333 4.33333 3.58714 4.33333 2.66667C4.33333 1.74619 3.58714 1 2.66667 1C1.74619 1 1 1.74619 1 2.66667C1 3.58714 1.74619 4.33333 2.66667 4.33333ZM2.66667 5.33333C4.13943 5.33333 5.33333 4.13943 5.33333 2.66667C5.33333 1.19391 4.13943 0 2.66667 0C1.19391 0 0 1.19391 0 2.66667C0 4.13943 1.19391 5.33333 2.66667 5.33333Z" fill="#1D1F20"/>
<path d="M8.03674 10.1383C7.79385 10.2315 7.56378 10.2921 7.29308 10.3129L5.33764 10.5647L5.62884 8.48538C5.84758 6.87726 7.01042 5.68266 8.52204 5.46266L10.4775 5.21086L10.1863 7.29018C10.0166 8.63006 9.18494 9.69752 8.03674 10.1383Z" fill="white"/>
<path fill-rule="evenodd" clip-rule="evenodd" d="M7.19089 9.3178L7.21655 9.31583C7.37105 9.30397 7.50538 9.2711 7.67837 9.2047C8.46202 8.90388 9.06795 8.16139 9.1942 7.16453L9.19503 7.158L9.30538 6.37005L8.65863 6.45333C7.61602 6.6084 6.78133 7.43199 6.61972 8.62016L6.61918 8.62407L6.50974 9.40551L7.19089 9.3178ZM5.33764 10.5647L5.62884 8.48538C5.84758 6.87726 7.01042 5.68266 8.52204 5.46266L10.4775 5.21086L10.1863 7.29018C10.0166 8.63006 9.18494 9.69752 8.03674 10.1383C7.79385 10.2315 7.56378 10.2921 7.29308 10.3129L5.33764 10.5647Z" fill="#1D1F20"/>
<path fill-rule="evenodd" clip-rule="evenodd" d="M14.6667 7.66797H14V8.33464H14.6667C14.8508 8.33464 15 8.1854 15 8.0013C15 7.81721 14.8508 7.66797 14.6667 7.66797ZM13 6.66797V9.33464H14.6667C15.403 9.33464 16 8.73768 16 8.0013C16 7.26492 15.403 6.66797 14.6667 6.66797H13Z" fill="#1D1F20"/>
</g>
<defs>
<clipPath id="clip0_3177_17224">
<rect width="16" height="16" fill="white"/>
</clipPath>
</defs>
</svg>
