<svg width="16" height="16" viewBox="0 0 16 16" fill="none" xmlns="http://www.w3.org/2000/svg">
<path fill-rule="evenodd" clip-rule="evenodd" d="M5.66536 1.66406H10.332C10.5161 1.66406 10.6654 1.8133 10.6654 1.9974V5.9974C10.6654 6.18149 10.5161 6.33073 10.332 6.33073H5.66537C5.48127 6.33073 5.33203 6.18149 5.33203 5.9974V1.99739C5.33203 1.8133 5.48127 1.66406 5.66536 1.66406ZM4.33203 1.99739C4.33203 1.26102 4.92899 0.664062 5.66536 0.664062H10.332C11.0684 0.664062 11.6654 1.26102 11.6654 1.9974V5.9974C11.6654 6.73378 11.0684 7.33073 10.332 7.33073H5.66537C4.92899 7.33073 4.33203 6.73377 4.33203 5.9974V1.99739ZM6.66536 4.9974V2.9974H9.33203V4.9974H6.66536ZM5.66536 2.33073C5.66536 2.14663 5.8146 1.9974 5.9987 1.9974H9.9987C10.1828 1.9974 10.332 2.14663 10.332 2.33073V5.66406C10.332 5.84816 10.1828 5.9974 9.9987 5.9974H5.9987C5.8146 5.9974 5.66536 5.84816 5.66536 5.66406V2.33073ZM1.66536 8.9987H6.33203C6.51613 8.9987 6.66537 9.14794 6.66537 9.33203V13.332C6.66537 13.5161 6.51613 13.6654 6.33203 13.6654H1.66537C1.48127 13.6654 1.33203 13.5161 1.33203 13.332V9.33203C1.33203 9.14794 1.48127 8.9987 1.66536 8.9987ZM0.332031 9.33203C0.332031 8.59565 0.928985 7.9987 1.66536 7.9987H6.33203C7.06841 7.9987 7.66537 8.59565 7.66537 9.33203V13.332C7.66537 14.0684 7.06841 14.6654 6.33203 14.6654H1.66537C0.928986 14.6654 0.332031 14.0684 0.332031 13.332V9.33203ZM2.66536 12.332V10.332H5.33203V12.332H2.66536ZM1.66536 9.66537C1.66536 9.48127 1.8146 9.33203 1.9987 9.33203H5.9987C6.18279 9.33203 6.33203 9.48127 6.33203 9.66537V12.9987C6.33203 13.1828 6.18279 13.332 5.9987 13.332H1.9987C1.8146 13.332 1.66536 13.1828 1.66536 12.9987V9.66537ZM14.332 8.9987H9.66536C9.48127 8.9987 9.33203 9.14794 9.33203 9.33203V13.332C9.33203 13.5161 9.48127 13.6654 9.66537 13.6654H14.332C14.5161 13.6654 14.6654 13.5161 14.6654 13.332V9.33203C14.6654 9.14794 14.5161 8.9987 14.332 8.9987ZM9.66536 7.9987C8.92898 7.9987 8.33203 8.59565 8.33203 9.33203V13.332C8.33203 14.0684 8.92899 14.6654 9.66537 14.6654H14.332C15.0684 14.6654 15.6654 14.0684 15.6654 13.332V9.33203C15.6654 8.59565 15.0684 7.9987 14.332 7.9987H9.66536ZM10.6654 10.332V12.332H13.332V10.332H10.6654ZM9.9987 9.33203C9.8146 9.33203 9.66536 9.48127 9.66536 9.66537V12.9987C9.66536 13.1828 9.8146 13.332 9.9987 13.332H13.9987C14.1828 13.332 14.332 13.1828 14.332 12.9987V9.66537C14.332 9.48127 14.1828 9.33203 13.9987 9.33203H9.9987Z" fill="#1D1F20"/>
</svg>
