<svg width="16" height="16" viewBox="0 0 16 16" fill="none" xmlns="http://www.w3.org/2000/svg">
<g clip-path="url(#clip0_3177_17218)">
<path d="M0 11.5283C0.0136054 11.501 0.0272134 11.4737 0.0408188 11.4464C0.0952406 11.3782 0.136058 11.3099 0.190479 11.2553C0.557826 10.8867 0.925171 10.5045 1.30612 10.1359C1.48299 9.95842 1.65986 9.79461 1.83673 9.61714C1.86395 9.58984 1.87755 9.56254 1.87755 9.52158C1.87755 9.38507 1.87755 9.26221 1.87755 9.1257C1.89116 8.85267 1.89116 8.56598 1.91837 8.29296C1.93197 8.06088 1.97279 7.84246 2 7.61039C2.01361 7.50118 2.0136 7.40562 2.04082 7.29641C2.06803 7.10529 2.10885 6.92783 2.14966 6.73671C2.17687 6.64115 2.19048 6.53193 2.21769 6.43637C2.2449 6.34081 2.25851 6.2316 2.28572 6.13604C2.32653 5.97223 2.38095 5.82206 2.43538 5.6719C2.5034 5.48078 2.55783 5.28966 2.63946 5.11219C2.7347 4.86646 2.84354 4.63439 2.96599 4.40232C3.11565 4.12929 3.27891 3.85627 3.44218 3.59689C3.70068 3.21465 4 2.87337 4.32653 2.57304C4.62585 2.30001 4.96598 2.05428 5.30612 1.83586C5.64626 1.63109 5.98639 1.45362 6.35374 1.28981C6.58503 1.19425 6.82993 1.11234 7.07483 1.03043C7.2653 0.962173 7.45578 0.907569 7.65986 0.852964C7.80952 0.81201 7.95918 0.784705 8.12245 0.757402C8.2585 0.7301 8.39456 0.689145 8.53061 0.675493C8.66667 0.648191 8.80272 0.634539 8.95238 0.607237C9.19728 0.579934 9.45578 0.552631 9.70068 0.53898C9.83673 0.525328 9.95918 0.511679 10.0952 0.511679C10.3401 0.498028 10.585 0.498026 10.8299 0.484375C10.9524 0.484375 11.0748 0.484377 11.1973 0.511679C11.3469 0.538982 11.4558 0.648193 11.5238 0.784707C11.551 0.839312 11.5646 0.907568 11.5646 0.975825C11.5646 1.35806 11.5782 1.72665 11.5646 2.10889C11.551 2.36826 11.5238 2.62764 11.4966 2.90067C11.483 3.03718 11.4694 3.1737 11.4422 3.31021C11.415 3.46038 11.3878 3.59689 11.3605 3.74705C11.3333 3.86991 11.3197 3.99278 11.2925 4.11564C11.2653 4.25215 11.2245 4.38867 11.1837 4.52518C11.1565 4.60709 11.1293 4.70265 11.102 4.78456C11.0476 4.93472 11.0068 5.08489 10.9524 5.2487C10.8844 5.43982 10.8027 5.6446 10.7211 5.83571C10.5714 6.177 10.4082 6.50463 10.2041 6.81861C10.0136 7.13259 9.78231 7.43293 9.55102 7.71961C9.48299 7.80151 9.40136 7.88342 9.30612 7.97898C9.34694 7.99263 9.36054 7.99263 9.38775 7.99263C9.53741 8.00629 9.68707 8.00628 9.82313 8.01993C10.0272 8.04723 10.2313 8.07454 10.4354 8.10184C10.5986 8.12915 10.7755 8.15645 10.9388 8.21105C11.1293 8.26566 11.3197 8.32026 11.5102 8.38852C11.6327 8.42947 11.7415 8.47043 11.8639 8.51138C12 8.56599 12.1361 8.6206 12.2585 8.6752C12.4626 8.77076 12.6531 8.86631 12.8571 8.97553C13.2245 9.16665 13.5782 9.38507 13.9048 9.6308C14.2177 9.86287 14.5306 10.0949 14.8299 10.3543C15.1973 10.6546 15.551 10.9823 15.8639 11.3509C15.9048 11.4055 15.932 11.4737 15.9728 11.5283C15.9728 11.542 15.9864 11.542 16 11.5556C16 11.6375 16 11.7058 16 11.7877C15.9864 11.8014 15.9728 11.8014 15.9728 11.815C15.9456 11.8696 15.9184 11.9379 15.8775 11.9788C15.5374 12.3747 15.1565 12.7297 14.7619 13.0573C14.4626 13.303 14.1497 13.5487 13.8231 13.7672C13.5374 13.9719 13.2381 14.1494 12.9388 14.3269C12.6939 14.4634 12.4354 14.5862 12.1633 14.7091C11.8776 14.832 11.5782 14.9412 11.2925 15.0504C11.0748 15.1186 10.8571 15.1733 10.6395 15.2142C10.4082 15.2552 10.1769 15.2961 9.94558 15.3371C9.79592 15.3507 9.64626 15.3644 9.4966 15.3644C9.2517 15.3644 8.9932 15.3507 8.7483 15.3371C8.66667 15.3371 8.58503 15.3234 8.5034 15.3098C8.27211 15.2688 8.02721 15.2142 7.79592 15.1596C7.60544 15.1187 7.40136 15.064 7.21088 14.9958C7.02041 14.9275 6.84354 14.8593 6.66666 14.7774C6.38095 14.6545 6.10885 14.518 5.83674 14.3815C5.59184 14.2586 5.36054 14.1084 5.12925 13.9583C4.87075 13.7808 4.61224 13.6033 4.35374 13.4122C4.12245 13.2348 3.91837 13.0573 3.70068 12.8662C3.4966 12.6887 3.29252 12.4839 3.10204 12.2928C3.0068 12.1973 2.92517 12.1563 2.78911 12.1563C2.04082 12.17 1.29252 12.1563 0.544218 12.1563C0.326531 12.1563 0.149663 12.088 0.0544251 11.8833C0.0408196 11.856 0.0272117 11.8287 0.0136063 11.8014C8.30207e-07 11.6785 0 11.6102 0 11.5283ZM5.63265 5.76746C5.65987 5.74016 5.68708 5.7265 5.70068 5.71285C5.80953 5.60364 5.93197 5.48078 6.04082 5.37157C6.62585 4.78456 7.19728 4.19755 7.78231 3.62419C8.04082 3.36481 8.29932 3.10544 8.55782 2.84607C8.69388 2.70955 8.87075 2.66859 9.04762 2.73685C9.37415 2.87337 9.45578 3.25561 9.21088 3.51498C8.66667 4.06104 8.12245 4.60709 7.57823 5.15315C7.55102 5.18045 7.52381 5.2214 7.4966 5.2487C7.4966 5.2487 7.4966 5.26236 7.5102 5.26236C7.57823 5.2487 7.64626 5.23505 7.71428 5.23505C7.86395 5.23505 8.0136 5.2214 8.16326 5.2214C8.21768 5.2214 8.27211 5.23505 8.32653 5.26236C8.54422 5.37157 8.68027 5.64459 8.54422 5.89032C8.44898 6.06779 8.28571 6.1497 8.09524 6.16335C7.83673 6.177 7.57823 6.19065 7.31973 6.2043C7.30612 6.2043 7.29251 6.2043 7.27891 6.2043C7.03401 6.21795 6.78911 6.24526 6.54422 6.25891C6.5034 6.25891 6.46259 6.28621 6.43537 6.31351C6.21769 6.53193 6 6.7367 5.78231 6.95512C5.67347 7.06434 5.56463 7.17355 5.45578 7.29641C5.5102 7.29641 5.55102 7.29641 5.57823 7.29641C5.7415 7.28276 5.91837 7.2691 6.08163 7.2691C6.14966 7.2691 6.21769 7.28276 6.28571 7.31007C6.5034 7.40562 6.61224 7.63769 6.54422 7.84246C6.46258 8.11549 6.29932 8.18375 6.06803 8.21105C5.90476 8.2247 5.7415 8.23836 5.59184 8.23836C5.44218 8.25201 5.30612 8.25201 5.15646 8.26566C4.93878 8.27931 4.72109 8.29296 4.5034 8.30661C4.47619 8.30661 4.44898 8.32027 4.42177 8.33392C4.13605 8.6206 3.85034 8.90727 3.56463 9.19395C3.55102 9.2076 3.53742 9.23491 3.51021 9.26221C3.60544 9.24856 3.70068 9.24856 3.78231 9.23491C4 9.2076 4.20408 9.19395 4.42177 9.16665C4.58503 9.13935 4.73469 9.11205 4.89796 9.08474C5.06122 9.05744 5.2381 9.01648 5.40136 8.97553C5.60544 8.92092 5.80952 8.86632 6.01361 8.79806C6.2585 8.71615 6.5034 8.63425 6.73469 8.53869C6.97959 8.42948 7.22449 8.30661 7.46939 8.1701C7.90476 7.93803 8.28571 7.63769 8.63945 7.29641C8.93877 6.99608 9.19728 6.6548 9.41496 6.29986C9.59184 6.01318 9.76871 5.71285 9.89116 5.39887C10 5.09854 10.1225 4.81186 10.2177 4.49788C10.2993 4.25215 10.3537 4.00643 10.4082 3.74705C10.4762 3.43307 10.5306 3.11909 10.5578 2.79146C10.5986 2.43652 10.6122 2.06793 10.6395 1.713C10.6395 1.63109 10.6395 1.56284 10.6531 1.48093C10.6531 1.42632 10.6395 1.39902 10.5714 1.39902C10.4898 1.41267 10.4082 1.41267 10.3265 1.41267C10.0136 1.41267 9.71428 1.42632 9.41496 1.48093C9.07483 1.53553 8.7483 1.57648 8.40816 1.64474C8.20408 1.6857 8.01361 1.72665 7.80953 1.78126C7.61905 1.83586 7.42857 1.89047 7.2517 1.95873C6.93878 2.08159 6.61225 2.20445 6.31293 2.35461C5.90476 2.55939 5.52381 2.80511 5.17007 3.09179C4.93877 3.28291 4.72109 3.50133 4.51701 3.7334C4.2449 4.04739 4.02721 4.40232 3.82313 4.77091C3.63265 5.12584 3.48299 5.49443 3.34694 5.86301C3.2517 6.12239 3.18368 6.39542 3.11565 6.66845C3.06123 6.88687 3.0068 7.11894 2.96599 7.33736C2.93878 7.51483 2.91157 7.6923 2.89796 7.86977C2.88436 8.00628 2.85715 8.1428 2.84354 8.26566C2.82993 8.36122 2.84354 8.45678 2.84354 8.55234L2.85714 8.56598C2.95238 8.47043 3.03401 8.37487 3.12925 8.27931C3.61905 7.78786 4.10884 7.29641 4.58503 6.80496C4.61225 6.77766 4.63946 6.73671 4.63946 6.69575C4.65306 6.51829 4.66667 6.34082 4.68027 6.1497C4.69388 5.95858 4.70748 5.78111 4.70748 5.58999C4.72109 5.30331 4.7347 5.01663 4.7483 4.72995C4.7483 4.6617 4.7619 4.59344 4.77551 4.52518C4.82993 4.30676 5.02041 4.1839 5.22449 4.19755C5.46939 4.19755 5.64626 4.36136 5.67347 4.57979C5.70068 4.72995 5.67347 4.88012 5.67347 5.03028C5.65986 5.28966 5.64626 5.52173 5.63265 5.76746ZM4.32653 12.129C4.34014 12.1426 4.35374 12.1563 4.35374 12.1563C4.58503 12.3474 4.81633 12.5385 5.04762 12.716C5.31973 12.9071 5.59184 13.0982 5.86394 13.2757C6.0136 13.3713 6.16326 13.4532 6.32653 13.5351C6.55782 13.658 6.78911 13.7672 7.02041 13.8764C7.18367 13.9446 7.36055 14.0129 7.53742 14.0675C7.70068 14.1221 7.86394 14.1631 8.02721 14.204C8.20408 14.245 8.36735 14.2996 8.54422 14.3269C8.7619 14.3542 8.9932 14.3815 9.21088 14.3815C9.42857 14.3815 9.65987 14.3678 9.87755 14.3542C9.89116 14.3542 9.89115 14.3542 9.90476 14.3542C10.068 14.3269 10.2449 14.2996 10.4082 14.2586C10.5986 14.2177 10.7755 14.1767 10.966 14.1221C11.1837 14.0538 11.4014 13.9719 11.619 13.8764C11.8639 13.7672 12.1088 13.658 12.3401 13.5351C12.517 13.4532 12.6667 13.344 12.8435 13.2484C13.1837 13.0573 13.4966 12.8252 13.8095 12.5795C14.0544 12.3884 14.2857 12.1836 14.5306 11.9788C14.6531 11.8696 14.7755 11.7468 14.9116 11.6102C14.585 11.3372 14.2857 11.0505 13.9592 10.7912C13.5782 10.4772 13.1701 10.1905 12.7347 9.93112C12.4218 9.74 12.0952 9.56254 11.7415 9.42603C11.4694 9.31682 11.1837 9.22125 10.898 9.13934C10.6939 9.07109 10.4898 9.03014 10.2857 8.98918C10.1088 8.96188 9.93197 8.93457 9.74149 8.93457C9.42857 8.93457 9.12925 8.94823 8.81633 8.94823C8.70748 8.94823 8.61224 8.97553 8.5034 8.97553C8.42177 8.98918 8.34014 8.98918 8.2585 9.01649C8.10884 9.05744 7.95918 9.09839 7.80953 9.13934C7.63265 9.19395 7.44218 9.23491 7.26531 9.30316C7.02041 9.39872 6.78912 9.49428 6.55782 9.61714C6.17687 9.80826 5.82313 10.013 5.48299 10.2588C5.10204 10.5181 4.7483 10.8048 4.39456 11.1051C4.38095 11.1188 4.36735 11.1324 4.34014 11.1597C4.38095 11.1597 4.39456 11.1734 4.42177 11.1734C5.21088 11.1734 6.0136 11.1734 6.80272 11.1734C6.84354 11.1734 6.89796 11.1461 6.92517 11.1188C7.40136 10.6819 7.89115 10.2451 8.36734 9.80826C8.5034 9.6854 8.65306 9.58984 8.85714 9.6308C9.04762 9.67175 9.19728 9.84922 9.21088 10.0267C9.22449 10.2178 9.14286 10.368 9.0068 10.4772C8.78911 10.6819 8.55782 10.8731 8.34014 11.0778C8.32653 11.0915 8.29932 11.1188 8.27211 11.1597C8.32653 11.1597 8.35374 11.1597 8.38095 11.1597C9.68707 11.1597 10.9932 11.1597 12.2993 11.1597C12.381 11.1597 12.4762 11.1597 12.5442 11.187C12.6803 11.228 12.7755 11.3372 12.8163 11.4737C12.8844 11.6376 12.8163 11.8833 12.6803 11.9925C12.5714 12.0744 12.449 12.1017 12.3129 12.1017C11.5646 12.1017 10.8163 12.1017 10.068 12.1017C10.0408 12.1017 10 12.1153 9.97278 12.1153C10.1088 12.2519 10.2449 12.3747 10.3673 12.4976C10.5578 12.6614 10.585 12.9071 10.4898 13.0846C10.3401 13.3576 10 13.4259 9.7551 13.2075C9.36054 12.8525 8.96599 12.5112 8.55782 12.1563C8.53061 12.129 8.47619 12.1153 8.43537 12.1153C8.0136 12.1153 7.59184 12.1153 7.17007 12.1153C7.14286 12.1153 7.11564 12.129 7.07483 12.129C7.15646 12.1973 7.22449 12.2519 7.27891 12.3201C7.34694 12.3747 7.41496 12.443 7.48299 12.4976C7.68707 12.6614 7.70068 12.9344 7.60544 13.0982C7.45578 13.3576 7.12925 13.4395 6.88435 13.2211C6.73469 13.0982 6.58503 12.9617 6.43537 12.8252C6.19048 12.6068 5.94558 12.3884 5.68708 12.17C5.64626 12.1426 5.59184 12.1153 5.55102 12.1153C5.17007 12.1153 4.77551 12.1153 4.39456 12.1153C4.39456 12.1153 4.36735 12.129 4.32653 12.129ZM3.9864 10.2041V10.1905C3.95918 10.1905 3.93197 10.1905 3.91837 10.1905C3.78231 10.2042 3.65987 10.2178 3.52381 10.2178C3.22449 10.2315 2.91157 10.2315 2.61225 10.2315C2.55782 10.2315 2.53061 10.2451 2.5034 10.2861C2.31293 10.4908 2.10884 10.6819 1.91837 10.8867C1.82313 10.9823 1.7415 11.0778 1.63265 11.1734C1.65986 11.1734 1.68708 11.187 1.71429 11.187C2.10884 11.187 2.5034 11.187 2.91157 11.187C2.95238 11.187 2.9932 11.1598 3.03402 11.1325C3.21089 10.9686 3.37415 10.7912 3.55102 10.6273C3.67347 10.4772 3.82313 10.3407 3.9864 10.2041Z" fill="#1D1F20"/>
<rect x="13.332" y="2.00391" width="2" height="0.666667" fill="#1D1F20"/>
<rect x="13.998" y="3.33594" width="2" height="0.666667" transform="rotate(-90 13.998 3.33594)" fill="#1D1F20"/>
<rect x="14" y="8.00391" width="2" height="0.666667" fill="#1D1F20"/>
<rect x="14.666" y="9.33594" width="2" height="0.666667" transform="rotate(-90 14.666 9.33594)" fill="#1D1F20"/>
<rect x="12" y="6.00391" width="0.666667" height="0.666667" transform="rotate(-90 12 6.00391)" fill="#1D1F20"/>
<rect x="3.33398" y="15.3359" width="0.666667" height="0.666667" transform="rotate(-90 3.33398 15.3359)" fill="#1D1F20"/>
<rect x="0.667969" y="13.3359" width="2" height="0.666667" fill="#1D1F20"/>
<rect x="1.33398" y="14.668" width="2" height="0.666667" transform="rotate(-90 1.33398 14.668)" fill="#1D1F20"/>
</g>
<defs>
<clipPath id="clip0_3177_17218">
<rect width="16" height="16" fill="white"/>
</clipPath>
</defs>
</svg>
