<svg width="24" height="24" viewBox="0 0 24 24" fill="none" xmlns="http://www.w3.org/2000/svg">
<path fill-rule="evenodd" clip-rule="evenodd" d="M3.83643 2.72839C3.9769 1.18316 5.2725 0 6.82411 0H17.1713C18.7229 0 20.0185 1.18316 20.1589 2.72839L21.7953 20.7284C21.955 22.4852 20.5717 24 18.8076 24H5.18774C3.42365 24 2.04035 22.4852 2.20006 20.7284L3.83643 2.72839ZM6.82411 2C6.3069 2 5.87504 2.39439 5.82821 2.90946L4.45635 18H19.539L18.1672 2.90947C18.1203 2.39439 17.6885 2 17.1713 2H6.82411ZM19.7208 20H4.27453L4.19185 20.9095C4.13861 21.4951 4.59971 22 5.18774 22H18.8076C19.3957 22 19.8568 21.4951 19.8035 20.9095L19.7208 20ZM8.99768 4C9.54996 4 9.99768 4.44772 9.99768 5V6C9.99768 7.10457 10.8931 8 11.9977 8C13.1023 8 13.9977 7.10457 13.9977 6V5C13.9977 4.44772 14.4454 4 14.9977 4C15.55 4 15.9977 4.44772 15.9977 5V6C15.9977 8.20914 14.2068 10 11.9977 10C9.78854 10 7.99768 8.20914 7.99768 6V5C7.99768 4.44772 8.44539 4 8.99768 4Z" fill="#1D1F20"/>
</svg>
