<svg width="24" height="24" viewBox="0 0 24 24" fill="none" xmlns="http://www.w3.org/2000/svg">
<path d="M23.9796 8.34693C23.9592 8.32658 23.9388 8.2859 23.9388 8.26556C23.8777 7.89939 23.8573 7.51288 23.7757 7.14671C23.7145 6.84157 23.6126 6.53643 23.5106 6.25163C23.3475 5.68204 23.0824 5.17347 22.7358 4.68524C22.328 4.07496 21.8182 3.5664 21.1861 3.17989C20.8394 2.95612 20.4724 2.77303 20.085 2.65098C19.7383 2.52892 19.3917 2.44755 19.0246 2.4272C18.6984 2.40686 18.3721 2.38652 18.0459 2.40686C17.7808 2.42721 17.5361 2.46789 17.2914 2.52892C17.0059 2.58995 16.7205 2.67132 16.435 2.77303C16.1088 2.89509 15.7825 3.05783 15.4562 3.24091C14.9669 3.50537 14.5183 3.85119 14.1105 4.21736C13.6822 4.60387 13.2744 5.03107 12.9278 5.49895C12.5608 5.96683 12.2549 6.4754 11.9898 7.00431C11.8267 7.35013 11.6636 7.69596 11.5208 8.04179C11.4189 8.2859 11.3577 8.55035 11.2761 8.81481C11.215 8.97755 11.1742 9.14029 11.1334 9.32337C11.113 9.36406 11.113 9.40475 11.0518 9.36406C10.6644 9.16063 10.2974 8.95721 9.90994 8.77412C9.52252 8.59104 9.1147 8.44864 8.70688 8.32658C8.4418 8.24521 8.15633 8.18418 7.89125 8.12316C7.1164 7.94007 6.34155 7.89939 5.5667 7.94007C5.24044 7.96042 4.91419 8.0011 4.58793 8.06213C4.30246 8.10282 4.017 8.16384 3.75192 8.26556C3.44605 8.36727 3.1198 8.50967 2.83433 8.65207C2.52847 8.81481 2.2226 8.99789 1.95752 9.20132C1.69244 9.42509 1.44775 9.6692 1.20306 9.93365C0.897202 10.2591 0.672903 10.6457 0.489386 11.0322C0.32626 11.3576 0.203911 11.7035 0.142738 12.0696C0.101957 12.2731 0.0815659 12.4562 0.0407848 12.6596C0.0407848 12.6799 0.0203915 12.7206 0 12.7409C0 13.0868 0 13.4123 0 13.7581C0.0203915 13.7784 0.0407848 13.7988 0.0407848 13.8191C0.0611763 13.9615 0.0611725 14.0836 0.101954 14.226C0.163126 14.5311 0.203909 14.8362 0.305862 15.121C0.428207 15.5075 0.591331 15.8737 0.774849 16.2399C0.978758 16.6467 1.22345 17.0536 1.48853 17.4198C1.75361 17.8063 2.07987 18.1521 2.40612 18.4979C2.81394 18.9455 3.28292 19.332 3.79269 19.6778C4.34325 20.0643 4.91419 20.3898 5.52591 20.6746C5.97451 20.878 6.46389 21.0611 6.93288 21.2035C7.25913 21.3052 7.58539 21.3866 7.91164 21.4476C8.27868 21.5086 8.62532 21.5697 8.99235 21.59C9.40017 21.6104 9.80799 21.59 10.2158 21.5697C10.6236 21.5493 11.0314 21.4883 11.4189 21.3662C11.7043 21.2849 12.0102 21.1832 12.2957 21.0814C12.8258 20.878 13.3152 20.5932 13.7434 20.2271C14.3551 19.7388 14.8241 19.1489 15.13 18.4166C15.1708 18.3352 15.1708 18.2335 15.3135 18.2742C15.5786 18.3352 15.8641 18.3759 16.1291 18.3962C16.3738 18.4166 16.6185 18.3759 16.8632 18.3759C17.2099 18.3555 17.5361 18.2742 17.8828 18.1928C18.2498 18.0911 18.576 17.969 18.9227 17.8063C19.5344 17.5011 20.1257 17.1146 20.6355 16.6671C21.1249 16.2399 21.5735 15.7517 21.9609 15.2227C22.2464 14.8159 22.5319 14.409 22.7562 13.9615C22.9397 13.5953 23.1028 13.2088 23.2659 12.8427C23.3883 12.5579 23.4902 12.2731 23.5718 11.9679C23.6737 11.6221 23.7553 11.2559 23.8165 10.9101C23.8777 10.5439 23.9184 10.1981 23.9592 9.83194C23.9592 9.79125 23.9796 9.77091 24 9.73023C23.9796 9.22166 23.9796 8.79447 23.9796 8.34693ZM2.61003 10.4422C2.63042 10.4219 2.63041 10.4015 2.65081 10.4015C3.18097 9.954 3.77231 9.64886 4.4452 9.46577C4.77146 9.3844 5.1181 9.32338 5.44435 9.28269C6.13764 9.22166 6.81054 9.24201 7.48343 9.40475C7.7893 9.48612 8.11555 9.54714 8.42141 9.64886C8.76806 9.77091 9.1147 9.89297 9.46135 10.0354C10.0527 10.2998 10.6032 10.6253 11.1334 11.0118C11.6024 11.3576 12.0306 11.7442 12.418 12.1713C12.8666 12.6596 13.254 13.1885 13.5395 13.7784C13.7026 14.0836 13.8046 14.4294 13.9269 14.7549C14.0493 15.0804 14.1105 15.4058 14.1308 15.7517C14.1512 16.0771 14.1308 16.423 14.0901 16.7485C14.0697 16.9926 14.0085 17.2163 13.9473 17.4401C13.9065 17.6232 13.8862 17.6435 13.7434 17.6232C13.5395 17.6028 13.3356 17.5622 13.1317 17.5215C13.0297 17.5011 12.9482 17.5011 12.8462 17.4808C12.6219 17.4401 12.3772 17.3994 12.1529 17.3587C11.9898 17.318 11.8063 17.2977 11.6432 17.257C11.3577 17.1553 11.0722 17.0536 10.8071 16.9315C10.4605 16.7688 10.1342 16.5654 9.84877 16.3213C9.19627 15.7923 8.70688 15.121 8.38063 14.348C8.09516 13.6971 7.72812 13.1275 7.25913 12.6189C6.79015 12.1103 6.23959 11.6831 5.62787 11.3373C5.38318 11.1949 5.1181 11.0728 4.85302 10.9711C4.6695 10.8898 4.4656 10.8287 4.26169 10.788C4.09856 10.7474 3.91504 10.7067 3.75192 10.666C3.52762 10.6253 3.30331 10.5846 3.07902 10.5439C2.95667 10.5236 2.81394 10.5033 2.69159 10.4829C2.6712 10.4829 2.65081 10.4626 2.61003 10.4422ZM12.9482 18.9251C12.9278 18.9658 12.9074 18.9861 12.887 19.0065C12.5607 19.3116 12.1733 19.5354 11.7655 19.6981C11.4596 19.8405 11.1334 19.9423 10.7867 19.9829C10.4401 20.0236 10.0935 20.105 9.74682 20.105C9.44095 20.1253 9.1147 20.0847 8.80884 20.0643C8.33985 20.044 7.87086 19.9423 7.42226 19.7999C6.99406 19.6778 6.58624 19.5151 6.15803 19.3523C5.5667 19.1082 5.01614 18.7624 4.48598 18.3962C3.83348 17.908 3.24214 17.3587 2.75276 16.7078C2.48768 16.3619 2.26338 16.0161 2.05947 15.6296C1.85557 15.2431 1.69244 14.8362 1.5701 14.409C1.46814 14.0632 1.40697 13.6971 1.40697 13.3309C1.38658 13.0054 1.40696 12.7003 1.48853 12.3951C1.52931 12.212 1.59049 12.0086 1.65166 11.8255C1.65166 11.7848 1.71283 11.7645 1.75361 11.7645C1.83518 11.7645 1.91674 11.7848 1.9983 11.8052C2.46729 11.8866 2.95667 11.9476 3.42566 12.0493C3.69074 12.1103 3.97621 12.1714 4.2209 12.2527C4.56755 12.3748 4.91419 12.5375 5.22005 12.7409C5.70943 13.0461 6.11725 13.4326 6.48429 13.8801C6.74937 14.226 6.97366 14.6328 7.15718 15.0397C7.42226 15.6703 7.78929 16.2399 8.25828 16.7485C8.64571 17.1756 9.09431 17.5418 9.58369 17.8673C10.0323 18.1521 10.5013 18.3759 11.011 18.5386C11.3985 18.6607 11.8063 18.742 12.1937 18.8234C12.4384 18.8437 12.6831 18.8844 12.9482 18.9251ZM15.5378 16.8502C15.5378 16.4433 15.5378 16.0568 15.5378 15.6703C15.5378 15.4262 15.5378 15.1617 15.5378 14.9176C15.5378 14.5718 15.5786 14.2056 15.6805 13.8801C15.7621 13.5953 15.8641 13.3105 15.9864 13.0257C16.1291 12.6799 16.3331 12.3748 16.5574 12.09C16.8632 11.7035 17.2099 11.378 17.6177 11.0728C17.842 10.9101 18.0867 10.7474 18.311 10.5643C18.8207 10.1574 19.2693 9.6692 19.6364 9.11995C19.8811 8.75378 20.085 8.38761 20.2277 7.98076C20.3297 7.73665 20.4112 7.47219 20.4724 7.20774C20.554 6.92294 20.6151 6.65848 20.6559 6.37368C20.6967 6.08889 20.6967 5.78375 20.6967 5.47861C20.6967 5.19381 20.6967 4.92935 20.6967 4.64456C20.6967 4.60387 20.6967 4.56319 20.6967 4.5225C20.7171 4.5225 20.7375 4.5225 20.7375 4.5225C20.7783 4.54285 20.7986 4.56319 20.8394 4.58353C21.288 4.97004 21.6551 5.43792 21.9201 5.98717C22.0629 6.29231 22.1852 6.59746 22.2872 6.9026C22.3687 7.12636 22.4095 7.37047 22.4503 7.59424C22.4911 7.87904 22.5523 8.16384 22.5726 8.44864C22.593 8.99789 22.593 9.54715 22.4911 10.0964C22.4299 10.3812 22.4095 10.6863 22.328 10.9711C22.2668 11.2559 22.1648 11.5407 22.0629 11.8255C21.9201 12.1917 21.7978 12.5579 21.6143 12.9037C21.4104 13.2902 21.1861 13.6564 20.9414 14.0225C20.5947 14.5514 20.1665 15.0193 19.6771 15.4465C19.3509 15.7313 19.0043 15.9958 18.6372 16.1789C18.3314 16.3416 18.0255 16.484 17.6992 16.6061C17.5157 16.6671 17.3322 16.7078 17.1487 16.7485C17.0059 16.7891 16.8428 16.7891 16.7001 16.8095C16.3127 16.9722 15.9252 16.9112 15.5378 16.8502ZM14.5591 12.7206C14.3348 12.3951 14.1105 12.0696 13.8862 11.7645C13.4579 11.2152 12.9686 10.727 12.4384 10.2795C12.3976 10.2591 12.3772 10.1981 12.3772 10.1574C12.3976 9.99468 12.4384 9.83194 12.4996 9.64886C12.5811 9.3844 12.6423 9.09961 12.7443 8.85549C12.887 8.48933 13.0093 8.12316 13.1929 7.77733C13.4172 7.35014 13.6619 6.92294 13.9473 6.51609C14.3755 5.9058 14.8853 5.3769 15.4766 4.92936C15.8029 4.68525 16.1699 4.46147 16.537 4.27839C16.9244 4.09531 17.3118 3.95291 17.7196 3.89188C18.0867 3.83085 18.4333 3.79017 18.8003 3.83085C18.9227 3.83085 19.0654 3.87154 19.1878 3.89188C19.2285 3.89188 19.2489 3.95291 19.2693 3.99359C19.2897 4.19702 19.2897 4.40045 19.2897 4.62422C19.2897 5.11244 19.2897 5.62101 19.2489 6.10923C19.2285 6.39403 19.1674 6.65848 19.1062 6.92294C19.045 7.18739 18.9635 7.45185 18.8411 7.69596C18.6984 7.98076 18.5353 8.26555 18.3721 8.53001C18.0867 8.97755 17.6992 9.34372 17.271 9.6692C16.9856 9.89297 16.6797 10.0964 16.3942 10.3202C16.0068 10.6253 15.6805 10.9915 15.3951 11.378C15.0892 11.7848 14.8241 12.2527 14.6202 12.7206C14.5998 12.6799 14.5794 12.7003 14.5591 12.7206Z" fill="#1D1F20"/>
<path d="M9 5H1V1L3.66667 3L5 1L6.33333 3L9 1V5Z" stroke="black"/>
</svg>
