<svg width="24" height="24" viewBox="0 0 24 24" fill="none" xmlns="http://www.w3.org/2000/svg">
<path d="M10.9385 4.2602C10.1595 5.01883 8.00051 7.29987 8.00021 9.27778C7.99982 11.8929 8.00007 19.3016 8.00017 22.0006C8.00019 22.5529 8.4479 23 9.00017 23H16.0002C16.5525 23 17.0002 22.5563 17.0002 22.0041V9.27778C17.0002 7.29984 14.841 5.01876 14.062 4.26017C13.8862 4.08899 13.6504 4 13.405 4H11.5955C11.3501 4 11.1142 4.08901 10.9385 4.2602Z" stroke="#1D1F20" stroke-width="1.5"/>
<path d="M13.25 2.25H11.75V1.75H13.25V2.25Z" stroke="#1D1F20" stroke-width="1.5"/>
<path d="M14.5659 14.0689L14.5721 14.5908C14.5721 14.5911 14.5721 14.5913 14.5721 14.5915C14.5793 15.3857 14.0824 16.0918 13.3431 16.3487L13.3418 16.3492L12.848 16.5222L12.8418 16.0003C12.8418 16.0001 12.8418 15.9999 12.8418 15.9997C12.8346 15.2055 13.3315 14.4994 14.0708 14.2424L14.0721 14.242L14.5659 14.0689Z" fill="white" stroke="#1D1F20"/>
<path d="M10.4341 14.8736L10.4279 15.3955C10.4279 15.3957 10.4279 15.3959 10.4279 15.3961C10.4207 16.1903 10.9176 16.8965 11.6569 17.1534L11.6582 17.1539L12.152 17.3269L12.1582 16.805C12.1582 16.8048 12.1582 16.8046 12.1582 16.8044C12.1654 16.0102 11.6685 15.304 10.9292 15.0471L10.9279 15.0467L10.4341 14.8736Z" fill="white" stroke="#1D1F20"/>
<path d="M12.4219 16.9336L12.4219 18.5499" stroke="#1D1F20" stroke-linecap="round"/>
</svg>
