<svg width="24" height="24" viewBox="0 0 24 24" fill="none" xmlns="http://www.w3.org/2000/svg">
<path d="M12 2.5C6.75315 2.5 2.5 6.75315 2.5 12C2.5 17.2468 6.75315 21.5 12 21.5C17.2468 21.5 21.5 17.2468 21.5 12C21.5 6.75315 17.2468 2.5 12 2.5Z" stroke="#D33836" stroke-width="1.5" stroke-linecap="round" stroke-linejoin="round"/>
<path d="M4.65771 18.0287C4.65771 18.0287 6.77526 15.325 12.0003 15.325C17.2253 15.325 19.3438 18.0287 19.3438 18.0287M12.0003 12C12.7561 12 13.481 11.6998 14.0155 11.1653C14.55 10.6308 14.8503 9.90592 14.8503 9.15005C14.8503 8.39418 14.55 7.66927 14.0155 7.13479C13.481 6.60032 12.7561 6.30005 12.0003 6.30005C11.2444 6.30005 10.5195 6.60032 9.98501 7.13479C9.45053 7.66927 9.15026 8.39418 9.15026 9.15005C9.15026 9.90592 9.45053 10.6308 9.98501 11.1653C10.5195 11.6998 11.2444 12 12.0003 12Z" stroke="#D33836" stroke-width="1.5" stroke-linecap="round" stroke-linejoin="round"/>
</svg>
