<svg width="24" height="24" viewBox="0 0 24 24" fill="none" xmlns="http://www.w3.org/2000/svg">
<path d="M0.0203921 8.34693C0.0407829 8.32658 0.06117 8.2859 0.06117 8.26556C0.122342 7.89939 0.142737 7.51288 0.2243 7.14671C0.285473 6.84157 0.387424 6.53643 0.489378 6.25163C0.652505 5.68204 0.917589 5.17347 1.26423 4.68524C1.67205 4.07496 2.18182 3.5664 2.81393 3.17989C3.16057 2.95612 3.52761 2.77303 3.91504 2.65098C4.26168 2.52892 4.60832 2.44755 4.97536 2.4272C5.30161 2.40686 5.62787 2.38652 5.95412 2.40686C6.2192 2.42721 6.46389 2.46789 6.70858 2.52892C6.99405 2.58995 7.27952 2.67132 7.565 2.77303C7.89125 2.89509 8.2175 3.05783 8.54375 3.24091C9.03313 3.50537 9.48173 3.85119 9.88955 4.21736C10.3178 4.60387 10.7256 5.03107 11.0722 5.49895C11.4392 5.96683 11.7451 6.4754 12.0102 7.00431C12.1733 7.35013 12.3364 7.69596 12.4792 8.04179C12.5811 8.2859 12.6423 8.55035 12.7239 8.81481C12.785 8.97755 12.8258 9.14029 12.8666 9.32337C12.887 9.36406 12.887 9.40475 12.9482 9.36406C13.3356 9.16063 13.7026 8.95721 14.0901 8.77412C14.4775 8.59104 14.8853 8.44864 15.2931 8.32658C15.5582 8.24521 15.8437 8.18418 16.1087 8.12316C16.8836 7.94007 17.6585 7.89939 18.4333 7.94007C18.7596 7.96042 19.0858 8.0011 19.4121 8.06213C19.6975 8.10282 19.983 8.16384 20.2481 8.26556C20.5539 8.36727 20.8802 8.50967 21.1657 8.65207C21.4715 8.81481 21.7774 8.99789 22.0425 9.20132C22.3076 9.42509 22.5522 9.6692 22.7969 9.93365C23.1028 10.2591 23.3271 10.6457 23.5106 11.0322C23.6737 11.3576 23.7961 11.7035 23.8573 12.0696C23.898 12.2731 23.9184 12.4562 23.9592 12.6596C23.9592 12.6799 23.9796 12.7206 24 12.7409C24 13.0868 24 13.4123 24 13.7581C23.9796 13.7784 23.9592 13.7988 23.9592 13.8191C23.9388 13.9615 23.9388 14.0836 23.898 14.226C23.8369 14.5311 23.7961 14.8362 23.6941 15.121C23.5718 15.5075 23.4087 15.8737 23.2252 16.2399C23.0212 16.6467 22.7766 17.0536 22.5115 17.4198C22.2464 17.8063 21.9201 18.1521 21.5939 18.4979C21.1861 18.9455 20.7171 19.332 20.2073 19.6778C19.6568 20.0643 19.0858 20.3898 18.4741 20.6746C18.0255 20.878 17.5361 21.0611 17.0671 21.2035C16.7409 21.3052 16.4146 21.3866 16.0884 21.4476C15.7213 21.5086 15.3747 21.5697 15.0076 21.59C14.5998 21.6104 14.192 21.59 13.7842 21.5697C13.3764 21.5493 12.9686 21.4883 12.5811 21.3662C12.2957 21.2849 11.9898 21.1832 11.7043 21.0814C11.1742 20.878 10.6848 20.5932 10.2566 20.2271C9.64486 19.7388 9.17587 19.1489 8.87001 18.4166C8.82923 18.3352 8.82923 18.2335 8.68649 18.2742C8.42141 18.3352 8.13594 18.3759 7.87086 18.3962C7.62617 18.4166 7.38148 18.3759 7.13679 18.3759C6.79014 18.3555 6.46389 18.2742 6.11725 18.1928C5.75021 18.0911 5.42396 17.969 5.07731 17.8063C4.46559 17.5011 3.87426 17.1146 3.36449 16.6671C2.87511 16.2399 2.42651 15.7517 2.03908 15.2227C1.75361 14.8159 1.46814 14.409 1.24384 13.9615C1.06032 13.5953 0.897197 13.2088 0.734071 12.8427C0.611726 12.5579 0.509772 12.2731 0.428209 11.9679C0.326254 11.6221 0.244689 11.2559 0.183516 10.9101C0.122344 10.5439 0.0815658 10.1981 0.0407841 9.83194C0.0407841 9.79125 0.0203908 9.77091 0 9.73023C0.0203908 9.22166 0.0203921 8.79447 0.0203921 8.34693ZM21.39 10.4422C21.3696 10.4219 21.3696 10.4015 21.3492 10.4015C20.819 9.954 20.2277 9.64886 19.5548 9.46577C19.2285 9.3844 18.8819 9.32338 18.5556 9.28269C17.8624 9.22166 17.1895 9.24201 16.5166 9.40475C16.2107 9.48612 15.8844 9.54714 15.5786 9.64886C15.2319 9.77091 14.8853 9.89297 14.5387 10.0354C13.9473 10.2998 13.3968 10.6253 12.8666 11.0118C12.3976 11.3576 11.9694 11.7442 11.582 12.1713C11.1334 12.6596 10.746 13.1885 10.4605 13.7784C10.2974 14.0836 10.1954 14.4294 10.0731 14.7549C9.95072 15.0804 9.88955 15.4058 9.86916 15.7517C9.84877 16.0771 9.86916 16.423 9.90994 16.7485C9.93033 16.9926 9.9915 17.2163 10.0527 17.4401C10.0935 17.6232 10.1138 17.6435 10.2566 17.6232C10.4605 17.6028 10.6644 17.5622 10.8683 17.5215C10.9703 17.5011 11.0518 17.5011 11.1538 17.4808C11.3781 17.4401 11.6228 17.3994 11.8471 17.3587C12.0102 17.318 12.1937 17.2977 12.3568 17.257C12.6423 17.1553 12.9278 17.0536 13.1929 16.9315C13.5395 16.7688 13.8658 16.5654 14.1512 16.3213C14.8037 15.7923 15.2931 15.121 15.6194 14.348C15.9048 13.6971 16.2719 13.1275 16.7409 12.6189C17.2099 12.1103 17.7604 11.6831 18.3721 11.3373C18.6168 11.1949 18.8819 11.0728 19.147 10.9711C19.3305 10.8898 19.5344 10.8287 19.7383 10.788C19.9014 10.7474 20.085 10.7067 20.2481 10.666C20.4724 10.6253 20.6967 10.5846 20.921 10.5439C21.0433 10.5236 21.1861 10.5033 21.3084 10.4829C21.3288 10.4829 21.3492 10.4626 21.39 10.4422ZM11.0518 18.9251C11.0722 18.9658 11.0926 18.9861 11.113 19.0065C11.4393 19.3116 11.8267 19.5354 12.2345 19.6981C12.5404 19.8405 12.8666 19.9423 13.2133 19.9829C13.5599 20.0236 13.9065 20.105 14.2532 20.105C14.559 20.1253 14.8853 20.0847 15.1912 20.0643C15.6602 20.044 16.1291 19.9423 16.5777 19.7999C17.0059 19.6778 17.4138 19.5151 17.842 19.3523C18.4333 19.1082 18.9839 18.7624 19.514 18.3962C20.1665 17.908 20.7579 17.3587 21.2472 16.7078C21.5123 16.3619 21.7366 16.0161 21.9405 15.6296C22.1444 15.2431 22.3076 14.8362 22.4299 14.409C22.5319 14.0632 22.593 13.6971 22.593 13.3309C22.6134 13.0054 22.593 12.7003 22.5115 12.3951C22.4707 12.212 22.4095 12.0086 22.3483 11.8255C22.3483 11.7848 22.2872 11.7645 22.2464 11.7645C22.1648 11.7645 22.0833 11.7848 22.0017 11.8052C21.5327 11.8866 21.0433 11.9476 20.5743 12.0493C20.3093 12.1103 20.0238 12.1714 19.7791 12.2527C19.4325 12.3748 19.0858 12.5375 18.7799 12.7409C18.2906 13.0461 17.8827 13.4326 17.5157 13.8801C17.2506 14.226 17.0263 14.6328 16.8428 15.0397C16.5777 15.6703 16.2107 16.2399 15.7417 16.7485C15.3543 17.1756 14.9057 17.5418 14.4163 17.8673C13.9677 18.1521 13.4987 18.3759 12.989 18.5386C12.6015 18.6607 12.1937 18.742 11.8063 18.8234C11.5616 18.8437 11.3169 18.8844 11.0518 18.9251ZM8.46219 16.8502C8.46219 16.4433 8.46219 16.0568 8.46219 15.6703C8.46219 15.4262 8.46219 15.1617 8.46219 14.9176C8.46219 14.5718 8.42141 14.2056 8.31945 13.8801C8.23789 13.5953 8.13594 13.3105 8.01359 13.0257C7.87085 12.6799 7.66695 12.3748 7.44265 12.09C7.13679 11.7035 6.79014 11.378 6.38232 11.0728C6.15803 10.9101 5.91334 10.7474 5.68904 10.5643C5.17927 10.1574 4.73067 9.6692 4.36363 9.11995C4.11894 8.75378 3.91504 8.38761 3.7723 7.98076C3.67035 7.73665 3.58878 7.47219 3.52761 7.20774C3.44605 6.92294 3.38488 6.65848 3.34409 6.37368C3.30331 6.08889 3.30332 5.78375 3.30332 5.47861C3.30332 5.19381 3.30332 4.92935 3.30332 4.64456C3.30332 4.60387 3.30332 4.56319 3.30332 4.5225C3.28292 4.5225 3.26253 4.5225 3.26253 4.5225C3.22175 4.54285 3.20136 4.56319 3.16058 4.58353C2.71198 4.97004 2.34495 5.43792 2.07987 5.98717C1.93713 6.29231 1.81478 6.59746 1.71283 6.9026C1.63126 7.12636 1.59049 7.37047 1.5497 7.59424C1.50892 7.87904 1.44775 8.16384 1.42736 8.44864C1.40697 8.99789 1.40697 9.54715 1.50892 10.0964C1.57009 10.3812 1.59049 10.6863 1.67205 10.9711C1.73322 11.2559 1.83517 11.5407 1.93713 11.8255C2.07986 12.1917 2.20221 12.5579 2.38573 12.9037C2.58964 13.2902 2.81393 13.6564 3.05862 14.0225C3.40527 14.5514 3.83348 15.0193 4.32286 15.4465C4.64911 15.7313 4.99575 15.9958 5.36278 16.1789C5.66865 16.3416 5.97451 16.484 6.30076 16.6061C6.48428 16.6671 6.6678 16.7078 6.85132 16.7485C6.99405 16.7891 7.15718 16.7891 7.29991 16.8095C7.68734 16.9722 8.07477 16.9112 8.46219 16.8502ZM9.44095 12.7206C9.66525 12.3951 9.88955 12.0696 10.1138 11.7645C10.5421 11.2152 11.0314 10.727 11.5616 10.2795C11.6024 10.2591 11.6228 10.1981 11.6228 10.1574C11.6024 9.99468 11.5616 9.83194 11.5004 9.64886C11.4189 9.3844 11.3577 9.09961 11.2557 8.85549C11.113 8.48933 10.9907 8.12316 10.8071 7.77733C10.5828 7.35014 10.3381 6.92294 10.0527 6.51609C9.62446 5.9058 9.11469 5.3769 8.52336 4.92936C8.19711 4.68525 7.83008 4.46147 7.46304 4.27839C7.07562 4.09531 6.68819 3.95291 6.28037 3.89188C5.91334 3.83085 5.56669 3.79017 5.19966 3.83085C5.07731 3.83085 4.93458 3.87154 4.81224 3.89188C4.77145 3.89188 4.75106 3.95291 4.73067 3.99359C4.71028 4.19702 4.71028 4.40045 4.71028 4.62422C4.71028 5.11244 4.71028 5.62101 4.75106 6.10923C4.77145 6.39403 4.83262 6.65848 4.8938 6.92294C4.95497 7.18739 5.03653 7.45185 5.15888 7.69596C5.30161 7.98076 5.46474 8.26555 5.62787 8.53001C5.91334 8.97755 6.30076 9.34372 6.72897 9.6692C7.01444 9.89297 7.3203 10.0964 7.60577 10.3202C7.9932 10.6253 8.31946 10.9915 8.60493 11.378C8.91079 11.7848 9.17587 12.2527 9.37978 12.7206C9.40017 12.6799 9.42056 12.7003 9.44095 12.7206Z" fill="#1D1F20"/>
</svg>
