<svg width="24" height="24" viewBox="0 0 24 24" fill="none" xmlns="http://www.w3.org/2000/svg">
<path fill-rule="evenodd" clip-rule="evenodd" d="M19.1139 19.4503C21.9052 16.4378 22.1839 12.1572 19.7363 9.88917C17.2887 7.62118 13.0416 8.22469 10.2502 11.2372C7.45888 14.2496 7.18022 18.5303 9.62784 20.7982C12.0755 23.0662 16.3225 22.4627 19.1139 19.4503ZM18.0135 18.4382C20.2452 16.0354 20.564 12.7033 18.7256 10.9959C16.8872 9.2884 13.5877 9.85214 11.356 12.255C9.12432 14.6579 8.80549 17.9899 10.6439 19.6974C12.4823 21.4048 15.7818 20.8411 18.0135 18.4382Z" fill="black"/>
<path fill-rule="evenodd" clip-rule="evenodd" d="M17.8144 8.78162C19.3739 6.83948 19.4557 4.25808 17.9414 2.85496C16.3412 1.37218 13.5645 1.76675 11.7396 3.73625C10.5468 5.02347 10.0558 6.66485 10.3055 8.06156C10.9104 8.53867 11.4654 9.12634 11.9374 9.814C12.2633 9.60131 12.598 9.41418 12.9379 9.25309C12.7209 9.16883 12.5219 9.04703 12.3484 8.88623C11.3545 7.96531 11.5725 6.11399 12.8353 4.75119C14.0981 3.3884 15.9274 3.03019 16.9213 3.95112C17.9152 4.87204 17.6972 6.72336 16.4344 8.08615C16.2877 8.24445 16.1334 8.38919 15.9736 8.51995C16.6101 8.51129 17.2309 8.59749 17.8144 8.78162Z" fill="black"/>
<path fill-rule="evenodd" clip-rule="evenodd" d="M3.84229 7.35748C6.30483 5.74214 9.89404 6.84432 11.9345 9.81317C11.5582 10.0589 11.1936 10.3388 10.8458 10.6519C10.8453 10.6512 10.8449 10.6505 10.8444 10.6498C9.34464 8.26917 6.63099 7.36251 4.78334 8.62473C2.9357 9.88696 2.65371 12.8401 4.15351 15.2207C5.12921 16.7695 6.61863 17.6944 8.04914 17.8041C8.13587 18.3141 8.28678 18.8032 8.50267 19.2592C6.48632 19.2195 4.34564 18.0091 2.96895 15.9103C0.947692 12.829 1.3387 8.99975 3.84229 7.35748Z" fill="black"/>
<path d="M17.5998 3.99953C17.5998 3.99953 14.8638 4.08722 14.3945 6.53435C13.9251 8.98148 10.9155 9.07794 10.9155 9.07794" stroke="#1D1F20" stroke-width="1.5"/>
<path d="M17.5998 3.99953C17.5998 3.99953 14.8638 4.08722 14.3945 6.53435C13.9251 8.98148 10.9155 9.07794 10.9155 9.07794" stroke="#1D1F20" stroke-width="1.5"/>
<path fill-rule="evenodd" clip-rule="evenodd" d="M4.96586 7.53525C4.23247 7.37826 4.2324 7.37859 4.23232 7.37894L4.23216 7.3797L4.23178 7.38149L4.23083 7.38609L4.22814 7.39933C4.22603 7.40992 4.2233 7.42404 4.2201 7.44149C4.2137 7.47638 4.20539 7.52471 4.19638 7.585C4.17837 7.70539 4.1574 7.87448 4.14326 8.08025C4.11514 8.48936 4.1131 9.05644 4.22195 9.68021C4.44156 10.9387 5.12821 12.4729 6.97022 13.3231C7.59741 13.6126 8.02712 14.0337 8.31806 14.5154C8.48671 13.9859 8.71475 13.4607 9.00143 12.9513C8.63466 12.5678 8.17452 12.2269 7.5988 11.9612C6.33575 11.3782 5.86307 10.359 5.69962 9.42235C5.61694 8.94853 5.61743 8.50759 5.63973 8.18309C5.6508 8.02205 5.66701 7.89293 5.67988 7.80681C5.68631 7.76384 5.69186 7.73184 5.69547 7.71222L5.69925 7.69233L5.69937 7.69164C5.69931 7.69193 5.69924 7.69224 4.96586 7.53525Z" fill="#1D1F20"/>
<path d="M20 11.0024C20 11.0024 15.282 11.7887 14.5642 15.5317C13.8463 19.2747 9.24292 19.4223 9.24292 19.4223" stroke="#1D1F20" stroke-width="1.5"/>
</svg>
