<svg width="24" height="24" viewBox="0 0 24 24" fill="none" xmlns="http://www.w3.org/2000/svg">
<path d="M20.1693 7.19101C15.5 2.48599 7.19912 3.35171 5.6144 3.55873C4.41246 2.81599 3.43457 1.76242 2.78455 0.509882C2.66947 0.287765 2.47065 0.120351 2.23184 0.0444674C1.99302 -0.0314157 1.73377 -0.00955119 1.51112 0.105251C1.28846 0.220053 1.12064 0.418389 1.04458 0.656626C0.968508 0.894864 0.990426 1.15349 1.10551 1.37561C1.89268 2.87566 3.05616 4.14656 4.48246 5.06434C4.23721 7.34157 3.81273 14.8225 8.1707 19.1794C11.3779 22.3882 16.3207 22.9999 19.6033 22.9999C20.736 23.0036 21.8676 22.9282 22.9897 22.774C23.186 22.7428 23.3675 22.6504 23.5081 22.5102C23.6487 22.3699 23.7413 22.1889 23.7726 21.993C23.8386 21.579 25.2441 12.2348 20.1693 7.19101ZM7.97261 7.01222C14.1605 9.83523 18.3487 14.0039 20.5843 19.584C14.9812 17.3162 10.8308 13.1758 7.97261 7.01222ZM18.8864 8.51782C21.537 11.162 22.103 15.3683 22.1407 18.3137C19.5844 12.583 15.1133 8.20729 8.6612 5.26195C11.6231 5.25254 16.0565 5.76068 18.8864 8.51782ZM6.23697 7.7462C9.19888 14.1168 13.5757 18.5866 19.3014 21.0896C16.349 21.0896 12.1514 20.478 9.50073 17.8338C6.8501 15.1895 6.2464 10.7009 6.23697 7.7462Z" fill="#1D1F20"/>
</svg>
