<svg width="16" height="16" fill="none" xmlns="http://www.w3.org/2000/svg"><path d="M12.988 8.232c-1.046-2.72-4.774-2.867-3.874-6.82a.336.336 0 0 0-.5-.367c-2.42 1.427-4.16 4.287-2.7 8.034.12.306-.24.593-.5.393C4.205 8.56 4.08 7.245 4.185 6.305c.04-.346-.413-.513-.606-.226-.454.693-.914 1.813-.914 3.5.253 3.733 3.407 4.88 4.541 5.026 1.62.207 3.374-.093 4.635-1.246 1.386-1.287 1.893-3.34 1.146-5.127ZM6.8 11.586c.96-.234 1.454-.927 1.587-1.54.22-.954-.64-1.887-.06-3.394.22 1.247 2.18 2.027 2.18 3.387.054 1.687-1.773 3.133-3.707 1.546Z" fill="#D33836"/></svg>