<svg width="24" height="24" viewBox="0 0 24 24" fill="none" xmlns="http://www.w3.org/2000/svg">
<path d="M4 18L4.62495 19.4061C4.78545 19.7673 5.14357 20 5.53876 20H18.4612C18.8564 20 19.2145 19.7673 19.375 19.4061L20 18" stroke="black" stroke-width="1.5" stroke-linecap="round"/>
<path d="M3 17.5H21" stroke="black" stroke-width="1.5" stroke-linecap="round"/>
<path d="M6.40133 7.63455L5.668 8.63455C3.73045 11.2767 5.61722 15 8.89362 15H15.1064C18.3828 15 20.2695 11.2767 18.332 8.63455L17.5987 7.63455C16.8452 6.60704 15.6472 6 14.373 6H9.62695C8.35278 6 7.15483 6.60705 6.40133 7.63455Z" stroke="black" stroke-width="1.5" stroke-linecap="round"/>
<path d="M20 9.75C20.0718 9.75 20.1293 9.77895 20.1646 9.81533C20.1969 9.84859 20.2088 9.88412 20.2048 9.92525C20.1214 10.7761 19.9232 11.6105 19.6158 12.4023C19.1974 13.4796 18.5854 14.4554 17.8168 15.2753C17.0815 16.0596 16.2169 16.6862 15.2698 17.1249C15.2558 17.1314 15.2374 17.137 15.2147 17.1393C14.1253 17.2494 13.1352 17.25 12 17.25C10.8648 17.25 9.87466 17.2494 8.78525 17.1393C8.76258 17.137 8.74417 17.1314 8.73015 17.1249C7.78305 16.6862 6.91849 16.0596 6.18319 15.2753C5.4146 14.4554 4.80257 13.4796 4.38422 12.4023C4.07677 11.6105 3.87864 10.7761 3.79523 9.92525C3.7912 9.88412 3.80312 9.84859 3.83539 9.81533C3.87069 9.77894 3.92821 9.75 4 9.75L12 9.75H20Z" fill="white" stroke="black" stroke-width="1.5"/>
<path d="M12.4144 4.25H11.5856L11.4606 3.75H12.5394L12.4144 4.25Z" stroke="#1D1F20" stroke-width="1.5"/>
</svg>
