<svg width="16" height="16" fill="none" xmlns="http://www.w3.org/2000/svg"><path fill-rule="evenodd" clip-rule="evenodd" d="M13.501 3.778a3.504 3.504 0 0 0-4.667-.259L8 4.187l-.835-.668a3.505 3.505 0 0 0-4.667.259c-1.286 1.286-1.364 3.318-.16 4.63 1.05 1.143 2.271 2.409 3.371 3.384.552.489 1.057.891 1.485 1.168.461.298.719.373.806.373.086 0 .344-.075.805-.373.428-.277.934-.68 1.485-1.168 1.1-.975 2.321-2.24 3.37-3.383 1.205-1.313 1.127-3.345-.159-4.631Zm-5.5-1.3a4.838 4.838 0 0 1 6.443.357c1.765 1.765 1.911 4.61.198 6.475-1.059 1.154-2.317 2.46-3.468 3.48-.574.509-1.136.96-1.645 1.29-.474.306-1.02.586-1.53.586-.509 0-1.055-.28-1.53-.587-.508-.328-1.07-.78-1.644-1.29-1.151-1.02-2.409-2.325-3.468-3.479C-.356 7.445-.21 4.6 1.555 2.835a4.838 4.838 0 0 1 6.443-.357L8 2.48Z" fill="#293644"/></svg>