<svg width="24" height="24" viewBox="0 0 24 24" fill="none" xmlns="http://www.w3.org/2000/svg">
<path fill-rule="evenodd" clip-rule="evenodd" d="M17.7498 18.2123C22.174 14.5 23.3153 8.5765 20.299 4.98184C17.2828 1.38718 11.2511 1.48258 6.82686 5.19492C2.40266 8.90726 1.26132 14.8308 4.2776 18.4254C7.29387 22.0201 13.3256 21.9247 17.7498 18.2123ZM16.7848 17.0716C20.5772 13.8894 21.6377 8.90962 19.1534 5.94895C16.6691 2.98829 11.5808 3.16789 7.78839 6.35011C3.99597 9.53233 2.93553 14.5121 5.41982 17.4728C7.90412 20.4334 12.9924 20.2538 16.7848 17.0716Z" fill="black"/>
<path d="M20.6036 7.5477C20.6036 7.5477 14.4051 6.96768 12.6783 12.0576C10.9514 17.1474 4.13314 16.5094 4.13314 16.5094" stroke="#1D1F20" stroke-width="1.5"/>
</svg>
