<svg width="24" height="24" viewBox="0 0 24 24" fill="none" xmlns="http://www.w3.org/2000/svg">
<g clip-path="url(#clip0_2709_52425)">
<path d="M23.4999 7.87591C23.3102 8.17248 23.0483 8.40328 22.8028 8.64934C17.8257 13.627 12.8474 18.6042 7.87144 23.5836C7.70818 23.7475 7.54257 23.9037 7.32939 24C7.2043 24 7.07921 24 6.95412 24C6.60235 23.8232 6.47609 23.5061 6.38741 23.1461C6.23472 22.526 6.04914 21.9146 5.88999 21.2962C5.8571 21.1694 5.79837 21.1212 5.67857 21.0889C5.00086 20.9092 4.32844 20.7101 3.64897 20.5392C3.27546 20.4453 3.05935 20.2362 2.96421 19.8615C2.79214 19.182 2.59247 18.5096 2.41511 17.8319C2.38046 17.7009 2.32526 17.6416 2.19254 17.607C1.51424 17.4308 0.838879 17.2417 0.162931 17.0579C-0.554713 16.8623 -0.715039 16.2662 -0.188845 15.74C4.95271 10.5967 10.0948 5.45459 15.2382 0.312456C15.7661 -0.2155 16.3622 -0.0575241 16.5578 0.658946C16.7422 1.33489 16.9301 2.01025 17.1068 2.68855C17.1409 2.81951 17.1961 2.87883 17.3294 2.91406C18.0154 3.09259 18.696 3.2905 19.3819 3.46845C19.7361 3.56006 19.9422 3.76913 20.0338 4.12325C20.2094 4.80155 20.4079 5.47456 20.5817 6.15345C20.6211 6.30672 20.6945 6.36604 20.8378 6.40362C21.4779 6.57158 22.1127 6.76244 22.7552 6.91983C23.1011 7.0044 23.3689 7.15709 23.4999 7.50123C23.4999 7.62573 23.4999 7.75082 23.4999 7.87591ZM12.8726 4.69936C12.7957 4.7117 12.7657 4.77219 12.7235 4.81388C9.91749 7.6181 7.11327 10.4241 4.30495 13.2248C4.18926 13.3399 4.21157 13.3939 4.31317 13.4949C6.21534 15.3912 8.11574 17.2904 10.0115 19.1932C10.123 19.3054 10.1777 19.293 10.2816 19.1885C13.0841 16.3808 15.8894 13.5765 18.6972 10.7741C18.7923 10.679 18.8152 10.6296 18.706 10.521C16.7915 8.6147 14.8823 6.70313 12.9719 4.79274C12.9384 4.75985 12.9043 4.72873 12.8726 4.69936ZM15.476 2.04901C14.9715 2.557 14.4988 3.04444 14.0113 3.51602C13.8739 3.64933 13.871 3.7151 14.009 3.85252C15.8971 5.73061 17.7781 7.61516 19.6609 9.49795C19.6885 9.52555 19.719 9.55022 19.7437 9.58017C19.796 9.64301 19.8365 9.63243 19.8917 9.57723C20.4014 9.06396 20.9141 8.55362 21.4438 8.02449C20.927 7.88178 20.4408 7.7426 19.9522 7.61399C19.6345 7.53001 19.4471 7.3368 19.3637 7.01849C19.184 6.33315 18.9896 5.65192 18.8088 4.96716C18.7694 4.81858 18.706 4.7346 18.5457 4.69349C17.8891 4.52729 17.2396 4.3335 16.5818 4.172C16.1825 4.07392 15.9476 3.85311 15.8548 3.44789C15.7503 2.99276 15.6122 2.54584 15.476 2.04901ZM1.55535 15.9761C2.0328 16.1077 2.47854 16.2492 2.93367 16.3508C3.34887 16.4436 3.57497 16.6797 3.67422 17.0896C3.83454 17.7473 4.02776 18.3974 4.19689 19.0528C4.23506 19.2002 4.3073 19.2678 4.45235 19.3054C5.11597 19.4768 5.77371 19.6683 6.4385 19.8339C6.82962 19.9314 7.05396 20.1557 7.14557 20.5492C7.25304 21.0096 7.39164 21.4624 7.52495 21.9487C8.02531 21.446 8.49629 20.9568 8.98784 20.4887C9.14523 20.339 9.1141 20.2714 8.97786 20.1358C7.10153 18.2688 5.23107 16.3949 3.35885 14.5232C3.32597 14.4903 3.28956 14.4598 3.26019 14.424C3.21028 14.3635 3.17034 14.3623 3.1122 14.4204C2.60069 14.9343 2.08683 15.4458 1.55535 15.9761Z" fill="#1D1F20"/>
<path d="M7.76795 13.3985C7.86367 12.0743 8.50553 11.0202 9.42162 10.1111C10.1715 9.36708 11.0418 8.82095 12.0924 8.60602C12.7301 8.47565 13.3532 8.50912 13.9299 8.84209C14.6833 9.27665 15.0662 10.1458 14.944 11.0947C14.7861 12.3191 14.1712 13.3016 13.3168 14.1531C12.6438 14.8237 11.8663 15.3334 10.9443 15.5936C10.3078 15.7733 9.66121 15.8156 9.04167 15.5454C8.17138 15.1655 7.70746 14.3563 7.76795 13.3985ZM13.5523 10.901C13.5675 10.2268 13.2769 9.93494 12.7137 9.94551C12.47 9.95021 12.2333 9.99836 12.0066 10.0829C10.9884 10.4611 10.225 11.1499 9.65416 12.059C9.37875 12.4982 9.18672 12.9727 9.17498 13.5036C9.16323 14.0398 9.45744 14.3369 9.99183 14.3251C10.2508 14.3199 10.5016 14.2705 10.7453 14.1813C11.575 13.8771 12.2321 13.3398 12.7701 12.6545C13.1993 12.1083 13.5129 11.5052 13.5523 10.901Z" fill="#1D1F20"/>
</g>
<defs>
<clipPath id="clip0_2709_52425">
<rect width="24" height="24" fill="white"/>
</clipPath>
</defs>
</svg>
