<svg width="24" height="24" viewBox="0 0 24 24" fill="none" xmlns="http://www.w3.org/2000/svg">
<g clip-path="url(#clip0_2541_52074)">
<path d="M0.0408126 9.32994C0.0408126 9.20749 0.0408126 9.10545 0.0408126 8.983C0.0612208 8.94219 0.0816327 8.90137 0.102041 8.86055C0.244898 8.59525 0.448976 8.45239 0.755098 8.45239C1.34694 8.45239 1.93878 8.45239 2.55102 8.45239C2.63265 8.45239 2.65306 8.43198 2.67346 8.32994C2.67346 8.04423 2.69388 7.75851 2.71428 7.45239C2.7551 7.06464 2.87755 6.69729 3.06123 6.32994C3.26531 5.92178 3.53061 5.55443 3.85714 5.2279C4.16326 4.92178 4.53061 4.67688 4.93877 4.51361C5.18367 4.41157 5.44898 4.35035 5.71429 4.26872C5.7551 4.24831 5.79592 4.20749 5.79592 4.16668C5.81633 4.06464 5.83673 3.9626 5.85714 3.84015C5.91836 3.53402 6.04082 3.24831 6.20408 3.00341C6.46939 2.61565 6.79592 2.30953 7.22449 2.10545C7.61225 1.92178 8 1.84014 8.42857 1.86055C8.67347 1.88096 8.89796 1.94219 9.14286 1.96259C9.42857 1.96259 9.71429 1.94219 10 1.92178C10.2857 1.90137 10.5306 1.77892 10.7551 1.65647C11.0816 1.4728 11.4082 1.28912 11.7551 1.16667C12.102 1.04423 12.449 0.983001 12.8163 0.962593C13.0204 0.942185 13.2041 0.983002 13.4082 1.00341C13.6122 1.02382 13.7959 1.04423 13.9796 1.10545C14.3061 1.20749 14.6327 1.32994 14.9184 1.51361C15.3265 1.75851 15.6939 2.08504 15.9796 2.4728C16.2449 2.84014 16.449 3.2279 16.5714 3.65647C16.5918 3.69729 16.6531 3.7381 16.6939 3.75851C16.898 3.81974 17.1224 3.84015 17.3061 3.90137C17.6122 3.983 17.8571 4.16668 18.102 4.37076C18.449 4.67688 18.7143 5.06464 18.8571 5.51362C18.8776 5.55443 18.898 5.61566 18.9592 5.61566C19.1429 5.63606 19.3061 5.65647 19.4898 5.69729C19.7755 5.73811 20.0204 5.86055 20.2449 6.00341C20.5306 6.18708 20.7755 6.41157 20.9796 6.67688C21.1837 6.94219 21.3265 7.24831 21.4082 7.57484C21.4694 7.81974 21.449 8.06464 21.4694 8.30953C21.4694 8.45239 21.4694 8.45239 21.6122 8.45239C22.1633 8.45239 22.7143 8.45239 23.2653 8.45239C23.5918 8.45239 23.898 8.65647 23.9592 8.96259C23.9592 8.983 23.9796 8.983 24 8.983C24 9.10545 24 9.20749 24 9.32994C23.9796 9.35035 23.9592 9.35035 23.9592 9.37076C23.9184 9.53402 23.8163 9.65647 23.6735 9.7381C23.4898 9.86055 23.3061 9.86055 23.102 9.86055C22.9388 9.86055 22.7551 9.86055 22.5918 9.86055C22.5918 13.8401 22.5918 17.7993 22.5918 21.7585C22.8367 21.7585 23.0612 21.7585 23.3061 21.7585C23.5714 21.7585 23.7755 21.9014 23.898 22.1259C23.9184 22.1667 23.9592 22.2279 23.9796 22.2687C23.9796 22.3912 23.9796 22.4932 23.9796 22.6157C23.9592 22.6361 23.9388 22.6565 23.9388 22.6769C23.9184 22.7381 23.8775 22.7993 23.8571 22.8606C23.6939 23.085 23.4694 23.1667 23.2041 23.1667C15.7551 23.1667 8.32653 23.1667 0.877549 23.1667C0.775508 23.1667 0.653058 23.1463 0.551017 23.1259C0.306119 23.085 0.163263 22.9218 0.061222 22.7177C0.0408138 22.6769 0.0204082 22.6361 0 22.6157C0 22.4932 0 22.3912 0 22.2687C0.0204082 22.2483 0.0408126 22.2483 0.0408126 22.2279C0.102037 22.1463 0.142857 22.0442 0.204082 21.9626C0.326531 21.8197 0.489795 21.7585 0.693876 21.7585C0.918366 21.7585 1.14285 21.7585 1.38775 21.7585C1.38775 17.7789 1.38775 13.8197 1.38775 9.86055C1.16326 9.86055 0.959179 9.86055 0.734689 9.86055C0.428567 9.86055 0.18367 9.7177 0.0408126 9.45239C0.0816289 9.41158 0.0612208 9.37076 0.0408126 9.32994ZM21.2245 9.88096C15.102 9.88096 8.97959 9.88096 2.85714 9.88096C2.85714 9.94219 2.85714 9.983 2.85714 10.0238C2.85714 13.881 2.85714 17.7585 2.85714 21.6157C2.85714 21.7789 2.85714 21.7789 3.02041 21.7789C9.04082 21.7789 15.0408 21.7789 21.0612 21.7789C21.2245 21.7789 21.2245 21.7789 21.2245 21.6157C21.2245 17.7381 21.2245 13.881 21.2245 10.0034C21.2245 9.983 21.2245 9.94219 21.2245 9.88096ZM9.63265 8.45239C11.4082 8.45239 13.1837 8.45239 14.9796 8.45239C15.0204 8.45239 15.0408 8.45239 15.0816 8.45239C15.1429 8.45239 15.1633 8.41157 15.1429 8.37076C15.0408 8.16668 15.0204 7.96259 15.102 7.7381C15.2449 7.37076 15.6735 7.20749 16.0204 7.37076C16.449 7.57484 16.551 7.96259 16.3469 8.37076C16.3265 8.41157 16.3265 8.45239 16.3878 8.45239C16.4082 8.45239 16.449 8.45239 16.4694 8.45239C17.6327 8.45239 18.7755 8.45239 19.9388 8.45239C19.9796 8.45239 20.0204 8.45239 20.0408 8.45239C20.0612 8.43198 20.102 8.41158 20.102 8.39117C20.1225 8.14627 20.1225 7.88096 19.9796 7.65647C19.8163 7.39117 19.6122 7.20749 19.3061 7.10545C19.0816 7.02382 18.8571 7.02382 18.6327 7.08504C18.4694 7.12586 18.3265 7.16668 18.1633 7.12586C17.8776 7.06464 17.6122 6.75851 17.6122 6.45239C17.6122 6.24831 17.5918 6.06464 17.5102 5.88096C17.3673 5.57484 17.1429 5.35035 16.8163 5.24831C16.6327 5.20749 16.449 5.18709 16.2653 5.16668C15.8776 5.10545 15.5714 4.92178 15.3878 4.57484C15.3061 4.41157 15.2653 4.2279 15.2041 4.06464C15.0408 3.57484 14.7755 3.20749 14.3673 2.90137C13.9592 2.59525 13.4898 2.43198 12.9796 2.41157C12.7959 2.41157 12.5918 2.43198 12.3878 2.49321C12.1837 2.55443 11.9796 2.61566 11.7959 2.7177C11.449 2.90137 11.1224 3.10545 10.7551 3.2279C10.3878 3.35035 10 3.45239 9.59184 3.43198C9.28572 3.41157 8.95918 3.41157 8.65306 3.37076C8.32653 3.30953 8.02041 3.30953 7.71428 3.4728C7.32653 3.67688 7.08163 4.16668 7.14286 4.59525C7.16327 4.7177 7.16326 4.81974 7.16326 4.94219C7.14285 5.26872 6.87755 5.57484 6.53061 5.61566C6.28572 5.65647 6.02041 5.65647 5.77551 5.7177C5.48979 5.77892 5.20408 5.92178 4.95918 6.10545C4.2449 6.65647 3.93877 7.39117 4 8.26872C4.0204 8.43198 4.04081 8.45239 4.20408 8.45239C6.06122 8.45239 7.83673 8.45239 9.63265 8.45239Z" fill="#1D1F20"/>
<path d="M12.0411 20.29C9.6942 20.29 7.36766 20.29 5.02072 20.29C4.75542 20.29 4.55134 20.2084 4.38808 20.0043C4.30644 19.9023 4.26562 19.8002 4.26562 19.6778C4.26562 19.637 4.26562 19.5962 4.26562 19.5553C4.26562 17.7186 4.26562 15.8819 4.26562 14.0451C4.26562 13.8002 4.32685 13.6166 4.51052 13.4533C4.63297 13.3513 4.79624 13.29 4.9595 13.29C5.83705 13.29 6.7146 13.29 7.59215 13.29C7.67379 13.29 7.73501 13.2696 7.77583 13.2084C8.2044 12.6982 8.71461 12.3104 9.28604 11.9839C9.57175 11.8206 9.89828 11.6778 10.2044 11.5757C10.4697 11.4737 10.735 11.4329 11.0003 11.3717C11.5105 11.2492 12.0207 11.2492 12.5309 11.29C12.7962 11.3104 13.0411 11.3513 13.3064 11.4125C13.6126 11.4941 13.9187 11.5962 14.2248 11.6982C14.6126 11.8411 14.9595 12.0451 15.3064 12.29C15.6942 12.5553 16.0615 12.8819 16.3677 13.2492C16.4085 13.29 16.4697 13.3104 16.5309 13.3104C17.4085 13.3104 18.286 13.3104 19.1432 13.3104C19.4697 13.3104 19.735 13.5145 19.8371 13.8002C19.8575 13.8615 19.8575 13.9431 19.8575 14.0247C19.8575 15.8819 19.8575 17.739 19.8575 19.5962C19.8575 19.9635 19.6126 20.188 19.3473 20.29C19.2656 20.3104 19.1636 20.3104 19.082 20.3104C17.8166 20.3104 16.5309 20.3104 15.2656 20.3104C14.1636 20.29 13.1024 20.29 12.0411 20.29ZM18.4085 14.6982C18.3473 14.6982 18.3064 14.6982 18.2656 14.6982C17.5309 14.6982 16.7962 14.6982 16.0411 14.6982C15.9799 14.6982 15.8983 14.6982 15.8371 14.6778C15.633 14.637 15.5105 14.4941 15.3881 14.3309C15.082 13.9431 14.7146 13.5962 14.286 13.3309C13.9187 13.1064 13.5105 12.9023 13.0819 12.8206C12.8371 12.7594 12.5717 12.7186 12.3064 12.6982C11.8983 12.6778 11.5105 12.6778 11.1228 12.7798C10.8575 12.8615 10.5717 12.9227 10.3064 13.0247C9.9391 13.188 9.59215 13.3717 9.30644 13.6574C9.08195 13.8615 8.85746 14.086 8.65338 14.3309C8.4493 14.5758 8.22481 14.7186 7.89828 14.7186C7.18399 14.6982 6.49011 14.7186 5.77583 14.7186C5.73501 14.7186 5.69419 14.7186 5.65338 14.7186C5.65338 16.1064 5.65338 17.4941 5.65338 18.8819C9.89828 18.8819 14.1432 18.8819 18.4085 18.8819C18.4085 17.4941 18.4085 16.1064 18.4085 14.6982Z" fill="#1D1F20"/>
<path d="M8.57181 7.90121C8.16365 7.92162 7.87793 7.55427 7.87793 7.18692C7.87793 6.81957 8.20446 6.47264 8.59222 6.49305C8.95956 6.51345 9.2861 6.77876 9.2861 7.20733C9.2861 7.57468 8.93916 7.94202 8.57181 7.90121Z" fill="#1D1F20"/>
<path d="M13.7753 4.61663C13.7753 5.00438 13.4692 5.31051 13.0815 5.31051C12.6937 5.31051 12.3876 5.06561 12.3672 4.59622C12.3468 4.24928 12.6529 3.90234 13.0815 3.90234C13.4692 3.90234 13.7958 4.22887 13.7753 4.61663Z" fill="#1D1F20"/>
</g>
<defs>
<clipPath id="clip0_2541_52074">
<rect width="24" height="24" fill="white"/>
</clipPath>
</defs>
</svg>
