<svg width="24" height="24" viewBox="0 0 24 24" fill="none" xmlns="http://www.w3.org/2000/svg">
<g clip-path="url(#clip0_2541_52088)">
<path d="M24.12 5.92858C24.12 9.82884 24.12 13.7086 24.12 17.6088C24.0995 17.6294 24.0789 17.6294 24.0789 17.6499C23.9558 18.0194 23.4836 18.2452 23.1347 18.0399C22.991 17.9578 22.8473 17.8346 22.7241 17.7115C21.8414 16.8288 20.9587 15.9256 20.0555 15.0429C19.2755 14.2628 18.4954 13.4828 17.7154 12.7027C17.1816 12.169 16.6274 11.6147 16.0937 11.081C15.6626 10.6499 15.2521 10.2394 14.821 9.80831C14.5336 9.52093 14.2462 9.23354 13.9588 8.94615C13.6509 8.63823 13.3635 8.33033 13.0556 8.04294C13.0145 8.02241 12.9735 7.98135 12.9324 7.98135C12.0703 7.98135 11.2081 7.98135 10.3459 7.98135C10.3049 7.98135 10.2433 8.00188 10.2022 8.04294C9.85328 8.41244 9.56589 8.82298 9.38114 9.31564C9.29903 9.54145 9.21691 9.74673 9.15533 9.97253C9.11428 10.1368 9.09376 10.301 9.07323 10.4857C9.13481 10.4857 9.19639 10.4857 9.23745 10.4857C10.6333 10.4857 12.0292 10.4857 13.4251 10.4857C13.8356 10.4857 14.1641 10.8142 14.1641 11.2247C14.1641 11.4505 14.1641 11.6763 14.1641 11.9021C14.2051 11.9021 14.2462 11.9021 14.2872 11.9021C14.6157 11.9021 14.9441 11.9021 15.2726 11.9021C15.601 11.9021 15.8884 11.9637 16.1758 12.1279C16.689 12.4359 16.9558 12.8875 16.9969 13.4622C17.0174 13.996 16.9969 14.5297 16.9969 15.0634C16.9969 15.3508 16.9764 15.6176 16.8532 15.8845C16.7095 16.1924 16.5248 16.4387 16.2169 16.603C16.0116 16.7056 15.8063 16.8082 15.5805 16.8698C15.1289 17.0341 14.6773 17.1572 14.2462 17.3009C14.1846 17.3214 14.1641 17.3625 14.1641 17.4241C14.1641 17.8141 14.082 18.1836 13.9588 18.5531C13.8562 18.8815 13.7125 19.1894 13.5072 19.4768C13.4046 19.6205 13.3225 19.7437 13.2198 19.9079C13.2814 19.9079 13.3224 19.9079 13.3635 19.9079C14.8004 19.9079 16.2374 19.9079 17.6743 19.9079C18.0849 19.9079 18.4133 20.2364 18.3928 20.6469C18.3928 20.7906 18.3723 20.9343 18.3517 21.078C18.3107 21.427 18.208 21.7554 18.0643 22.0839C17.818 22.6381 17.428 23.1102 16.9353 23.4592C16.4632 23.8082 15.9295 24.034 15.3342 24.1161C15.3136 24.1161 15.2931 24.1366 15.2726 24.1572C11.2286 24.1572 7.20521 24.1572 3.16126 24.1572C3.14074 24.1366 3.09968 24.1161 3.07915 24.1161C2.91493 24.075 2.7507 24.0545 2.58648 24.0135C2.23751 23.9313 1.92961 23.7671 1.62169 23.5824C1.17008 23.295 0.800574 22.9255 0.533714 22.4739C0.266855 22.0633 0.102641 21.5912 0.0410578 21.0985C0.0410578 21.078 0.0205277 21.0575 0 21.0369C0 20.8317 0 20.6469 0 20.4416C0.0205277 20.4211 0.0410578 20.4211 0.0410578 20.4006C0.164224 20.0516 0.390028 19.9079 0.759526 19.9079C2.17593 19.9079 3.61287 19.9079 5.02928 19.9079C5.07033 19.9079 5.13191 19.9079 5.1935 19.9079C4.84453 19.4563 4.57767 19.0047 4.41345 18.4915C4.31081 18.1425 4.22869 17.773 4.22869 17.4241C4.22869 15.3508 4.22869 13.298 4.22869 11.2247C4.22869 10.8142 4.57767 10.4857 4.9677 10.4857C5.80933 10.4857 6.63044 10.4857 7.47207 10.4857C7.65682 10.4857 7.63629 10.4857 7.67735 10.301C7.73893 9.95201 7.77999 9.60304 7.88263 9.2746C7.96474 8.96668 8.10843 8.67929 8.25212 8.3919C8.49845 7.83765 8.86795 7.36552 9.29903 6.93444C9.83275 6.40072 10.387 5.867 10.9207 5.31275C11.475 4.7585 12.0292 4.18374 12.604 3.62949C13.1993 3.03419 13.7946 2.43888 14.3899 1.86411C14.7799 1.47408 15.1699 1.08405 15.56 0.694027C15.9295 0.324529 16.3811 0.119262 16.8943 0.0371516C16.9148 0.0371516 16.9559 0.0166214 16.9764 -0.00390625C17.2022 -0.00390625 17.428 -0.00390625 17.6333 -0.00390625C17.6538 0.0166214 17.6743 0.0371516 17.6948 0.0371516C17.8385 0.0782069 18.0028 0.0987346 18.1465 0.13979C18.4544 0.242428 18.7212 0.386112 18.947 0.591388C19.3576 0.981414 19.7476 1.37145 20.1582 1.782C20.6919 2.29519 21.2051 2.82891 21.7388 3.3421C22.4573 4.06057 23.1757 4.77904 23.8737 5.4975C23.9558 5.57961 24.0174 5.66173 24.0789 5.74384C24.0789 5.84648 24.0995 5.88752 24.12 5.92858ZM22.7036 15.7203C22.7036 15.6382 22.7036 15.5971 22.7036 15.5355C22.7036 12.518 22.7036 9.52093 22.7036 6.50336C22.7036 6.29809 22.5599 6.15439 22.3546 6.15439C19.3165 6.15439 16.299 6.15439 13.2609 6.15439C12.8914 6.15439 12.5219 6.15439 12.1524 6.15439C12.1113 6.15439 12.0703 6.15439 12.0497 6.17491C11.9266 6.29808 11.8034 6.44177 11.6392 6.58547C11.7213 6.58547 11.7623 6.58547 11.8034 6.58547C12.255 6.58547 12.7272 6.58547 13.1788 6.58547C13.4456 6.58547 13.6509 6.66758 13.8356 6.85232C14.6773 7.69396 15.5189 8.5356 16.3605 9.37724C17.2843 10.301 18.1875 11.2042 19.1112 12.1279C19.7887 12.8053 20.4456 13.4622 21.123 14.1191C21.4925 14.4886 21.862 14.8786 22.252 15.2481C22.3752 15.4124 22.5394 15.5561 22.7036 15.7203ZM12.7066 14.7555C10.3459 14.7555 8.00579 14.7555 5.64511 14.7555C5.64511 14.7965 5.64511 14.8581 5.64511 14.8992C5.64511 15.6792 5.64511 16.4387 5.64511 17.2188C5.64511 17.5883 5.68617 17.9578 5.82986 18.3068C5.99408 18.7378 6.28147 19.1073 6.65097 19.3947C6.85624 19.559 7.08205 19.6821 7.32838 19.7847C7.59524 19.8874 7.84156 19.949 8.12895 19.949C8.78583 19.949 9.42219 19.949 10.0791 19.949C10.3049 19.949 10.5512 19.9284 10.777 19.8669C11.126 19.7848 11.4339 19.6205 11.7213 19.4153C12.1113 19.1073 12.3782 18.7378 12.5629 18.2862C12.6656 17.9988 12.7477 17.6909 12.7477 17.383C12.7477 16.5414 12.7477 15.6997 12.7477 14.8581C12.7066 14.8171 12.7066 14.7965 12.7066 14.7555ZM16.8122 21.3449C11.7008 21.3449 6.60991 21.3449 1.51905 21.3449C1.51905 21.3859 1.51905 21.4064 1.53957 21.427C1.66274 21.6117 1.74485 21.8375 1.90907 22.0017C2.34015 22.4944 2.8944 22.7407 3.55128 22.7407C7.30784 22.7407 11.0439 22.7407 14.8004 22.7407C15.0673 22.7407 15.3136 22.6997 15.56 22.597C16.0732 22.4123 16.4427 22.0633 16.7095 21.5912C16.7506 21.5501 16.7711 21.4475 16.8122 21.3449ZM21.0614 4.73798C20.8561 4.5327 20.6714 4.36848 20.5071 4.18373C19.7476 3.42421 18.9676 2.66469 18.208 1.88464C17.8591 1.53567 17.469 1.35092 16.9764 1.49461C16.7916 1.53567 16.6274 1.61777 16.4837 1.76147C15.6215 2.62363 14.7594 3.48579 13.8972 4.32742C13.7741 4.45059 13.6304 4.59428 13.4867 4.73798C16.0321 4.73798 18.5365 4.73798 21.0614 4.73798ZM5.64511 11.9227C5.64511 12.3948 5.64511 12.8669 5.64511 13.3185C8.00579 13.3185 10.3459 13.3185 12.7066 13.3185C12.7066 12.8464 12.7066 12.3743 12.7066 11.9227C10.3459 11.9227 7.98526 11.9227 5.64511 11.9227ZM14.123 13.3391C14.123 14.1807 14.123 15.0223 14.123 15.8845C14.2257 15.8434 14.3283 15.8229 14.4309 15.7819C14.7183 15.6792 15.0262 15.5971 15.3136 15.4945C15.4779 15.4329 15.5394 15.3303 15.5394 15.2276C15.5394 14.6734 15.5394 14.1191 15.5394 13.5854C15.5394 13.4417 15.4368 13.3391 15.2931 13.3391C14.9236 13.3391 14.5746 13.3391 14.2051 13.3391C14.1846 13.3391 14.1641 13.3391 14.123 13.3391Z" fill="#1D1F20"/>
</g>
<defs>
<clipPath id="clip0_2541_52088">
<rect width="24" height="24" fill="white"/>
</clipPath>
</defs>
</svg>
