<svg width="16" height="16" viewBox="0 0 16 16" fill="none" xmlns="http://www.w3.org/2000/svg">
<g clip-path="url(#clip0_3177_17230)">
<path d="M7.34096 2.34155C7.67455 1.90821 8.32805 1.90821 8.66164 2.34155L14.0355 9.3224C14.4573 9.87037 14.0667 10.6641 13.3752 10.6641H2.62744C1.93591 10.6641 1.54527 9.87037 1.9671 9.3224L7.34096 2.34155Z" stroke="#1D1F20"/>
<path d="M6.66732 7.33203L5.33398 7.9987" stroke="#1D1F20"/>
<path d="M8.66732 6.33203L7.33398 6.9987" stroke="#1D1F20"/>
<path d="M7.33529 5.33203L6.00195 5.9987" stroke="#1D1F20"/>
<path d="M15.6568 10.6641H0.383467C0.257276 10.6641 0.19854 10.8263 0.293713 10.9092C0.598143 11.1743 1.06764 11.6108 1.33529 11.9974C1.60368 12.3851 1.87465 13.0194 1.96795 13.2466C1.98879 13.2973 2.03803 13.3307 2.09287 13.3307H13.5984C13.6423 13.3307 13.6834 13.3091 13.7085 13.273C13.846 13.0751 14.3111 12.4133 14.6686 11.9974C14.9835 11.6311 15.4591 11.1716 15.749 10.8988C15.8377 10.8153 15.7787 10.6641 15.6568 10.6641Z" stroke="#1D1F20"/>
</g>
<defs>
<clipPath id="clip0_3177_17230">
<rect width="16" height="16" fill="white"/>
</clipPath>
</defs>
</svg>
