<svg width="24" height="24" viewBox="0 0 24 24" fill="none" xmlns="http://www.w3.org/2000/svg">
<path d="M13.999 6.50098V16.501M9.99903 7.50098V17.501M9.49903 7.50098L7.49903 9.50098C7.03175 9.95891 6.65989 10.5049 6.40495 11.1075C6.15001 11.71 6.01704 12.3571 6.01374 13.0113C6.01043 13.6656 6.13686 14.314 6.3857 14.9191C6.63454 15.5241 7.00087 16.0739 7.46349 16.5365C7.92612 16.9991 8.47587 17.3655 9.08094 17.6143C9.68602 17.8632 10.3344 17.9896 10.9887 17.9863C11.6429 17.983 12.29 17.85 12.8925 17.5951C13.4951 17.3401 14.0411 16.9683 14.499 16.501L16.499 14.501C16.9663 14.0431 17.3382 13.497 17.5931 12.8945C17.848 12.292 17.981 11.6449 17.9843 10.9906C17.9876 10.3364 17.8612 9.68798 17.6124 9.0829C17.3635 8.47782 16.9972 7.92807 16.5346 7.46545C16.0719 7.00282 15.5222 6.6365 14.9171 6.38765C14.312 6.13881 13.6636 6.01238 13.0094 6.01569C12.3551 6.01899 11.708 6.15196 11.1055 6.4069C10.503 6.66185 9.95696 7.03371 9.49903 7.50098Z" stroke="black" stroke-width="1.5" stroke-linecap="round" stroke-linejoin="round"/>
<path d="M16 7L17 2L18.37 2.68C18.7828 2.88767 19.2379 2.99718 19.7 3H21V4.3C21 4.76 21.1 5.22 21.32 5.63L22 7L17 8M8 17L7 22L5.63 21.32C5.21723 21.1123 4.76206 21.0028 4.3 21H3V19.7C2.99718 19.2379 2.88767 18.7828 2.68 18.37L2 17L7 16" stroke="black" stroke-width="1.5" stroke-linecap="round" stroke-linejoin="round"/>
</svg>
