<svg width="24" height="24" viewBox="0 0 24 24" fill="none" xmlns="http://www.w3.org/2000/svg">
<path d="M0.00626295 11.737C0.231733 10.6473 1.0334 9.98965 1.81002 9.30698C2.03549 9.11282 2.24217 8.89988 2.44885 8.6932C2.77453 8.37378 2.91232 7.97295 2.90605 7.52827C2.89979 6.9646 2.85595 6.40719 2.85595 5.84351C2.85595 5.46147 2.85595 5.07316 2.93111 4.70364C3.14405 3.59508 3.92067 2.94372 5.11065 2.88735C5.61795 2.8623 6.12526 2.91241 6.63257 2.91241C7.07724 2.91241 7.52192 2.89988 7.96033 2.8623C8.10438 2.84977 8.26722 2.78088 8.37996 2.68067C8.69311 2.41136 8.98747 2.12326 9.28184 1.83516C9.70146 1.41554 10.0835 0.952071 10.5344 0.576288C11.4489 -0.181541 12.501 -0.194066 13.428 0.551236C13.8977 0.927019 14.2923 1.40301 14.7182 1.83516C14.9374 2.05437 15.1566 2.27984 15.3758 2.49904C15.6764 2.79967 16.0522 2.91867 16.4593 2.91241C17.1795 2.90614 17.8935 2.87483 18.6138 2.86856C18.8455 2.86856 19.0835 2.88735 19.309 2.93746C20.4238 3.16293 21.0752 3.93955 21.1315 5.14205C21.1566 5.63683 21.1002 6.13788 21.1065 6.63892C21.1065 7.0836 21.119 7.52827 21.1566 7.96669C21.1691 8.11074 21.238 8.27357 21.3319 8.38631C21.6013 8.69946 21.8894 8.99383 22.1775 9.28819C22.5908 9.70155 23.0543 10.0711 23.4238 10.522C24.2129 11.4865 24.2067 12.545 23.4113 13.5095C23.048 13.9542 22.5908 14.3237 22.1837 14.7245C21.9582 14.95 21.7265 15.1692 21.501 15.4009C21.2129 15.689 21.1002 16.0523 21.1002 16.4406C21.1002 17.0168 21.1441 17.593 21.1441 18.1692C21.1441 18.5512 21.1441 18.9395 21.0752 19.3091C20.856 20.4364 20.0668 21.094 18.858 21.1379C18.3633 21.1567 17.8622 21.1066 17.3612 21.1066C16.9228 21.1066 16.4906 21.1191 16.0522 21.1567C15.9081 21.1692 15.7453 21.2381 15.6326 21.332C15.3194 21.6013 15.0188 21.8832 14.7307 22.1775C14.405 22.5095 14.0981 22.8727 13.7662 23.1984C13.3528 23.6055 12.858 23.8748 12.2881 24.0001C12.1002 24.0001 11.9123 24.0001 11.7244 24.0001C11.1545 23.8748 10.6534 23.6118 10.2401 23.1984C9.90814 22.8665 9.60752 22.5095 9.28184 22.1775C9 21.8894 8.70564 21.6076 8.39875 21.3446C8.27349 21.2381 8.09812 21.1629 7.93528 21.1504C7.50313 21.1128 7.06472 21.1003 6.6263 21.1003C6.12526 21.1003 5.62422 21.1504 5.12944 21.1253C3.92693 21.069 3.13779 20.4176 2.92484 19.3028C2.85595 18.9333 2.84969 18.545 2.85595 18.1629C2.85595 17.593 2.89979 17.0231 2.89979 16.4531C2.89979 16.0335 2.78079 15.6514 2.4739 15.3508C2.24843 15.1253 2.02296 14.8936 1.78497 14.6869C1.01461 14.0105 0.219207 13.3529 0 12.2757C0.00626305 12.1128 0.00626295 11.9249 0.00626295 11.737ZM4.34029 18.3258C4.35908 18.5262 4.37161 18.808 4.40919 19.0836C4.45303 19.3905 4.64718 19.5721 4.94781 19.616C5.19207 19.6473 5.44259 19.6723 5.69311 19.6661C6.35073 19.6535 7.00209 19.616 7.65971 19.616C8.26722 19.616 8.84342 19.7788 9.31315 20.1796C9.70146 20.5053 10.0585 20.8686 10.4155 21.2256C10.7537 21.5575 11.0543 21.9333 11.4113 22.2464C11.8434 22.6347 12.1628 22.6347 12.595 22.2527C12.9582 21.927 13.2902 21.5575 13.6159 21.188C14.2296 20.499 14.8622 19.8352 15.8392 19.6974C16.2589 19.6347 16.691 19.616 17.1232 19.616C17.6868 19.616 18.2443 19.6723 18.8079 19.6598C19.3967 19.6473 19.6159 19.403 19.6534 18.8205C19.666 18.6514 19.6722 18.4761 19.666 18.307C19.6472 17.8936 19.6033 17.4803 19.5971 17.0669C19.5846 16.3529 19.6096 15.6389 19.9854 15.0001C20.2985 14.4615 20.7244 14.0231 21.2004 13.616C21.5762 13.2965 21.9332 12.9583 22.2589 12.5951C22.6159 12.1942 22.6159 11.8686 22.2651 11.4677C21.9332 11.0919 21.5511 10.7475 21.1754 10.4093C20.4864 9.7955 19.8163 9.15666 19.691 8.18589C19.6221 7.63474 19.6472 7.06481 19.6347 6.50739C19.6284 6.00635 19.6472 5.51157 19.6159 5.01053C19.5971 4.6598 19.3716 4.46564 19.0271 4.41554C18.8956 4.39675 18.7641 4.3717 18.6326 4.37796C18.1127 4.39675 17.5866 4.42806 17.0668 4.44059C16.3591 4.45938 15.6576 4.42806 15.0188 4.07107C14.4739 3.76418 14.0292 3.34456 13.6284 2.8623C13.3779 2.55541 13.1086 2.25479 12.8267 1.97921C12.2067 1.3717 11.8372 1.36543 11.2171 1.97921C10.8539 2.33621 10.5407 2.73704 10.19 3.10656C9.62631 3.70155 9.02505 4.26522 8.16075 4.35291C7.62213 4.40927 7.07098 4.40301 6.5261 4.40927C6.07516 4.41554 5.61795 4.3717 5.16701 4.39049C4.62839 4.41554 4.42171 4.64727 4.37787 5.18589C4.36534 5.37378 4.35908 5.56167 4.36534 5.74957C4.38413 6.16293 4.41545 6.57629 4.43424 6.98965C4.49061 8.117 4.22756 9.12535 3.37578 9.92702C3.19415 10.0961 3 10.259 2.82463 10.4281C2.46764 10.7663 2.09186 11.0857 1.76618 11.4552C1.40919 11.856 1.40919 12.1817 1.76618 12.5826C2.10438 12.9583 2.46764 13.3216 2.86221 13.6347C3.9833 14.5241 4.55324 15.6514 4.43424 17.0982C4.3904 17.4803 4.37161 17.8623 4.34029 18.3258Z" fill="#D33836"/>
<path d="M17.0296 9.57147C16.848 8.91385 16.6601 8.24997 16.4785 7.59234C16.4409 7.46082 16.4158 7.31051 16.4346 7.17898C16.4847 6.81573 16.7791 6.55894 17.1361 6.54015C17.4868 6.52136 17.7937 6.74683 17.9002 7.11009C18.0881 7.76771 18.2697 8.43159 18.4513 9.09548C18.6643 9.87209 18.8835 10.6424 19.0964 11.4191C19.1966 11.7886 19.0901 12.1205 18.8083 12.3084C18.5139 12.5088 18.2008 12.4838 17.8814 12.2333C17.4304 11.8763 16.9795 11.5193 16.491 11.131C16.4847 11.2437 16.4722 11.3189 16.4722 11.394C16.4597 11.9013 16.4471 12.4086 16.4284 12.9159C16.4158 13.3042 16.2029 13.5798 15.8772 13.6738C15.5578 13.7614 15.2384 13.6424 15.0254 13.3293C14.1862 12.108 13.3469 10.8867 12.5077 9.65915C12.2572 9.28963 12.3323 8.83869 12.6705 8.6007C13.0213 8.35017 13.4722 8.43159 13.7352 8.80738C14.1423 9.38984 14.5369 9.9723 15.0004 10.5548C15.0004 10.4358 15.0004 10.323 15.0004 10.204C15.0004 10.0099 15.0004 9.81573 15.0129 9.62157C15.0317 9.30842 15.1757 9.06416 15.4701 8.9389C15.7582 8.81364 16.0338 8.85748 16.2843 9.0579C16.5223 9.24579 16.7603 9.43368 16.9983 9.62157C17.0108 9.59652 17.0233 9.58399 17.0296 9.57147Z" fill="#D33836"/>
<path d="M7.68423 15.325C7.83454 15.6444 7.98486 15.9701 8.12891 16.2895C8.17901 16.4022 8.23538 16.5212 8.25417 16.6402C8.31053 17.016 8.09759 17.3479 7.74686 17.4607C7.38987 17.5734 7.01408 17.4231 6.84498 17.0661C6.60072 16.5713 6.37525 16.064 6.13726 15.563C5.75521 14.7425 5.37317 13.9221 4.99112 13.1016C4.7907 12.6757 4.84707 12.3312 5.1477 12.087C5.44832 11.8427 5.80532 11.8678 6.17484 12.1559C6.53809 12.4377 6.89509 12.7258 7.25834 13.0139C7.31471 13.0577 7.37734 13.1016 7.47755 13.1141C7.32097 12.7759 7.14561 12.4502 7.01408 12.1058C6.94519 11.9241 6.91388 11.7112 6.94519 11.5233C6.99529 11.2227 7.22076 11.041 7.52765 10.9847C7.84081 10.9346 8.09759 11.041 8.27922 11.3041C8.3168 11.3605 8.34811 11.4231 8.37943 11.492C8.98694 12.7947 9.59446 14.0912 10.1957 15.3939C10.3773 15.7822 10.3022 16.1642 10.0141 16.3897C9.72598 16.6152 9.35646 16.5964 9.02452 16.3333C8.59237 15.9951 8.16022 15.6444 7.72181 15.3062C7.70928 15.3124 7.69676 15.3187 7.68423 15.325Z" fill="#D33836"/>
<path d="M10.6963 11.1356C10.8028 11.3611 10.8968 11.574 11.0095 11.8058C11.2162 11.7118 11.4103 11.6241 11.6045 11.5365C12.0554 11.3298 12.4938 11.4676 12.6755 11.8684C12.8571 12.2692 12.6817 12.6763 12.2496 12.8893C12.0617 12.9832 11.8675 13.0646 11.6483 13.1711C11.7548 13.3966 11.8487 13.6095 11.9615 13.8475C12.1869 13.7473 12.3936 13.6471 12.6066 13.5532C13.0325 13.3653 13.4583 13.5093 13.64 13.8976C13.8216 14.2859 13.6525 14.7118 13.2391 14.9122C12.8132 15.1189 12.3811 15.3193 11.9427 15.5135C11.5168 15.7014 11.1034 15.5511 10.903 15.1252C10.2767 13.7912 9.65041 12.4571 9.03663 11.1168C8.83621 10.6784 8.98653 10.2713 9.42494 10.0646C9.85709 9.85797 10.283 9.65755 10.7214 9.46339C11.141 9.2755 11.5732 9.42581 11.7485 9.81412C11.9239 10.1962 11.7673 10.6095 11.3602 10.8162C11.1473 10.9289 10.9281 11.0292 10.6963 11.1356Z" fill="#D33836"/>
</svg>
