<svg width="16" height="16" viewBox="0 0 16 16" fill="none" xmlns="http://www.w3.org/2000/svg">
<g clip-path="url(#clip0_2132_69127)">
<path d="M15.9715 11.5349C15.9598 11.5505 15.9481 11.5661 15.9442 11.5855C15.8621 11.9238 15.6629 12.1687 15.3542 12.3243C13.0216 13.4986 10.6851 14.6728 8.35256 15.851C8.33302 15.8588 8.31349 15.8665 8.27051 15.886C8.2666 15.8277 8.2627 15.781 8.2627 15.7343C8.2627 13.3702 8.2627 11.0061 8.2627 8.64203C8.2627 8.5526 8.27442 8.49039 8.36819 8.44762C9.32545 7.98102 10.2827 7.51053 11.236 7.04393C11.2634 7.03227 11.2907 7.0206 11.3337 7.00505C11.3376 7.06726 11.3415 7.11781 11.3415 7.16447C11.3415 7.62329 11.3415 8.086 11.3415 8.54483C11.3415 8.82867 11.5291 9.02698 11.7948 9.03475C12.0683 9.03864 12.2714 8.84423 12.2754 8.5526C12.2793 7.93825 12.2832 7.32 12.2754 6.70565C12.2754 6.57344 12.3105 6.50734 12.4316 6.44902C13.6116 5.87355 14.7916 5.2903 15.9715 4.71094C15.9715 6.98172 15.9715 9.25639 15.9715 11.5349Z" fill="#4F4F4F"/>
<path d="M0.0312462 4.68359C2.06053 5.73477 4.09372 6.78595 6.12301 7.83712C6.50545 8.03494 6.88789 8.22889 7.26643 8.43447C7.31716 8.46162 7.3718 8.5392 7.3718 8.5935C7.3757 10.9868 7.3757 13.3839 7.3757 15.7772C7.3757 15.7966 7.3718 15.816 7.36399 15.8586C7.30545 15.8315 7.25472 15.8082 7.20789 15.7811C5.09665 14.6717 2.98932 13.5546 0.870278 12.453C0.464421 12.2435 0.136613 11.9914 0.0273438 11.5298C0.0312462 9.24903 0.0312462 6.96437 0.0312462 4.68359Z" fill="#4F4F4F"/>
<path d="M4.49219 1.71875C4.68621 1.61774 4.85306 1.52839 5.01992 1.43903C5.75331 1.05054 6.49059 0.662055 7.22398 0.269682C7.6159 0.0598975 7.99618 0.0560128 8.39198 0.258027C10.6698 1.41572 12.9514 2.56954 15.2331 3.72335C15.3185 3.76608 15.4038 3.82047 15.5009 3.87486C15.4426 3.90594 15.4038 3.92925 15.365 3.94867C14.2591 4.49644 13.1532 5.04033 12.0473 5.59198C11.9619 5.63471 11.8921 5.64248 11.8028 5.59587C9.40476 4.32551 7.0028 3.05515 4.60084 1.78479C4.57368 1.76925 4.54651 1.75371 4.49219 1.71875Z" fill="#4F4F4F"/>
<path d="M10.8976 6.16039C10.8393 6.19146 10.7965 6.21864 10.7538 6.24194C9.82822 6.70015 8.8988 7.15448 7.97327 7.61657C7.88383 7.66317 7.80994 7.66705 7.71661 7.61657C5.36001 6.38562 2.99951 5.16243 0.642908 3.93536C0.604021 3.91594 0.561244 3.89265 0.499023 3.8577C0.57291 3.8111 0.631242 3.77615 0.693463 3.7412C1.59566 3.26358 2.49397 2.78984 3.39617 2.30833C3.47006 2.2695 3.5245 2.25785 3.61005 2.30056C6.00554 3.56646 8.40493 4.83236 10.8004 6.09438C10.8238 6.1138 10.851 6.13321 10.8976 6.16039Z" fill="#4F4F4F"/>
</g>
<defs>
<clipPath id="clip0_2132_69127">
<rect width="16" height="16" fill="white"/>
</clipPath>
</defs>
</svg>
