<svg width="24" height="24" viewBox="0 0 24 24" fill="none" xmlns="http://www.w3.org/2000/svg">
<path d="M4.49923 3.50139L9.5 12.5" stroke="#1D1F20" stroke-width="1.5"/>
<path fill-rule="evenodd" clip-rule="evenodd" d="M4.41246 2.50504C7.66597 0.987905 11.8172 3.00417 13.6844 7.00848C13.7506 7.15053 13.8131 7.29316 13.8719 7.43623C13.5226 7.58657 13.1767 7.75973 12.8366 7.95611C12.7378 8.01315 12.6404 8.07159 12.5445 8.13138C12.4807 7.96836 12.4111 7.80585 12.3357 7.64417C10.8279 4.41065 7.57041 2.73836 5.05994 3.90901C2.54947 5.07967 1.73665 8.64995 3.24447 11.8835C4.37779 14.3139 6.49959 15.8623 8.54968 15.9844C8.65886 16.5114 8.8452 17.0226 9.11336 17.5058C6.33293 17.6248 3.39145 15.6958 1.9024 12.5025C0.0351567 8.4982 1.15895 4.02218 4.41246 2.50504Z" fill="black"/>
<path fill-rule="evenodd" clip-rule="evenodd" d="M19.3361 19.215C23.1624 17.0059 24.8092 12.6948 23.0143 9.58585C21.2193 6.47695 16.6624 5.74755 12.8361 7.95669C9.00973 10.1658 7.36294 14.477 9.15787 17.5859C10.9528 20.6948 15.5097 21.4242 19.3361 19.215ZM18.5827 17.9236C21.691 16.1291 23.0892 12.7318 21.7058 10.3357C20.3224 7.93957 16.6812 7.45189 13.573 9.24643C10.4647 11.041 9.06645 14.4382 10.4499 16.8343C11.8333 19.2305 15.4745 19.7181 18.5827 17.9236Z" fill="black"/>
<path d="M22.3867 9.82031L9.88672 17.8203" stroke="#1D1F20" stroke-width="1.5"/>
</svg>
