<svg width="24" height="24" viewBox="0 0 24 24" fill="none" xmlns="http://www.w3.org/2000/svg">
<path d="M9.96184 8.18743C9.20383 8.76748 7.00051 10.5892 7.00021 12.1667C6.99984 14.1672 7.00005 19.721 7.00016 22.0022C7.00019 22.5545 7.44789 23 8.00016 23H15C15.5523 23 16 22.5556 16 22.0033V12.1667C16 10.5892 13.7964 8.76742 13.0384 8.1874C12.8748 8.06222 12.6752 8 12.4693 8H10.531C10.325 8 10.1254 8.06223 9.96184 8.18743Z" stroke="#1D1F20" stroke-width="1.5"/>
<path d="M12.25 6.25H10.75V5.75H12.25V6.25Z" stroke="#1D1F20" stroke-width="1.5"/>
<path d="M16.8108 4H9.1C9.04477 4 9 3.95523 9 3.9V2.10596C9 2.04846 9.04838 2.0028 9.10578 2.00612L15.86 2.39716C15.8909 2.39895 15.9193 2.41502 15.9368 2.44066L16.8934 3.84367C16.9387 3.91005 16.8911 4 16.8108 4Z" stroke="black" stroke-width="1.5" stroke-linecap="round"/>
<mask id="path-4-inside-1_2871_16625" fill="white">
<path fill-rule="evenodd" clip-rule="evenodd" d="M19.5254 6.98152L18 5L16.4746 6.98152C16.3974 7.06487 16.3282 7.15463 16.2681 7.24981L16.2679 7.25H16.268C16.0976 7.51981 16 7.83312 16 8.16732C16 9.17984 16.8954 10.0007 18 10.0007C19.1046 10.0007 20 9.17984 20 8.16732C20 7.83312 19.9024 7.51981 19.732 7.25H19.7321L19.7319 7.24981C19.6718 7.15463 19.6026 7.06487 19.5254 6.98152Z"/>
</mask>
<path d="M18 5L18.7924 4.39001L18 3.36064L17.2076 4.39001L18 5ZM19.5254 6.98152L18.733 7.59151L18.7607 7.62758L18.7917 7.66098L19.5254 6.98152ZM16.4746 6.98152L17.2083 7.66098L17.2393 7.62758L17.267 7.59151L16.4746 6.98152ZM16.2681 7.24981L17.0605 7.85979L17.0888 7.8231L17.1135 7.78395L16.2681 7.24981ZM16.2679 7.25L15.4755 6.64003L14.2362 8.25H16.2679V7.25ZM16.268 7.25L17.1134 7.78404L18.0824 6.25H16.268V7.25ZM19.732 7.25V6.25H17.9176L18.8866 7.78404L19.732 7.25ZM19.7321 7.25V8.25H21.7646L20.5243 6.63976L19.7321 7.25ZM19.7319 7.24981L18.8865 7.78396L18.9113 7.82324L18.9397 7.86005L19.7319 7.24981ZM17.2076 5.60999L18.733 7.59151L20.3178 6.37152L18.7924 4.39001L17.2076 5.60999ZM17.267 7.59151L18.7924 5.60999L17.2076 4.39001L15.6822 6.37152L17.267 7.59151ZM17.1135 7.78395C17.1402 7.74163 17.1719 7.70038 17.2083 7.66098L15.7409 6.30205C15.623 6.42936 15.5162 6.56763 15.4227 6.71567L17.1135 7.78395ZM17.0604 7.85998L17.0605 7.85979L15.4757 6.63984L15.4755 6.64003L17.0604 7.85998ZM16.268 6.25H16.2679V8.25H16.268V6.25ZM17 8.16732C17 8.03181 17.0387 7.90238 17.1134 7.78404L15.4225 6.71596C15.1564 7.13723 15 7.63443 15 8.16732H17ZM18 9.00065C17.364 9.00065 17 8.54743 17 8.16732H15C15 9.81225 16.4268 11.0007 18 11.0007V9.00065ZM19 8.16732C19 8.54743 18.636 9.00065 18 9.00065V11.0007C19.5732 11.0007 21 9.81225 21 8.16732H19ZM18.8866 7.78404C18.9613 7.90238 19 8.03181 19 8.16732H21C21 7.63443 20.8436 7.13723 20.5775 6.71596L18.8866 7.78404ZM19.7321 6.25H19.732V8.25H19.7321V6.25ZM18.9397 7.86005L18.9398 7.86024L20.5243 6.63976L20.5241 6.63957L18.9397 7.86005ZM18.7917 7.66098C18.8281 7.70038 18.8598 7.74163 18.8865 7.78396L20.5773 6.71566C20.4838 6.56763 20.377 6.42936 20.2591 6.30205L18.7917 7.66098Z" fill="#1D1F20" mask="url(#path-4-inside-1_2871_16625)"/>
</svg>
