<svg width="24" height="24" viewBox="0 0 24 24" fill="none" xmlns="http://www.w3.org/2000/svg">
<g clip-path="url(#clip0_2541_52047)">
<path d="M0 17.2886C0.0204082 17.2476 0.0408201 17.2067 0.0612282 17.1657C0.142861 17.0634 0.204087 16.961 0.285719 16.8791C0.836739 16.3262 1.38776 15.7528 1.95918 15.1999C2.22449 14.9337 2.4898 14.688 2.7551 14.4218C2.79592 14.3809 2.81633 14.3399 2.81633 14.2785C2.81633 14.0737 2.81633 13.8894 2.81633 13.6846C2.83674 13.2751 2.83674 12.8451 2.87755 12.4355C2.89796 12.0874 2.95919 11.7598 3 11.4117C3.02041 11.2479 3.02041 11.1045 3.06122 10.9407C3.10204 10.654 3.16327 10.3878 3.22449 10.1012C3.26531 9.95781 3.28572 9.79399 3.32653 9.65065C3.36735 9.50732 3.38776 9.3435 3.42857 9.20016C3.4898 8.95443 3.57143 8.72919 3.65306 8.50394C3.75511 8.21726 3.83674 7.93058 3.95919 7.66438C4.10204 7.29579 4.26531 6.94768 4.44898 6.59957C4.67347 6.19003 4.91837 5.78049 5.16327 5.39143C5.55102 4.81807 6 4.30615 6.4898 3.85565C6.93878 3.44611 7.44898 3.07752 7.95918 2.74988C8.46939 2.44273 8.97959 2.17653 9.53061 1.9308C9.87755 1.78746 10.2449 1.6646 10.6122 1.54174C10.898 1.43935 11.1837 1.35745 11.4898 1.27554C11.7143 1.21411 11.9388 1.17315 12.1837 1.1322C12.3878 1.09124 12.5918 1.02981 12.7959 1.00933C13 0.96838 13.2041 0.947903 13.4286 0.906949C13.7959 0.865994 14.1837 0.82504 14.551 0.804563C14.7551 0.784086 14.9388 0.763613 15.1429 0.763613C15.5102 0.743136 15.8776 0.743133 16.2449 0.722656C16.4286 0.722656 16.6122 0.722659 16.7959 0.763613C17.0204 0.804567 17.1837 0.968383 17.2857 1.17315C17.3265 1.25506 17.3469 1.35745 17.3469 1.45983C17.3469 2.03319 17.3673 2.58607 17.3469 3.15943C17.3265 3.54849 17.2857 3.93756 17.2449 4.3471C17.2245 4.55187 17.2041 4.75664 17.1633 4.96141C17.1224 5.18666 17.0816 5.39142 17.0408 5.61667C17 5.80097 16.9796 5.98526 16.9388 6.16955C16.898 6.37433 16.8367 6.5791 16.7755 6.78387C16.7347 6.90673 16.6939 7.05007 16.6531 7.17293C16.5714 7.39818 16.5102 7.62342 16.4286 7.86915C16.3265 8.15583 16.2041 8.46299 16.0816 8.74967C15.8571 9.26159 15.6122 9.75304 15.3061 10.224C15.0204 10.695 14.6735 11.1455 14.3265 11.5755C14.2245 11.6984 14.102 11.8212 13.9592 11.9646C14.0204 11.985 14.0408 11.985 14.0816 11.985C14.3061 12.0055 14.5306 12.0055 14.7347 12.026C15.0408 12.0669 15.3469 12.1079 15.6531 12.1489C15.898 12.1898 16.1633 12.2308 16.4082 12.3127C16.6939 12.3946 16.9796 12.4765 17.2653 12.5789C17.449 12.6403 17.6122 12.7017 17.7959 12.7632C18 12.8451 18.2041 12.927 18.3878 13.0089C18.6939 13.1522 18.9796 13.2956 19.2857 13.4594C19.8367 13.7461 20.3673 14.0737 20.8571 14.4423C21.3265 14.7904 21.7959 15.1385 22.2449 15.5276C22.7959 15.9781 23.3265 16.4695 23.7959 17.0224C23.8571 17.1043 23.898 17.2067 23.9592 17.2886C23.9592 17.3091 23.9796 17.3091 24 17.3296C24 17.4524 24 17.5548 24 17.6777C23.9796 17.6981 23.9592 17.6981 23.9592 17.7186C23.9184 17.8005 23.8775 17.9029 23.8163 17.9643C23.3061 18.5582 22.7347 19.0906 22.1428 19.582C21.6939 19.9506 21.2245 20.3192 20.7347 20.6468C20.3061 20.954 19.8571 21.2202 19.4082 21.4864C19.0408 21.6912 18.6531 21.8755 18.2449 22.0597C17.8163 22.244 17.3673 22.4079 16.9388 22.5717C16.6122 22.6741 16.2857 22.756 15.9592 22.8174C15.6122 22.8788 15.2653 22.9403 14.9184 23.0017C14.6939 23.0222 14.4694 23.0427 14.2449 23.0427C13.8776 23.0427 13.4898 23.0222 13.1224 23.0017C13 23.0017 12.8775 22.9812 12.7551 22.9607C12.4082 22.8993 12.0408 22.8174 11.6939 22.7355C11.4082 22.6741 11.102 22.5922 10.8163 22.4898C10.5306 22.3874 10.2653 22.285 10 22.1621C9.57143 21.9778 9.16327 21.7731 8.7551 21.5683C8.38776 21.384 8.04082 21.1588 7.69388 20.9335C7.30612 20.6673 6.91837 20.4011 6.53061 20.1144C6.18367 19.8482 5.87755 19.582 5.55102 19.2953C5.2449 19.0291 4.93878 18.722 4.65306 18.4353C4.51021 18.292 4.38775 18.2305 4.18367 18.2305C3.06122 18.251 1.93877 18.2305 0.816326 18.2305C0.489796 18.2305 0.224495 18.1282 0.0816376 17.821C0.0612295 17.7801 0.0408176 17.7391 0.0204094 17.6981C1.24531e-06 17.5138 0 17.4115 0 17.2886ZM8.44898 8.64728C8.4898 8.60633 8.53061 8.58585 8.55102 8.56537C8.71429 8.40156 8.89796 8.21726 9.06123 8.05345C9.93878 7.17293 10.7959 6.29242 11.6735 5.43238C12.0612 5.04332 12.449 4.65426 12.8367 4.26519C13.0408 4.06042 13.3061 3.99899 13.5714 4.10137C14.0612 4.30614 14.1837 4.8795 13.8163 5.26857C13 6.08765 12.1837 6.90673 11.3673 7.72581C11.3265 7.76677 11.2857 7.82819 11.2449 7.86915C11.2449 7.86915 11.2449 7.88963 11.2653 7.88963C11.3673 7.86915 11.4694 7.84868 11.5714 7.84868C11.7959 7.84868 12.0204 7.8282 12.2449 7.8282C12.3265 7.8282 12.4082 7.84867 12.4898 7.88963C12.8163 8.05344 13.0204 8.46299 12.8163 8.83157C12.6735 9.09777 12.4286 9.22064 12.1429 9.24111C11.7551 9.26159 11.3673 9.28207 10.9796 9.30254C10.9592 9.30254 10.9388 9.30254 10.9184 9.30254C10.551 9.32302 10.1837 9.36398 9.81632 9.38446C9.7551 9.38446 9.69388 9.4254 9.65306 9.46636C9.32653 9.79399 9 10.1011 8.67347 10.4288C8.5102 10.5926 8.34694 10.7564 8.18367 10.9407C8.2653 10.9407 8.32653 10.9407 8.36734 10.9407C8.61224 10.9202 8.87755 10.8998 9.12245 10.8998C9.22449 10.8998 9.32653 10.9202 9.42857 10.9612C9.7551 11.1045 9.91837 11.4526 9.81632 11.7598C9.69388 12.1693 9.44898 12.2717 9.10204 12.3127C8.85714 12.3331 8.61224 12.3536 8.38775 12.3536C8.16326 12.3741 7.95919 12.3741 7.7347 12.3946C7.40817 12.4151 7.08163 12.4355 6.7551 12.456C6.71428 12.456 6.67347 12.4765 6.63265 12.497C6.20408 12.927 5.77551 13.357 5.34694 13.787C5.32653 13.8075 5.30612 13.8485 5.26531 13.8894C5.40816 13.8689 5.55102 13.8689 5.67347 13.8485C6 13.8075 6.30612 13.787 6.63265 13.7461C6.87755 13.7051 7.10204 13.6642 7.34694 13.6232C7.59183 13.5823 7.85714 13.5208 8.10204 13.4594C8.40816 13.3775 8.71428 13.2956 9.02041 13.1932C9.38775 13.0703 9.7551 12.9475 10.102 12.8041C10.4694 12.6403 10.8367 12.456 11.2041 12.2512C11.8571 11.9031 12.4286 11.4526 12.9592 10.9407C13.4082 10.4902 13.7959 9.97829 14.1224 9.44588C14.3878 9.01587 14.6531 8.56537 14.8367 8.0944C15 7.6439 15.1837 7.21388 15.3265 6.74291C15.449 6.37432 15.5306 6.00574 15.6122 5.61667C15.7143 5.1457 15.7959 4.67473 15.8367 4.18328C15.898 3.65087 15.9184 3.098 15.9592 2.56559C15.9592 2.44273 15.9592 2.34035 15.9796 2.21749C15.9796 2.13558 15.9592 2.09462 15.8571 2.09462C15.7347 2.1151 15.6122 2.1151 15.4898 2.1151C15.0204 2.1151 14.5714 2.13558 14.1224 2.21749C13.6122 2.29939 13.1224 2.36082 12.6122 2.46321C12.3061 2.52464 12.0204 2.58607 11.7143 2.66798C11.4286 2.74989 11.1429 2.8318 10.8776 2.93418C10.4082 3.11848 9.91837 3.30277 9.46939 3.52802C8.85715 3.83517 8.28571 4.20376 7.7551 4.63378C7.40816 4.92045 7.08163 5.24809 6.77551 5.5962C6.36735 6.06717 6.04082 6.59957 5.73469 7.15245C5.44898 7.68485 5.22449 8.23774 5.02041 8.79062C4.87755 9.17968 4.77551 9.58923 4.67347 9.99877C4.59184 10.3264 4.51021 10.6745 4.44898 11.0021C4.40817 11.2683 4.36735 11.5345 4.34694 11.8007C4.32653 12.0055 4.28572 12.2103 4.26531 12.3946C4.2449 12.5379 4.26531 12.6813 4.26531 12.8246L4.28571 12.8451C4.42857 12.7017 4.55102 12.5584 4.69388 12.4151C5.42857 11.6779 6.16327 10.9407 6.87755 10.2035C6.91837 10.1626 6.95918 10.1012 6.95918 10.0397C6.97959 9.77352 7 9.50732 7.02041 9.22064C7.04082 8.93396 7.06122 8.66775 7.06122 8.38107C7.08163 7.95106 7.10204 7.52104 7.12245 7.09102C7.12245 6.98864 7.14286 6.88625 7.16326 6.78387C7.2449 6.45623 7.53061 6.27194 7.83674 6.29242C8.20408 6.29242 8.46939 6.53814 8.5102 6.86577C8.55102 7.09102 8.5102 7.31627 8.5102 7.54152C8.4898 7.93058 8.46939 8.27869 8.44898 8.64728ZM6.4898 18.1896C6.51021 18.2101 6.53061 18.2305 6.53061 18.2305C6.87755 18.5172 7.22449 18.8039 7.57143 19.0701C7.97959 19.3568 8.38775 19.6435 8.79592 19.9097C9.02041 20.053 9.24489 20.1759 9.48979 20.2987C9.83673 20.483 10.1837 20.6468 10.5306 20.8107C10.7755 20.913 11.0408 21.0154 11.3061 21.0973C11.551 21.1792 11.7959 21.2407 12.0408 21.3021C12.3061 21.3635 12.551 21.4454 12.8163 21.4864C13.1429 21.5273 13.4898 21.5683 13.8163 21.5683C14.1429 21.5683 14.4898 21.5478 14.8163 21.5273C14.8367 21.5273 14.8367 21.5273 14.8571 21.5273C15.102 21.4864 15.3673 21.4454 15.6122 21.384C15.898 21.3226 16.1633 21.2611 16.449 21.1792C16.7755 21.0769 17.102 20.954 17.4286 20.8107C17.7959 20.6468 18.1633 20.483 18.5102 20.2987C18.7755 20.1759 19 20.0121 19.2653 19.8687C19.7755 19.582 20.2449 19.2339 20.7143 18.8653C21.0816 18.5787 21.4286 18.2715 21.7959 17.9643C21.9796 17.8005 22.1633 17.6162 22.3673 17.4115C21.8776 17.0019 21.4286 16.5719 20.9388 16.1828C20.3673 15.7119 19.7551 15.2818 19.102 14.8928C18.6327 14.6061 18.1428 14.3399 17.6122 14.1351C17.2041 13.9713 16.7755 13.828 16.3469 13.7051C16.0408 13.6027 15.7347 13.5413 15.4286 13.4799C15.1633 13.4389 14.898 13.398 14.6122 13.398C14.1429 13.398 13.6939 13.4184 13.2245 13.4184C13.0612 13.4184 12.9184 13.4594 12.7551 13.4594C12.6326 13.4799 12.5102 13.4799 12.3878 13.5208C12.1633 13.5823 11.9388 13.6437 11.7143 13.7051C11.449 13.787 11.1633 13.8485 10.898 13.9508C10.5306 14.0942 10.1837 14.2375 9.83673 14.4218C9.26531 14.7085 8.73469 15.0156 8.22449 15.3842C7.65306 15.7733 7.12245 16.2033 6.59184 16.6538C6.57143 16.6743 6.55102 16.6948 6.51021 16.7357C6.57143 16.7357 6.59183 16.7562 6.63265 16.7562C7.81632 16.7562 9.0204 16.7562 10.2041 16.7562C10.2653 16.7562 10.3469 16.7152 10.3878 16.6743C11.102 16.019 11.8367 15.3638 12.551 14.7085C12.7551 14.5242 12.9796 14.3809 13.2857 14.4423C13.5714 14.5037 13.7959 14.7699 13.8163 15.0361C13.8367 15.3228 13.7143 15.548 13.5102 15.7119C13.1837 16.019 12.8367 16.3057 12.5102 16.6129C12.4898 16.6333 12.449 16.6743 12.4082 16.7357C12.4898 16.7357 12.5306 16.7357 12.5714 16.7357C14.5306 16.7357 16.4898 16.7357 18.449 16.7357C18.5714 16.7357 18.7143 16.7357 18.8163 16.7767C19.0204 16.8381 19.1633 17.0019 19.2245 17.2067C19.3265 17.4524 19.2245 17.821 19.0204 17.9848C18.8571 18.1077 18.6735 18.1486 18.4694 18.1486C17.3469 18.1486 16.2245 18.1486 15.102 18.1486C15.0612 18.1486 15 18.1691 14.9592 18.1691C15.1633 18.3739 15.3673 18.5582 15.551 18.7425C15.8367 18.9882 15.8776 19.3568 15.7347 19.623C15.5102 20.0325 15 20.1349 14.6327 19.8073C14.0408 19.2749 13.449 18.763 12.8367 18.2305C12.7959 18.1896 12.7143 18.1691 12.6531 18.1691C12.0204 18.1691 11.3878 18.1691 10.7551 18.1691C10.7143 18.1691 10.6735 18.1896 10.6122 18.1896C10.7347 18.292 10.8367 18.3739 10.9184 18.4763C11.0204 18.5582 11.1224 18.6606 11.2245 18.7425C11.5306 18.9882 11.551 19.3977 11.4082 19.6435C11.1837 20.0325 10.6939 20.1554 10.3265 19.8278C10.102 19.6435 9.87755 19.4387 9.65306 19.2339C9.28572 18.9063 8.91837 18.5787 8.53061 18.251C8.46939 18.2101 8.38776 18.1691 8.32653 18.1691C7.7551 18.1691 7.16327 18.1691 6.59184 18.1691C6.59184 18.1691 6.55102 18.1896 6.4898 18.1896ZM5.97959 15.3023V15.2818C5.93878 15.2818 5.89796 15.2818 5.87755 15.2818C5.67347 15.3023 5.4898 15.3228 5.28572 15.3228C4.83674 15.3433 4.36735 15.3433 3.91837 15.3433C3.83674 15.3433 3.79592 15.3638 3.75511 15.4252C3.46939 15.7323 3.16327 16.019 2.87755 16.3262C2.73469 16.4695 2.61224 16.6129 2.44898 16.7562C2.4898 16.7562 2.53061 16.7767 2.57143 16.7767C3.16327 16.7767 3.75511 16.7767 4.36735 16.7767C4.42858 16.7767 4.4898 16.7357 4.55102 16.6948C4.81633 16.449 5.06122 16.1828 5.32653 15.9371C5.5102 15.7119 5.7347 15.5071 5.97959 15.3023Z" fill="#1D1F20"/>
</g>
<defs>
<clipPath id="clip0_2541_52047">
<rect width="24" height="24" fill="white"/>
</clipPath>
</defs>
</svg>
