<svg width="12" height="12" viewBox="0 0 12 12" fill="none" xmlns="http://www.w3.org/2000/svg">
<path fill-rule="evenodd" clip-rule="evenodd" d="M1.90909 5.09091C1.90909 3.33364 3.33364 1.90909 5.09091 1.90909C6.84819 1.90909 8.27274 3.33364 8.27274 5.09091C8.27274 5.96969 7.9171 6.76451 7.34078 7.34078C6.76451 7.9171 5.96969 8.27274 5.09091 8.27274C3.33364 8.27274 1.90909 6.84819 1.90909 5.09091ZM5.09091 1C2.83157 1 1 2.83157 1 5.09091C1 7.35028 2.83157 9.18183 5.09091 9.18183C6.05664 9.18183 6.94473 8.84674 7.64437 8.28724L10.2241 10.8669C10.4016 11.0444 10.6894 11.0444 10.8669 10.8669C11.0444 10.6894 11.0444 10.4016 10.8669 10.2241L8.28724 7.64437C8.84674 6.94473 9.18183 6.05664 9.18183 5.09091C9.18183 2.83157 7.35028 1 5.09091 1ZM5.0918 2.93253C5.28008 2.93253 5.43271 3.08516 5.43271 3.27344V4.74893H6.90981C7.09808 4.74893 7.25071 4.90156 7.25071 5.08984C7.25071 5.27812 7.09808 5.43075 6.90981 5.43075H5.43271V6.90981C5.43271 7.09808 5.28008 7.25071 5.0918 7.25071C4.90352 7.25071 4.75089 7.09808 4.75089 6.90981V5.43075H3.27344C3.08516 5.43075 2.93253 5.27812 2.93253 5.08984C2.93253 4.90156 3.08516 4.74893 3.27344 4.74893H4.75089V3.27344C4.75089 3.08516 4.90352 2.93253 5.0918 2.93253Z" fill="black"/>
</svg>
